<?xml version="1.0" encoding="utf-8" standalone="no"?>
<!DOCTYPE svg PUBLIC "-//W3C//DTD SVG 1.1//EN"
  "http://www.w3.org/Graphics/SVG/1.1/DTD/svg11.dtd">
<svg xmlns:xlink="http://www.w3.org/1999/xlink" width="460.8pt" height="345.6pt" viewBox="0 0 460.8 345.6" xmlns="http://www.w3.org/2000/svg" version="1.1">
 <metadata>
  <rdf:RDF xmlns:dc="http://purl.org/dc/elements/1.1/" xmlns:cc="http://creativecommons.org/ns#" xmlns:rdf="http://www.w3.org/1999/02/22-rdf-syntax-ns#">
   <cc:Work>
    <dc:type rdf:resource="http://purl.org/dc/dcmitype/StillImage"/>
    <dc:date>2025-05-24T19:47:18.999440</dc:date>
    <dc:format>image/svg+xml</dc:format>
    <dc:creator>
     <cc:Agent>
      <dc:title>Matplotlib v3.10.1, https://matplotlib.org/</dc:title>
     </cc:Agent>
    </dc:creator>
   </cc:Work>
  </rdf:RDF>
 </metadata>
 <defs>
  <style type="text/css">*{stroke-linejoin: round; stroke-linecap: butt}</style>
 </defs>
 <g id="figure_1">
  <g id="patch_1">
   <path d="M 0 345.6 
L 460.8 345.6 
L 460.8 0 
L 0 0 
z
" style="fill: #ffffff"/>
  </g>
  <g id="axes_1">
   <g id="patch_2">
    <path d="M 57.6 307.584 
L 414.72 307.584 
L 414.72 41.472 
L 57.6 41.472 
z
" style="fill: #ffffff"/>
   </g>
   <g id="matplotlib.axis_1">
    <g id="xtick_1">
     <g id="line2d_1">
      <defs>
       <path id="m95d0177d6a" d="M 0 0 
L 0 3.5 
" style="stroke: #000000; stroke-width: 0.8"/>
      </defs>
      <g>
       <use xlink:href="#m95d0177d6a" x="57.6" y="307.584" style="stroke: #000000; stroke-width: 0.8"/>
      </g>
     </g>
    </g>
    <g id="xtick_2">
     <g id="line2d_2">
      <g>
       <use xlink:href="#m95d0177d6a" x="98.128677" y="307.584" style="stroke: #000000; stroke-width: 0.8"/>
      </g>
     </g>
     <g id="text_1">
      <!-- 2004 -->
      <g transform="translate(85.403677 322.182437) scale(0.1 -0.1)">
       <defs>
        <path id="DejaVuSans-32" d="M 1228 531 
L 3431 531 
L 3431 0 
L 469 0 
L 469 531 
Q 828 903 1448 1529 
Q 2069 2156 2228 2338 
Q 2531 2678 2651 2914 
Q 2772 3150 2772 3378 
Q 2772 3750 2511 3984 
Q 2250 4219 1831 4219 
Q 1534 4219 1204 4116 
Q 875 4013 500 3803 
L 500 4441 
Q 881 4594 1212 4672 
Q 1544 4750 1819 4750 
Q 2544 4750 2975 4387 
Q 3406 4025 3406 3419 
Q 3406 3131 3298 2873 
Q 3191 2616 2906 2266 
Q 2828 2175 2409 1742 
Q 1991 1309 1228 531 
z
" transform="scale(0.015625)"/>
        <path id="DejaVuSans-30" d="M 2034 4250 
Q 1547 4250 1301 3770 
Q 1056 3291 1056 2328 
Q 1056 1369 1301 889 
Q 1547 409 2034 409 
Q 2525 409 2770 889 
Q 3016 1369 3016 2328 
Q 3016 3291 2770 3770 
Q 2525 4250 2034 4250 
z
M 2034 4750 
Q 2819 4750 3233 4129 
Q 3647 3509 3647 2328 
Q 3647 1150 3233 529 
Q 2819 -91 2034 -91 
Q 1250 -91 836 529 
Q 422 1150 422 2328 
Q 422 3509 836 4129 
Q 1250 4750 2034 4750 
z
" transform="scale(0.015625)"/>
        <path id="DejaVuSans-34" d="M 2419 4116 
L 825 1625 
L 2419 1625 
L 2419 4116 
z
M 2253 4666 
L 3047 4666 
L 3047 1625 
L 3713 1625 
L 3713 1100 
L 3047 1100 
L 3047 0 
L 2419 0 
L 2419 1100 
L 313 1100 
L 313 1709 
L 2253 4666 
z
" transform="scale(0.015625)"/>
       </defs>
       <use xlink:href="#DejaVuSans-32"/>
       <use xlink:href="#DejaVuSans-30" transform="translate(63.623047 0)"/>
       <use xlink:href="#DejaVuSans-30" transform="translate(127.246094 0)"/>
       <use xlink:href="#DejaVuSans-34" transform="translate(190.869141 0)"/>
      </g>
     </g>
    </g>
    <g id="xtick_3">
     <g id="line2d_3">
      <g>
       <use xlink:href="#m95d0177d6a" x="138.969114" y="307.584" style="stroke: #000000; stroke-width: 0.8"/>
      </g>
     </g>
     <g id="text_2">
      <!-- 2005 -->
      <g transform="translate(126.244114 322.182437) scale(0.1 -0.1)">
       <defs>
        <path id="DejaVuSans-35" d="M 691 4666 
L 3169 4666 
L 3169 4134 
L 1269 4134 
L 1269 2991 
Q 1406 3038 1543 3061 
Q 1681 3084 1819 3084 
Q 2600 3084 3056 2656 
Q 3513 2228 3513 1497 
Q 3513 744 3044 326 
Q 2575 -91 1722 -91 
Q 1428 -91 1123 -41 
Q 819 9 494 109 
L 494 744 
Q 775 591 1075 516 
Q 1375 441 1709 441 
Q 2250 441 2565 725 
Q 2881 1009 2881 1497 
Q 2881 1984 2565 2268 
Q 2250 2553 1709 2553 
Q 1456 2553 1204 2497 
Q 953 2441 691 2322 
L 691 4666 
z
" transform="scale(0.015625)"/>
       </defs>
       <use xlink:href="#DejaVuSans-32"/>
       <use xlink:href="#DejaVuSans-30" transform="translate(63.623047 0)"/>
       <use xlink:href="#DejaVuSans-30" transform="translate(127.246094 0)"/>
       <use xlink:href="#DejaVuSans-35" transform="translate(190.869141 0)"/>
      </g>
     </g>
    </g>
    <g id="xtick_4">
     <g id="line2d_4">
      <g>
       <use xlink:href="#m95d0177d6a" x="179.497791" y="307.584" style="stroke: #000000; stroke-width: 0.8"/>
      </g>
     </g>
     <g id="text_3">
      <!-- 2006 -->
      <g transform="translate(166.772791 322.182437) scale(0.1 -0.1)">
       <defs>
        <path id="DejaVuSans-36" d="M 2113 2584 
Q 1688 2584 1439 2293 
Q 1191 2003 1191 1497 
Q 1191 994 1439 701 
Q 1688 409 2113 409 
Q 2538 409 2786 701 
Q 3034 994 3034 1497 
Q 3034 2003 2786 2293 
Q 2538 2584 2113 2584 
z
M 3366 4563 
L 3366 3988 
Q 3128 4100 2886 4159 
Q 2644 4219 2406 4219 
Q 1781 4219 1451 3797 
Q 1122 3375 1075 2522 
Q 1259 2794 1537 2939 
Q 1816 3084 2150 3084 
Q 2853 3084 3261 2657 
Q 3669 2231 3669 1497 
Q 3669 778 3244 343 
Q 2819 -91 2113 -91 
Q 1303 -91 875 529 
Q 447 1150 447 2328 
Q 447 3434 972 4092 
Q 1497 4750 2381 4750 
Q 2619 4750 2861 4703 
Q 3103 4656 3366 4563 
z
" transform="scale(0.015625)"/>
       </defs>
       <use xlink:href="#DejaVuSans-32"/>
       <use xlink:href="#DejaVuSans-30" transform="translate(63.623047 0)"/>
       <use xlink:href="#DejaVuSans-30" transform="translate(127.246094 0)"/>
       <use xlink:href="#DejaVuSans-36" transform="translate(190.869141 0)"/>
      </g>
     </g>
    </g>
    <g id="xtick_5">
     <g id="line2d_5">
      <g>
       <use xlink:href="#m95d0177d6a" x="220.026469" y="307.584" style="stroke: #000000; stroke-width: 0.8"/>
      </g>
     </g>
     <g id="text_4">
      <!-- 2007 -->
      <g transform="translate(207.301469 322.182437) scale(0.1 -0.1)">
       <defs>
        <path id="DejaVuSans-37" d="M 525 4666 
L 3525 4666 
L 3525 4397 
L 1831 0 
L 1172 0 
L 2766 4134 
L 525 4134 
L 525 4666 
z
" transform="scale(0.015625)"/>
       </defs>
       <use xlink:href="#DejaVuSans-32"/>
       <use xlink:href="#DejaVuSans-30" transform="translate(63.623047 0)"/>
       <use xlink:href="#DejaVuSans-30" transform="translate(127.246094 0)"/>
       <use xlink:href="#DejaVuSans-37" transform="translate(190.869141 0)"/>
      </g>
     </g>
    </g>
    <g id="xtick_6">
     <g id="line2d_6">
      <g>
       <use xlink:href="#m95d0177d6a" x="260.711026" y="307.584" style="stroke: #000000; stroke-width: 0.8"/>
      </g>
     </g>
     <g id="text_5">
      <!-- 2008 -->
      <g transform="translate(247.986026 322.182437) scale(0.1 -0.1)">
       <defs>
        <path id="DejaVuSans-38" d="M 2034 2216 
Q 1584 2216 1326 1975 
Q 1069 1734 1069 1313 
Q 1069 891 1326 650 
Q 1584 409 2034 409 
Q 2484 409 2743 651 
Q 3003 894 3003 1313 
Q 3003 1734 2745 1975 
Q 2488 2216 2034 2216 
z
M 1403 2484 
Q 997 2584 770 2862 
Q 544 3141 544 3541 
Q 544 4100 942 4425 
Q 1341 4750 2034 4750 
Q 2731 4750 3128 4425 
Q 3525 4100 3525 3541 
Q 3525 3141 3298 2862 
Q 3072 2584 2669 2484 
Q 3125 2378 3379 2068 
Q 3634 1759 3634 1313 
Q 3634 634 3220 271 
Q 2806 -91 2034 -91 
Q 1263 -91 848 271 
Q 434 634 434 1313 
Q 434 1759 690 2068 
Q 947 2378 1403 2484 
z
M 1172 3481 
Q 1172 3119 1398 2916 
Q 1625 2713 2034 2713 
Q 2441 2713 2670 2916 
Q 2900 3119 2900 3481 
Q 2900 3844 2670 4047 
Q 2441 4250 2034 4250 
Q 1625 4250 1398 4047 
Q 1172 3844 1172 3481 
z
" transform="scale(0.015625)"/>
       </defs>
       <use xlink:href="#DejaVuSans-32"/>
       <use xlink:href="#DejaVuSans-30" transform="translate(63.623047 0)"/>
       <use xlink:href="#DejaVuSans-30" transform="translate(127.246094 0)"/>
       <use xlink:href="#DejaVuSans-38" transform="translate(190.869141 0)"/>
      </g>
     </g>
    </g>
    <g id="xtick_7">
     <g id="line2d_7">
      <g>
       <use xlink:href="#m95d0177d6a" x="301.551462" y="307.584" style="stroke: #000000; stroke-width: 0.8"/>
      </g>
     </g>
     <g id="text_6">
      <!-- 2009 -->
      <g transform="translate(288.826462 322.182437) scale(0.1 -0.1)">
       <defs>
        <path id="DejaVuSans-39" d="M 703 97 
L 703 672 
Q 941 559 1184 500 
Q 1428 441 1663 441 
Q 2288 441 2617 861 
Q 2947 1281 2994 2138 
Q 2813 1869 2534 1725 
Q 2256 1581 1919 1581 
Q 1219 1581 811 2004 
Q 403 2428 403 3163 
Q 403 3881 828 4315 
Q 1253 4750 1959 4750 
Q 2769 4750 3195 4129 
Q 3622 3509 3622 2328 
Q 3622 1225 3098 567 
Q 2575 -91 1691 -91 
Q 1453 -91 1209 -44 
Q 966 3 703 97 
z
M 1959 2075 
Q 2384 2075 2632 2365 
Q 2881 2656 2881 3163 
Q 2881 3666 2632 3958 
Q 2384 4250 1959 4250 
Q 1534 4250 1286 3958 
Q 1038 3666 1038 3163 
Q 1038 2656 1286 2365 
Q 1534 2075 1959 2075 
z
" transform="scale(0.015625)"/>
       </defs>
       <use xlink:href="#DejaVuSans-32"/>
       <use xlink:href="#DejaVuSans-30" transform="translate(63.623047 0)"/>
       <use xlink:href="#DejaVuSans-30" transform="translate(127.246094 0)"/>
       <use xlink:href="#DejaVuSans-39" transform="translate(190.869141 0)"/>
      </g>
     </g>
    </g>
    <g id="xtick_8">
     <g id="line2d_8">
      <g>
       <use xlink:href="#m95d0177d6a" x="342.236019" y="307.584" style="stroke: #000000; stroke-width: 0.8"/>
      </g>
     </g>
     <g id="text_7">
      <!-- 2010 -->
      <g transform="translate(329.511019 322.182437) scale(0.1 -0.1)">
       <defs>
        <path id="DejaVuSans-31" d="M 794 531 
L 1825 531 
L 1825 4091 
L 703 3866 
L 703 4441 
L 1819 4666 
L 2450 4666 
L 2450 531 
L 3481 531 
L 3481 0 
L 794 0 
L 794 531 
z
" transform="scale(0.015625)"/>
       </defs>
       <use xlink:href="#DejaVuSans-32"/>
       <use xlink:href="#DejaVuSans-30" transform="translate(63.623047 0)"/>
       <use xlink:href="#DejaVuSans-31" transform="translate(127.246094 0)"/>
       <use xlink:href="#DejaVuSans-30" transform="translate(190.869141 0)"/>
      </g>
     </g>
    </g>
    <g id="xtick_9">
     <g id="line2d_9">
      <g>
       <use xlink:href="#m95d0177d6a" x="382.920576" y="307.584" style="stroke: #000000; stroke-width: 0.8"/>
      </g>
     </g>
     <g id="text_8">
      <!-- 2011 -->
      <g transform="translate(370.195576 322.182437) scale(0.1 -0.1)">
       <use xlink:href="#DejaVuSans-32"/>
       <use xlink:href="#DejaVuSans-30" transform="translate(63.623047 0)"/>
       <use xlink:href="#DejaVuSans-31" transform="translate(127.246094 0)"/>
       <use xlink:href="#DejaVuSans-31" transform="translate(190.869141 0)"/>
      </g>
     </g>
    </g>
    <g id="xtick_10">
     <g id="line2d_10">
      <g>
       <use xlink:href="#m95d0177d6a" x="414.72" y="307.584" style="stroke: #000000; stroke-width: 0.8"/>
      </g>
     </g>
    </g>
    <g id="xtick_11">
     <g id="line2d_11">
      <defs>
       <path id="m0d0c3e5a53" d="M 0 0 
L 0 2 
" style="stroke: #000000; stroke-width: 0.6"/>
      </defs>
      <g>
       <use xlink:href="#m0d0c3e5a53" x="67.42041" y="307.584" style="stroke: #000000; stroke-width: 0.6"/>
      </g>
     </g>
    </g>
    <g id="xtick_12">
     <g id="line2d_12">
      <g>
       <use xlink:href="#m0d0c3e5a53" x="77.55258" y="307.584" style="stroke: #000000; stroke-width: 0.6"/>
      </g>
     </g>
    </g>
    <g id="xtick_13">
     <g id="line2d_13">
      <g>
       <use xlink:href="#m0d0c3e5a53" x="87.840629" y="307.584" style="stroke: #000000; stroke-width: 0.6"/>
      </g>
     </g>
    </g>
    <g id="xtick_14">
     <g id="line2d_14">
      <g>
       <use xlink:href="#m0d0c3e5a53" x="108.260847" y="307.584" style="stroke: #000000; stroke-width: 0.6"/>
      </g>
     </g>
    </g>
    <g id="xtick_15">
     <g id="line2d_15">
      <g>
       <use xlink:href="#m0d0c3e5a53" x="118.393016" y="307.584" style="stroke: #000000; stroke-width: 0.6"/>
      </g>
     </g>
    </g>
    <g id="xtick_16">
     <g id="line2d_16">
      <g>
       <use xlink:href="#m0d0c3e5a53" x="128.681065" y="307.584" style="stroke: #000000; stroke-width: 0.6"/>
      </g>
     </g>
    </g>
    <g id="xtick_17">
     <g id="line2d_17">
      <g>
       <use xlink:href="#m0d0c3e5a53" x="148.945404" y="307.584" style="stroke: #000000; stroke-width: 0.6"/>
      </g>
     </g>
    </g>
    <g id="xtick_18">
     <g id="line2d_18">
      <g>
       <use xlink:href="#m0d0c3e5a53" x="159.077573" y="307.584" style="stroke: #000000; stroke-width: 0.6"/>
      </g>
     </g>
    </g>
    <g id="xtick_19">
     <g id="line2d_19">
      <g>
       <use xlink:href="#m0d0c3e5a53" x="169.365622" y="307.584" style="stroke: #000000; stroke-width: 0.6"/>
      </g>
     </g>
    </g>
    <g id="xtick_20">
     <g id="line2d_20">
      <g>
       <use xlink:href="#m0d0c3e5a53" x="189.629961" y="307.584" style="stroke: #000000; stroke-width: 0.6"/>
      </g>
     </g>
    </g>
    <g id="xtick_21">
     <g id="line2d_21">
      <g>
       <use xlink:href="#m0d0c3e5a53" x="199.76213" y="307.584" style="stroke: #000000; stroke-width: 0.6"/>
      </g>
     </g>
    </g>
    <g id="xtick_22">
     <g id="line2d_22">
      <g>
       <use xlink:href="#m0d0c3e5a53" x="209.894299" y="307.584" style="stroke: #000000; stroke-width: 0.6"/>
      </g>
     </g>
    </g>
    <g id="xtick_23">
     <g id="line2d_23">
      <g>
       <use xlink:href="#m0d0c3e5a53" x="230.158638" y="307.584" style="stroke: #000000; stroke-width: 0.6"/>
      </g>
     </g>
    </g>
    <g id="xtick_24">
     <g id="line2d_24">
      <g>
       <use xlink:href="#m0d0c3e5a53" x="240.290808" y="307.584" style="stroke: #000000; stroke-width: 0.6"/>
      </g>
     </g>
    </g>
    <g id="xtick_25">
     <g id="line2d_25">
      <g>
       <use xlink:href="#m0d0c3e5a53" x="250.422977" y="307.584" style="stroke: #000000; stroke-width: 0.6"/>
      </g>
     </g>
    </g>
    <g id="xtick_26">
     <g id="line2d_26">
      <g>
       <use xlink:href="#m0d0c3e5a53" x="270.843195" y="307.584" style="stroke: #000000; stroke-width: 0.6"/>
      </g>
     </g>
    </g>
    <g id="xtick_27">
     <g id="line2d_27">
      <g>
       <use xlink:href="#m0d0c3e5a53" x="280.975364" y="307.584" style="stroke: #000000; stroke-width: 0.6"/>
      </g>
     </g>
    </g>
    <g id="xtick_28">
     <g id="line2d_28">
      <g>
       <use xlink:href="#m0d0c3e5a53" x="291.263413" y="307.584" style="stroke: #000000; stroke-width: 0.6"/>
      </g>
     </g>
    </g>
    <g id="xtick_29">
     <g id="line2d_29">
      <g>
       <use xlink:href="#m0d0c3e5a53" x="311.527752" y="307.584" style="stroke: #000000; stroke-width: 0.6"/>
      </g>
     </g>
    </g>
    <g id="xtick_30">
     <g id="line2d_30">
      <g>
       <use xlink:href="#m0d0c3e5a53" x="321.659921" y="307.584" style="stroke: #000000; stroke-width: 0.6"/>
      </g>
     </g>
    </g>
    <g id="xtick_31">
     <g id="line2d_31">
      <g>
       <use xlink:href="#m0d0c3e5a53" x="331.94797" y="307.584" style="stroke: #000000; stroke-width: 0.6"/>
      </g>
     </g>
    </g>
    <g id="xtick_32">
     <g id="line2d_32">
      <g>
       <use xlink:href="#m0d0c3e5a53" x="352.212309" y="307.584" style="stroke: #000000; stroke-width: 0.6"/>
      </g>
     </g>
    </g>
    <g id="xtick_33">
     <g id="line2d_33">
      <g>
       <use xlink:href="#m0d0c3e5a53" x="362.344478" y="307.584" style="stroke: #000000; stroke-width: 0.6"/>
      </g>
     </g>
    </g>
    <g id="xtick_34">
     <g id="line2d_34">
      <g>
       <use xlink:href="#m0d0c3e5a53" x="372.632527" y="307.584" style="stroke: #000000; stroke-width: 0.6"/>
      </g>
     </g>
    </g>
    <g id="xtick_35">
     <g id="line2d_35">
      <g>
       <use xlink:href="#m0d0c3e5a53" x="392.896866" y="307.584" style="stroke: #000000; stroke-width: 0.6"/>
      </g>
     </g>
    </g>
    <g id="xtick_36">
     <g id="line2d_36">
      <g>
       <use xlink:href="#m0d0c3e5a53" x="403.029035" y="307.584" style="stroke: #000000; stroke-width: 0.6"/>
      </g>
     </g>
    </g>
    <g id="xtick_37">
     <g id="line2d_37">
      <g>
       <use xlink:href="#m0d0c3e5a53" x="413.317084" y="307.584" style="stroke: #000000; stroke-width: 0.6"/>
      </g>
     </g>
    </g>
   </g>
   <g id="matplotlib.axis_2">
    <g id="ytick_1">
     <g id="line2d_38">
      <defs>
       <path id="medaa1952f5" d="M 0 0 
L -3.5 0 
" style="stroke: #000000; stroke-width: 0.8"/>
      </defs>
      <g>
       <use xlink:href="#medaa1952f5" x="57.6" y="289.219086" style="stroke: #000000; stroke-width: 0.8"/>
      </g>
     </g>
     <g id="text_9">
      <!-- 0.2 -->
      <g transform="translate(34.696875 293.018305) scale(0.1 -0.1)">
       <defs>
        <path id="DejaVuSans-2e" d="M 684 794 
L 1344 794 
L 1344 0 
L 684 0 
L 684 794 
z
" transform="scale(0.015625)"/>
       </defs>
       <use xlink:href="#DejaVuSans-30"/>
       <use xlink:href="#DejaVuSans-2e" transform="translate(63.623047 0)"/>
       <use xlink:href="#DejaVuSans-32" transform="translate(95.410156 0)"/>
      </g>
     </g>
    </g>
    <g id="ytick_2">
     <g id="line2d_39">
      <g>
       <use xlink:href="#medaa1952f5" x="57.6" y="250.123262" style="stroke: #000000; stroke-width: 0.8"/>
      </g>
     </g>
     <g id="text_10">
      <!-- 0.3 -->
      <g transform="translate(34.696875 253.922481) scale(0.1 -0.1)">
       <defs>
        <path id="DejaVuSans-33" d="M 2597 2516 
Q 3050 2419 3304 2112 
Q 3559 1806 3559 1356 
Q 3559 666 3084 287 
Q 2609 -91 1734 -91 
Q 1441 -91 1130 -33 
Q 819 25 488 141 
L 488 750 
Q 750 597 1062 519 
Q 1375 441 1716 441 
Q 2309 441 2620 675 
Q 2931 909 2931 1356 
Q 2931 1769 2642 2001 
Q 2353 2234 1838 2234 
L 1294 2234 
L 1294 2753 
L 1863 2753 
Q 2328 2753 2575 2939 
Q 2822 3125 2822 3475 
Q 2822 3834 2567 4026 
Q 2313 4219 1838 4219 
Q 1578 4219 1281 4162 
Q 984 4106 628 3988 
L 628 4550 
Q 988 4650 1302 4700 
Q 1616 4750 1894 4750 
Q 2613 4750 3031 4423 
Q 3450 4097 3450 3541 
Q 3450 3153 3228 2886 
Q 3006 2619 2597 2516 
z
" transform="scale(0.015625)"/>
       </defs>
       <use xlink:href="#DejaVuSans-30"/>
       <use xlink:href="#DejaVuSans-2e" transform="translate(63.623047 0)"/>
       <use xlink:href="#DejaVuSans-33" transform="translate(95.410156 0)"/>
      </g>
     </g>
    </g>
    <g id="ytick_3">
     <g id="line2d_40">
      <g>
       <use xlink:href="#medaa1952f5" x="57.6" y="211.027438" style="stroke: #000000; stroke-width: 0.8"/>
      </g>
     </g>
     <g id="text_11">
      <!-- 0.4 -->
      <g transform="translate(34.696875 214.826656) scale(0.1 -0.1)">
       <use xlink:href="#DejaVuSans-30"/>
       <use xlink:href="#DejaVuSans-2e" transform="translate(63.623047 0)"/>
       <use xlink:href="#DejaVuSans-34" transform="translate(95.410156 0)"/>
      </g>
     </g>
    </g>
    <g id="ytick_4">
     <g id="line2d_41">
      <g>
       <use xlink:href="#medaa1952f5" x="57.6" y="171.931613" style="stroke: #000000; stroke-width: 0.8"/>
      </g>
     </g>
     <g id="text_12">
      <!-- 0.5 -->
      <g transform="translate(34.696875 175.730832) scale(0.1 -0.1)">
       <use xlink:href="#DejaVuSans-30"/>
       <use xlink:href="#DejaVuSans-2e" transform="translate(63.623047 0)"/>
       <use xlink:href="#DejaVuSans-35" transform="translate(95.410156 0)"/>
      </g>
     </g>
    </g>
    <g id="ytick_5">
     <g id="line2d_42">
      <g>
       <use xlink:href="#medaa1952f5" x="57.6" y="132.835789" style="stroke: #000000; stroke-width: 0.8"/>
      </g>
     </g>
     <g id="text_13">
      <!-- 0.6 -->
      <g transform="translate(34.696875 136.635008) scale(0.1 -0.1)">
       <use xlink:href="#DejaVuSans-30"/>
       <use xlink:href="#DejaVuSans-2e" transform="translate(63.623047 0)"/>
       <use xlink:href="#DejaVuSans-36" transform="translate(95.410156 0)"/>
      </g>
     </g>
    </g>
    <g id="ytick_6">
     <g id="line2d_43">
      <g>
       <use xlink:href="#medaa1952f5" x="57.6" y="93.739965" style="stroke: #000000; stroke-width: 0.8"/>
      </g>
     </g>
     <g id="text_14">
      <!-- 0.7 -->
      <g transform="translate(34.696875 97.539184) scale(0.1 -0.1)">
       <use xlink:href="#DejaVuSans-30"/>
       <use xlink:href="#DejaVuSans-2e" transform="translate(63.623047 0)"/>
       <use xlink:href="#DejaVuSans-37" transform="translate(95.410156 0)"/>
      </g>
     </g>
    </g>
    <g id="ytick_7">
     <g id="line2d_44">
      <g>
       <use xlink:href="#medaa1952f5" x="57.6" y="54.644141" style="stroke: #000000; stroke-width: 0.8"/>
      </g>
     </g>
     <g id="text_15">
      <!-- 0.8 -->
      <g transform="translate(34.696875 58.443359) scale(0.1 -0.1)">
       <use xlink:href="#DejaVuSans-30"/>
       <use xlink:href="#DejaVuSans-2e" transform="translate(63.623047 0)"/>
       <use xlink:href="#DejaVuSans-38" transform="translate(95.410156 0)"/>
      </g>
     </g>
    </g>
   </g>
   <g id="line2d_45">
    <path d="M 73.811471 157.573443 
L 73.967351 157.313455 
L 74.27911 163.026766 
L 74.434989 163.859178 
L 74.590869 162.772187 
L 74.746748 162.812836 
L 74.902628 163.264168 
L 75.214387 160.822728 
L 75.370266 159.951242 
L 75.526146 160.393208 
L 75.682025 159.113887 
L 75.837905 153.922238 
L 75.993784 153.984667 
L 76.149664 159.162959 
L 76.305543 160.310611 
L 76.461423 160.310408 
L 76.617302 160.056171 
L 76.773182 160.718464 
L 76.929062 162.891756 
L 77.084941 162.644483 
L 77.3967 158.867449 
L 77.55258 159.260635 
L 77.708459 160.808939 
L 77.864339 159.602362 
L 78.020218 159.598735 
L 78.176098 156.27345 
L 78.331977 155.978771 
L 78.487857 156.204208 
L 78.643736 154.351654 
L 78.799616 156.529701 
L 78.955495 156.713956 
L 79.111375 156.374996 
L 79.267254 158.2747 
L 79.579014 175.450318 
L 79.734893 168.249424 
L 80.046652 170.399757 
L 80.202532 175.676248 
L 80.358411 170.920821 
L 80.514291 171.340609 
L 80.67017 170.459841 
L 80.82605 171.017837 
L 80.981929 172.179266 
L 81.137809 172.409523 
L 81.293688 173.074602 
L 81.449568 168.570606 
L 81.605447 169.786644 
L 81.761327 169.03436 
L 82.073086 169.065059 
L 82.384845 177.361651 
L 82.696604 179.517659 
L 83.008363 180.701448 
L 83.320122 188.422239 
L 83.476002 185.988737 
L 83.631881 187.425145 
L 83.787761 187.344454 
L 83.94364 187.738816 
L 84.09952 187.607957 
L 84.255399 186.556184 
L 84.411279 186.522954 
L 84.567158 187.334052 
L 84.723038 187.194693 
L 84.878918 191.598435 
L 85.034797 190.624081 
L 85.346556 186.296357 
L 85.502436 184.48564 
L 85.658315 184.027046 
L 85.814195 181.633263 
L 85.970074 190.610808 
L 86.125954 191.779062 
L 86.281833 192.028703 
L 86.593592 188.145716 
L 86.749472 189.783617 
L 86.905351 188.102899 
L 87.061231 183.337521 
L 87.21711 182.356195 
L 87.37299 183.631184 
L 87.684749 179.799366 
L 87.840629 185.111232 
L 87.996508 185.784218 
L 88.152388 181.187524 
L 88.308267 183.43273 
L 88.464147 181.683024 
L 88.620026 182.334834 
L 88.775906 177.369933 
L 88.931785 177.534613 
L 89.087665 176.740618 
L 89.243544 178.871501 
L 89.399424 178.804417 
L 89.555303 187.043618 
L 89.711183 185.024903 
L 89.867062 188.334581 
L 90.022942 188.536412 
L 90.178821 186.210382 
L 90.334701 185.930831 
L 90.490581 183.579424 
L 90.64646 160.250285 
L 90.80234 153.762876 
L 90.958219 152.867468 
L 91.114099 148.363392 
L 91.269978 149.763969 
L 91.425858 149.87525 
L 91.581737 148.885998 
L 91.893496 149.746139 
L 92.049376 148.727404 
L 92.205255 153.145375 
L 92.361135 153.293491 
L 92.517014 150.806511 
L 92.672894 151.964028 
L 92.984653 149.092853 
L 93.140533 149.784947 
L 93.296412 148.158021 
L 93.452292 149.078068 
L 93.764051 137.655505 
L 93.91993 137.872158 
L 94.07581 138.502595 
L 94.387569 138.375878 
L 94.543448 137.476033 
L 94.855207 138.974935 
L 95.011087 138.679409 
L 95.166966 139.411265 
L 95.322846 146.261556 
L 95.478725 144.312098 
L 95.790485 132.022239 
L 95.946364 133.110502 
L 96.102244 130.792064 
L 96.258123 130.983904 
L 96.414003 127.169087 
L 96.569882 127.69736 
L 96.725762 130.025552 
L 96.881641 128.409577 
L 97.037521 128.012875 
L 97.1934 130.744842 
L 97.34928 130.75557 
L 97.505159 131.072262 
L 97.661039 134.821553 
L 97.816918 134.878695 
L 98.128677 136.360156 
L 98.284557 136.844708 
L 98.440436 133.157696 
L 98.596316 133.704963 
L 98.752196 131.304615 
L 98.908075 111.032125 
L 99.219834 106.311277 
L 99.375714 109.100309 
L 99.531593 109.868026 
L 99.843352 123.431549 
L 99.999232 123.581013 
L 100.155111 124.086274 
L 100.310991 125.849969 
L 100.46687 123.631571 
L 100.62275 126.246279 
L 100.778629 124.75941 
L 100.934509 132.240954 
L 101.090388 127.260086 
L 101.246268 127.816745 
L 101.402148 126.309797 
L 101.558027 127.194993 
L 101.713907 125.859137 
L 101.869786 118.790566 
L 102.025666 117.759799 
L 102.181545 117.910674 
L 102.337425 119.736403 
L 102.493304 119.280717 
L 102.649184 112.474174 
L 102.805063 111.778003 
L 102.960943 113.546484 
L 103.116822 113.554333 
L 103.272702 114.140864 
L 103.584461 113.713481 
L 103.74034 114.218999 
L 104.207979 113.644781 
L 104.363859 113.647031 
L 104.519738 117.926793 
L 104.831497 119.398622 
L 104.987377 118.347721 
L 105.299136 127.638544 
L 105.455015 125.935667 
L 105.922654 146.232902 
L 106.078533 146.358573 
L 106.234413 143.352978 
L 106.390292 147.856283 
L 106.546172 155.914434 
L 106.857931 158.915365 
L 107.16969 166.715106 
L 107.481449 152.015945 
L 107.637329 155.403521 
L 107.793208 152.800678 
L 107.949088 153.32319 
L 108.260847 155.383033 
L 108.416726 154.388479 
L 108.728485 153.942449 
L 108.884365 151.601518 
L 109.040244 141.111782 
L 109.196124 142.996378 
L 109.352003 143.04529 
L 109.507883 137.930854 
L 109.663763 138.765236 
L 109.819642 155.578866 
L 110.131401 158.842458 
L 110.287281 162.877662 
L 110.44316 163.353005 
L 110.59904 165.982847 
L 110.910799 164.377947 
L 111.066678 165.349804 
L 111.222558 163.724751 
L 111.378437 166.266448 
L 111.534317 165.58877 
L 111.690196 166.913678 
L 111.846076 166.77643 
L 112.001955 170.285708 
L 112.157835 170.520474 
L 112.313715 176.915617 
L 112.469594 176.707723 
L 112.625474 177.975083 
L 112.937233 176.388524 
L 113.093112 176.065499 
L 113.248992 180.667809 
L 113.404871 178.300565 
L 113.560751 177.671635 
L 113.71663 177.712696 
L 113.87251 177.095073 
L 114.028389 181.022336 
L 114.184269 175.855905 
L 114.340148 175.848278 
L 114.651907 179.072767 
L 114.807787 179.11364 
L 114.963667 181.910613 
L 115.119546 181.711016 
L 115.275426 184.289798 
L 116.054823 175.817836 
L 116.210703 175.48187 
L 116.522462 171.857022 
L 116.678341 174.359053 
L 116.834221 174.34692 
L 116.9901 174.546881 
L 117.14598 174.343126 
L 117.301859 173.826965 
L 117.613619 172.096756 
L 117.769498 174.292119 
L 117.925378 180.273703 
L 118.081257 180.284408 
L 118.393016 181.737403 
L 118.704775 184.356426 
L 118.860655 182.219287 
L 119.016534 182.828095 
L 119.172414 175.81455 
L 119.328293 174.397592 
L 119.484173 177.008022 
L 119.640052 177.030863 
L 119.795932 175.834746 
L 119.951811 200.625052 
L 120.107691 198.847645 
L 120.26357 200.390803 
L 120.41945 199.562295 
L 120.57533 200.593186 
L 120.731209 200.767532 
L 120.887089 197.683859 
L 121.042968 197.022833 
L 121.198848 193.352721 
L 121.354727 195.479255 
L 121.510607 195.361826 
L 121.666486 195.607946 
L 121.822366 199.032166 
L 121.978245 198.877618 
L 122.134125 202.931704 
L 122.290004 202.225047 
L 122.445884 195.568185 
L 122.601763 195.396766 
L 122.757643 189.958041 
L 122.913522 189.323182 
L 123.069402 187.731783 
L 123.225282 187.628771 
L 123.381161 191.717138 
L 123.537041 191.667149 
L 123.69292 189.818913 
L 123.8488 189.532288 
L 124.160559 188.20055 
L 124.316438 189.112242 
L 124.472318 186.831952 
L 124.628197 188.972604 
L 124.784077 187.712782 
L 124.939956 189.604996 
L 125.251715 175.894252 
L 125.407595 181.253318 
L 125.563474 181.111289 
L 125.719354 186.83446 
L 125.875234 182.107364 
L 126.186993 185.170973 
L 126.498752 181.16297 
L 126.654631 181.408436 
L 126.810511 180.456638 
L 126.96639 188.550565 
L 127.12227 187.595281 
L 127.278149 193.270155 
L 127.434029 192.866762 
L 127.589908 187.617653 
L 127.901667 188.824591 
L 128.057547 191.979386 
L 128.213426 191.528319 
L 128.369306 192.375079 
L 128.525186 192.224458 
L 128.681065 197.421172 
L 128.836945 198.388231 
L 128.992824 205.240753 
L 129.148704 203.168927 
L 129.304583 188.465074 
L 129.616342 184.744778 
L 129.772222 188.074174 
L 129.928101 195.361097 
L 130.083981 234.864773 
L 130.23986 234.365962 
L 130.551619 231.485116 
L 130.707499 234.717235 
L 130.863378 232.866669 
L 131.019258 233.963462 
L 131.175137 233.848199 
L 131.331017 235.292255 
L 131.486897 228.807042 
L 131.642776 229.119127 
L 131.798656 227.427334 
L 132.110415 232.540329 
L 132.266294 228.911387 
L 132.422174 238.701763 
L 132.578053 239.038478 
L 132.733933 241.525389 
L 132.889812 241.98246 
L 133.045692 243.170312 
L 133.201571 243.400094 
L 133.357451 244.994198 
L 133.51333 244.923027 
L 133.66921 250.176552 
L 133.825089 251.044353 
L 133.980969 248.732507 
L 134.136849 248.160342 
L 134.292728 246.188884 
L 134.448608 246.106795 
L 134.604487 245.552746 
L 134.760367 247.906672 
L 134.916246 248.165783 
L 135.072126 258.476265 
L 135.228005 257.202567 
L 135.539764 260.1216 
L 135.695644 261.519229 
L 135.851523 266.768571 
L 136.007403 260.323063 
L 136.163282 259.474824 
L 136.319162 259.324824 
L 136.475041 259.547939 
L 136.630921 263.025526 
L 136.786801 263.706427 
L 137.09856 267.015542 
L 137.254439 262.617013 
L 137.410319 263.502454 
L 137.566198 262.592046 
L 137.722078 262.497596 
L 138.033837 265.429812 
L 138.189716 264.19052 
L 138.345596 264.292163 
L 138.501475 263.370702 
L 138.657355 264.761604 
L 138.813234 263.850591 
L 138.969114 260.016723 
L 139.124993 262.157917 
L 139.280873 261.942698 
L 139.436753 244.977808 
L 139.592632 252.675862 
L 139.748512 253.502795 
L 139.904391 248.609944 
L 140.060271 251.871539 
L 140.37203 270.086176 
L 140.527909 269.416265 
L 140.683789 273.972709 
L 140.839668 271.764046 
L 140.995548 272.765381 
L 141.151427 272.083238 
L 141.307307 269.23525 
L 141.463186 270.087151 
L 141.619066 270.320749 
L 141.774945 273.809567 
L 141.930825 288.478848 
L 142.086704 284.885675 
L 142.242584 290.96018 
L 142.398464 291.709139 
L 142.554343 295.488 
L 142.710223 295.262382 
L 142.866102 291.286345 
L 143.021982 291.398941 
L 143.177861 289.503243 
L 143.333741 293.123564 
L 143.48962 289.555056 
L 143.6455 290.025835 
L 143.801379 288.617755 
L 143.957259 291.611875 
L 144.113138 285.728239 
L 144.269018 285.159557 
L 144.424897 286.853142 
L 144.736656 279.853683 
L 144.892536 276.466252 
L 145.048416 279.910644 
L 145.204295 280.385986 
L 145.360175 282.779786 
L 145.516054 281.530808 
L 145.671934 282.034188 
L 145.827813 279.631387 
L 145.983693 279.632717 
L 146.295452 271.418419 
L 146.451331 271.944329 
L 146.607211 274.009464 
L 146.76309 273.434208 
L 146.91897 275.240483 
L 147.074849 282.531485 
L 147.230729 281.792598 
L 147.386608 281.885736 
L 147.542488 283.009202 
L 147.698368 279.393872 
L 147.854247 280.0541 
L 148.010127 279.939674 
L 148.166006 275.311937 
L 148.321886 275.353683 
L 148.477765 272.439874 
L 148.633645 272.075666 
L 148.789524 276.504221 
L 148.945404 276.279768 
L 149.257163 275.500735 
L 149.413042 269.787895 
L 149.568922 231.629697 
L 149.724801 232.664567 
L 149.880681 236.360288 
L 150.03656 236.567144 
L 150.660079 210.327618 
L 150.815958 206.379785 
L 150.971838 205.804134 
L 151.283597 195.193472 
L 151.595356 189.893096 
L 151.751235 193.841904 
L 151.907115 183.789749 
L 152.374753 183.620984 
L 152.686512 180.853136 
L 152.842392 179.977033 
L 152.998271 181.849204 
L 153.154151 180.947644 
L 153.310031 182.773209 
L 153.46591 179.068531 
L 153.62179 179.956765 
L 153.777669 176.819183 
L 153.933549 178.531375 
L 154.089428 178.93947 
L 154.245308 177.927647 
L 154.401187 177.949521 
L 154.557067 170.49951 
L 154.712946 171.26328 
L 154.868826 170.029886 
L 155.336464 161.796993 
L 155.492344 165.13417 
L 155.648223 164.796753 
L 155.804103 165.471497 
L 156.115862 160.432481 
L 156.271742 162.082645 
L 156.427621 162.470129 
L 156.583501 160.398057 
L 156.73938 163.045941 
L 156.89526 161.300016 
L 157.051139 161.881466 
L 157.207019 161.625312 
L 157.362898 161.035015 
L 157.518778 160.934934 
L 157.986416 162.924044 
L 158.142296 166.491213 
L 158.298175 164.560485 
L 158.454055 165.877748 
L 158.609935 162.389517 
L 158.765814 161.71799 
L 158.921694 163.94481 
L 159.077573 156.401438 
L 159.233453 155.856438 
L 159.545212 153.651492 
L 159.701091 135.195593 
L 159.856971 134.710215 
L 160.01285 136.053676 
L 160.16873 135.158594 
L 160.324609 135.184118 
L 160.480489 135.704439 
L 160.636368 135.105255 
L 160.792248 135.016732 
L 161.104007 133.37091 
L 161.259887 133.283296 
L 161.415766 131.187232 
L 161.571646 133.35414 
L 161.883405 133.553016 
L 162.039284 135.097595 
L 162.195164 133.218365 
L 162.351043 133.167795 
L 162.506923 132.335735 
L 162.662802 134.173433 
L 162.818682 132.999485 
L 162.974561 136.920528 
L 163.28632 132.522444 
L 163.4422 131.801871 
L 163.598079 132.861556 
L 163.753959 142.547593 
L 163.909838 142.674218 
L 164.065718 140.108796 
L 164.221598 141.642478 
L 164.377477 141.506148 
L 164.845116 136.282695 
L 165.000995 137.193103 
L 165.156875 132.300305 
L 165.312754 133.815022 
L 165.468634 134.18424 
L 165.624513 135.72108 
L 165.780393 139.42746 
L 165.936272 140.237292 
L 166.092152 137.304266 
L 166.248031 136.600102 
L 166.403911 127.239666 
L 166.55979 125.257546 
L 166.71567 127.835316 
L 167.027429 122.758736 
L 167.183309 123.641976 
L 167.339188 122.98755 
L 167.495068 123.025025 
L 167.650947 121.570946 
L 167.962706 130.676651 
L 168.274465 130.452037 
L 168.430345 132.281756 
L 168.586224 132.406398 
L 168.742104 133.095918 
L 168.897983 137.332046 
L 169.053863 137.106819 
L 169.365622 133.709842 
L 169.521502 133.990431 
L 169.833261 139.456169 
L 169.98914 149.538401 
L 170.14502 148.057602 
L 170.456779 156.108143 
L 170.612658 178.639252 
L 170.924417 188.578202 
L 171.080297 188.070222 
L 171.236176 178.002184 
L 171.392056 190.377756 
L 171.547935 191.023144 
L 171.859694 190.337657 
L 172.015574 194.831109 
L 172.171454 191.183703 
L 172.327333 203.28222 
L 172.483213 197.471073 
L 172.639092 199.199327 
L 172.794972 191.464449 
L 172.950851 196.068114 
L 173.106731 194.131263 
L 173.26261 197.056467 
L 173.41849 194.27381 
L 173.574369 194.411976 
L 173.886128 195.020455 
L 174.042008 195.08242 
L 174.353767 197.031291 
L 174.509646 202.40304 
L 175.133165 204.100409 
L 175.289044 203.602506 
L 175.444924 207.839626 
L 175.600803 208.601585 
L 175.912562 206.674178 
L 176.068442 199.921482 
L 176.380201 198.557907 
L 176.53608 198.691682 
L 176.69196 198.477089 
L 177.003719 199.259288 
L 177.159598 198.978576 
L 177.315478 199.927727 
L 177.471357 206.533519 
L 177.627237 203.44344 
L 177.783117 206.330051 
L 177.938996 206.697622 
L 178.562514 202.391637 
L 178.718394 202.391637 
L 179.030153 212.739802 
L 179.186032 211.679241 
L 179.341912 212.835767 
L 179.497791 210.739684 
L 179.653671 203.707452 
L 179.80955 204.077469 
L 180.121309 200.286026 
L 180.277189 201.471977 
L 180.433069 209.9733 
L 180.588948 209.317027 
L 180.900707 211.644238 
L 181.056587 212.201098 
L 181.368346 209.253469 
L 181.524225 216.348227 
L 181.680105 209.870143 
L 181.835984 209.587639 
L 181.991864 211.724726 
L 182.147743 211.513854 
L 182.303623 219.315448 
L 182.615382 221.737391 
L 182.771261 224.126229 
L 182.927141 224.788008 
L 183.2389 210.704099 
L 183.550659 223.247271 
L 183.706539 221.839374 
L 183.862418 223.310617 
L 184.018298 222.70616 
L 184.174177 221.446908 
L 184.330057 216.655949 
L 184.641816 214.518692 
L 184.797695 214.9418 
L 184.953575 214.302356 
L 185.421213 208.903507 
L 185.577093 209.222517 
L 185.732973 210.139652 
L 185.888852 212.74822 
L 186.044732 212.53595 
L 186.200611 210.518577 
L 186.356491 212.905964 
L 186.51237 209.857394 
L 186.824129 213.063482 
L 186.980009 211.315283 
L 187.135888 216.459984 
L 187.447647 207.407681 
L 187.603527 211.636916 
L 187.759406 212.744666 
L 188.071165 211.673344 
L 188.382924 207.434048 
L 188.538804 208.780339 
L 188.694684 208.514342 
L 188.850563 207.43487 
L 189.006443 207.290598 
L 189.162322 204.943741 
L 189.318202 206.653205 
L 189.474081 205.99533 
L 189.78584 209.968639 
L 189.94172 215.701311 
L 190.253479 209.020422 
L 190.409358 208.574628 
L 190.565238 210.735816 
L 190.721117 220.136851 
L 190.876997 208.629109 
L 191.188756 208.1524 
L 191.344636 207.361201 
L 191.500515 205.398831 
L 191.656395 209.92624 
L 191.812274 197.509252 
L 192.279913 206.600202 
L 192.435792 207.356103 
L 192.591672 207.485257 
L 192.903431 203.965606 
L 193.05931 203.626007 
L 193.21519 205.172888 
L 193.526949 205.461167 
L 193.838708 202.764027 
L 193.994588 193.799583 
L 194.150467 194.613628 
L 194.306347 194.721402 
L 194.462226 196.180941 
L 194.618106 204.217804 
L 195.085744 197.440804 
L 195.397503 196.642278 
L 195.553383 204.104208 
L 195.709262 206.140542 
L 195.865142 206.478348 
L 196.021021 200.103043 
L 196.176901 205.243154 
L 196.33278 199.08038 
L 196.48866 199.541282 
L 196.64454 196.773492 
L 196.800419 196.462086 
L 196.956299 190.114138 
L 197.112178 190.540267 
L 197.268058 189.841419 
L 197.423937 184.209288 
L 197.579817 192.136651 
L 197.735696 194.384089 
L 197.891576 190.388224 
L 198.047455 189.454469 
L 198.203335 190.023624 
L 198.359214 186.05735 
L 198.515094 185.922242 
L 198.670973 190.877963 
L 198.826853 189.765371 
L 198.982732 189.801557 
L 199.294491 197.465126 
L 199.450371 186.662943 
L 199.606251 188.897807 
L 199.76213 187.846812 
L 199.91801 182.819977 
L 200.229769 182.443806 
L 200.541528 182.913773 
L 200.697407 182.525957 
L 201.009166 173.007949 
L 201.320925 178.898085 
L 201.632684 175.304361 
L 201.788564 203.666298 
L 201.944443 203.590014 
L 202.100323 203.280585 
L 202.256203 202.158453 
L 202.412082 203.206091 
L 202.567962 206.579534 
L 202.879721 200.433447 
L 203.0356 198.541131 
L 203.19148 199.092408 
L 203.347359 197.232049 
L 203.659118 197.549909 
L 203.814998 201.128067 
L 203.970877 201.068958 
L 204.126757 202.169461 
L 204.438516 201.990098 
L 204.594395 197.437669 
L 204.750275 198.053176 
L 205.062034 197.430995 
L 205.217914 196.193855 
L 205.373793 199.694066 
L 205.529673 199.873431 
L 205.685552 199.417764 
L 205.841432 199.734547 
L 205.997311 205.243562 
L 206.30907 204.46404 
L 206.46495 206.24355 
L 206.620829 203.75101 
L 206.776709 203.482207 
L 206.932588 206.632279 
L 207.088468 203.005181 
L 207.244347 206.045374 
L 207.556107 206.83436 
L 207.711986 210.118782 
L 207.867866 208.549555 
L 208.023745 208.974776 
L 208.335504 209.275169 
L 208.491384 210.198679 
L 208.647263 212.585343 
L 208.959022 211.309437 
L 209.426661 199.293504 
L 209.58254 192.51554 
L 209.73842 194.695419 
L 209.894299 193.371502 
L 210.050179 194.594508 
L 210.206058 192.348163 
L 210.361938 192.716748 
L 210.517818 192.415247 
L 210.673697 193.023562 
L 210.829577 195.79318 
L 210.985456 195.018782 
L 211.141336 191.775931 
L 211.297215 191.944506 
L 211.453095 192.311579 
L 211.608974 190.680401 
L 211.764854 190.812658 
L 211.920733 195.233536 
L 212.076613 195.067405 
L 212.232492 194.614445 
L 212.388372 196.232845 
L 212.544251 196.362903 
L 212.700131 196.075633 
L 212.85601 194.238344 
L 213.01189 194.247168 
L 213.16777 194.128209 
L 213.323649 192.264298 
L 213.479529 197.239409 
L 213.635408 196.74729 
L 213.947167 194.630252 
L 214.103047 189.307792 
L 214.258926 193.73575 
L 214.570685 195.397528 
L 214.726565 195.530194 
L 215.038324 197.041766 
L 215.194203 194.867574 
L 215.350083 195.035332 
L 215.505962 202.778832 
L 215.661842 196.610382 
L 215.817722 201.843744 
L 216.129481 204.486795 
L 216.28536 204.127419 
L 216.44124 208.146679 
L 216.597119 207.062175 
L 216.752999 208.676261 
L 216.908878 218.315313 
L 217.220637 207.408747 
L 217.532396 212.263185 
L 217.688276 212.783522 
L 217.844155 212.513634 
L 218.000035 212.877288 
L 218.155914 210.040854 
L 218.311794 210.651853 
L 218.467674 208.64691 
L 218.623553 213.0675 
L 218.779433 207.842248 
L 218.935312 221.149812 
L 219.091192 221.233383 
L 219.247071 221.833189 
L 219.402951 223.37253 
L 219.55883 227.234122 
L 219.71471 224.841004 
L 219.870589 235.797373 
L 220.026469 235.492463 
L 220.182348 235.925969 
L 220.494107 250.779076 
L 220.649987 253.639036 
L 220.805866 250.396826 
L 221.117625 264.637116 
L 221.273505 216.79776 
L 221.429385 217.921592 
L 221.585264 215.211191 
L 221.741144 216.16178 
L 222.052903 211.893582 
L 222.208782 219.72783 
L 222.364662 212.090081 
L 222.520541 215.424351 
L 222.676421 215.845861 
L 222.8323 217.523232 
L 222.98818 217.419892 
L 223.144059 219.301219 
L 223.611698 230.861722 
L 223.767577 231.770181 
L 223.923457 231.196311 
L 224.235216 245.707336 
L 224.391096 245.397517 
L 224.546975 238.323109 
L 224.858734 246.18521 
L 225.170493 246.850992 
L 225.326373 245.554457 
L 225.482252 239.83689 
L 225.638132 238.867854 
L 225.794011 243.772902 
L 226.10577 242.518303 
L 226.26165 242.067909 
L 226.417529 212.251328 
L 226.573409 215.591348 
L 226.885168 206.296175 
L 227.041048 211.076905 
L 227.196927 205.825985 
L 227.508686 207.106375 
L 227.664566 206.880452 
L 227.820445 206.315434 
L 227.976325 204.901587 
L 228.132204 204.858403 
L 228.599843 210.01033 
L 228.755722 212.891716 
L 228.911602 207.445614 
L 229.223361 207.711777 
L 229.379241 209.795334 
L 229.846879 206.620032 
L 230.002759 206.901558 
L 230.158638 206.715212 
L 230.314518 205.63248 
L 230.470397 206.233893 
L 230.626277 209.801094 
L 230.782156 209.491074 
L 230.938036 209.895628 
L 231.093915 210.854745 
L 231.249795 208.654798 
L 231.405674 204.63477 
L 231.561554 207.545955 
L 231.717433 207.800929 
L 232.029192 208.998927 
L 232.185072 209.202733 
L 232.496831 215.811559 
L 232.652711 215.542319 
L 232.80859 215.700827 
L 232.96447 219.350666 
L 233.120349 220.244195 
L 233.276229 223.024159 
L 233.432108 223.623094 
L 233.587988 223.075157 
L 233.743867 221.2873 
L 233.899747 221.053147 
L 234.055626 221.395419 
L 234.211506 222.378386 
L 234.367385 220.871577 
L 234.523265 225.0893 
L 234.679144 223.849963 
L 234.835024 223.967708 
L 234.990904 223.417196 
L 235.302663 226.566683 
L 235.458542 224.540305 
L 235.614422 230.166167 
L 235.770301 231.565681 
L 235.926181 229.847446 
L 236.23794 224.624299 
L 236.393819 222.702304 
L 236.549699 222.432123 
L 236.705578 218.734259 
L 237.173217 224.994909 
L 238.108494 235.953911 
L 238.264374 249.515983 
L 238.420253 250.589603 
L 238.576133 250.656351 
L 238.732012 253.9083 
L 238.887892 253.195776 
L 239.043771 247.69017 
L 239.199651 246.569238 
L 239.35553 236.348512 
L 239.51141 235.838718 
L 239.979048 232.69245 
L 240.134928 234.308547 
L 240.290808 237.841084 
L 240.446687 225.281668 
L 240.602567 222.878897 
L 240.758446 223.429031 
L 240.914326 221.73711 
L 241.070205 222.482857 
L 241.226085 229.033875 
L 241.381964 229.373816 
L 241.693723 225.087589 
L 241.849603 227.171614 
L 242.005482 225.334987 
L 242.317241 226.316738 
L 242.473121 236.909812 
L 242.629 237.504242 
L 242.78488 215.51727 
L 242.940759 214.047808 
L 243.096639 254.619646 
L 243.252519 250.071659 
L 243.408398 256.106292 
L 243.564278 245.096008 
L 243.720157 243.086661 
L 243.876037 242.760101 
L 244.187796 227.120234 
L 244.343675 226.752195 
L 244.499555 231.27355 
L 244.655434 211.36409 
L 244.967193 212.489312 
L 245.278952 199.62846 
L 245.434832 202.271003 
L 245.590711 193.929313 
L 245.746591 193.963296 
L 245.902471 212.948448 
L 246.21423 207.047879 
L 246.370109 206.604543 
L 246.525989 202.420778 
L 246.837748 185.434552 
L 246.993627 186.273525 
L 247.149507 185.378246 
L 247.305386 185.455748 
L 247.461266 185.046612 
L 247.617145 181.48292 
L 247.773025 182.31588 
L 247.928904 178.99205 
L 248.396543 188.731275 
L 248.552423 189.369034 
L 248.708302 189.290272 
L 248.864182 188.654134 
L 249.020061 189.552643 
L 249.175941 191.867198 
L 249.4877 191.246759 
L 249.799459 195.867227 
L 249.955338 196.456889 
L 250.267097 195.936255 
L 250.422977 194.525172 
L 250.578856 194.76208 
L 250.734736 195.656348 
L 250.890615 195.275979 
L 251.046495 191.411154 
L 251.202375 195.20937 
L 251.358254 195.462921 
L 251.514134 195.274009 
L 251.825893 193.647608 
L 251.981772 191.894558 
L 252.293531 194.590905 
L 252.917049 188.146871 
L 253.228808 187.912445 
L 253.696447 189.031747 
L 253.852326 188.726436 
L 254.008206 186.567218 
L 254.164086 186.891132 
L 254.319965 186.387942 
L 254.475845 184.161414 
L 254.631724 178.031735 
L 254.787604 182.18516 
L 254.943483 177.801394 
L 255.099363 176.721096 
L 255.255242 162.016411 
L 255.411122 161.242163 
L 255.722881 162.039611 
L 256.03464 160.834562 
L 256.190519 162.684628 
L 256.346399 162.50318 
L 256.502278 160.102379 
L 256.658158 163.778138 
L 256.814038 163.269569 
L 257.125797 159.074866 
L 257.281676 159.984311 
L 257.437556 157.520356 
L 257.593435 157.411247 
L 257.749315 149.295068 
L 257.905194 148.41117 
L 258.061074 149.392965 
L 258.216953 148.390776 
L 258.372833 145.104289 
L 258.684592 146.359023 
L 258.840471 146.380349 
L 258.996351 144.374675 
L 259.30811 145.868913 
L 259.46399 145.320607 
L 259.931628 139.585279 
L 260.087508 139.630543 
L 260.399267 137.970082 
L 260.555146 137.015203 
L 260.866905 132.789738 
L 261.022785 132.002056 
L 261.178664 125.975599 
L 261.334544 126.931285 
L 261.646303 122.680764 
L 261.802182 124.21775 
L 261.958062 118.85195 
L 262.269821 116.425715 
L 262.425701 118.369683 
L 262.58158 105.096335 
L 262.73746 105.621174 
L 263.049219 101.665925 
L 263.205098 139.447706 
L 263.360978 143.192335 
L 263.516857 143.437209 
L 263.672737 146.508242 
L 263.828616 145.881188 
L 263.984496 143.889286 
L 264.296255 151.038121 
L 264.452134 149.945108 
L 264.763893 154.622538 
L 264.919773 154.109522 
L 265.075653 160.296508 
L 265.231532 159.725941 
L 265.387412 162.501046 
L 265.543291 162.258978 
L 265.699171 161.611414 
L 266.166809 168.804831 
L 266.322689 174.00257 
L 266.478568 172.245934 
L 266.634448 174.941697 
L 266.790327 175.616166 
L 267.102086 181.22531 
L 267.257966 188.023836 
L 267.413845 185.459758 
L 267.725605 183.860243 
L 267.881484 184.050936 
L 268.037364 181.500868 
L 268.193243 182.619123 
L 268.349123 181.42997 
L 268.505002 171.217261 
L 268.816761 170.223392 
L 268.972641 171.038159 
L 269.12852 169.59276 
L 269.2844 162.526623 
L 269.596159 159.200969 
L 269.752038 159.240025 
L 269.907918 157.446511 
L 270.063797 157.223934 
L 270.219677 160.048713 
L 270.375557 158.539818 
L 270.531436 161.351522 
L 270.687316 159.193111 
L 270.843195 154.611666 
L 270.999075 154.685035 
L 271.310834 155.29337 
L 271.466713 155.141921 
L 271.622593 153.926225 
L 271.934352 153.445639 
L 272.090231 150.608569 
L 272.246111 150.946412 
L 272.40199 150.882479 
L 272.55787 148.109285 
L 272.713749 147.863134 
L 272.869629 145.406127 
L 273.025509 147.631098 
L 273.181388 146.579903 
L 273.337268 147.019725 
L 273.493147 145.900341 
L 273.649027 145.900912 
L 273.804906 146.296215 
L 274.116665 149.692682 
L 274.272545 144.535759 
L 274.584304 147.31991 
L 274.740183 156.198143 
L 274.896063 155.318182 
L 275.051942 155.537976 
L 275.207822 155.541383 
L 275.363701 155.153872 
L 275.519581 155.34146 
L 275.67546 155.908639 
L 275.83134 155.222667 
L 275.98722 156.296754 
L 276.143099 153.405714 
L 276.298979 155.243004 
L 276.610738 154.969458 
L 276.766617 157.637513 
L 276.922497 157.986992 
L 277.078376 156.879798 
L 277.390135 160.535536 
L 277.701894 158.77042 
L 277.857774 161.155436 
L 278.013653 161.493936 
L 278.325412 159.646319 
L 278.481292 162.332906 
L 278.637172 162.479429 
L 278.793051 160.756822 
L 279.26069 170.462128 
L 279.416569 172.737298 
L 279.728328 171.297546 
L 279.884208 169.087835 
L 280.040087 169.492501 
L 280.195967 169.533515 
L 280.351846 169.696713 
L 280.507726 163.80771 
L 280.663605 171.060029 
L 280.819485 170.884734 
L 280.975364 173.999085 
L 281.131244 173.798641 
L 281.287124 172.75537 
L 281.443003 174.447534 
L 281.754762 183.63964 
L 282.222401 172.381791 
L 282.53416 173.62938 
L 282.690039 133.042471 
L 282.845919 130.423123 
L 283.001798 135.674732 
L 283.157678 133.440383 
L 283.313557 139.843209 
L 283.469437 139.513491 
L 283.937076 131.076553 
L 284.092955 130.723538 
L 284.716473 123.964204 
L 284.872353 113.900329 
L 285.184112 116.971671 
L 285.339991 113.084342 
L 285.495871 112.681167 
L 285.80763 115.581912 
L 285.963509 116.907363 
L 286.275268 115.430483 
L 286.587027 112.319555 
L 286.742907 103.185642 
L 286.898787 106.323764 
L 287.210546 101.39498 
L 287.366425 101.150441 
L 287.522305 106.060488 
L 287.678184 103.623248 
L 287.834064 104.815565 
L 287.989943 112.822448 
L 288.145823 113.300409 
L 288.301702 110.117737 
L 288.457582 110.610802 
L 288.613461 116.848157 
L 288.769341 117.981929 
L 289.236979 124.461523 
L 289.392859 117.545431 
L 289.548739 120.330254 
L 289.704618 102.882737 
L 290.016377 91.594499 
L 290.172257 85.349531 
L 290.328136 87.20522 
L 290.484016 87.555908 
L 290.639895 85.600927 
L 290.795775 87.818554 
L 290.951654 61.245398 
L 291.107534 55.857361 
L 291.263413 57.024952 
L 291.419293 53.568 
L 291.575172 54.026756 
L 291.731052 62.189256 
L 291.886931 56.845843 
L 292.042811 58.798419 
L 292.35457 88.324912 
L 292.51045 69.976005 
L 292.822209 72.654299 
L 292.978088 71.153335 
L 293.133968 72.217095 
L 293.289847 74.684455 
L 293.445727 73.114964 
L 293.601606 95.224848 
L 293.913365 96.077943 
L 294.069245 94.34085 
L 294.225124 88.883141 
L 294.381004 92.423816 
L 294.536883 91.293906 
L 294.692763 93.834559 
L 294.848643 94.120829 
L 295.004522 92.756587 
L 295.160402 89.437093 
L 295.316281 88.896182 
L 295.472161 90.570418 
L 295.78392 89.623097 
L 295.939799 88.343243 
L 296.251558 81.465165 
L 296.719197 80.924499 
L 296.875076 78.621817 
L 297.030956 79.462736 
L 297.186835 75.099743 
L 297.342715 75.846494 
L 297.498595 74.704842 
L 297.654474 75.061936 
L 297.810354 76.026823 
L 297.966233 77.743762 
L 298.745631 71.165916 
L 298.90151 71.11408 
L 299.05739 71.97334 
L 299.213269 71.61698 
L 299.369149 72.032948 
L 299.525028 71.999616 
L 299.992667 76.441095 
L 300.304426 76.005427 
L 300.460306 75.524012 
L 300.616185 76.035198 
L 300.927944 75.932648 
L 301.083824 74.890943 
L 301.395583 76.617326 
L 301.551462 76.677676 
L 301.707342 75.90559 
L 302.019101 77.698504 
L 302.17498 77.893773 
L 302.33086 77.732753 
L 302.486739 76.631138 
L 302.642619 76.455121 
L 302.954378 74.896026 
L 303.266137 75.857813 
L 303.422017 75.901969 
L 303.733776 73.790909 
L 303.889655 78.711959 
L 304.201414 78.655465 
L 304.357294 79.339571 
L 304.513173 78.417343 
L 304.980812 78.98587 
L 305.136691 77.984194 
L 305.292571 77.954075 
L 305.44845 77.659647 
L 305.60433 76.643956 
L 305.76021 76.801872 
L 305.916089 75.977289 
L 306.227848 76.471784 
L 306.539607 76.866644 
L 306.695487 76.033401 
L 306.851366 76.077819 
L 307.007246 75.924626 
L 307.163125 76.280161 
L 307.474884 74.672241 
L 307.942523 75.786898 
L 308.098402 75.463141 
L 308.254282 76.084216 
L 308.410162 75.556782 
L 308.566041 75.526448 
L 308.721921 76.165249 
L 308.8778 77.400473 
L 309.03368 74.769994 
L 309.189559 76.891331 
L 309.345439 77.241217 
L 309.657198 79.475216 
L 309.968957 78.383625 
L 310.124836 78.826474 
L 310.280716 78.288515 
L 310.592475 83.479001 
L 310.748354 82.682866 
L 310.904234 83.023348 
L 311.060113 82.720652 
L 311.215993 80.282269 
L 311.371873 82.888141 
L 311.527752 82.410431 
L 311.683632 78.593317 
L 311.839511 69.959589 
L 311.995391 80.821702 
L 312.15127 78.106012 
L 312.30715 80.496684 
L 312.463029 81.153116 
L 312.930668 78.232015 
L 313.086547 61.099554 
L 313.242427 61.05439 
L 313.398306 61.232003 
L 313.554186 61.858042 
L 313.710065 66.440247 
L 313.865945 62.626287 
L 314.021825 62.889487 
L 314.177704 61.038579 
L 314.333584 61.328102 
L 314.489463 62.290436 
L 314.801222 66.58738 
L 315.112981 63.1802 
L 315.268861 63.355913 
L 316.048258 76.642127 
L 316.204138 77.295292 
L 316.360017 82.30402 
L 316.515897 80.454576 
L 316.671777 85.492338 
L 316.827656 83.827056 
L 316.983536 85.705835 
L 317.139415 85.367722 
L 317.295295 83.204843 
L 317.451174 82.669757 
L 317.607054 83.932715 
L 317.918813 89.215243 
L 318.074692 90.242447 
L 318.230572 92.518667 
L 318.542331 90.073127 
L 318.69821 91.447555 
L 318.85409 90.982126 
L 319.009969 91.004337 
L 319.321729 82.25973 
L 319.477608 81.565753 
L 319.633488 82.762646 
L 319.789367 83.018941 
L 319.945247 82.814568 
L 320.101126 81.556303 
L 320.257006 81.798498 
L 320.412885 82.41308 
L 320.724644 80.984972 
L 321.036403 78.192777 
L 321.192283 80.565304 
L 321.504042 75.731484 
L 321.659921 76.796312 
L 321.815801 75.794963 
L 322.12756 78.092173 
L 322.28344 76.759249 
L 322.439319 78.566373 
L 322.906958 75.846881 
L 323.218717 83.307802 
L 323.374596 67.931471 
L 323.530476 69.277984 
L 323.686355 69.401506 
L 323.842235 70.14575 
L 323.998114 74.224217 
L 324.309873 76.682698 
L 324.465753 76.362054 
L 324.621632 76.549564 
L 324.777512 76.191683 
L 324.933392 76.439573 
L 325.089271 77.767084 
L 325.245151 76.153044 
L 325.40103 81.086649 
L 325.712789 78.550497 
L 326.024548 78.499015 
L 326.180428 82.857146 
L 326.336307 82.673287 
L 326.648066 80.984482 
L 326.959825 85.459639 
L 327.115705 84.465459 
L 327.271584 85.401449 
L 327.583344 82.469168 
L 327.739223 82.195589 
L 328.050982 85.891904 
L 328.206862 81.172437 
L 328.362741 81.052802 
L 328.518621 88.92052 
L 328.6745 83.697133 
L 328.83038 87.114357 
L 328.986259 85.808685 
L 329.142139 85.95462 
L 329.453898 91.462541 
L 329.609777 90.979003 
L 329.765657 89.795747 
L 329.921536 100.379494 
L 330.077416 101.140745 
L 330.233296 99.772259 
L 330.700934 108.642311 
L 330.856814 108.422279 
L 331.168573 114.030879 
L 331.324452 113.70449 
L 331.480332 108.479579 
L 331.636211 112.342327 
L 331.792091 112.523864 
L 331.94797 111.529636 
L 332.10385 114.564441 
L 332.415609 116.054058 
L 332.571488 113.69137 
L 332.727368 116.399602 
L 332.883247 116.311073 
L 333.039127 119.624382 
L 333.195007 118.849209 
L 333.506766 120.347533 
L 333.662645 113.648252 
L 333.818525 111.881987 
L 334.130284 131.431092 
L 334.286163 132.186413 
L 334.442043 131.731075 
L 334.597922 137.400183 
L 334.753802 137.872757 
L 334.909681 131.357362 
L 335.065561 131.934911 
L 335.22144 120.649006 
L 335.533199 112.802445 
L 335.689079 119.698164 
L 335.844959 119.517407 
L 336.000838 119.863252 
L 336.156718 120.84936 
L 336.312597 120.787029 
L 336.624356 122.632962 
L 336.780236 122.165019 
L 336.936115 122.138638 
L 337.091995 128.490855 
L 337.247874 119.612617 
L 337.559633 117.094998 
L 337.715513 118.555079 
L 337.871392 118.623897 
L 338.027272 115.018345 
L 338.183151 116.058544 
L 338.339031 113.324444 
L 338.494911 113.814006 
L 338.65079 118.396974 
L 338.80667 118.348746 
L 338.962549 118.11289 
L 339.118429 118.691865 
L 339.274308 118.591781 
L 339.430188 118.76013 
L 339.586067 123.385363 
L 339.741947 124.192712 
L 339.897826 123.729051 
L 340.053706 124.219699 
L 340.209585 120.252266 
L 340.365465 120.541558 
L 340.521344 121.92791 
L 340.988983 116.695849 
L 341.144863 116.693489 
L 341.300742 121.360776 
L 341.456622 121.360776 
L 341.612501 120.89736 
L 341.768381 125.031908 
L 342.08014 123.436999 
L 342.236019 121.040373 
L 342.391899 123.76085 
L 342.547778 123.380174 
L 342.703658 129.994673 
L 342.859537 130.080441 
L 343.015417 126.169669 
L 343.171296 126.689419 
L 343.327176 124.307591 
L 343.638935 115.156423 
L 343.794814 113.18105 
L 343.950694 113.081347 
L 344.106574 112.19195 
L 344.418333 109.533324 
L 344.574212 102.525191 
L 344.885971 106.167064 
L 345.041851 106.07662 
L 345.35361 103.941604 
L 345.509489 103.511583 
L 345.665369 104.892678 
L 345.821248 108.750605 
L 345.977128 103.147204 
L 346.133007 103.967143 
L 346.288887 110.260317 
L 346.444766 111.215181 
L 346.600646 110.940499 
L 346.756526 110.337571 
L 346.912405 112.098311 
L 347.068285 112.111841 
L 347.224164 111.494233 
L 347.380044 111.6085 
L 347.691803 112.197889 
L 347.847682 112.875749 
L 348.003562 112.822594 
L 348.159441 111.875823 
L 348.315321 112.496656 
L 348.4712 114.505899 
L 348.62708 113.349472 
L 348.782959 114.181155 
L 348.938839 111.54672 
L 349.094718 111.495107 
L 349.250598 109.146231 
L 349.406478 109.35375 
L 349.562357 110.036852 
L 349.718237 112.863222 
L 349.874116 111.276849 
L 350.029996 111.354453 
L 350.185875 112.1918 
L 350.341755 112.311105 
L 350.497634 110.857033 
L 350.653514 111.442425 
L 350.809393 111.391656 
L 350.965273 112.888826 
L 351.121152 112.444878 
L 351.277032 113.178671 
L 351.432911 116.507969 
L 351.74467 112.255761 
L 351.90055 114.844657 
L 352.05643 114.627998 
L 352.212309 113.208612 
L 352.368189 113.291707 
L 352.524068 112.750795 
L 352.679948 112.901956 
L 352.835827 111.890932 
L 352.991707 111.631629 
L 353.147586 112.475009 
L 353.303466 112.694797 
L 353.615225 85.700174 
L 353.771104 84.938453 
L 354.238743 88.464384 
L 354.394622 108.552453 
L 354.550502 111.339423 
L 354.706381 120.240513 
L 354.862261 119.630853 
L 355.018141 114.136235 
L 355.17402 114.901508 
L 355.3299 113.00654 
L 355.485779 108.80096 
L 355.641659 112.65974 
L 355.797538 107.670424 
L 355.953418 106.678765 
L 356.265177 96.623265 
L 356.421056 79.511055 
L 356.576936 80.396545 
L 356.732815 79.270982 
L 356.888695 80.256403 
L 357.044574 79.482593 
L 357.200454 81.079291 
L 357.356333 81.300878 
L 357.512213 80.641993 
L 357.668093 75.707033 
L 357.823972 75.83214 
L 357.979852 81.035674 
L 358.135731 75.830376 
L 358.291611 75.562359 
L 358.44749 72.182032 
L 358.60337 73.274685 
L 358.759249 72.068624 
L 358.915129 77.146536 
L 359.071008 77.058846 
L 359.226888 76.250568 
L 359.538647 72.862679 
L 359.694526 75.596485 
L 359.850406 76.085193 
L 360.006285 75.202596 
L 360.162165 75.248148 
L 360.318045 75.648592 
L 360.473924 75.25726 
L 360.629804 77.700997 
L 360.785683 76.98046 
L 361.097442 76.960193 
L 361.253322 81.25382 
L 361.409201 81.097692 
L 361.565081 81.348783 
L 361.87684 82.70063 
L 362.188599 76.00512 
L 362.344478 75.78252 
L 362.500358 75.756361 
L 362.656237 75.054217 
L 362.812117 75.361167 
L 362.967997 72.287973 
L 363.435635 74.183355 
L 363.591515 82.020906 
L 363.747394 82.605654 
L 363.903274 83.797755 
L 364.215033 91.902533 
L 364.370912 89.820681 
L 364.526792 92.385792 
L 364.682671 91.534005 
L 364.838551 91.378488 
L 364.99443 93.326941 
L 365.15031 93.875341 
L 365.306189 91.577883 
L 365.462069 96.190129 
L 365.773828 95.704022 
L 366.085587 95.989065 
L 366.241467 96.583818 
L 366.397346 96.002071 
L 366.553226 95.94937 
L 366.709105 96.119631 
L 366.864985 91.326328 
L 367.020864 91.599166 
L 367.176744 91.079398 
L 367.488503 91.328102 
L 367.644382 91.898347 
L 367.800262 91.005625 
L 367.956141 90.786296 
L 368.112021 91.679514 
L 368.2679 90.2776 
L 368.42378 90.236321 
L 368.57966 90.000981 
L 368.891419 93.787473 
L 369.047298 93.297312 
L 369.203178 90.654156 
L 369.359057 90.551319 
L 369.670816 88.704831 
L 369.826696 88.572746 
L 369.982575 87.909036 
L 370.294334 88.413104 
L 370.450214 88.119586 
L 370.606093 88.470438 
L 370.761973 88.004106 
L 370.917852 89.242232 
L 371.073732 88.695593 
L 371.385491 86.923551 
L 371.69725 88.780213 
L 372.009009 89.345369 
L 372.164889 91.397569 
L 372.476648 90.898592 
L 372.632527 91.580492 
L 372.788407 91.21936 
L 372.944286 88.741524 
L 373.100166 89.158607 
L 373.567804 88.170191 
L 373.723684 86.110389 
L 373.879564 74.283745 
L 374.035443 72.974937 
L 374.191323 77.714382 
L 374.347202 77.590721 
L 374.503082 78.500052 
L 374.658961 78.404747 
L 374.814841 79.459879 
L 375.282479 84.851248 
L 375.438359 85.09911 
L 375.750118 92.121961 
L 375.905997 106.38946 
L 376.061877 105.047574 
L 376.217756 106.390747 
L 376.373636 106.145506 
L 376.529515 108.58404 
L 376.685395 108.791259 
L 376.841275 108.685974 
L 376.997154 108.721909 
L 377.153034 119.165224 
L 377.308913 118.999197 
L 377.620672 110.122046 
L 377.776552 110.425552 
L 377.932431 115.427058 
L 378.088311 110.906419 
L 378.24419 113.647354 
L 378.40007 104.180095 
L 378.555949 101.743428 
L 378.711829 101.261527 
L 379.023588 108.629317 
L 379.335347 104.022541 
L 379.491227 109.233236 
L 379.802986 110.006006 
L 379.958865 112.684723 
L 380.114745 108.001791 
L 380.270624 107.441063 
L 380.426504 107.408547 
L 380.582383 107.573034 
L 380.738263 99.572868 
L 380.894142 99.918691 
L 381.050022 99.763356 
L 381.361781 98.297596 
L 381.51766 109.607834 
L 381.67354 111.489365 
L 381.829419 111.584857 
L 381.985299 112.047363 
L 382.297058 112.248654 
L 382.452938 122.744247 
L 382.608817 120.861304 
L 382.764697 120.977489 
L 382.920576 118.725365 
L 383.076456 104.336606 
L 383.388215 103.627344 
L 383.699974 96.679333 
L 383.855853 98.778438 
L 384.011733 92.557806 
L 384.167612 94.45469 
L 384.323492 93.715219 
L 384.479371 90.518374 
L 384.94701 94.741057 
L 385.414649 102.633328 
L 385.570528 102.352408 
L 385.726408 102.70943 
L 385.882287 99.282659 
L 386.038167 99.017054 
L 386.194046 98.288739 
L 386.349926 108.61642 
L 386.505805 107.283801 
L 386.661685 107.964684 
L 386.817564 107.436187 
L 387.441082 112.808915 
L 387.596962 113.502559 
L 387.752842 119.011197 
L 387.908721 118.554121 
L 388.22048 124.216371 
L 388.37636 118.967118 
L 388.532239 109.164751 
L 388.688119 119.382607 
L 388.843998 119.367365 
L 388.999878 121.394151 
L 389.155757 120.929947 
L 389.311637 118.983277 
L 389.467516 119.736141 
L 389.623396 116.102176 
L 389.779275 116.759186 
L 389.935155 116.09982 
L 390.091034 117.293709 
L 390.246914 117.34477 
L 390.402794 110.317606 
L 390.558673 109.362003 
L 390.714553 115.030682 
L 390.870432 111.469594 
L 391.026312 98.927302 
L 391.182191 95.530137 
L 391.338071 96.602799 
L 391.64983 90.845711 
L 391.805709 91.390102 
L 391.961589 90.508703 
L 392.117468 90.364789 
L 392.273348 91.471342 
L 392.585107 101.087656 
L 392.740986 101.066062 
L 392.896866 104.400558 
L 393.364505 105.201158 
L 393.520384 103.686441 
L 393.676264 93.772726 
L 393.832143 94.218504 
L 393.988023 101.836478 
L 394.143902 101.963556 
L 394.299782 102.356031 
L 394.455661 104.995644 
L 394.611541 113.824069 
L 394.76742 113.385828 
L 394.9233 111.983659 
L 395.079179 111.885606 
L 395.235059 111.116754 
L 395.390938 111.286286 
L 395.546818 116.138282 
L 395.702698 117.043824 
L 395.858577 121.171889 
L 396.170336 119.859097 
L 396.482095 123.872519 
L 396.637975 123.403671 
L 396.793854 127.994218 
L 396.949734 128.158632 
L 397.105613 131.955835 
L 397.261493 131.703519 
L 397.417372 137.565653 
L 397.573252 134.535073 
L 397.729131 128.286991 
L 398.04089 134.279248 
L 398.19677 134.261834 
L 398.352649 130.908766 
L 398.664409 133.399122 
L 398.820288 136.185966 
L 398.976168 136.59209 
L 399.287927 134.819751 
L 399.443806 131.198241 
L 399.599686 135.902179 
L 399.911445 134.238166 
L 400.067324 131.661812 
L 400.223204 132.670009 
L 400.379083 132.571404 
L 400.534963 133.965417 
L 400.690842 130.880312 
L 400.846722 131.020996 
L 401.158481 125.720391 
L 401.314361 126.261454 
L 401.62612 133.499296 
L 401.781999 128.840824 
L 401.937879 128.204334 
L 402.093758 134.621391 
L 402.249638 132.614654 
L 402.405517 133.610839 
L 402.561397 132.571611 
L 402.717276 134.963979 
L 402.873156 135.105795 
L 403.184915 127.867099 
L 403.496674 130.693948 
L 403.652553 128.681528 
L 403.808433 131.614361 
L 404.276072 125.977495 
L 404.431951 125.325573 
L 404.587831 121.713475 
L 404.74371 130.296777 
L 404.89959 130.237009 
L 405.678987 150.423125 
L 405.834867 143.656351 
L 405.990746 143.182298 
L 406.146626 143.228409 
L 406.302505 147.155995 
L 406.614265 142.050807 
L 406.770144 127.647811 
L 406.926024 128.505139 
L 407.237783 92.499118 
L 407.549542 87.4449 
L 407.705421 84.104783 
L 407.861301 83.171379 
L 408.01718 85.058492 
L 408.17306 83.531312 
L 408.328939 77.798568 
L 408.484819 77.630961 
L 408.640698 77.799984 
L 408.796578 72.700663 
L 408.952457 72.824973 
L 409.108337 74.115548 
L 409.264216 72.687512 
L 409.420096 72.803991 
L 409.575976 72.411261 
L 409.887735 74.647684 
L 410.199494 73.270608 
L 410.511253 77.495463 
L 410.667132 78.514377 
L 410.823012 75.631911 
L 410.978891 76.567518 
L 411.29065 74.867729 
L 411.44653 75.338612 
L 411.602409 74.89623 
L 411.758289 81.543676 
L 411.914168 81.326521 
L 412.070048 82.481219 
L 412.381807 78.044967 
L 412.693566 83.882758 
L 412.849446 83.916087 
L 413.005325 87.526097 
L 413.317084 83.584037 
L 413.472964 87.545953 
L 413.628843 86.500481 
L 413.784723 88.124825 
L 413.940602 86.372097 
L 414.096482 79.484161 
L 414.252361 82.047891 
L 414.56412 83.119727 
L 414.72 82.066743 
L 414.72 82.066743 
" clip-path="url(#p440082db4e)" style="fill: none; stroke: #000000; stroke-width: 1.5; stroke-linecap: square"/>
   </g>
   <g id="patch_3">
    <path d="M 57.6 307.584 
L 57.6 41.472 
" style="fill: none; stroke: #000000; stroke-width: 0.8; stroke-linejoin: miter; stroke-linecap: square"/>
   </g>
   <g id="patch_4">
    <path d="M 414.72 307.584 
L 414.72 41.472 
" style="fill: none; stroke: #000000; stroke-width: 0.8; stroke-linejoin: miter; stroke-linecap: square"/>
   </g>
   <g id="patch_5">
    <path d="M 57.6 307.584 
L 414.72 307.584 
" style="fill: none; stroke: #000000; stroke-width: 0.8; stroke-linejoin: miter; stroke-linecap: square"/>
   </g>
   <g id="patch_6">
    <path d="M 57.6 41.472 
L 414.72 41.472 
" style="fill: none; stroke: #000000; stroke-width: 0.8; stroke-linejoin: miter; stroke-linecap: square"/>
   </g>
  </g>
 </g>
 <defs>
  <clipPath id="p440082db4e">
   <rect x="57.6" y="41.472" width="357.12" height="266.112"/>
  </clipPath>
 </defs>
</svg>
