<?xml version="1.0" encoding="utf-8" standalone="no"?>
<!DOCTYPE svg PUBLIC "-//W3C//DTD SVG 1.1//EN"
  "http://www.w3.org/Graphics/SVG/1.1/DTD/svg11.dtd">
<svg xmlns:xlink="http://www.w3.org/1999/xlink" width="460.8pt" height="345.6pt" viewBox="0 0 460.8 345.6" xmlns="http://www.w3.org/2000/svg" version="1.1">
 <metadata>
  <rdf:RDF xmlns:dc="http://purl.org/dc/elements/1.1/" xmlns:cc="http://creativecommons.org/ns#" xmlns:rdf="http://www.w3.org/1999/02/22-rdf-syntax-ns#">
   <cc:Work>
    <dc:type rdf:resource="http://purl.org/dc/dcmitype/StillImage"/>
    <dc:date>2025-05-14T16:20:52.306349</dc:date>
    <dc:format>image/svg+xml</dc:format>
    <dc:creator>
     <cc:Agent>
      <dc:title>Matplotlib v3.10.0, https://matplotlib.org/</dc:title>
     </cc:Agent>
    </dc:creator>
   </cc:Work>
  </rdf:RDF>
 </metadata>
 <defs>
  <style type="text/css">*{stroke-linejoin: round; stroke-linecap: butt}</style>
 </defs>
 <g id="figure_1">
  <g id="patch_1">
   <path d="M 0 345.6 
L 460.8 345.6 
L 460.8 0 
L 0 0 
z
" style="fill: #ffffff"/>
  </g>
  <g id="axes_1">
   <g id="patch_2">
    <path d="M 57.6 307.584 
L 414.72 307.584 
L 414.72 41.472 
L 57.6 41.472 
z
" style="fill: #ffffff"/>
   </g>
   <g id="matplotlib.axis_1">
    <g id="xtick_1">
     <g id="line2d_1">
      <path d="M 87.89076 307.584 
L 87.89076 41.472 
" clip-path="url(#p4e0729fac7)" style="fill: none; stroke: #cccccc; stroke-width: 0.8; stroke-linecap: round"/>
     </g>
     <g id="text_1">
      <!-- −0.02 -->
      <g style="fill: #262626" transform="translate(75.239979 321.741812) scale(0.1 -0.1)">
       <defs>
        <path id="ArialMT-2212" d="M 3381 1997 
L 356 1997 
L 356 2522 
L 3381 2522 
L 3381 1997 
z
" transform="scale(0.015625)"/>
        <path id="ArialMT-30" d="M 266 2259 
Q 266 3072 433 3567 
Q 600 4063 929 4331 
Q 1259 4600 1759 4600 
Q 2128 4600 2406 4451 
Q 2684 4303 2865 4023 
Q 3047 3744 3150 3342 
Q 3253 2941 3253 2259 
Q 3253 1453 3087 958 
Q 2922 463 2592 192 
Q 2263 -78 1759 -78 
Q 1097 -78 719 397 
Q 266 969 266 2259 
z
M 844 2259 
Q 844 1131 1108 757 
Q 1372 384 1759 384 
Q 2147 384 2411 759 
Q 2675 1134 2675 2259 
Q 2675 3391 2411 3762 
Q 2147 4134 1753 4134 
Q 1366 4134 1134 3806 
Q 844 3388 844 2259 
z
" transform="scale(0.015625)"/>
        <path id="ArialMT-2e" d="M 581 0 
L 581 641 
L 1222 641 
L 1222 0 
L 581 0 
z
" transform="scale(0.015625)"/>
        <path id="ArialMT-32" d="M 3222 541 
L 3222 0 
L 194 0 
Q 188 203 259 391 
Q 375 700 629 1000 
Q 884 1300 1366 1694 
Q 2113 2306 2375 2664 
Q 2638 3022 2638 3341 
Q 2638 3675 2398 3904 
Q 2159 4134 1775 4134 
Q 1369 4134 1125 3890 
Q 881 3647 878 3216 
L 300 3275 
Q 359 3922 746 4261 
Q 1134 4600 1788 4600 
Q 2447 4600 2831 4234 
Q 3216 3869 3216 3328 
Q 3216 3053 3103 2787 
Q 2991 2522 2730 2228 
Q 2469 1934 1863 1422 
Q 1356 997 1212 845 
Q 1069 694 975 541 
L 3222 541 
z
" transform="scale(0.015625)"/>
       </defs>
       <use xlink:href="#ArialMT-2212"/>
       <use xlink:href="#ArialMT-30" transform="translate(58.398438 0)"/>
       <use xlink:href="#ArialMT-2e" transform="translate(114.013672 0)"/>
       <use xlink:href="#ArialMT-30" transform="translate(141.796875 0)"/>
       <use xlink:href="#ArialMT-32" transform="translate(197.412109 0)"/>
      </g>
     </g>
    </g>
    <g id="xtick_2">
     <g id="line2d_2">
      <path d="M 159.495862 307.584 
L 159.495862 41.472 
" clip-path="url(#p4e0729fac7)" style="fill: none; stroke: #cccccc; stroke-width: 0.8; stroke-linecap: round"/>
     </g>
     <g id="text_2">
      <!-- 0.00 -->
      <g style="fill: #262626" transform="translate(149.765393 321.741812) scale(0.1 -0.1)">
       <use xlink:href="#ArialMT-30"/>
       <use xlink:href="#ArialMT-2e" transform="translate(55.615234 0)"/>
       <use xlink:href="#ArialMT-30" transform="translate(83.398438 0)"/>
       <use xlink:href="#ArialMT-30" transform="translate(139.013672 0)"/>
      </g>
     </g>
    </g>
    <g id="xtick_3">
     <g id="line2d_3">
      <path d="M 231.100964 307.584 
L 231.100964 41.472 
" clip-path="url(#p4e0729fac7)" style="fill: none; stroke: #cccccc; stroke-width: 0.8; stroke-linecap: round"/>
     </g>
     <g id="text_3">
      <!-- 0.02 -->
      <g style="fill: #262626" transform="translate(221.370495 321.741812) scale(0.1 -0.1)">
       <use xlink:href="#ArialMT-30"/>
       <use xlink:href="#ArialMT-2e" transform="translate(55.615234 0)"/>
       <use xlink:href="#ArialMT-30" transform="translate(83.398438 0)"/>
       <use xlink:href="#ArialMT-32" transform="translate(139.013672 0)"/>
      </g>
     </g>
    </g>
    <g id="xtick_4">
     <g id="line2d_4">
      <path d="M 302.706066 307.584 
L 302.706066 41.472 
" clip-path="url(#p4e0729fac7)" style="fill: none; stroke: #cccccc; stroke-width: 0.8; stroke-linecap: round"/>
     </g>
     <g id="text_4">
      <!-- 0.04 -->
      <g style="fill: #262626" transform="translate(292.975597 321.741812) scale(0.1 -0.1)">
       <defs>
        <path id="ArialMT-34" d="M 2069 0 
L 2069 1097 
L 81 1097 
L 81 1613 
L 2172 4581 
L 2631 4581 
L 2631 1613 
L 3250 1613 
L 3250 1097 
L 2631 1097 
L 2631 0 
L 2069 0 
z
M 2069 1613 
L 2069 3678 
L 634 1613 
L 2069 1613 
z
" transform="scale(0.015625)"/>
       </defs>
       <use xlink:href="#ArialMT-30"/>
       <use xlink:href="#ArialMT-2e" transform="translate(55.615234 0)"/>
       <use xlink:href="#ArialMT-30" transform="translate(83.398438 0)"/>
       <use xlink:href="#ArialMT-34" transform="translate(139.013672 0)"/>
      </g>
     </g>
    </g>
    <g id="xtick_5">
     <g id="line2d_5">
      <path d="M 374.311168 307.584 
L 374.311168 41.472 
" clip-path="url(#p4e0729fac7)" style="fill: none; stroke: #cccccc; stroke-width: 0.8; stroke-linecap: round"/>
     </g>
     <g id="text_5">
      <!-- 0.06 -->
      <g style="fill: #262626" transform="translate(364.580699 321.741812) scale(0.1 -0.1)">
       <defs>
        <path id="ArialMT-36" d="M 3184 3459 
L 2625 3416 
Q 2550 3747 2413 3897 
Q 2184 4138 1850 4138 
Q 1581 4138 1378 3988 
Q 1113 3794 959 3422 
Q 806 3050 800 2363 
Q 1003 2672 1297 2822 
Q 1591 2972 1913 2972 
Q 2475 2972 2870 2558 
Q 3266 2144 3266 1488 
Q 3266 1056 3080 686 
Q 2894 316 2569 119 
Q 2244 -78 1831 -78 
Q 1128 -78 684 439 
Q 241 956 241 2144 
Q 241 3472 731 4075 
Q 1159 4600 1884 4600 
Q 2425 4600 2770 4297 
Q 3116 3994 3184 3459 
z
M 888 1484 
Q 888 1194 1011 928 
Q 1134 663 1356 523 
Q 1578 384 1822 384 
Q 2178 384 2434 671 
Q 2691 959 2691 1453 
Q 2691 1928 2437 2201 
Q 2184 2475 1800 2475 
Q 1419 2475 1153 2201 
Q 888 1928 888 1484 
z
" transform="scale(0.015625)"/>
       </defs>
       <use xlink:href="#ArialMT-30"/>
       <use xlink:href="#ArialMT-2e" transform="translate(55.615234 0)"/>
       <use xlink:href="#ArialMT-30" transform="translate(83.398438 0)"/>
       <use xlink:href="#ArialMT-36" transform="translate(139.013672 0)"/>
      </g>
     </g>
    </g>
    <g id="text_6">
     <!-- m1 -->
     <g style="fill: #262626" transform="translate(229.214687 334.887125) scale(0.1 -0.1)">
      <defs>
       <path id="ArialMT-6d" d="M 422 0 
L 422 3319 
L 925 3319 
L 925 2853 
Q 1081 3097 1340 3245 
Q 1600 3394 1931 3394 
Q 2300 3394 2536 3241 
Q 2772 3088 2869 2813 
Q 3263 3394 3894 3394 
Q 4388 3394 4653 3120 
Q 4919 2847 4919 2278 
L 4919 0 
L 4359 0 
L 4359 2091 
Q 4359 2428 4304 2576 
Q 4250 2725 4106 2815 
Q 3963 2906 3769 2906 
Q 3419 2906 3187 2673 
Q 2956 2441 2956 1928 
L 2956 0 
L 2394 0 
L 2394 2156 
Q 2394 2531 2256 2718 
Q 2119 2906 1806 2906 
Q 1569 2906 1367 2781 
Q 1166 2656 1075 2415 
Q 984 2175 984 1722 
L 984 0 
L 422 0 
z
" transform="scale(0.015625)"/>
       <path id="ArialMT-31" d="M 2384 0 
L 1822 0 
L 1822 3584 
Q 1619 3391 1289 3197 
Q 959 3003 697 2906 
L 697 3450 
Q 1169 3672 1522 3987 
Q 1875 4303 2022 4600 
L 2384 4600 
L 2384 0 
z
" transform="scale(0.015625)"/>
      </defs>
      <use xlink:href="#ArialMT-6d"/>
      <use xlink:href="#ArialMT-31" transform="translate(83.300781 0)"/>
     </g>
    </g>
   </g>
   <g id="matplotlib.axis_2">
    <g id="ytick_1">
     <g id="line2d_6">
      <path d="M 57.6 275.460581 
L 414.72 275.460581 
" clip-path="url(#p4e0729fac7)" style="fill: none; stroke: #cccccc; stroke-width: 0.8; stroke-linecap: round"/>
     </g>
     <g id="text_7">
      <!-- −0.10 -->
      <g style="fill: #262626" transform="translate(25.298437 279.039487) scale(0.1 -0.1)">
       <use xlink:href="#ArialMT-2212"/>
       <use xlink:href="#ArialMT-30" transform="translate(58.398438 0)"/>
       <use xlink:href="#ArialMT-2e" transform="translate(114.013672 0)"/>
       <use xlink:href="#ArialMT-31" transform="translate(141.796875 0)"/>
       <use xlink:href="#ArialMT-30" transform="translate(197.412109 0)"/>
      </g>
     </g>
    </g>
    <g id="ytick_2">
     <g id="line2d_7">
      <path d="M 57.6 240.468871 
L 414.72 240.468871 
" clip-path="url(#p4e0729fac7)" style="fill: none; stroke: #cccccc; stroke-width: 0.8; stroke-linecap: round"/>
     </g>
     <g id="text_8">
      <!-- −0.05 -->
      <g style="fill: #262626" transform="translate(25.298437 244.047777) scale(0.1 -0.1)">
       <defs>
        <path id="ArialMT-35" d="M 266 1200 
L 856 1250 
Q 922 819 1161 601 
Q 1400 384 1738 384 
Q 2144 384 2425 690 
Q 2706 997 2706 1503 
Q 2706 1984 2436 2262 
Q 2166 2541 1728 2541 
Q 1456 2541 1237 2417 
Q 1019 2294 894 2097 
L 366 2166 
L 809 4519 
L 3088 4519 
L 3088 3981 
L 1259 3981 
L 1013 2750 
Q 1425 3038 1878 3038 
Q 2478 3038 2890 2622 
Q 3303 2206 3303 1553 
Q 3303 931 2941 478 
Q 2500 -78 1738 -78 
Q 1113 -78 717 272 
Q 322 622 266 1200 
z
" transform="scale(0.015625)"/>
       </defs>
       <use xlink:href="#ArialMT-2212"/>
       <use xlink:href="#ArialMT-30" transform="translate(58.398438 0)"/>
       <use xlink:href="#ArialMT-2e" transform="translate(114.013672 0)"/>
       <use xlink:href="#ArialMT-30" transform="translate(141.796875 0)"/>
       <use xlink:href="#ArialMT-35" transform="translate(197.412109 0)"/>
      </g>
     </g>
    </g>
    <g id="ytick_3">
     <g id="line2d_8">
      <path d="M 57.6 205.477162 
L 414.72 205.477162 
" clip-path="url(#p4e0729fac7)" style="fill: none; stroke: #cccccc; stroke-width: 0.8; stroke-linecap: round"/>
     </g>
     <g id="text_9">
      <!-- 0.00 -->
      <g style="fill: #262626" transform="translate(31.139063 209.056068) scale(0.1 -0.1)">
       <use xlink:href="#ArialMT-30"/>
       <use xlink:href="#ArialMT-2e" transform="translate(55.615234 0)"/>
       <use xlink:href="#ArialMT-30" transform="translate(83.398438 0)"/>
       <use xlink:href="#ArialMT-30" transform="translate(139.013672 0)"/>
      </g>
     </g>
    </g>
    <g id="ytick_4">
     <g id="line2d_9">
      <path d="M 57.6 170.485452 
L 414.72 170.485452 
" clip-path="url(#p4e0729fac7)" style="fill: none; stroke: #cccccc; stroke-width: 0.8; stroke-linecap: round"/>
     </g>
     <g id="text_10">
      <!-- 0.05 -->
      <g style="fill: #262626" transform="translate(31.139063 174.064359) scale(0.1 -0.1)">
       <use xlink:href="#ArialMT-30"/>
       <use xlink:href="#ArialMT-2e" transform="translate(55.615234 0)"/>
       <use xlink:href="#ArialMT-30" transform="translate(83.398438 0)"/>
       <use xlink:href="#ArialMT-35" transform="translate(139.013672 0)"/>
      </g>
     </g>
    </g>
    <g id="ytick_5">
     <g id="line2d_10">
      <path d="M 57.6 135.493743 
L 414.72 135.493743 
" clip-path="url(#p4e0729fac7)" style="fill: none; stroke: #cccccc; stroke-width: 0.8; stroke-linecap: round"/>
     </g>
     <g id="text_11">
      <!-- 0.10 -->
      <g style="fill: #262626" transform="translate(31.139063 139.072649) scale(0.1 -0.1)">
       <use xlink:href="#ArialMT-30"/>
       <use xlink:href="#ArialMT-2e" transform="translate(55.615234 0)"/>
       <use xlink:href="#ArialMT-31" transform="translate(83.398438 0)"/>
       <use xlink:href="#ArialMT-30" transform="translate(139.013672 0)"/>
      </g>
     </g>
    </g>
    <g id="ytick_6">
     <g id="line2d_11">
      <path d="M 57.6 100.502034 
L 414.72 100.502034 
" clip-path="url(#p4e0729fac7)" style="fill: none; stroke: #cccccc; stroke-width: 0.8; stroke-linecap: round"/>
     </g>
     <g id="text_12">
      <!-- 0.15 -->
      <g style="fill: #262626" transform="translate(31.139063 104.08094) scale(0.1 -0.1)">
       <use xlink:href="#ArialMT-30"/>
       <use xlink:href="#ArialMT-2e" transform="translate(55.615234 0)"/>
       <use xlink:href="#ArialMT-31" transform="translate(83.398438 0)"/>
       <use xlink:href="#ArialMT-35" transform="translate(139.013672 0)"/>
      </g>
     </g>
    </g>
    <g id="ytick_7">
     <g id="line2d_12">
      <path d="M 57.6 65.510324 
L 414.72 65.510324 
" clip-path="url(#p4e0729fac7)" style="fill: none; stroke: #cccccc; stroke-width: 0.8; stroke-linecap: round"/>
     </g>
     <g id="text_13">
      <!-- 0.20 -->
      <g style="fill: #262626" transform="translate(31.139063 69.08923) scale(0.1 -0.1)">
       <use xlink:href="#ArialMT-30"/>
       <use xlink:href="#ArialMT-2e" transform="translate(55.615234 0)"/>
       <use xlink:href="#ArialMT-32" transform="translate(83.398438 0)"/>
       <use xlink:href="#ArialMT-30" transform="translate(139.013672 0)"/>
      </g>
     </g>
    </g>
    <g id="text_14">
     <!-- unemp -->
     <g style="fill: #262626" transform="translate(19.310937 189.814719) rotate(-90) scale(0.1 -0.1)">
      <defs>
       <path id="ArialMT-75" d="M 2597 0 
L 2597 488 
Q 2209 -75 1544 -75 
Q 1250 -75 995 37 
Q 741 150 617 320 
Q 494 491 444 738 
Q 409 903 409 1263 
L 409 3319 
L 972 3319 
L 972 1478 
Q 972 1038 1006 884 
Q 1059 663 1231 536 
Q 1403 409 1656 409 
Q 1909 409 2131 539 
Q 2353 669 2445 892 
Q 2538 1116 2538 1541 
L 2538 3319 
L 3100 3319 
L 3100 0 
L 2597 0 
z
" transform="scale(0.015625)"/>
       <path id="ArialMT-6e" d="M 422 0 
L 422 3319 
L 928 3319 
L 928 2847 
Q 1294 3394 1984 3394 
Q 2284 3394 2536 3286 
Q 2788 3178 2913 3003 
Q 3038 2828 3088 2588 
Q 3119 2431 3119 2041 
L 3119 0 
L 2556 0 
L 2556 2019 
Q 2556 2363 2490 2533 
Q 2425 2703 2258 2804 
Q 2091 2906 1866 2906 
Q 1506 2906 1245 2678 
Q 984 2450 984 1813 
L 984 0 
L 422 0 
z
" transform="scale(0.015625)"/>
       <path id="ArialMT-65" d="M 2694 1069 
L 3275 997 
Q 3138 488 2766 206 
Q 2394 -75 1816 -75 
Q 1088 -75 661 373 
Q 234 822 234 1631 
Q 234 2469 665 2931 
Q 1097 3394 1784 3394 
Q 2450 3394 2872 2941 
Q 3294 2488 3294 1666 
Q 3294 1616 3291 1516 
L 816 1516 
Q 847 969 1125 678 
Q 1403 388 1819 388 
Q 2128 388 2347 550 
Q 2566 713 2694 1069 
z
M 847 1978 
L 2700 1978 
Q 2663 2397 2488 2606 
Q 2219 2931 1791 2931 
Q 1403 2931 1139 2672 
Q 875 2413 847 1978 
z
" transform="scale(0.015625)"/>
       <path id="ArialMT-70" d="M 422 -1272 
L 422 3319 
L 934 3319 
L 934 2888 
Q 1116 3141 1344 3267 
Q 1572 3394 1897 3394 
Q 2322 3394 2647 3175 
Q 2972 2956 3137 2557 
Q 3303 2159 3303 1684 
Q 3303 1175 3120 767 
Q 2938 359 2589 142 
Q 2241 -75 1856 -75 
Q 1575 -75 1351 44 
Q 1128 163 984 344 
L 984 -1272 
L 422 -1272 
z
M 931 1641 
Q 931 1000 1190 694 
Q 1450 388 1819 388 
Q 2194 388 2461 705 
Q 2728 1022 2728 1688 
Q 2728 2322 2467 2637 
Q 2206 2953 1844 2953 
Q 1484 2953 1207 2617 
Q 931 2281 931 1641 
z
" transform="scale(0.015625)"/>
      </defs>
      <use xlink:href="#ArialMT-75"/>
      <use xlink:href="#ArialMT-6e" transform="translate(55.615234 0)"/>
      <use xlink:href="#ArialMT-65" transform="translate(111.230469 0)"/>
      <use xlink:href="#ArialMT-6d" transform="translate(166.845703 0)"/>
      <use xlink:href="#ArialMT-70" transform="translate(250.146484 0)"/>
     </g>
    </g>
   </g>
   <g id="PathCollection_1">
    <defs>
     <path id="mafae174b1d" d="M 0 3 
C 0.795609 3 1.55874 2.683901 2.12132 2.12132 
C 2.683901 1.55874 3 0.795609 3 0 
C 3 -0.795609 2.683901 -1.55874 2.12132 -2.12132 
C 1.55874 -2.683901 0.795609 -3 0 -3 
C -0.795609 -3 -1.55874 -2.683901 -2.12132 -2.12132 
C -2.683901 -1.55874 -3 -0.795609 -3 0 
C -3 0.795609 -2.683901 1.55874 -2.12132 2.12132 
C -1.55874 2.683901 -0.795609 3 0 3 
z
" style="stroke: #2b2b2b; stroke-opacity: 0.8"/>
    </defs>
    <g clip-path="url(#p4e0729fac7)">
     <use xlink:href="#mafae174b1d" x="210.38876" y="295.488" style="fill: #2b2b2b; fill-opacity: 0.8; stroke: #2b2b2b; stroke-opacity: 0.8"/>
     <use xlink:href="#mafae174b1d" x="129.047017" y="178.557143" style="fill: #2b2b2b; fill-opacity: 0.8; stroke: #2b2b2b; stroke-opacity: 0.8"/>
     <use xlink:href="#mafae174b1d" x="146.732016" y="166.944447" style="fill: #2b2b2b; fill-opacity: 0.8; stroke: #2b2b2b; stroke-opacity: 0.8"/>
     <use xlink:href="#mafae174b1d" x="149.251921" y="257.340454" style="fill: #2b2b2b; fill-opacity: 0.8; stroke: #2b2b2b; stroke-opacity: 0.8"/>
     <use xlink:href="#mafae174b1d" x="174.850804" y="205.477162" style="fill: #2b2b2b; fill-opacity: 0.8; stroke: #2b2b2b; stroke-opacity: 0.8"/>
     <use xlink:href="#mafae174b1d" x="177.327123" y="153.613869" style="fill: #2b2b2b; fill-opacity: 0.8; stroke: #2b2b2b; stroke-opacity: 0.8"/>
     <use xlink:href="#mafae174b1d" x="164.574239" y="123.048567" style="fill: #2b2b2b; fill-opacity: 0.8; stroke: #2b2b2b; stroke-opacity: 0.8"/>
     <use xlink:href="#mafae174b1d" x="184.780255" y="152.02874" style="fill: #2b2b2b; fill-opacity: 0.8; stroke: #2b2b2b; stroke-opacity: 0.8"/>
     <use xlink:href="#mafae174b1d" x="179.595593" y="185.190692" style="fill: #2b2b2b; fill-opacity: 0.8; stroke: #2b2b2b; stroke-opacity: 0.8"/>
     <use xlink:href="#mafae174b1d" x="189.435452" y="225.763631" style="fill: #2b2b2b; fill-opacity: 0.8; stroke: #2b2b2b; stroke-opacity: 0.8"/>
     <use xlink:href="#mafae174b1d" x="186.722268" y="270.123169" style="fill: #2b2b2b; fill-opacity: 0.8; stroke: #2b2b2b; stroke-opacity: 0.8"/>
     <use xlink:href="#mafae174b1d" x="188.963149" y="276.708171" style="fill: #2b2b2b; fill-opacity: 0.8; stroke: #2b2b2b; stroke-opacity: 0.8"/>
     <use xlink:href="#mafae174b1d" x="161.940557" y="218.087128" style="fill: #2b2b2b; fill-opacity: 0.8; stroke: #2b2b2b; stroke-opacity: 0.8"/>
     <use xlink:href="#mafae174b1d" x="164.380249" y="192.867196" style="fill: #2b2b2b; fill-opacity: 0.8; stroke: #2b2b2b; stroke-opacity: 0.8"/>
     <use xlink:href="#mafae174b1d" x="198.332908" y="218.087128" style="fill: #2b2b2b; fill-opacity: 0.8; stroke: #2b2b2b; stroke-opacity: 0.8"/>
     <use xlink:href="#mafae174b1d" x="193.13609" y="168.30909" style="fill: #2b2b2b; fill-opacity: 0.8; stroke: #2b2b2b; stroke-opacity: 0.8"/>
     <use xlink:href="#mafae174b1d" x="197.558733" y="217.648498" style="fill: #2b2b2b; fill-opacity: 0.8; stroke: #2b2b2b; stroke-opacity: 0.8"/>
     <use xlink:href="#mafae174b1d" x="190.126728" y="230.473897" style="fill: #2b2b2b; fill-opacity: 0.8; stroke: #2b2b2b; stroke-opacity: 0.8"/>
     <use xlink:href="#mafae174b1d" x="185.211158" y="192.867196" style="fill: #2b2b2b; fill-opacity: 0.8; stroke: #2b2b2b; stroke-opacity: 0.8"/>
     <use xlink:href="#mafae174b1d" x="185.027773" y="218.087128" style="fill: #2b2b2b; fill-opacity: 0.8; stroke: #2b2b2b; stroke-opacity: 0.8"/>
     <use xlink:href="#mafae174b1d" x="205.456122" y="244.730488" style="fill: #2b2b2b; fill-opacity: 0.8; stroke: #2b2b2b; stroke-opacity: 0.8"/>
     <use xlink:href="#mafae174b1d" x="213.88053" y="232.925158" style="fill: #2b2b2b; fill-opacity: 0.8; stroke: #2b2b2b; stroke-opacity: 0.8"/>
     <use xlink:href="#mafae174b1d" x="193.071492" y="205.477162" style="fill: #2b2b2b; fill-opacity: 0.8; stroke: #2b2b2b; stroke-opacity: 0.8"/>
     <use xlink:href="#mafae174b1d" x="188.342201" y="219.615707" style="fill: #2b2b2b; fill-opacity: 0.8; stroke: #2b2b2b; stroke-opacity: 0.8"/>
     <use xlink:href="#mafae174b1d" x="183.724073" y="234.641139" style="fill: #2b2b2b; fill-opacity: 0.8; stroke: #2b2b2b; stroke-opacity: 0.8"/>
     <use xlink:href="#mafae174b1d" x="222.595276" y="251.636803" style="fill: #2b2b2b; fill-opacity: 0.8; stroke: #2b2b2b; stroke-opacity: 0.8"/>
     <use xlink:href="#mafae174b1d" x="225.739416" y="254.89775" style="fill: #2b2b2b; fill-opacity: 0.8; stroke: #2b2b2b; stroke-opacity: 0.8"/>
     <use xlink:href="#mafae174b1d" x="216.209801" y="240.476164" style="fill: #2b2b2b; fill-opacity: 0.8; stroke: #2b2b2b; stroke-opacity: 0.8"/>
     <use xlink:href="#mafae174b1d" x="128.099095" y="223.655695" style="fill: #2b2b2b; fill-opacity: 0.8; stroke: #2b2b2b; stroke-opacity: 0.8"/>
     <use xlink:href="#mafae174b1d" x="178.366943" y="205.477162" style="fill: #2b2b2b; fill-opacity: 0.8; stroke: #2b2b2b; stroke-opacity: 0.8"/>
     <use xlink:href="#mafae174b1d" x="174.104909" y="224.140513" style="fill: #2b2b2b; fill-opacity: 0.8; stroke: #2b2b2b; stroke-opacity: 0.8"/>
     <use xlink:href="#mafae174b1d" x="207.081577" y="186.813811" style="fill: #2b2b2b; fill-opacity: 0.8; stroke: #2b2b2b; stroke-opacity: 0.8"/>
     <use xlink:href="#mafae174b1d" x="238.766741" y="205.477162" style="fill: #2b2b2b; fill-opacity: 0.8; stroke: #2b2b2b; stroke-opacity: 0.8"/>
     <use xlink:href="#mafae174b1d" x="229.172194" y="205.477162" style="fill: #2b2b2b; fill-opacity: 0.8; stroke: #2b2b2b; stroke-opacity: 0.8"/>
     <use xlink:href="#mafae174b1d" x="212.334694" y="187.298628" style="fill: #2b2b2b; fill-opacity: 0.8; stroke: #2b2b2b; stroke-opacity: 0.8"/>
     <use xlink:href="#mafae174b1d" x="203.899703" y="242.319046" style="fill: #2b2b2b; fill-opacity: 0.8; stroke: #2b2b2b; stroke-opacity: 0.8"/>
     <use xlink:href="#mafae174b1d" x="233.553103" y="244.366843" style="fill: #2b2b2b; fill-opacity: 0.8; stroke: #2b2b2b; stroke-opacity: 0.8"/>
     <use xlink:href="#mafae174b1d" x="224.677859" y="205.477162" style="fill: #2b2b2b; fill-opacity: 0.8; stroke: #2b2b2b; stroke-opacity: 0.8"/>
     <use xlink:href="#mafae174b1d" x="245.199975" y="225.763631" style="fill: #2b2b2b; fill-opacity: 0.8; stroke: #2b2b2b; stroke-opacity: 0.8"/>
     <use xlink:href="#mafae174b1d" x="195.352497" y="205.477162" style="fill: #2b2b2b; fill-opacity: 0.8; stroke: #2b2b2b; stroke-opacity: 0.8"/>
     <use xlink:href="#mafae174b1d" x="177.290407" y="205.477162" style="fill: #2b2b2b; fill-opacity: 0.8; stroke: #2b2b2b; stroke-opacity: 0.8"/>
     <use xlink:href="#mafae174b1d" x="180.733226" y="165.47575" style="fill: #2b2b2b; fill-opacity: 0.8; stroke: #2b2b2b; stroke-opacity: 0.8"/>
     <use xlink:href="#mafae174b1d" x="217.25728" y="205.477162" style="fill: #2b2b2b; fill-opacity: 0.8; stroke: #2b2b2b; stroke-opacity: 0.8"/>
     <use xlink:href="#mafae174b1d" x="168.166864" y="97.597246" style="fill: #2b2b2b; fill-opacity: 0.8; stroke: #2b2b2b; stroke-opacity: 0.8"/>
     <use xlink:href="#mafae174b1d" x="181.942676" y="112.027328" style="fill: #2b2b2b; fill-opacity: 0.8; stroke: #2b2b2b; stroke-opacity: 0.8"/>
     <use xlink:href="#mafae174b1d" x="242.860284" y="149.460538" style="fill: #2b2b2b; fill-opacity: 0.8; stroke: #2b2b2b; stroke-opacity: 0.8"/>
     <use xlink:href="#mafae174b1d" x="202.954207" y="129.055764" style="fill: #2b2b2b; fill-opacity: 0.8; stroke: #2b2b2b; stroke-opacity: 0.8"/>
     <use xlink:href="#mafae174b1d" x="233.487694" y="193.513893" style="fill: #2b2b2b; fill-opacity: 0.8; stroke: #2b2b2b; stroke-opacity: 0.8"/>
     <use xlink:href="#mafae174b1d" x="238.362841" y="205.477162" style="fill: #2b2b2b; fill-opacity: 0.8; stroke: #2b2b2b; stroke-opacity: 0.8"/>
     <use xlink:href="#mafae174b1d" x="195.924342" y="193.714966" style="fill: #2b2b2b; fill-opacity: 0.8; stroke: #2b2b2b; stroke-opacity: 0.8"/>
     <use xlink:href="#mafae174b1d" x="204.905348" y="205.477162" style="fill: #2b2b2b; fill-opacity: 0.8; stroke: #2b2b2b; stroke-opacity: 0.8"/>
     <use xlink:href="#mafae174b1d" x="244.066696" y="229.202627" style="fill: #2b2b2b; fill-opacity: 0.8; stroke: #2b2b2b; stroke-opacity: 0.8"/>
     <use xlink:href="#mafae174b1d" x="207.796832" y="217.648498" style="fill: #2b2b2b; fill-opacity: 0.8; stroke: #2b2b2b; stroke-opacity: 0.8"/>
     <use xlink:href="#mafae174b1d" x="251.264349" y="217.863931" style="fill: #2b2b2b; fill-opacity: 0.8; stroke: #2b2b2b; stroke-opacity: 0.8"/>
     <use xlink:href="#mafae174b1d" x="253.244051" y="244.009876" style="fill: #2b2b2b; fill-opacity: 0.8; stroke: #2b2b2b; stroke-opacity: 0.8"/>
     <use xlink:href="#mafae174b1d" x="176.537965" y="246.255736" style="fill: #2b2b2b; fill-opacity: 0.8; stroke: #2b2b2b; stroke-opacity: 0.8"/>
     <use xlink:href="#mafae174b1d" x="226.864469" y="219.615707" style="fill: #2b2b2b; fill-opacity: 0.8; stroke: #2b2b2b; stroke-opacity: 0.8"/>
     <use xlink:href="#mafae174b1d" x="180.291207" y="219.907244" style="fill: #2b2b2b; fill-opacity: 0.8; stroke: #2b2b2b; stroke-opacity: 0.8"/>
     <use xlink:href="#mafae174b1d" x="225.240726" y="205.477162" style="fill: #2b2b2b; fill-opacity: 0.8; stroke: #2b2b2b; stroke-opacity: 0.8"/>
     <use xlink:href="#mafae174b1d" x="205.34533" y="163.049979" style="fill: #2b2b2b; fill-opacity: 0.8; stroke: #2b2b2b; stroke-opacity: 0.8"/>
     <use xlink:href="#mafae174b1d" x="187.524097" y="191.887721" style="fill: #2b2b2b; fill-opacity: 0.8; stroke: #2b2b2b; stroke-opacity: 0.8"/>
     <use xlink:href="#mafae174b1d" x="199.15936" y="153.613869" style="fill: #2b2b2b; fill-opacity: 0.8; stroke: #2b2b2b; stroke-opacity: 0.8"/>
     <use xlink:href="#mafae174b1d" x="180.471419" y="90.492269" style="fill: #2b2b2b; fill-opacity: 0.8; stroke: #2b2b2b; stroke-opacity: 0.8"/>
     <use xlink:href="#mafae174b1d" x="189.434545" y="53.568" style="fill: #2b2b2b; fill-opacity: 0.8; stroke: #2b2b2b; stroke-opacity: 0.8"/>
     <use xlink:href="#mafae174b1d" x="255.418418" y="148.148759" style="fill: #2b2b2b; fill-opacity: 0.8; stroke: #2b2b2b; stroke-opacity: 0.8"/>
     <use xlink:href="#mafae174b1d" x="180.885607" y="237.659116" style="fill: #2b2b2b; fill-opacity: 0.8; stroke: #2b2b2b; stroke-opacity: 0.8"/>
     <use xlink:href="#mafae174b1d" x="196.933517" y="222.140668" style="fill: #2b2b2b; fill-opacity: 0.8; stroke: #2b2b2b; stroke-opacity: 0.8"/>
     <use xlink:href="#mafae174b1d" x="236.863329" y="257.98935" style="fill: #2b2b2b; fill-opacity: 0.8; stroke: #2b2b2b; stroke-opacity: 0.8"/>
     <use xlink:href="#mafae174b1d" x="189.739792" y="214.625451" style="fill: #2b2b2b; fill-opacity: 0.8; stroke: #2b2b2b; stroke-opacity: 0.8"/>
     <use xlink:href="#mafae174b1d" x="216.857651" y="196.328872" style="fill: #2b2b2b; fill-opacity: 0.8; stroke: #2b2b2b; stroke-opacity: 0.8"/>
     <use xlink:href="#mafae174b1d" x="233.414946" y="196.446918" style="fill: #2b2b2b; fill-opacity: 0.8; stroke: #2b2b2b; stroke-opacity: 0.8"/>
     <use xlink:href="#mafae174b1d" x="247.816741" y="232.925158" style="fill: #2b2b2b; fill-opacity: 0.8; stroke: #2b2b2b; stroke-opacity: 0.8"/>
     <use xlink:href="#mafae174b1d" x="206.768072" y="243.833839" style="fill: #2b2b2b; fill-opacity: 0.8; stroke: #2b2b2b; stroke-opacity: 0.8"/>
     <use xlink:href="#mafae174b1d" x="228.157359" y="225.473785" style="fill: #2b2b2b; fill-opacity: 0.8; stroke: #2b2b2b; stroke-opacity: 0.8"/>
     <use xlink:href="#mafae174b1d" x="246.189083" y="236.586025" style="fill: #2b2b2b; fill-opacity: 0.8; stroke: #2b2b2b; stroke-opacity: 0.8"/>
     <use xlink:href="#mafae174b1d" x="217.902624" y="238.033459" style="fill: #2b2b2b; fill-opacity: 0.8; stroke: #2b2b2b; stroke-opacity: 0.8"/>
     <use xlink:href="#mafae174b1d" x="239.69693" y="239.622187" style="fill: #2b2b2b; fill-opacity: 0.8; stroke: #2b2b2b; stroke-opacity: 0.8"/>
     <use xlink:href="#mafae174b1d" x="217.729288" y="205.477162" style="fill: #2b2b2b; fill-opacity: 0.8; stroke: #2b2b2b; stroke-opacity: 0.8"/>
     <use xlink:href="#mafae174b1d" x="212.805885" y="217.239358" style="fill: #2b2b2b; fill-opacity: 0.8; stroke: #2b2b2b; stroke-opacity: 0.8"/>
     <use xlink:href="#mafae174b1d" x="252.136313" y="205.477162" style="fill: #2b2b2b; fill-opacity: 0.8; stroke: #2b2b2b; stroke-opacity: 0.8"/>
     <use xlink:href="#mafae174b1d" x="247.901714" y="229.611767" style="fill: #2b2b2b; fill-opacity: 0.8; stroke: #2b2b2b; stroke-opacity: 0.8"/>
     <use xlink:href="#mafae174b1d" x="193.503818" y="181.342557" style="fill: #2b2b2b; fill-opacity: 0.8; stroke: #2b2b2b; stroke-opacity: 0.8"/>
     <use xlink:href="#mafae174b1d" x="206.199565" y="205.477162" style="fill: #2b2b2b; fill-opacity: 0.8; stroke: #2b2b2b; stroke-opacity: 0.8"/>
     <use xlink:href="#mafae174b1d" x="140.887426" y="159.569941" style="fill: #2b2b2b; fill-opacity: 0.8; stroke: #2b2b2b; stroke-opacity: 0.8"/>
     <use xlink:href="#mafae174b1d" x="253.403539" y="102.37429" style="fill: #2b2b2b; fill-opacity: 0.8; stroke: #2b2b2b; stroke-opacity: 0.8"/>
     <use xlink:href="#mafae174b1d" x="293.269397" y="168.143821" style="fill: #2b2b2b; fill-opacity: 0.8; stroke: #2b2b2b; stroke-opacity: 0.8"/>
     <use xlink:href="#mafae174b1d" x="179.572927" y="233.288802" style="fill: #2b2b2b; fill-opacity: 0.8; stroke: #2b2b2b; stroke-opacity: 0.8"/>
     <use xlink:href="#mafae174b1d" x="296.968591" y="205.477162" style="fill: #2b2b2b; fill-opacity: 0.8; stroke: #2b2b2b; stroke-opacity: 0.8"/>
     <use xlink:href="#mafae174b1d" x="155.304998" y="205.477162" style="fill: #2b2b2b; fill-opacity: 0.8; stroke: #2b2b2b; stroke-opacity: 0.8"/>
     <use xlink:href="#mafae174b1d" x="172.053767" y="205.477162" style="fill: #2b2b2b; fill-opacity: 0.8; stroke: #2b2b2b; stroke-opacity: 0.8"/>
     <use xlink:href="#mafae174b1d" x="277.053542" y="133.636275" style="fill: #2b2b2b; fill-opacity: 0.8; stroke: #2b2b2b; stroke-opacity: 0.8"/>
     <use xlink:href="#mafae174b1d" x="194.904383" y="156.056574" style="fill: #2b2b2b; fill-opacity: 0.8; stroke: #2b2b2b; stroke-opacity: 0.8"/>
     <use xlink:href="#mafae174b1d" x="166.695573" y="159.317521" style="fill: #2b2b2b; fill-opacity: 0.8; stroke: #2b2b2b; stroke-opacity: 0.8"/>
     <use xlink:href="#mafae174b1d" x="288.987695" y="169.208208" style="fill: #2b2b2b; fill-opacity: 0.8; stroke: #2b2b2b; stroke-opacity: 0.8"/>
     <use xlink:href="#mafae174b1d" x="256.070136" y="151.093758" style="fill: #2b2b2b; fill-opacity: 0.8; stroke: #2b2b2b; stroke-opacity: 0.8"/>
     <use xlink:href="#mafae174b1d" x="277.569385" y="225.379001" style="fill: #2b2b2b; fill-opacity: 0.8; stroke: #2b2b2b; stroke-opacity: 0.8"/>
     <use xlink:href="#mafae174b1d" x="263.942279" y="225.961576" style="fill: #2b2b2b; fill-opacity: 0.8; stroke: #2b2b2b; stroke-opacity: 0.8"/>
     <use xlink:href="#mafae174b1d" x="225.164821" y="255.743266" style="fill: #2b2b2b; fill-opacity: 0.8; stroke: #2b2b2b; stroke-opacity: 0.8"/>
     <use xlink:href="#mafae174b1d" x="213.769213" y="275.910942" style="fill: #2b2b2b; fill-opacity: 0.8; stroke: #2b2b2b; stroke-opacity: 0.8"/>
     <use xlink:href="#mafae174b1d" x="226.367961" y="256.707407" style="fill: #2b2b2b; fill-opacity: 0.8; stroke: #2b2b2b; stroke-opacity: 0.8"/>
     <use xlink:href="#mafae174b1d" x="198.762926" y="241.840364" style="fill: #2b2b2b; fill-opacity: 0.8; stroke: #2b2b2b; stroke-opacity: 0.8"/>
     <use xlink:href="#mafae174b1d" x="177.981454" y="214.87105" style="fill: #2b2b2b; fill-opacity: 0.8; stroke: #2b2b2b; stroke-opacity: 0.8"/>
     <use xlink:href="#mafae174b1d" x="246.022092" y="214.998862" style="fill: #2b2b2b; fill-opacity: 0.8; stroke: #2b2b2b; stroke-opacity: 0.8"/>
     <use xlink:href="#mafae174b1d" x="244.607939" y="205.477162" style="fill: #2b2b2b; fill-opacity: 0.8; stroke: #2b2b2b; stroke-opacity: 0.8"/>
     <use xlink:href="#mafae174b1d" x="274.988015" y="205.477162" style="fill: #2b2b2b; fill-opacity: 0.8; stroke: #2b2b2b; stroke-opacity: 0.8"/>
     <use xlink:href="#mafae174b1d" x="271.37859" y="215.1302" style="fill: #2b2b2b; fill-opacity: 0.8; stroke: #2b2b2b; stroke-opacity: 0.8"/>
     <use xlink:href="#mafae174b1d" x="238.723744" y="225.192105" style="fill: #2b2b2b; fill-opacity: 0.8; stroke: #2b2b2b; stroke-opacity: 0.8"/>
     <use xlink:href="#mafae174b1d" x="270.678751" y="205.477162" style="fill: #2b2b2b; fill-opacity: 0.8; stroke: #2b2b2b; stroke-opacity: 0.8"/>
     <use xlink:href="#mafae174b1d" x="319.518645" y="185.762219" style="fill: #2b2b2b; fill-opacity: 0.8; stroke: #2b2b2b; stroke-opacity: 0.8"/>
     <use xlink:href="#mafae174b1d" x="288.537482" y="225.192105" style="fill: #2b2b2b; fill-opacity: 0.8; stroke: #2b2b2b; stroke-opacity: 0.8"/>
     <use xlink:href="#mafae174b1d" x="336.89936" y="225.763631" style="fill: #2b2b2b; fill-opacity: 0.8; stroke: #2b2b2b; stroke-opacity: 0.8"/>
     <use xlink:href="#mafae174b1d" x="226.046174" y="226.369286" style="fill: #2b2b2b; fill-opacity: 0.8; stroke: #2b2b2b; stroke-opacity: 0.8"/>
     <use xlink:href="#mafae174b1d" x="155.161704" y="238.033459" style="fill: #2b2b2b; fill-opacity: 0.8; stroke: #2b2b2b; stroke-opacity: 0.8"/>
     <use xlink:href="#mafae174b1d" x="222.543606" y="239.622187" style="fill: #2b2b2b; fill-opacity: 0.8; stroke: #2b2b2b; stroke-opacity: 0.8"/>
     <use xlink:href="#mafae174b1d" x="159.495862" y="217.239358" style="fill: #2b2b2b; fill-opacity: 0.8; stroke: #2b2b2b; stroke-opacity: 0.8"/>
     <use xlink:href="#mafae174b1d" x="215.398114" y="229.611767" style="fill: #2b2b2b; fill-opacity: 0.8; stroke: #2b2b2b; stroke-opacity: 0.8"/>
     <use xlink:href="#mafae174b1d" x="220.958995" y="230.473897" style="fill: #2b2b2b; fill-opacity: 0.8; stroke: #2b2b2b; stroke-opacity: 0.8"/>
     <use xlink:href="#mafae174b1d" x="168.190804" y="205.477162" style="fill: #2b2b2b; fill-opacity: 0.8; stroke: #2b2b2b; stroke-opacity: 0.8"/>
     <use xlink:href="#mafae174b1d" x="170.44885" y="231.39991" style="fill: #2b2b2b; fill-opacity: 0.8; stroke: #2b2b2b; stroke-opacity: 0.8"/>
     <use xlink:href="#mafae174b1d" x="129.753653" y="218.80774" style="fill: #2b2b2b; fill-opacity: 0.8; stroke: #2b2b2b; stroke-opacity: 0.8"/>
     <use xlink:href="#mafae174b1d" x="153.05738" y="205.477162" style="fill: #2b2b2b; fill-opacity: 0.8; stroke: #2b2b2b; stroke-opacity: 0.8"/>
     <use xlink:href="#mafae174b1d" x="199.775301" y="192.146584" style="fill: #2b2b2b; fill-opacity: 0.8; stroke: #2b2b2b; stroke-opacity: 0.8"/>
     <use xlink:href="#mafae174b1d" x="199.327177" y="192.395768" style="fill: #2b2b2b; fill-opacity: 0.8; stroke: #2b2b2b; stroke-opacity: 0.8"/>
     <use xlink:href="#mafae174b1d" x="207.781753" y="218.558556" style="fill: #2b2b2b; fill-opacity: 0.8; stroke: #2b2b2b; stroke-opacity: 0.8"/>
     <use xlink:href="#mafae174b1d" x="176.773622" y="205.477162" style="fill: #2b2b2b; fill-opacity: 0.8; stroke: #2b2b2b; stroke-opacity: 0.8"/>
     <use xlink:href="#mafae174b1d" x="202.110605" y="154.557678" style="fill: #2b2b2b; fill-opacity: 0.8; stroke: #2b2b2b; stroke-opacity: 0.8"/>
     <use xlink:href="#mafae174b1d" x="191.668377" y="158.01259" style="fill: #2b2b2b; fill-opacity: 0.8; stroke: #2b2b2b; stroke-opacity: 0.8"/>
     <use xlink:href="#mafae174b1d" x="228.085222" y="150.34361" style="fill: #2b2b2b; fill-opacity: 0.8; stroke: #2b2b2b; stroke-opacity: 0.8"/>
     <use xlink:href="#mafae174b1d" x="236.367083" y="184.585038" style="fill: #2b2b2b; fill-opacity: 0.8; stroke: #2b2b2b; stroke-opacity: 0.8"/>
     <use xlink:href="#mafae174b1d" x="227.418807" y="195.260423" style="fill: #2b2b2b; fill-opacity: 0.8; stroke: #2b2b2b; stroke-opacity: 0.8"/>
     <use xlink:href="#mafae174b1d" x="289.235248" y="185.480539" style="fill: #2b2b2b; fill-opacity: 0.8; stroke: #2b2b2b; stroke-opacity: 0.8"/>
     <use xlink:href="#mafae174b1d" x="288.493226" y="176.514373" style="fill: #2b2b2b; fill-opacity: 0.8; stroke: #2b2b2b; stroke-opacity: 0.8"/>
     <use xlink:href="#mafae174b1d" x="232.34258" y="186.813811" style="fill: #2b2b2b; fill-opacity: 0.8; stroke: #2b2b2b; stroke-opacity: 0.8"/>
     <use xlink:href="#mafae174b1d" x="307.313864" y="205.477162" style="fill: #2b2b2b; fill-opacity: 0.8; stroke: #2b2b2b; stroke-opacity: 0.8"/>
     <use xlink:href="#mafae174b1d" x="253.13485" y="224.140513" style="fill: #2b2b2b; fill-opacity: 0.8; stroke: #2b2b2b; stroke-opacity: 0.8"/>
     <use xlink:href="#mafae174b1d" x="218.766116" y="224.651901" style="fill: #2b2b2b; fill-opacity: 0.8; stroke: #2b2b2b; stroke-opacity: 0.8"/>
     <use xlink:href="#mafae174b1d" x="283.434332" y="215.265212" style="fill: #2b2b2b; fill-opacity: 0.8; stroke: #2b2b2b; stroke-opacity: 0.8"/>
     <use xlink:href="#mafae174b1d" x="252.367755" y="235.690524" style="fill: #2b2b2b; fill-opacity: 0.8; stroke: #2b2b2b; stroke-opacity: 0.8"/>
     <use xlink:href="#mafae174b1d" x="218.833178" y="226.369286" style="fill: #2b2b2b; fill-opacity: 0.8; stroke: #2b2b2b; stroke-opacity: 0.8"/>
     <use xlink:href="#mafae174b1d" x="189.427328" y="205.477162" style="fill: #2b2b2b; fill-opacity: 0.8; stroke: #2b2b2b; stroke-opacity: 0.8"/>
     <use xlink:href="#mafae174b1d" x="188.867992" y="249.231045" style="fill: #2b2b2b; fill-opacity: 0.8; stroke: #2b2b2b; stroke-opacity: 0.8"/>
     <use xlink:href="#mafae174b1d" x="158.250881" y="228.424601" style="fill: #2b2b2b; fill-opacity: 0.8; stroke: #2b2b2b; stroke-opacity: 0.8"/>
     <use xlink:href="#mafae174b1d" x="163.54047" y="253.760732" style="fill: #2b2b2b; fill-opacity: 0.8; stroke: #2b2b2b; stroke-opacity: 0.8"/>
     <use xlink:href="#mafae174b1d" x="152.959992" y="218.087128" style="fill: #2b2b2b; fill-opacity: 0.8; stroke: #2b2b2b; stroke-opacity: 0.8"/>
     <use xlink:href="#mafae174b1d" x="147.326072" y="180.480426" style="fill: #2b2b2b; fill-opacity: 0.8; stroke: #2b2b2b; stroke-opacity: 0.8"/>
     <use xlink:href="#mafae174b1d" x="134.08719" y="205.477162" style="fill: #2b2b2b; fill-opacity: 0.8; stroke: #2b2b2b; stroke-opacity: 0.8"/>
     <use xlink:href="#mafae174b1d" x="115.787322" y="217.863931" style="fill: #2b2b2b; fill-opacity: 0.8; stroke: #2b2b2b; stroke-opacity: 0.8"/>
     <use xlink:href="#mafae174b1d" x="163.636175" y="218.087128" style="fill: #2b2b2b; fill-opacity: 0.8; stroke: #2b2b2b; stroke-opacity: 0.8"/>
     <use xlink:href="#mafae174b1d" x="119.807307" y="205.477162" style="fill: #2b2b2b; fill-opacity: 0.8; stroke: #2b2b2b; stroke-opacity: 0.8"/>
     <use xlink:href="#mafae174b1d" x="73.832727" y="231.39991" style="fill: #2b2b2b; fill-opacity: 0.8; stroke: #2b2b2b; stroke-opacity: 0.8"/>
     <use xlink:href="#mafae174b1d" x="144.300071" y="205.477162" style="fill: #2b2b2b; fill-opacity: 0.8; stroke: #2b2b2b; stroke-opacity: 0.8"/>
     <use xlink:href="#mafae174b1d" x="100.416057" y="218.80774" style="fill: #2b2b2b; fill-opacity: 0.8; stroke: #2b2b2b; stroke-opacity: 0.8"/>
     <use xlink:href="#mafae174b1d" x="167.564046" y="232.925158" style="fill: #2b2b2b; fill-opacity: 0.8; stroke: #2b2b2b; stroke-opacity: 0.8"/>
     <use xlink:href="#mafae174b1d" x="157.144519" y="219.615707" style="fill: #2b2b2b; fill-opacity: 0.8; stroke: #2b2b2b; stroke-opacity: 0.8"/>
     <use xlink:href="#mafae174b1d" x="189.277117" y="234.641139" style="fill: #2b2b2b; fill-opacity: 0.8; stroke: #2b2b2b; stroke-opacity: 0.8"/>
     <use xlink:href="#mafae174b1d" x="165.156346" y="220.527939" style="fill: #2b2b2b; fill-opacity: 0.8; stroke: #2b2b2b; stroke-opacity: 0.8"/>
     <use xlink:href="#mafae174b1d" x="155.834218" y="236.586025" style="fill: #2b2b2b; fill-opacity: 0.8; stroke: #2b2b2b; stroke-opacity: 0.8"/>
     <use xlink:href="#mafae174b1d" x="195.944864" y="189.749889" style="fill: #2b2b2b; fill-opacity: 0.8; stroke: #2b2b2b; stroke-opacity: 0.8"/>
     <use xlink:href="#mafae174b1d" x="198.18752" y="221.204435" style="fill: #2b2b2b; fill-opacity: 0.8; stroke: #2b2b2b; stroke-opacity: 0.8"/>
     <use xlink:href="#mafae174b1d" x="172.842285" y="221.566013" style="fill: #2b2b2b; fill-opacity: 0.8; stroke: #2b2b2b; stroke-opacity: 0.8"/>
     <use xlink:href="#mafae174b1d" x="149.083407" y="205.477162" style="fill: #2b2b2b; fill-opacity: 0.8; stroke: #2b2b2b; stroke-opacity: 0.8"/>
     <use xlink:href="#mafae174b1d" x="171.207748" y="221.944608" style="fill: #2b2b2b; fill-opacity: 0.8; stroke: #2b2b2b; stroke-opacity: 0.8"/>
     <use xlink:href="#mafae174b1d" x="222.597037" y="222.341452" style="fill: #2b2b2b; fill-opacity: 0.8; stroke: #2b2b2b; stroke-opacity: 0.8"/>
     <use xlink:href="#mafae174b1d" x="132.588567" y="222.757896" style="fill: #2b2b2b; fill-opacity: 0.8; stroke: #2b2b2b; stroke-opacity: 0.8"/>
     <use xlink:href="#mafae174b1d" x="125.574852" y="223.195429" style="fill: #2b2b2b; fill-opacity: 0.8; stroke: #2b2b2b; stroke-opacity: 0.8"/>
     <use xlink:href="#mafae174b1d" x="145.511108" y="187.758894" style="fill: #2b2b2b; fill-opacity: 0.8; stroke: #2b2b2b; stroke-opacity: 0.8"/>
     <use xlink:href="#mafae174b1d" x="156.23575" y="223.195429" style="fill: #2b2b2b; fill-opacity: 0.8; stroke: #2b2b2b; stroke-opacity: 0.8"/>
     <use xlink:href="#mafae174b1d" x="215.160355" y="153.613869" style="fill: #2b2b2b; fill-opacity: 0.8; stroke: #2b2b2b; stroke-opacity: 0.8"/>
     <use xlink:href="#mafae174b1d" x="238.262746" y="172.920864" style="fill: #2b2b2b; fill-opacity: 0.8; stroke: #2b2b2b; stroke-opacity: 0.8"/>
     <use xlink:href="#mafae174b1d" x="241.175867" y="144.583625" style="fill: #2b2b2b; fill-opacity: 0.8; stroke: #2b2b2b; stroke-opacity: 0.8"/>
     <use xlink:href="#mafae174b1d" x="235.147497" y="110.207212" style="fill: #2b2b2b; fill-opacity: 0.8; stroke: #2b2b2b; stroke-opacity: 0.8"/>
     <use xlink:href="#mafae174b1d" x="144.432498" y="180.480426" style="fill: #2b2b2b; fill-opacity: 0.8; stroke: #2b2b2b; stroke-opacity: 0.8"/>
     <use xlink:href="#mafae174b1d" x="200.320878" y="193.305826" style="fill: #2b2b2b; fill-opacity: 0.8; stroke: #2b2b2b; stroke-opacity: 0.8"/>
     <use xlink:href="#mafae174b1d" x="172.902283" y="217.648498" style="fill: #2b2b2b; fill-opacity: 0.8; stroke: #2b2b2b; stroke-opacity: 0.8"/>
     <use xlink:href="#mafae174b1d" x="226.660755" y="193.305826" style="fill: #2b2b2b; fill-opacity: 0.8; stroke: #2b2b2b; stroke-opacity: 0.8"/>
     <use xlink:href="#mafae174b1d" x="221.984124" y="193.513893" style="fill: #2b2b2b; fill-opacity: 0.8; stroke: #2b2b2b; stroke-opacity: 0.8"/>
     <use xlink:href="#mafae174b1d" x="271.021716" y="170.767527" style="fill: #2b2b2b; fill-opacity: 0.8; stroke: #2b2b2b; stroke-opacity: 0.8"/>
     <use xlink:href="#mafae174b1d" x="185.532181" y="216.85683" style="fill: #2b2b2b; fill-opacity: 0.8; stroke: #2b2b2b; stroke-opacity: 0.8"/>
     <use xlink:href="#mafae174b1d" x="183.699876" y="240.770397" style="fill: #2b2b2b; fill-opacity: 0.8; stroke: #2b2b2b; stroke-opacity: 0.8"/>
     <use xlink:href="#mafae174b1d" x="230.066438" y="217.648498" style="fill: #2b2b2b; fill-opacity: 0.8; stroke: #2b2b2b; stroke-opacity: 0.8"/>
     <use xlink:href="#mafae174b1d" x="182.001469" y="217.863931" style="fill: #2b2b2b; fill-opacity: 0.8; stroke: #2b2b2b; stroke-opacity: 0.8"/>
     <use xlink:href="#mafae174b1d" x="213.833555" y="230.928483" style="fill: #2b2b2b; fill-opacity: 0.8; stroke: #2b2b2b; stroke-opacity: 0.8"/>
     <use xlink:href="#mafae174b1d" x="174.197033" y="205.477162" style="fill: #2b2b2b; fill-opacity: 0.8; stroke: #2b2b2b; stroke-opacity: 0.8"/>
     <use xlink:href="#mafae174b1d" x="136.36684" y="218.558556" style="fill: #2b2b2b; fill-opacity: 0.8; stroke: #2b2b2b; stroke-opacity: 0.8"/>
     <use xlink:href="#mafae174b1d" x="182.624885" y="232.39718" style="fill: #2b2b2b; fill-opacity: 0.8; stroke: #2b2b2b; stroke-opacity: 0.8"/>
     <use xlink:href="#mafae174b1d" x="181.435049" y="219.335717" style="fill: #2b2b2b; fill-opacity: 0.8; stroke: #2b2b2b; stroke-opacity: 0.8"/>
     <use xlink:href="#mafae174b1d" x="174.047652" y="219.615707" style="fill: #2b2b2b; fill-opacity: 0.8; stroke: #2b2b2b; stroke-opacity: 0.8"/>
     <use xlink:href="#mafae174b1d" x="159.236527" y="234.641139" style="fill: #2b2b2b; fill-opacity: 0.8; stroke: #2b2b2b; stroke-opacity: 0.8"/>
     <use xlink:href="#mafae174b1d" x="130.069299" y="205.477162" style="fill: #2b2b2b; fill-opacity: 0.8; stroke: #2b2b2b; stroke-opacity: 0.8"/>
     <use xlink:href="#mafae174b1d" x="160.018794" y="205.477162" style="fill: #2b2b2b; fill-opacity: 0.8; stroke: #2b2b2b; stroke-opacity: 0.8"/>
     <use xlink:href="#mafae174b1d" x="170.459831" y="251.636803" style="fill: #2b2b2b; fill-opacity: 0.8; stroke: #2b2b2b; stroke-opacity: 0.8"/>
     <use xlink:href="#mafae174b1d" x="175.360165" y="189.749889" style="fill: #2b2b2b; fill-opacity: 0.8; stroke: #2b2b2b; stroke-opacity: 0.8"/>
     <use xlink:href="#mafae174b1d" x="134.235929" y="205.477162" style="fill: #2b2b2b; fill-opacity: 0.8; stroke: #2b2b2b; stroke-opacity: 0.8"/>
     <use xlink:href="#mafae174b1d" x="183.458084" y="175.044794" style="fill: #2b2b2b; fill-opacity: 0.8; stroke: #2b2b2b; stroke-opacity: 0.8"/>
     <use xlink:href="#mafae174b1d" x="154.820204" y="190.743266" style="fill: #2b2b2b; fill-opacity: 0.8; stroke: #2b2b2b; stroke-opacity: 0.8"/>
     <use xlink:href="#mafae174b1d" x="176.610173" y="191.04708" style="fill: #2b2b2b; fill-opacity: 0.8; stroke: #2b2b2b; stroke-opacity: 0.8"/>
     <use xlink:href="#mafae174b1d" x="224.35315" y="137.478649" style="fill: #2b2b2b; fill-opacity: 0.8; stroke: #2b2b2b; stroke-opacity: 0.8"/>
     <use xlink:href="#mafae174b1d" x="321.901432" y="131.742271" style="fill: #2b2b2b; fill-opacity: 0.8; stroke: #2b2b2b; stroke-opacity: 0.8"/>
     <use xlink:href="#mafae174b1d" x="398.487273" y="107.666976" style="fill: #2b2b2b; fill-opacity: 0.8; stroke: #2b2b2b; stroke-opacity: 0.8"/>
     <use xlink:href="#mafae174b1d" x="196.323346" y="93.263893" style="fill: #2b2b2b; fill-opacity: 0.8; stroke: #2b2b2b; stroke-opacity: 0.8"/>
     <use xlink:href="#mafae174b1d" x="293.616714" y="116.360681" style="fill: #2b2b2b; fill-opacity: 0.8; stroke: #2b2b2b; stroke-opacity: 0.8"/>
     <use xlink:href="#mafae174b1d" x="203.180358" y="175.692489" style="fill: #2b2b2b; fill-opacity: 0.8; stroke: #2b2b2b; stroke-opacity: 0.8"/>
    </g>
   </g>
   <g id="FillBetweenPolyCollection_1">
    <defs>
     <path id="m3318792766" d="M 73.832727 -139.764363 
L 73.832727 -112.077227 
L 77.112066 -112.836211 
L 80.391405 -113.581351 
L 83.670744 -114.309539 
L 86.950083 -115.027923 
L 90.229421 -115.746306 
L 93.50876 -116.46469 
L 96.788099 -117.183228 
L 100.067438 -118.060614 
L 103.346777 -118.736288 
L 106.626116 -119.410694 
L 109.905455 -120.04856 
L 113.184793 -120.766416 
L 116.464132 -121.483668 
L 119.743471 -122.271022 
L 123.02281 -122.974588 
L 126.302149 -123.665688 
L 129.581488 -124.348779 
L 132.860826 -125.042732 
L 136.140165 -125.666356 
L 139.419504 -126.266684 
L 142.698843 -126.985524 
L 145.978182 -127.706523 
L 149.257521 -128.260985 
L 152.53686 -129.001593 
L 155.816198 -129.711555 
L 159.095537 -130.352165 
L 162.374876 -131.119123 
L 165.654215 -131.661381 
L 168.933554 -132.131445 
L 172.212893 -132.678246 
L 175.492231 -133.275063 
L 178.77157 -133.727801 
L 182.050909 -134.206334 
L 185.330248 -134.632522 
L 188.609587 -135.117172 
L 191.888926 -135.698647 
L 195.168264 -136.079296 
L 198.447603 -136.436079 
L 201.726942 -136.816518 
L 205.006281 -137.047776 
L 208.28562 -137.30483 
L 211.564959 -137.574125 
L 214.844298 -137.925784 
L 218.123636 -138.146423 
L 221.402975 -138.376545 
L 224.682314 -138.508038 
L 227.961653 -138.713207 
L 231.240992 -138.728673 
L 234.520331 -138.731783 
L 237.799669 -138.834704 
L 241.079008 -138.866895 
L 244.358347 -138.916206 
L 247.637686 -138.928238 
L 250.917025 -138.961859 
L 254.196364 -139.14809 
L 257.475702 -139.268212 
L 260.755041 -139.310247 
L 264.03438 -139.322047 
L 267.313719 -139.400299 
L 270.593058 -139.571843 
L 273.872397 -139.639644 
L 277.151736 -139.556255 
L 280.431074 -139.485058 
L 283.710413 -139.583369 
L 286.989752 -139.639728 
L 290.269091 -139.682313 
L 293.54843 -139.759305 
L 296.827769 -139.837814 
L 300.107107 -139.873669 
L 303.386446 -139.813342 
L 306.665785 -139.925255 
L 309.945124 -139.944346 
L 313.224463 -139.963438 
L 316.503802 -140.00284 
L 319.78314 -140.059011 
L 323.062479 -140.11422 
L 326.341818 -140.169428 
L 329.621157 -140.224636 
L 332.900496 -140.280552 
L 336.179835 -140.285616 
L 339.459174 -140.376913 
L 342.738512 -140.411499 
L 346.017851 -140.426828 
L 349.29719 -140.442156 
L 352.576529 -140.457484 
L 355.855868 -140.472812 
L 359.135207 -140.488141 
L 362.414545 -140.503469 
L 365.693884 -140.518797 
L 368.973223 -140.534125 
L 372.252562 -140.549453 
L 375.531901 -140.564782 
L 378.81124 -140.58011 
L 382.090579 -140.595438 
L 385.369917 -140.620958 
L 388.649256 -140.649222 
L 391.928595 -140.677487 
L 395.207934 -140.705751 
L 398.487273 -140.67034 
L 398.487273 -186.873724 
L 398.487273 -186.873724 
L 395.207934 -186.224545 
L 391.928595 -185.55882 
L 388.649256 -184.819416 
L 385.369917 -184.081728 
L 382.090579 -183.33973 
L 378.81124 -182.564806 
L 375.531901 -181.84834 
L 372.252562 -181.121822 
L 368.973223 -180.411459 
L 365.693884 -179.727039 
L 362.414545 -178.998714 
L 359.135207 -178.27039 
L 355.855868 -177.642785 
L 352.576529 -177.037247 
L 349.29719 -176.362295 
L 346.017851 -175.684913 
L 342.738512 -175.000367 
L 339.459174 -174.315821 
L 336.179835 -173.631276 
L 332.900496 -172.94673 
L 329.621157 -172.262185 
L 326.341818 -171.575399 
L 323.062479 -170.785558 
L 319.78314 -170.126109 
L 316.503802 -169.433954 
L 313.224463 -168.693478 
L 309.945124 -167.952698 
L 306.665785 -167.209069 
L 303.386446 -166.556976 
L 300.107107 -165.778569 
L 296.827769 -164.978181 
L 293.54843 -164.236094 
L 290.269091 -163.476371 
L 286.989752 -162.751945 
L 283.710413 -162.011366 
L 280.431074 -161.337245 
L 277.151736 -160.718393 
L 273.872397 -160.110514 
L 270.593058 -159.314913 
L 267.313719 -158.580387 
L 264.03438 -157.936302 
L 260.755041 -157.19039 
L 257.475702 -156.508483 
L 254.196364 -155.916432 
L 250.917025 -155.158152 
L 247.637686 -154.408453 
L 244.358347 -153.898344 
L 241.079008 -153.349956 
L 237.799669 -152.695893 
L 234.520331 -152.087868 
L 231.240992 -151.457555 
L 227.961653 -150.825638 
L 224.682314 -150.213834 
L 221.402975 -149.662589 
L 218.123636 -149.059596 
L 214.844298 -148.653988 
L 211.564959 -148.100904 
L 208.28562 -147.472721 
L 205.006281 -147.043448 
L 201.726942 -146.530739 
L 198.447603 -146.168667 
L 195.168264 -145.677785 
L 191.888926 -145.276186 
L 188.609587 -144.855852 
L 185.330248 -144.556457 
L 182.050909 -144.284702 
L 178.77157 -144.032175 
L 175.492231 -143.77727 
L 172.212893 -143.527123 
L 168.933554 -143.399676 
L 165.654215 -143.131383 
L 162.374876 -143.016623 
L 159.095537 -142.884246 
L 155.816198 -142.615089 
L 152.53686 -142.413425 
L 149.257521 -142.164421 
L 145.978182 -142.015063 
L 142.698843 -141.861599 
L 139.419504 -141.80257 
L 136.140165 -141.876549 
L 132.860826 -141.65522 
L 129.581488 -141.507167 
L 126.302149 -141.364997 
L 123.02281 -141.222897 
L 119.743471 -141.075356 
L 116.464132 -140.96718 
L 113.184793 -140.84197 
L 109.905455 -140.781941 
L 106.626116 -140.693751 
L 103.346777 -140.600395 
L 100.067438 -140.464462 
L 96.788099 -140.304585 
L 93.50876 -140.210441 
L 90.229421 -140.116297 
L 86.950083 -140.022153 
L 83.670744 -139.937934 
L 80.391405 -139.961386 
L 77.112066 -139.870891 
L 73.832727 -139.764363 
z
" style="stroke: #ffffff; stroke-opacity: 0.15"/>
    </defs>
    <g clip-path="url(#p4e0729fac7)">
     <use xlink:href="#m3318792766" x="0" y="345.6" style="fill: #2b2b2b; fill-opacity: 0.15; stroke: #ffffff; stroke-opacity: 0.15"/>
    </g>
   </g>
   <g id="line2d_13">
    <path d="M 73.832727 219.592529 
L 77.112066 219.191431 
L 80.391405 218.790333 
L 83.670744 218.389235 
L 86.950083 217.988136 
L 90.229421 217.587038 
L 93.50876 217.18594 
L 96.788099 216.784842 
L 100.067438 216.383743 
L 103.346777 215.982645 
L 106.626116 215.581547 
L 109.905455 215.180449 
L 113.184793 214.779351 
L 116.464132 214.378252 
L 119.743471 213.977154 
L 123.02281 213.576056 
L 126.302149 213.174958 
L 129.581488 212.77386 
L 132.860826 212.372761 
L 136.140165 211.971663 
L 139.419504 211.570565 
L 142.698843 211.169467 
L 145.978182 210.768369 
L 149.257521 210.36727 
L 152.53686 209.966172 
L 155.816198 209.565074 
L 159.095537 209.163976 
L 162.374876 208.762878 
L 165.654215 208.361779 
L 168.933554 207.960681 
L 172.212893 207.559583 
L 175.492231 207.158485 
L 178.77157 206.757386 
L 182.050909 206.356288 
L 185.330248 205.95519 
L 188.609587 205.554092 
L 191.888926 205.152994 
L 195.168264 204.751895 
L 198.447603 204.350797 
L 201.726942 203.949699 
L 205.006281 203.548601 
L 208.28562 203.147503 
L 211.564959 202.746404 
L 214.844298 202.345306 
L 218.123636 201.944208 
L 221.402975 201.54311 
L 224.682314 201.142012 
L 227.961653 200.740913 
L 231.240992 200.339815 
L 234.520331 199.938717 
L 237.799669 199.537619 
L 241.079008 199.136521 
L 244.358347 198.735422 
L 247.637686 198.334324 
L 250.917025 197.933226 
L 254.196364 197.532128 
L 257.475702 197.131029 
L 260.755041 196.729931 
L 264.03438 196.328833 
L 267.313719 195.927735 
L 270.593058 195.526637 
L 273.872397 195.125538 
L 277.151736 194.72444 
L 280.431074 194.323342 
L 283.710413 193.922244 
L 286.989752 193.521146 
L 290.269091 193.120047 
L 293.54843 192.718949 
L 296.827769 192.317851 
L 300.107107 191.916753 
L 303.386446 191.515655 
L 306.665785 191.114556 
L 309.945124 190.713458 
L 313.224463 190.31236 
L 316.503802 189.911262 
L 319.78314 189.510164 
L 323.062479 189.109065 
L 326.341818 188.707967 
L 329.621157 188.306869 
L 332.900496 187.905771 
L 336.179835 187.504672 
L 339.459174 187.103574 
L 342.738512 186.702476 
L 346.017851 186.301378 
L 349.29719 185.90028 
L 352.576529 185.499181 
L 355.855868 185.098083 
L 359.135207 184.696985 
L 362.414545 184.295887 
L 365.693884 183.894789 
L 368.973223 183.49369 
L 372.252562 183.092592 
L 375.531901 182.691494 
L 378.81124 182.290396 
L 382.090579 181.889298 
L 385.369917 181.488199 
L 388.649256 181.087101 
L 391.928595 180.686003 
L 395.207934 180.284905 
L 398.487273 179.883807 
" clip-path="url(#p4e0729fac7)" style="fill: none; stroke: #2b2b2b; stroke-width: 2.25; stroke-linecap: round"/>
   </g>
   <g id="patch_3">
    <path d="M 57.6 307.584 
L 57.6 41.472 
" style="fill: none; stroke: #cccccc; stroke-width: 0.8; stroke-linejoin: miter; stroke-linecap: square"/>
   </g>
   <g id="patch_4">
    <path d="M 414.72 307.584 
L 414.72 41.472 
" style="fill: none; stroke: #cccccc; stroke-width: 0.8; stroke-linejoin: miter; stroke-linecap: square"/>
   </g>
   <g id="patch_5">
    <path d="M 57.6 307.584 
L 414.72 307.584 
" style="fill: none; stroke: #cccccc; stroke-width: 0.8; stroke-linejoin: miter; stroke-linecap: square"/>
   </g>
   <g id="patch_6">
    <path d="M 57.6 41.472 
L 414.72 41.472 
" style="fill: none; stroke: #cccccc; stroke-width: 0.8; stroke-linejoin: miter; stroke-linecap: square"/>
   </g>
   <g id="text_15">
    <!-- Changes in log(m1) versus log(unemp) -->
    <g style="fill: #262626" transform="translate(132.45375 35.472) scale(0.12 -0.12)">
     <defs>
      <path id="ArialMT-43" d="M 3763 1606 
L 4369 1453 
Q 4178 706 3683 314 
Q 3188 -78 2472 -78 
Q 1731 -78 1267 223 
Q 803 525 561 1097 
Q 319 1669 319 2325 
Q 319 3041 592 3573 
Q 866 4106 1370 4382 
Q 1875 4659 2481 4659 
Q 3169 4659 3637 4309 
Q 4106 3959 4291 3325 
L 3694 3184 
Q 3534 3684 3231 3912 
Q 2928 4141 2469 4141 
Q 1941 4141 1586 3887 
Q 1231 3634 1087 3207 
Q 944 2781 944 2328 
Q 944 1744 1114 1308 
Q 1284 872 1643 656 
Q 2003 441 2422 441 
Q 2931 441 3284 734 
Q 3638 1028 3763 1606 
z
" transform="scale(0.015625)"/>
      <path id="ArialMT-68" d="M 422 0 
L 422 4581 
L 984 4581 
L 984 2938 
Q 1378 3394 1978 3394 
Q 2347 3394 2619 3248 
Q 2891 3103 3008 2847 
Q 3125 2591 3125 2103 
L 3125 0 
L 2563 0 
L 2563 2103 
Q 2563 2525 2380 2717 
Q 2197 2909 1863 2909 
Q 1613 2909 1392 2779 
Q 1172 2650 1078 2428 
Q 984 2206 984 1816 
L 984 0 
L 422 0 
z
" transform="scale(0.015625)"/>
      <path id="ArialMT-61" d="M 2588 409 
Q 2275 144 1986 34 
Q 1697 -75 1366 -75 
Q 819 -75 525 192 
Q 231 459 231 875 
Q 231 1119 342 1320 
Q 453 1522 633 1644 
Q 813 1766 1038 1828 
Q 1203 1872 1538 1913 
Q 2219 1994 2541 2106 
Q 2544 2222 2544 2253 
Q 2544 2597 2384 2738 
Q 2169 2928 1744 2928 
Q 1347 2928 1158 2789 
Q 969 2650 878 2297 
L 328 2372 
Q 403 2725 575 2942 
Q 747 3159 1072 3276 
Q 1397 3394 1825 3394 
Q 2250 3394 2515 3294 
Q 2781 3194 2906 3042 
Q 3031 2891 3081 2659 
Q 3109 2516 3109 2141 
L 3109 1391 
Q 3109 606 3145 398 
Q 3181 191 3288 0 
L 2700 0 
Q 2613 175 2588 409 
z
M 2541 1666 
Q 2234 1541 1622 1453 
Q 1275 1403 1131 1340 
Q 988 1278 909 1158 
Q 831 1038 831 891 
Q 831 666 1001 516 
Q 1172 366 1500 366 
Q 1825 366 2078 508 
Q 2331 650 2450 897 
Q 2541 1088 2541 1459 
L 2541 1666 
z
" transform="scale(0.015625)"/>
      <path id="ArialMT-67" d="M 319 -275 
L 866 -356 
Q 900 -609 1056 -725 
Q 1266 -881 1628 -881 
Q 2019 -881 2231 -725 
Q 2444 -569 2519 -288 
Q 2563 -116 2559 434 
Q 2191 0 1641 0 
Q 956 0 581 494 
Q 206 988 206 1678 
Q 206 2153 378 2554 
Q 550 2956 876 3175 
Q 1203 3394 1644 3394 
Q 2231 3394 2613 2919 
L 2613 3319 
L 3131 3319 
L 3131 450 
Q 3131 -325 2973 -648 
Q 2816 -972 2473 -1159 
Q 2131 -1347 1631 -1347 
Q 1038 -1347 672 -1080 
Q 306 -813 319 -275 
z
M 784 1719 
Q 784 1066 1043 766 
Q 1303 466 1694 466 
Q 2081 466 2343 764 
Q 2606 1063 2606 1700 
Q 2606 2309 2336 2618 
Q 2066 2928 1684 2928 
Q 1309 2928 1046 2623 
Q 784 2319 784 1719 
z
" transform="scale(0.015625)"/>
      <path id="ArialMT-73" d="M 197 991 
L 753 1078 
Q 800 744 1014 566 
Q 1228 388 1613 388 
Q 2000 388 2187 545 
Q 2375 703 2375 916 
Q 2375 1106 2209 1216 
Q 2094 1291 1634 1406 
Q 1016 1563 777 1677 
Q 538 1791 414 1992 
Q 291 2194 291 2438 
Q 291 2659 392 2848 
Q 494 3038 669 3163 
Q 800 3259 1026 3326 
Q 1253 3394 1513 3394 
Q 1903 3394 2198 3281 
Q 2494 3169 2634 2976 
Q 2775 2784 2828 2463 
L 2278 2388 
Q 2241 2644 2061 2787 
Q 1881 2931 1553 2931 
Q 1166 2931 1000 2803 
Q 834 2675 834 2503 
Q 834 2394 903 2306 
Q 972 2216 1119 2156 
Q 1203 2125 1616 2013 
Q 2213 1853 2448 1751 
Q 2684 1650 2818 1456 
Q 2953 1263 2953 975 
Q 2953 694 2789 445 
Q 2625 197 2315 61 
Q 2006 -75 1616 -75 
Q 969 -75 630 194 
Q 291 463 197 991 
z
" transform="scale(0.015625)"/>
      <path id="ArialMT-20" transform="scale(0.015625)"/>
      <path id="ArialMT-69" d="M 425 3934 
L 425 4581 
L 988 4581 
L 988 3934 
L 425 3934 
z
M 425 0 
L 425 3319 
L 988 3319 
L 988 0 
L 425 0 
z
" transform="scale(0.015625)"/>
      <path id="ArialMT-6c" d="M 409 0 
L 409 4581 
L 972 4581 
L 972 0 
L 409 0 
z
" transform="scale(0.015625)"/>
      <path id="ArialMT-6f" d="M 213 1659 
Q 213 2581 725 3025 
Q 1153 3394 1769 3394 
Q 2453 3394 2887 2945 
Q 3322 2497 3322 1706 
Q 3322 1066 3130 698 
Q 2938 331 2570 128 
Q 2203 -75 1769 -75 
Q 1072 -75 642 372 
Q 213 819 213 1659 
z
M 791 1659 
Q 791 1022 1069 705 
Q 1347 388 1769 388 
Q 2188 388 2466 706 
Q 2744 1025 2744 1678 
Q 2744 2294 2464 2611 
Q 2184 2928 1769 2928 
Q 1347 2928 1069 2612 
Q 791 2297 791 1659 
z
" transform="scale(0.015625)"/>
      <path id="ArialMT-28" d="M 1497 -1347 
Q 1031 -759 709 28 
Q 388 816 388 1659 
Q 388 2403 628 3084 
Q 909 3875 1497 4659 
L 1900 4659 
Q 1522 4009 1400 3731 
Q 1209 3300 1100 2831 
Q 966 2247 966 1656 
Q 966 153 1900 -1347 
L 1497 -1347 
z
" transform="scale(0.015625)"/>
      <path id="ArialMT-29" d="M 791 -1347 
L 388 -1347 
Q 1322 153 1322 1656 
Q 1322 2244 1188 2822 
Q 1081 3291 891 3722 
Q 769 4003 388 4659 
L 791 4659 
Q 1378 3875 1659 3084 
Q 1900 2403 1900 1659 
Q 1900 816 1576 28 
Q 1253 -759 791 -1347 
z
" transform="scale(0.015625)"/>
      <path id="ArialMT-76" d="M 1344 0 
L 81 3319 
L 675 3319 
L 1388 1331 
Q 1503 1009 1600 663 
Q 1675 925 1809 1294 
L 2547 3319 
L 3125 3319 
L 1869 0 
L 1344 0 
z
" transform="scale(0.015625)"/>
      <path id="ArialMT-72" d="M 416 0 
L 416 3319 
L 922 3319 
L 922 2816 
Q 1116 3169 1280 3281 
Q 1444 3394 1641 3394 
Q 1925 3394 2219 3213 
L 2025 2691 
Q 1819 2813 1613 2813 
Q 1428 2813 1281 2702 
Q 1134 2591 1072 2394 
Q 978 2094 978 1738 
L 978 0 
L 416 0 
z
" transform="scale(0.015625)"/>
     </defs>
     <use xlink:href="#ArialMT-43"/>
     <use xlink:href="#ArialMT-68" transform="translate(72.216797 0)"/>
     <use xlink:href="#ArialMT-61" transform="translate(127.832031 0)"/>
     <use xlink:href="#ArialMT-6e" transform="translate(183.447266 0)"/>
     <use xlink:href="#ArialMT-67" transform="translate(239.0625 0)"/>
     <use xlink:href="#ArialMT-65" transform="translate(294.677734 0)"/>
     <use xlink:href="#ArialMT-73" transform="translate(350.292969 0)"/>
     <use xlink:href="#ArialMT-20" transform="translate(400.292969 0)"/>
     <use xlink:href="#ArialMT-69" transform="translate(428.076172 0)"/>
     <use xlink:href="#ArialMT-6e" transform="translate(450.292969 0)"/>
     <use xlink:href="#ArialMT-20" transform="translate(505.908203 0)"/>
     <use xlink:href="#ArialMT-6c" transform="translate(533.691406 0)"/>
     <use xlink:href="#ArialMT-6f" transform="translate(555.908203 0)"/>
     <use xlink:href="#ArialMT-67" transform="translate(611.523438 0)"/>
     <use xlink:href="#ArialMT-28" transform="translate(667.138672 0)"/>
     <use xlink:href="#ArialMT-6d" transform="translate(700.439453 0)"/>
     <use xlink:href="#ArialMT-31" transform="translate(783.740234 0)"/>
     <use xlink:href="#ArialMT-29" transform="translate(839.355469 0)"/>
     <use xlink:href="#ArialMT-20" transform="translate(872.65625 0)"/>
     <use xlink:href="#ArialMT-76" transform="translate(900.439453 0)"/>
     <use xlink:href="#ArialMT-65" transform="translate(950.439453 0)"/>
     <use xlink:href="#ArialMT-72" transform="translate(1006.054688 0)"/>
     <use xlink:href="#ArialMT-73" transform="translate(1039.355469 0)"/>
     <use xlink:href="#ArialMT-75" transform="translate(1089.355469 0)"/>
     <use xlink:href="#ArialMT-73" transform="translate(1144.970703 0)"/>
     <use xlink:href="#ArialMT-20" transform="translate(1194.970703 0)"/>
     <use xlink:href="#ArialMT-6c" transform="translate(1222.753906 0)"/>
     <use xlink:href="#ArialMT-6f" transform="translate(1244.970703 0)"/>
     <use xlink:href="#ArialMT-67" transform="translate(1300.585938 0)"/>
     <use xlink:href="#ArialMT-28" transform="translate(1356.201172 0)"/>
     <use xlink:href="#ArialMT-75" transform="translate(1389.501953 0)"/>
     <use xlink:href="#ArialMT-6e" transform="translate(1445.117188 0)"/>
     <use xlink:href="#ArialMT-65" transform="translate(1500.732422 0)"/>
     <use xlink:href="#ArialMT-6d" transform="translate(1556.347656 0)"/>
     <use xlink:href="#ArialMT-70" transform="translate(1639.648438 0)"/>
     <use xlink:href="#ArialMT-29" transform="translate(1695.263672 0)"/>
    </g>
   </g>
  </g>
 </g>
 <defs>
  <clipPath id="p4e0729fac7">
   <rect x="57.6" y="41.472" width="357.12" height="266.112"/>
  </clipPath>
 </defs>
</svg>
