<?xml version="1.0" encoding="utf-8" standalone="no"?>
<!DOCTYPE svg PUBLIC "-//W3C//DTD SVG 1.1//EN"
  "http://www.w3.org/Graphics/SVG/1.1/DTD/svg11.dtd">
<svg xmlns:xlink="http://www.w3.org/1999/xlink" width="460.8pt" height="345.6pt" viewBox="0 0 460.8 345.6" xmlns="http://www.w3.org/2000/svg" version="1.1">
 <metadata>
  <rdf:RDF xmlns:dc="http://purl.org/dc/elements/1.1/" xmlns:cc="http://creativecommons.org/ns#" xmlns:rdf="http://www.w3.org/1999/02/22-rdf-syntax-ns#">
   <cc:Work>
    <dc:type rdf:resource="http://purl.org/dc/dcmitype/StillImage"/>
    <dc:date>2025-05-14T10:55:03.650992</dc:date>
    <dc:format>image/svg+xml</dc:format>
    <dc:creator>
     <cc:Agent>
      <dc:title>Matplotlib v3.10.0, https://matplotlib.org/</dc:title>
     </cc:Agent>
    </dc:creator>
   </cc:Work>
  </rdf:RDF>
 </metadata>
 <defs>
  <style type="text/css">*{stroke-linejoin: round; stroke-linecap: butt}</style>
 </defs>
 <g id="figure_1">
  <g id="patch_1">
   <path d="M 0 345.6 
L 460.8 345.6 
L 460.8 0 
L 0 0 
z
" style="fill: #ffffff"/>
  </g>
  <g id="axes_1">
   <g id="patch_2">
    <path d="M 57.6 307.584 
L 414.72 307.584 
L 414.72 41.472 
L 57.6 41.472 
z
" style="fill: #ffffff"/>
   </g>
   <g id="matplotlib.axis_1">
    <g id="xtick_1">
     <g id="line2d_1">
      <defs>
       <path id="m2958b77f2a" d="M 0 0 
L 0 3.5 
" style="stroke: #000000; stroke-width: 0.8"/>
      </defs>
      <g>
       <use xlink:href="#m2958b77f2a" x="73.832727" y="307.584" style="stroke: #000000; stroke-width: 0.8"/>
      </g>
     </g>
     <g id="text_1">
      <!-- 0 -->
      <g transform="translate(70.651477 322.182437) scale(0.1 -0.1)">
       <defs>
        <path id="DejaVuSans-30" d="M 2034 4250 
Q 1547 4250 1301 3770 
Q 1056 3291 1056 2328 
Q 1056 1369 1301 889 
Q 1547 409 2034 409 
Q 2525 409 2770 889 
Q 3016 1369 3016 2328 
Q 3016 3291 2770 3770 
Q 2525 4250 2034 4250 
z
M 2034 4750 
Q 2819 4750 3233 4129 
Q 3647 3509 3647 2328 
Q 3647 1150 3233 529 
Q 2819 -91 2034 -91 
Q 1250 -91 836 529 
Q 422 1150 422 2328 
Q 422 3509 836 4129 
Q 1250 4750 2034 4750 
z
" transform="scale(0.015625)"/>
       </defs>
       <use xlink:href="#DejaVuSans-30"/>
      </g>
     </g>
    </g>
    <g id="xtick_2">
     <g id="line2d_2">
      <g>
       <use xlink:href="#m2958b77f2a" x="138.828632" y="307.584" style="stroke: #000000; stroke-width: 0.8"/>
      </g>
     </g>
     <g id="text_2">
      <!-- 200 -->
      <g transform="translate(129.284882 322.182437) scale(0.1 -0.1)">
       <defs>
        <path id="DejaVuSans-32" d="M 1228 531 
L 3431 531 
L 3431 0 
L 469 0 
L 469 531 
Q 828 903 1448 1529 
Q 2069 2156 2228 2338 
Q 2531 2678 2651 2914 
Q 2772 3150 2772 3378 
Q 2772 3750 2511 3984 
Q 2250 4219 1831 4219 
Q 1534 4219 1204 4116 
Q 875 4013 500 3803 
L 500 4441 
Q 881 4594 1212 4672 
Q 1544 4750 1819 4750 
Q 2544 4750 2975 4387 
Q 3406 4025 3406 3419 
Q 3406 3131 3298 2873 
Q 3191 2616 2906 2266 
Q 2828 2175 2409 1742 
Q 1991 1309 1228 531 
z
" transform="scale(0.015625)"/>
       </defs>
       <use xlink:href="#DejaVuSans-32"/>
       <use xlink:href="#DejaVuSans-30" transform="translate(63.623047 0)"/>
       <use xlink:href="#DejaVuSans-30" transform="translate(127.246094 0)"/>
      </g>
     </g>
    </g>
    <g id="xtick_3">
     <g id="line2d_3">
      <g>
       <use xlink:href="#m2958b77f2a" x="203.824537" y="307.584" style="stroke: #000000; stroke-width: 0.8"/>
      </g>
     </g>
     <g id="text_3">
      <!-- 400 -->
      <g transform="translate(194.280787 322.182437) scale(0.1 -0.1)">
       <defs>
        <path id="DejaVuSans-34" d="M 2419 4116 
L 825 1625 
L 2419 1625 
L 2419 4116 
z
M 2253 4666 
L 3047 4666 
L 3047 1625 
L 3713 1625 
L 3713 1100 
L 3047 1100 
L 3047 0 
L 2419 0 
L 2419 1100 
L 313 1100 
L 313 1709 
L 2253 4666 
z
" transform="scale(0.015625)"/>
       </defs>
       <use xlink:href="#DejaVuSans-34"/>
       <use xlink:href="#DejaVuSans-30" transform="translate(63.623047 0)"/>
       <use xlink:href="#DejaVuSans-30" transform="translate(127.246094 0)"/>
      </g>
     </g>
    </g>
    <g id="xtick_4">
     <g id="line2d_4">
      <g>
       <use xlink:href="#m2958b77f2a" x="268.820442" y="307.584" style="stroke: #000000; stroke-width: 0.8"/>
      </g>
     </g>
     <g id="text_4">
      <!-- 600 -->
      <g transform="translate(259.276692 322.182437) scale(0.1 -0.1)">
       <defs>
        <path id="DejaVuSans-36" d="M 2113 2584 
Q 1688 2584 1439 2293 
Q 1191 2003 1191 1497 
Q 1191 994 1439 701 
Q 1688 409 2113 409 
Q 2538 409 2786 701 
Q 3034 994 3034 1497 
Q 3034 2003 2786 2293 
Q 2538 2584 2113 2584 
z
M 3366 4563 
L 3366 3988 
Q 3128 4100 2886 4159 
Q 2644 4219 2406 4219 
Q 1781 4219 1451 3797 
Q 1122 3375 1075 2522 
Q 1259 2794 1537 2939 
Q 1816 3084 2150 3084 
Q 2853 3084 3261 2657 
Q 3669 2231 3669 1497 
Q 3669 778 3244 343 
Q 2819 -91 2113 -91 
Q 1303 -91 875 529 
Q 447 1150 447 2328 
Q 447 3434 972 4092 
Q 1497 4750 2381 4750 
Q 2619 4750 2861 4703 
Q 3103 4656 3366 4563 
z
" transform="scale(0.015625)"/>
       </defs>
       <use xlink:href="#DejaVuSans-36"/>
       <use xlink:href="#DejaVuSans-30" transform="translate(63.623047 0)"/>
       <use xlink:href="#DejaVuSans-30" transform="translate(127.246094 0)"/>
      </g>
     </g>
    </g>
    <g id="xtick_5">
     <g id="line2d_5">
      <g>
       <use xlink:href="#m2958b77f2a" x="333.816347" y="307.584" style="stroke: #000000; stroke-width: 0.8"/>
      </g>
     </g>
     <g id="text_5">
      <!-- 800 -->
      <g transform="translate(324.272597 322.182437) scale(0.1 -0.1)">
       <defs>
        <path id="DejaVuSans-38" d="M 2034 2216 
Q 1584 2216 1326 1975 
Q 1069 1734 1069 1313 
Q 1069 891 1326 650 
Q 1584 409 2034 409 
Q 2484 409 2743 651 
Q 3003 894 3003 1313 
Q 3003 1734 2745 1975 
Q 2488 2216 2034 2216 
z
M 1403 2484 
Q 997 2584 770 2862 
Q 544 3141 544 3541 
Q 544 4100 942 4425 
Q 1341 4750 2034 4750 
Q 2731 4750 3128 4425 
Q 3525 4100 3525 3541 
Q 3525 3141 3298 2862 
Q 3072 2584 2669 2484 
Q 3125 2378 3379 2068 
Q 3634 1759 3634 1313 
Q 3634 634 3220 271 
Q 2806 -91 2034 -91 
Q 1263 -91 848 271 
Q 434 634 434 1313 
Q 434 1759 690 2068 
Q 947 2378 1403 2484 
z
M 1172 3481 
Q 1172 3119 1398 2916 
Q 1625 2713 2034 2713 
Q 2441 2713 2670 2916 
Q 2900 3119 2900 3481 
Q 2900 3844 2670 4047 
Q 2441 4250 2034 4250 
Q 1625 4250 1398 4047 
Q 1172 3844 1172 3481 
z
" transform="scale(0.015625)"/>
       </defs>
       <use xlink:href="#DejaVuSans-38"/>
       <use xlink:href="#DejaVuSans-30" transform="translate(63.623047 0)"/>
       <use xlink:href="#DejaVuSans-30" transform="translate(127.246094 0)"/>
      </g>
     </g>
    </g>
    <g id="xtick_6">
     <g id="line2d_6">
      <g>
       <use xlink:href="#m2958b77f2a" x="398.812252" y="307.584" style="stroke: #000000; stroke-width: 0.8"/>
      </g>
     </g>
     <g id="text_6">
      <!-- 1000 -->
      <g transform="translate(386.087252 322.182437) scale(0.1 -0.1)">
       <defs>
        <path id="DejaVuSans-31" d="M 794 531 
L 1825 531 
L 1825 4091 
L 703 3866 
L 703 4441 
L 1819 4666 
L 2450 4666 
L 2450 531 
L 3481 531 
L 3481 0 
L 794 0 
L 794 531 
z
" transform="scale(0.015625)"/>
       </defs>
       <use xlink:href="#DejaVuSans-31"/>
       <use xlink:href="#DejaVuSans-30" transform="translate(63.623047 0)"/>
       <use xlink:href="#DejaVuSans-30" transform="translate(127.246094 0)"/>
       <use xlink:href="#DejaVuSans-30" transform="translate(190.869141 0)"/>
      </g>
     </g>
    </g>
   </g>
   <g id="matplotlib.axis_2">
    <g id="ytick_1">
     <g id="line2d_7">
      <defs>
       <path id="m557bff9fac" d="M 0 0 
L -3.5 0 
" style="stroke: #000000; stroke-width: 0.8"/>
      </defs>
      <g>
       <use xlink:href="#m557bff9fac" x="57.6" y="289.155063" style="stroke: #000000; stroke-width: 0.8"/>
      </g>
     </g>
     <g id="text_7">
      <!-- −20 -->
      <g transform="translate(29.495313 292.954282) scale(0.1 -0.1)">
       <defs>
        <path id="DejaVuSans-2212" d="M 678 2272 
L 4684 2272 
L 4684 1741 
L 678 1741 
L 678 2272 
z
" transform="scale(0.015625)"/>
       </defs>
       <use xlink:href="#DejaVuSans-2212"/>
       <use xlink:href="#DejaVuSans-32" transform="translate(83.789062 0)"/>
       <use xlink:href="#DejaVuSans-30" transform="translate(147.412109 0)"/>
      </g>
     </g>
    </g>
    <g id="ytick_2">
     <g id="line2d_8">
      <g>
       <use xlink:href="#m557bff9fac" x="57.6" y="256.866496" style="stroke: #000000; stroke-width: 0.8"/>
      </g>
     </g>
     <g id="text_8">
      <!-- −10 -->
      <g transform="translate(29.495313 260.665715) scale(0.1 -0.1)">
       <use xlink:href="#DejaVuSans-2212"/>
       <use xlink:href="#DejaVuSans-31" transform="translate(83.789062 0)"/>
       <use xlink:href="#DejaVuSans-30" transform="translate(147.412109 0)"/>
      </g>
     </g>
    </g>
    <g id="ytick_3">
     <g id="line2d_9">
      <g>
       <use xlink:href="#m557bff9fac" x="57.6" y="224.577929" style="stroke: #000000; stroke-width: 0.8"/>
      </g>
     </g>
     <g id="text_9">
      <!-- 0 -->
      <g transform="translate(44.2375 228.377148) scale(0.1 -0.1)">
       <use xlink:href="#DejaVuSans-30"/>
      </g>
     </g>
    </g>
    <g id="ytick_4">
     <g id="line2d_10">
      <g>
       <use xlink:href="#m557bff9fac" x="57.6" y="192.289362" style="stroke: #000000; stroke-width: 0.8"/>
      </g>
     </g>
     <g id="text_10">
      <!-- 10 -->
      <g transform="translate(37.875 196.088581) scale(0.1 -0.1)">
       <use xlink:href="#DejaVuSans-31"/>
       <use xlink:href="#DejaVuSans-30" transform="translate(63.623047 0)"/>
      </g>
     </g>
    </g>
    <g id="ytick_5">
     <g id="line2d_11">
      <g>
       <use xlink:href="#m557bff9fac" x="57.6" y="160.000795" style="stroke: #000000; stroke-width: 0.8"/>
      </g>
     </g>
     <g id="text_11">
      <!-- 20 -->
      <g transform="translate(37.875 163.800014) scale(0.1 -0.1)">
       <use xlink:href="#DejaVuSans-32"/>
       <use xlink:href="#DejaVuSans-30" transform="translate(63.623047 0)"/>
      </g>
     </g>
    </g>
    <g id="ytick_6">
     <g id="line2d_12">
      <g>
       <use xlink:href="#m557bff9fac" x="57.6" y="127.712228" style="stroke: #000000; stroke-width: 0.8"/>
      </g>
     </g>
     <g id="text_12">
      <!-- 30 -->
      <g transform="translate(37.875 131.511447) scale(0.1 -0.1)">
       <defs>
        <path id="DejaVuSans-33" d="M 2597 2516 
Q 3050 2419 3304 2112 
Q 3559 1806 3559 1356 
Q 3559 666 3084 287 
Q 2609 -91 1734 -91 
Q 1441 -91 1130 -33 
Q 819 25 488 141 
L 488 750 
Q 750 597 1062 519 
Q 1375 441 1716 441 
Q 2309 441 2620 675 
Q 2931 909 2931 1356 
Q 2931 1769 2642 2001 
Q 2353 2234 1838 2234 
L 1294 2234 
L 1294 2753 
L 1863 2753 
Q 2328 2753 2575 2939 
Q 2822 3125 2822 3475 
Q 2822 3834 2567 4026 
Q 2313 4219 1838 4219 
Q 1578 4219 1281 4162 
Q 984 4106 628 3988 
L 628 4550 
Q 988 4650 1302 4700 
Q 1616 4750 1894 4750 
Q 2613 4750 3031 4423 
Q 3450 4097 3450 3541 
Q 3450 3153 3228 2886 
Q 3006 2619 2597 2516 
z
" transform="scale(0.015625)"/>
       </defs>
       <use xlink:href="#DejaVuSans-33"/>
       <use xlink:href="#DejaVuSans-30" transform="translate(63.623047 0)"/>
      </g>
     </g>
    </g>
    <g id="ytick_7">
     <g id="line2d_13">
      <g>
       <use xlink:href="#m557bff9fac" x="57.6" y="95.423661" style="stroke: #000000; stroke-width: 0.8"/>
      </g>
     </g>
     <g id="text_13">
      <!-- 40 -->
      <g transform="translate(37.875 99.22288) scale(0.1 -0.1)">
       <use xlink:href="#DejaVuSans-34"/>
       <use xlink:href="#DejaVuSans-30" transform="translate(63.623047 0)"/>
      </g>
     </g>
    </g>
    <g id="ytick_8">
     <g id="line2d_14">
      <g>
       <use xlink:href="#m557bff9fac" x="57.6" y="63.135094" style="stroke: #000000; stroke-width: 0.8"/>
      </g>
     </g>
     <g id="text_14">
      <!-- 50 -->
      <g transform="translate(37.875 66.934313) scale(0.1 -0.1)">
       <defs>
        <path id="DejaVuSans-35" d="M 691 4666 
L 3169 4666 
L 3169 4134 
L 1269 4134 
L 1269 2991 
Q 1406 3038 1543 3061 
Q 1681 3084 1819 3084 
Q 2600 3084 3056 2656 
Q 3513 2228 3513 1497 
Q 3513 744 3044 326 
Q 2575 -91 1722 -91 
Q 1428 -91 1123 -41 
Q 819 9 494 109 
L 494 744 
Q 775 591 1075 516 
Q 1375 441 1709 441 
Q 2250 441 2565 725 
Q 2881 1009 2881 1497 
Q 2881 1984 2565 2268 
Q 2250 2553 1709 2553 
Q 1456 2553 1204 2497 
Q 953 2441 691 2322 
L 691 4666 
z
" transform="scale(0.015625)"/>
       </defs>
       <use xlink:href="#DejaVuSans-35"/>
       <use xlink:href="#DejaVuSans-30" transform="translate(63.623047 0)"/>
      </g>
     </g>
    </g>
   </g>
   <g id="line2d_15">
    <path d="M 73.832727 219.474576 
L 74.157707 227.661487 
L 75.132645 222.579431 
L 75.457625 219.966478 
L 75.782604 221.6088 
L 76.107584 226.025287 
L 76.432563 225.864333 
L 76.757543 223.215536 
L 77.082523 223.142195 
L 77.407502 221.386042 
L 77.732482 218.706631 
L 78.057461 219.750133 
L 78.382441 215.684183 
L 78.70742 215.278394 
L 79.357379 210.770975 
L 79.682359 211.069733 
L 80.007338 208.991105 
L 80.332318 205.644608 
L 80.657297 211.882302 
L 80.982277 213.66655 
L 81.307256 217.808982 
L 81.632236 216.227617 
L 81.957215 217.996589 
L 82.282195 221.084585 
L 82.607174 217.959785 
L 82.932154 218.867222 
L 83.257133 220.904122 
L 83.582113 217.781418 
L 83.907093 217.662157 
L 84.232072 219.884008 
L 84.557052 219.699274 
L 84.882031 221.151713 
L 85.207011 223.538032 
L 85.53199 229.89929 
L 85.85697 232.413766 
L 86.181949 230.860659 
L 86.506929 231.596055 
L 86.831908 230.153012 
L 87.156888 226.970403 
L 87.481867 227.816306 
L 88.131826 220.459309 
L 88.456806 219.253294 
L 88.781785 215.685528 
L 89.106765 220.153614 
L 89.431744 219.328754 
L 89.756724 222.138124 
L 90.081704 220.225242 
L 90.406683 225.389877 
L 90.731663 225.366785 
L 91.056642 227.096434 
L 91.381622 223.653511 
L 91.706601 221.457417 
L 92.031581 218.494962 
L 92.35656 218.244139 
L 92.68154 220.003349 
L 93.006519 221.003604 
L 93.331499 217.776135 
L 93.656478 217.055679 
L 93.981458 219.199926 
L 94.306437 216.366989 
L 94.631417 212.197273 
L 94.956396 211.588146 
L 95.606355 207.176343 
L 95.931335 202.806431 
L 96.256314 205.830797 
L 96.581294 203.335546 
L 96.906274 203.574002 
L 97.231253 208.192434 
L 97.556233 204.74278 
L 97.881212 208.759693 
L 98.206192 215.237107 
L 98.531171 213.709054 
L 98.856151 201.28592 
L 99.18113 204.43144 
L 99.50611 200.135357 
L 99.831089 201.941749 
L 100.156069 196.703806 
L 100.481048 201.858584 
L 100.806028 200.323962 
L 101.131007 197.253843 
L 101.780966 202.339194 
L 102.105946 195.151684 
L 102.430925 195.918149 
L 102.755905 190.512931 
L 103.080885 190.436369 
L 103.405864 191.922299 
L 104.055823 185.738078 
L 104.380803 189.550506 
L 104.705782 183.876091 
L 105.030762 183.512692 
L 105.355741 182.547328 
L 105.680721 176.591822 
L 106.0057 177.974635 
L 106.33068 175.538084 
L 106.980639 186.53283 
L 107.955577 173.989598 
L 108.280557 167.96054 
L 108.605536 168.858209 
L 108.930516 174.659788 
L 109.255495 175.451245 
L 109.580475 174.03729 
L 109.905455 169.238844 
L 110.230434 169.261589 
L 110.555414 176.679348 
L 110.880393 174.80764 
L 111.205373 177.831908 
L 111.530352 173.250196 
L 111.855332 180.120261 
L 112.180311 183.49053 
L 112.505291 188.661549 
L 112.83027 187.549004 
L 113.15525 189.45737 
L 113.480229 196.718827 
L 113.805209 198.375804 
L 114.130188 198.34573 
L 114.455168 196.742579 
L 114.780147 203.167917 
L 115.105127 202.362007 
L 115.430106 196.361128 
L 115.755086 203.651021 
L 116.080066 196.839036 
L 116.405045 192.804767 
L 116.730025 197.447159 
L 117.379984 187.931996 
L 117.704963 193.527567 
L 118.029943 190.633163 
L 118.354922 193.275054 
L 119.004881 201.991465 
L 119.329861 197.159505 
L 119.65484 201.812259 
L 119.97982 197.294378 
L 120.304799 194.922663 
L 120.629779 195.716436 
L 120.954758 193.927613 
L 121.604717 206.765816 
L 121.929697 206.402144 
L 122.579656 200.295116 
L 122.904636 202.849963 
L 123.229615 197.830831 
L 123.879574 203.208313 
L 124.204554 202.714705 
L 124.529533 208.404784 
L 124.854513 206.097474 
L 125.179492 202.723603 
L 125.504472 204.514357 
L 125.829451 198.950571 
L 126.154431 202.336459 
L 126.47941 201.735527 
L 127.129369 206.83906 
L 127.454349 204.061256 
L 128.104308 210.26287 
L 128.429287 217.466762 
L 129.079247 222.66373 
L 129.729206 224.472241 
L 130.054185 223.296568 
L 130.379165 224.012667 
L 130.704144 222.166501 
L 131.029124 225.356197 
L 131.679083 226.273357 
L 132.004062 224.39023 
L 132.329042 223.480446 
L 132.654021 223.756374 
L 132.979001 218.276362 
L 133.30398 219.479784 
L 133.62896 222.053482 
L 134.278919 219.765434 
L 134.603898 223.690907 
L 134.928878 225.453154 
L 135.253857 224.395627 
L 135.578837 218.931592 
L 135.903817 219.507823 
L 136.228796 220.397143 
L 136.553776 222.015867 
L 137.203735 219.113322 
L 138.178673 233.52098 
L 138.503653 233.295699 
L 138.828632 227.47546 
L 139.153612 226.8563 
L 139.478591 230.169084 
L 140.12855 225.39923 
L 140.45353 225.141371 
L 140.778509 227.473737 
L 141.103489 228.921837 
L 141.428468 234.204004 
L 141.753448 233.921983 
L 142.078428 239.986561 
L 142.403407 242.265936 
L 142.728387 242.598534 
L 143.053366 240.423295 
L 143.378346 241.29756 
L 143.703325 240.726045 
L 144.028305 237.604618 
L 144.353284 239.729321 
L 144.678264 238.469648 
L 145.003243 240.282444 
L 145.328223 234.557191 
L 145.978182 230.129174 
L 146.303161 231.598907 
L 146.628141 234.558406 
L 146.95312 233.672932 
L 147.603079 234.068513 
L 147.928059 235.399633 
L 148.253038 239.906237 
L 148.578018 242.517697 
L 148.902998 241.091329 
L 149.227977 240.381789 
L 149.552957 237.468875 
L 149.877936 239.801485 
L 150.202916 240.143203 
L 150.527895 239.117618 
L 150.852875 237.19213 
L 151.177854 236.890044 
L 151.502834 233.504849 
L 151.827813 233.024167 
L 152.152793 233.454325 
L 152.477772 233.583625 
L 152.802752 234.956776 
L 153.127731 232.989532 
L 153.452711 235.840428 
L 153.77769 231.659624 
L 154.10267 235.878067 
L 154.427649 237.743826 
L 155.077609 231.999066 
L 155.402588 232.273363 
L 155.727568 227.697861 
L 156.377527 229.884594 
L 156.702506 231.726671 
L 157.027486 239.677295 
L 157.352465 241.826691 
L 157.677445 247.509739 
L 158.002424 250.048038 
L 158.327404 245.903428 
L 158.652383 245.64726 
L 158.977363 250.385024 
L 159.302342 245.297731 
L 159.627322 246.504202 
L 159.952301 247.038389 
L 160.277281 251.56671 
L 160.60226 252.252436 
L 160.92724 254.153968 
L 161.252219 262.071508 
L 161.577199 260.947965 
L 161.902179 261.077929 
L 162.227158 256.812414 
L 162.552138 254.080272 
L 162.877117 254.008011 
L 163.202097 253.793822 
L 163.527076 243.983179 
L 164.502015 236.908799 
L 164.826994 242.916492 
L 165.476953 247.782188 
L 165.801933 247.652687 
L 166.126912 249.71682 
L 166.451892 248.60639 
L 166.776871 255.491733 
L 167.101851 256.793444 
L 167.42683 257.2584 
L 167.75181 253.356653 
L 168.07679 257.205146 
L 168.401769 259.386752 
L 168.726749 264.826154 
L 169.051728 266.680094 
L 169.376708 267.139079 
L 170.026667 264.045421 
L 170.676626 266.767815 
L 171.001605 263.074262 
L 171.326585 256.616405 
L 172.301523 274.650287 
L 172.626503 275.817967 
L 172.951482 274.973386 
L 173.276462 278.71182 
L 173.601441 280.040299 
L 173.926421 280.440097 
L 174.57638 279.115581 
L 174.90136 278.990292 
L 175.226339 278.624671 
L 175.551319 276.595502 
L 175.876298 272.506682 
L 176.201278 271.8435 
L 176.851237 274.793883 
L 177.176216 276.791414 
L 177.501196 275.026521 
L 177.826175 274.231314 
L 178.151155 272.43584 
L 178.476134 274.446196 
L 178.801114 275.735782 
L 179.126093 282.114107 
L 179.451073 274.680849 
L 179.776052 275.381432 
L 180.101032 278.798901 
L 180.426011 273.412754 
L 180.750991 273.637473 
L 181.075971 273.44718 
L 181.40095 269.058449 
L 181.72593 270.238639 
L 182.050909 270.639439 
L 182.375889 271.736789 
L 182.700868 268.614438 
L 183.025848 267.354093 
L 183.675807 261.530072 
L 184.000786 262.105105 
L 184.325766 258.826369 
L 184.650745 261.407814 
L 184.975725 253.468472 
L 185.625684 259.053279 
L 186.275643 252.202619 
L 186.600622 257.575756 
L 186.925602 255.234215 
L 187.250581 256.148711 
L 187.575561 254.794822 
L 188.22552 248.031341 
L 188.875479 246.273588 
L 189.200459 255.153229 
L 189.525438 258.952262 
L 189.850418 255.805391 
L 190.175397 253.848507 
L 190.500377 253.004979 
L 190.825356 251.843835 
L 191.150336 257.505528 
L 191.475315 257.41182 
L 192.125274 247.991162 
L 192.450254 250.690278 
L 192.775233 248.75373 
L 193.425192 243.000082 
L 193.750172 244.669602 
L 194.075152 249.638927 
L 194.400131 247.118767 
L 194.725111 250.797383 
L 195.05009 247.410473 
L 195.37507 245.212414 
L 195.700049 244.207485 
L 196.025029 244.521731 
L 196.674988 250.37729 
L 197.324947 243.824837 
L 197.649926 249.180559 
L 197.974906 247.260479 
L 198.299885 247.833811 
L 198.624865 253.151339 
L 198.949844 248.526607 
L 199.274824 247.949064 
L 199.599803 254.481222 
L 199.924783 252.433609 
L 200.249762 255.482957 
L 200.574742 250.021687 
L 200.899722 253.230571 
L 201.224701 249.664882 
L 201.87466 247.795718 
L 202.19964 249.513949 
L 202.524619 249.216162 
L 202.849599 248.529248 
L 203.174578 243.80437 
L 203.499558 237.188572 
L 203.824537 235.051992 
L 204.149517 236.265286 
L 204.474496 238.43796 
L 204.799476 235.178167 
L 205.124455 236.288693 
L 205.449435 239.798376 
L 205.774414 238.427346 
L 206.099394 237.744538 
L 206.749353 234.247887 
L 207.399312 243.882845 
L 207.724292 244.356751 
L 208.049271 251.835349 
L 208.374251 247.77889 
L 209.349189 255.501437 
L 209.674169 258.79726 
L 209.999148 259.822512 
L 210.649107 266.344706 
L 210.974087 265.105025 
L 211.299066 258.955335 
L 211.624046 260.021621 
L 211.949025 256.955875 
L 212.274005 255.021396 
L 212.598984 250.766842 
L 212.923964 251.707953 
L 213.573923 262.279153 
L 213.898903 262.311396 
L 214.223882 260.342814 
L 214.548862 264.254968 
L 214.873841 264.355756 
L 215.198821 264.172154 
L 215.84878 261.31548 
L 216.173759 261.606636 
L 216.498739 263.880195 
L 217.148698 259.382029 
L 217.473677 258.894959 
L 217.798657 254.900326 
L 218.448616 263.00591 
L 219.098575 260.415218 
L 219.423554 262.492866 
L 219.748534 260.023165 
L 220.073514 260.709736 
L 220.398493 261.797786 
L 220.723473 259.350039 
L 221.048452 264.287169 
L 221.698411 251.890228 
L 222.023391 253.490248 
L 222.34837 255.661986 
L 222.998329 248.863174 
L 223.323309 251.375611 
L 223.648288 249.77509 
L 224.298247 235.345249 
L 224.623227 232.109663 
L 225.273186 238.921181 
L 225.598165 237.689787 
L 225.923145 236.900676 
L 226.898084 246.267781 
L 227.223063 244.400142 
L 227.548043 247.30339 
L 227.873022 238.354474 
L 228.198002 239.270575 
L 228.522981 243.381032 
L 229.17294 248.081566 
L 229.49792 247.818131 
L 229.822899 250.410238 
L 230.147879 251.8112 
L 230.472858 249.700412 
L 230.797838 249.589811 
L 231.122817 254.877829 
L 231.447797 252.559033 
L 231.772776 252.746254 
L 232.097756 259.292817 
L 232.422735 259.593896 
L 232.747715 258.493878 
L 233.072695 260.92726 
L 233.397674 265.123232 
L 233.722654 256.772602 
L 234.047633 256.767814 
L 234.372613 252.784168 
L 234.697592 257.318069 
L 235.022572 257.877827 
L 235.347551 259.057816 
L 235.672531 261.661903 
L 236.32249 258.00523 
L 236.647469 261.732613 
L 236.972449 260.402272 
L 237.297428 260.861448 
L 237.622408 261.724891 
L 237.947387 266.82569 
L 238.597346 268.165417 
L 238.922326 269.616721 
L 239.247305 273.020273 
L 239.897265 267.670252 
L 240.222244 266.208227 
L 240.547224 262.269203 
L 240.872203 261.966275 
L 241.197183 257.253878 
L 241.522162 255.758161 
L 241.847142 253.388822 
L 242.172121 252.927763 
L 242.497101 246.183823 
L 242.82208 247.078195 
L 243.14706 252.029999 
L 243.472039 248.760126 
L 243.797019 249.273875 
L 244.121998 247.8 
L 244.446978 249.520234 
L 244.771957 248.59964 
L 245.096937 248.705356 
L 245.421916 249.252103 
L 245.746896 240.13911 
L 246.071876 234.343581 
L 246.396855 236.719978 
L 246.721835 235.93437 
L 247.046814 236.874749 
L 247.371794 244.272408 
L 247.696773 239.775995 
L 248.021753 239.509043 
L 248.346732 238.971602 
L 248.671712 241.92525 
L 248.996691 241.714559 
L 249.321671 239.887171 
L 249.64665 235.466205 
L 249.97163 234.027716 
L 250.296609 234.602402 
L 250.621589 236.83651 
L 251.271548 238.356349 
L 251.596527 238.697503 
L 251.921507 236.34532 
L 252.246486 232.116151 
L 252.571466 234.336429 
L 253.221425 232.432012 
L 253.546405 241.648674 
L 253.871384 240.352461 
L 254.196364 237.597158 
L 254.521343 241.939116 
L 254.846323 240.836373 
L 255.171302 242.963577 
L 255.496282 237.067874 
L 255.821261 243.273373 
L 256.146241 245.92628 
L 257.121179 250.522636 
L 257.446159 249.072567 
L 257.771138 249.825869 
L 258.096118 251.036677 
L 258.421097 247.699227 
L 258.746077 248.497011 
L 259.071057 250.07605 
L 259.396036 254.321761 
L 259.721016 255.283362 
L 260.370975 246.858686 
L 260.695954 248.978406 
L 261.020934 251.859957 
L 261.345913 256.384259 
L 261.670893 257.836036 
L 261.995872 254.253489 
L 262.320852 254.678768 
L 262.645831 245.850384 
L 262.970811 245.486178 
L 263.29579 250.920284 
L 263.62077 249.826786 
L 263.945749 256.433723 
L 264.270729 254.736274 
L 264.920688 257.450673 
L 265.245667 253.142278 
L 265.570647 253.841317 
L 266.220606 250.643716 
L 266.545586 248.211998 
L 266.870565 247.032869 
L 267.195545 244.206265 
L 267.520524 243.405412 
L 267.845504 242.22704 
L 268.170483 244.293589 
L 268.495463 243.552949 
L 268.820442 242.329746 
L 269.145422 240.630851 
L 269.470401 241.968505 
L 269.795381 241.442928 
L 270.44534 249.065423 
L 270.770319 249.818082 
L 271.095299 251.990922 
L 271.420278 248.450609 
L 271.745258 246.749399 
L 272.070238 248.90535 
L 272.395217 245.343635 
L 272.720197 247.333061 
L 273.695135 250.223893 
L 274.020115 245.699469 
L 274.345094 247.525171 
L 274.995053 260.08988 
L 275.320033 268.429349 
L 275.645012 264.722766 
L 275.969992 264.345819 
L 276.619951 271.158123 
L 276.94493 270.604354 
L 277.26991 270.635864 
L 277.594889 271.084842 
L 277.919869 270.240919 
L 278.244848 273.086733 
L 278.569828 273.733587 
L 278.894808 271.149891 
L 279.219787 275.378033 
L 279.544767 272.779083 
L 279.869746 276.714049 
L 280.194726 277.120189 
L 280.519705 280.312729 
L 280.844685 280.662859 
L 281.169664 282.860959 
L 281.494644 286.672724 
L 281.819623 285.639183 
L 282.469582 290.511849 
L 282.794562 293.414986 
L 283.119541 288.794953 
L 283.444521 286.112885 
L 283.7695 293.797293 
L 284.09448 291.341061 
L 284.419459 287.104602 
L 284.744439 284.912221 
L 285.069419 277.712084 
L 285.394398 277.40227 
L 285.719378 273.355059 
L 286.044357 278.287187 
L 286.369337 280.478088 
L 287.344275 275.257878 
L 287.669255 269.715259 
L 287.994234 269.234582 
L 288.319214 274.909308 
L 288.644193 272.283611 
L 288.969173 271.136479 
L 289.294152 266.802531 
L 290.269091 276.668985 
L 290.59407 272.503415 
L 291.244029 275.966094 
L 291.569009 281.17149 
L 291.893989 271.793304 
L 292.218968 269.512042 
L 292.543948 265.485379 
L 292.868927 262.96983 
L 293.193907 265.648605 
L 293.518886 260.748325 
L 293.843866 260.251564 
L 294.168845 260.869718 
L 294.493825 263.063757 
L 294.818804 257.735649 
L 295.143784 256.559856 
L 295.468763 257.004153 
L 295.793743 265.217298 
L 296.118722 266.934036 
L 296.768681 274.761914 
L 297.093661 271.882049 
L 297.41864 272.924374 
L 297.74362 268.67213 
L 298.0686 267.158923 
L 298.718559 250.261471 
L 299.043538 252.419806 
L 299.693497 263.138345 
L 300.018477 261.469791 
L 300.343456 256.454601 
L 300.993415 261.013255 
L 301.318395 258.531783 
L 301.643374 259.14311 
L 301.968354 258.838078 
L 302.293333 257.595716 
L 302.618313 255.072437 
L 302.943292 254.539198 
L 303.268272 257.84029 
L 303.918231 251.290259 
L 304.56819 260.376561 
L 305.218149 261.776715 
L 305.543129 264.986248 
L 305.868108 263.892254 
L 306.193088 256.686581 
L 306.518067 257.390227 
L 306.843047 258.775567 
L 307.168026 263.717974 
L 307.817985 260.990865 
L 308.467944 260.002842 
L 308.792924 255.026629 
L 309.117903 257.078492 
L 309.442883 253.657914 
L 309.767862 247.271403 
L 310.092842 246.166878 
L 310.417821 247.34708 
L 310.742801 245.92244 
L 311.067781 245.2539 
L 311.39276 248.462483 
L 311.71774 253.495185 
L 312.042719 252.006863 
L 312.367699 249.489509 
L 312.692678 249.562381 
L 313.017658 248.229016 
L 313.342637 253.624084 
L 313.667617 248.728897 
L 313.992596 250.808326 
L 314.317576 256.642039 
L 314.642555 256.099941 
L 314.967535 256.950282 
L 315.292514 255.70027 
L 315.617494 262.403216 
L 316.267453 252.877094 
L 316.592432 250.163992 
L 316.917412 249.775202 
L 317.567371 246.172097 
L 317.892351 242.140284 
L 318.21733 247.153293 
L 318.54231 247.728433 
L 319.192269 251.80519 
L 319.517248 246.616205 
L 319.842228 244.211319 
L 320.492187 245.106578 
L 320.817166 244.184717 
L 321.142146 244.581276 
L 321.467125 243.838203 
L 321.792105 246.67533 
L 322.117084 243.488822 
L 322.442064 241.804747 
L 323.092023 247.410129 
L 323.417002 245.441131 
L 323.741982 245.854184 
L 324.066962 248.042538 
L 324.391941 246.946628 
L 324.716921 240.362324 
L 325.36688 237.16331 
L 326.016839 226.355258 
L 326.341818 229.758962 
L 326.666798 225.803846 
L 327.316757 228.304312 
L 327.966716 234.54831 
L 328.291695 235.697613 
L 328.616675 233.8407 
L 328.941654 225.876964 
L 329.266634 228.601601 
L 329.591613 232.582203 
L 329.916593 232.862974 
L 330.241572 235.568787 
L 330.566552 236.607398 
L 330.891532 236.164162 
L 331.216511 237.655843 
L 331.541491 237.870877 
L 331.86647 230.415031 
L 332.19145 228.386084 
L 332.516429 230.562747 
L 332.841409 234.087885 
L 333.166388 229.686178 
L 333.491368 228.245268 
L 333.816347 222.701257 
L 334.141327 222.361307 
L 334.466306 220.714316 
L 334.791286 224.248669 
L 335.116265 224.987866 
L 335.766224 232.165486 
L 336.416183 237.949558 
L 336.741163 241.931941 
L 337.066143 243.797138 
L 337.391122 240.632232 
L 337.716102 242.841396 
L 338.69104 228.591753 
L 339.01602 229.595717 
L 339.340999 227.382211 
L 339.665979 235.389236 
L 339.990958 236.259402 
L 340.315938 235.428251 
L 340.640917 232.219564 
L 340.965897 233.089227 
L 341.290876 229.534986 
L 341.615856 233.361288 
L 341.940835 235.329965 
L 342.265815 234.685192 
L 342.590794 228.017117 
L 342.915774 233.027916 
L 343.240753 232.159211 
L 343.565733 231.89676 
L 343.890713 228.616587 
L 344.215692 229.988213 
L 344.540672 232.056601 
L 344.865651 228.392663 
L 345.190631 233.105086 
L 345.51561 234.466597 
L 346.165569 228.395902 
L 346.490549 231.291824 
L 347.140508 231.479885 
L 347.465487 236.148751 
L 347.790467 238.091993 
L 348.115446 237.201879 
L 348.440426 236.881161 
L 348.765405 238.973505 
L 349.090385 238.078595 
L 349.415364 236.125644 
L 349.740344 232.763351 
L 350.065324 238.301114 
L 350.390303 241.552411 
L 350.715283 240.316447 
L 351.040262 243.75821 
L 351.690221 255.201631 
L 352.015201 257.009782 
L 352.34018 260.411386 
L 352.66516 255.151666 
L 352.990139 253.688538 
L 353.315119 257.866106 
L 353.640098 257.3977 
L 353.965078 258.304148 
L 354.290057 259.598279 
L 354.615037 264.773871 
L 354.940016 263.2868 
L 355.264996 263.678759 
L 355.589975 263.39615 
L 356.239934 272.4999 
L 356.564914 270.902946 
L 356.889894 266.270176 
L 357.214873 273.143157 
L 357.539853 274.097489 
L 358.189812 265.748928 
L 358.514791 268.441008 
L 358.839771 265.962395 
L 359.16475 267.354906 
L 359.48973 265.881754 
L 359.814709 271.099999 
L 360.139689 271.667464 
L 360.464668 278.130115 
L 360.789648 273.910582 
L 361.439607 276.806549 
L 361.764586 274.400783 
L 362.414545 265.131704 
L 362.739525 267.321676 
L 363.064505 271.010158 
L 363.389484 270.779124 
L 363.714464 268.863485 
L 364.039443 267.840161 
L 364.364423 269.840322 
L 364.689402 269.699461 
L 365.014382 268.875791 
L 365.339361 264.699185 
L 365.664341 263.608123 
L 365.98932 263.113821 
L 366.3143 261.78954 
L 366.639279 264.863543 
L 367.289238 274.846752 
L 367.939197 286.065645 
L 368.264177 288.908082 
L 368.589156 285.909755 
L 368.914136 284.107577 
L 369.239115 274.157886 
L 369.564095 275.896577 
L 369.889075 271.891902 
L 370.214054 273.665783 
L 370.539034 274.6411 
L 370.864013 270.493145 
L 371.188993 271.628763 
L 371.513972 269.021237 
L 371.838952 275.083231 
L 372.163931 272.326024 
L 372.488911 267.818732 
L 372.81389 264.9852 
L 373.13887 260.92843 
L 373.463849 258.739139 
L 373.788829 255.101537 
L 374.113808 254.392054 
L 374.438788 251.53914 
L 374.763767 251.418448 
L 375.088747 253.521451 
L 375.738706 259.357375 
L 376.063686 261.495702 
L 376.388665 262.577574 
L 376.713645 261.114054 
L 377.038624 269.288139 
L 377.363604 266.405125 
L 378.013563 264.522587 
L 378.338542 265.838989 
L 378.663522 271.141118 
L 378.988501 273.024278 
L 379.63846 277.808163 
L 379.96344 277.034773 
L 380.288419 273.782474 
L 380.613399 279.976513 
L 380.938378 277.906812 
L 381.263358 278.941595 
L 381.588337 278.486247 
L 381.913317 286.500594 
L 382.238296 287.04222 
L 382.563276 293.477175 
L 382.888256 288.721232 
L 383.213235 290.631804 
L 383.538215 283.249395 
L 383.863194 280.498724 
L 384.188174 279.090287 
L 384.513153 274.169934 
L 384.838133 276.058238 
L 385.163112 276.640788 
L 385.488092 275.804668 
L 385.813071 275.641477 
L 386.138051 277.269307 
L 386.46303 284.959017 
L 387.437969 270.552105 
L 387.762948 267.155625 
L 388.087928 268.642566 
L 388.412907 264.478935 
L 388.737887 267.481362 
L 389.062867 264.220738 
L 389.712826 265.797305 
L 390.037805 258.946224 
L 390.362785 260.321652 
L 390.687764 263.748643 
L 391.012744 264.559361 
L 391.337723 264.761445 
L 391.662703 262.853264 
L 391.987682 264.863213 
L 392.312662 268.300862 
L 392.637641 270.107374 
L 392.962621 264.779328 
L 393.2876 266.892552 
L 393.61258 265.917584 
L 393.937559 269.114001 
L 394.262539 268.554496 
L 394.587518 268.801024 
L 394.912498 271.385945 
L 395.237477 272.765183 
L 395.562457 277.143814 
L 395.887437 276.306232 
L 396.212416 279.103125 
L 396.537396 279.068535 
L 396.862375 279.415297 
L 397.187355 284.978583 
L 397.512334 285.524175 
L 397.837314 284.65645 
L 398.487273 288.512933 
L 398.487273 288.512933 
" clip-path="url(#p07755f91ca)" style="fill: none; stroke: #000000; stroke-width: 1.5; stroke-linecap: square"/>
   </g>
   <g id="line2d_16">
    <path d="M 73.832727 230.080859 
L 74.157707 232.603714 
L 74.482686 231.379346 
L 75.132645 236.826293 
L 75.457625 238.390606 
L 75.782604 241.678332 
L 76.107584 242.576321 
L 76.432563 240.906176 
L 76.757543 242.164773 
L 77.082523 245.842628 
L 77.407502 244.121793 
L 77.732482 247.814862 
L 78.057461 245.685144 
L 78.70742 249.908111 
L 79.0324 247.155404 
L 79.357379 239.659799 
L 79.682359 235.710038 
L 80.007338 229.994526 
L 80.332318 232.466572 
L 80.657297 233.293435 
L 81.307256 236.084877 
L 81.632236 231.838792 
L 81.957215 230.837013 
L 82.282195 223.598733 
L 82.607174 222.92643 
L 82.932154 223.721751 
L 83.257133 217.727574 
L 83.582113 220.331096 
L 83.907093 218.536445 
L 84.232072 218.281676 
L 84.557052 218.771827 
L 84.882031 219.697698 
L 85.207011 219.484266 
L 85.53199 216.642579 
L 85.85697 217.640659 
L 86.181949 221.116153 
L 86.506929 220.265721 
L 86.831908 220.802617 
L 87.156888 220.897458 
L 87.481867 218.73641 
L 87.806847 219.724628 
L 88.131826 219.965066 
L 88.456806 220.483384 
L 88.781785 220.142468 
L 89.106765 215.188694 
L 89.431744 221.292503 
L 89.756724 223.07809 
L 90.406683 231.25737 
L 90.731663 235.169292 
L 91.056642 234.472926 
L 91.381622 235.643859 
L 91.706601 234.072541 
L 92.031581 235.386784 
L 92.35656 237.573083 
L 92.68154 232.093905 
L 93.006519 232.448237 
L 93.331499 229.727255 
L 93.656478 231.764912 
L 93.981458 232.097751 
L 94.306437 226.928812 
L 94.631417 230.235719 
L 94.956396 231.795265 
L 95.606355 225.088905 
L 95.931335 231.058231 
L 96.256314 232.525347 
L 96.581294 235.000921 
L 96.906274 229.139476 
L 97.231253 227.653265 
L 97.556233 228.039924 
L 97.881212 226.018356 
L 98.531171 217.277972 
L 98.856151 219.130055 
L 99.18113 215.656379 
L 99.50611 218.231389 
L 99.831089 210.089214 
L 100.156069 212.261605 
L 100.481048 208.759043 
L 100.806028 210.577227 
L 101.131007 217.408692 
L 101.455987 216.874659 
L 101.780966 216.702804 
L 102.105946 215.009255 
L 102.430925 218.661112 
L 102.755905 224.295812 
L 103.080885 221.181666 
L 103.405864 222.619968 
L 103.730844 223.155465 
L 104.055823 222.687851 
L 104.380803 224.159327 
L 105.030762 219.7472 
L 105.355741 221.635371 
L 105.680721 221.279382 
L 106.0057 224.649546 
L 106.33068 225.448038 
L 106.655659 224.635374 
L 107.305618 230.004497 
L 108.280557 246.858633 
L 108.605536 243.908095 
L 108.930516 237.601399 
L 109.255495 233.699675 
L 109.580475 234.309466 
L 109.905455 232.122744 
L 110.230434 236.220007 
L 110.555414 236.215117 
L 110.880393 238.563916 
L 111.205373 235.467713 
L 111.530352 238.806354 
L 111.855332 233.001084 
L 112.180311 233.584483 
L 112.505291 230.772744 
L 112.83027 234.853256 
L 113.805209 227.792257 
L 114.130188 227.867466 
L 114.455168 224.453209 
L 114.780147 227.025636 
L 115.105127 228.541223 
L 115.430106 232.202739 
L 115.755086 228.79352 
L 116.080066 229.155777 
L 116.730025 218.467112 
L 117.055004 212.116106 
L 117.379984 212.53423 
L 117.704963 213.883148 
L 118.029943 219.488415 
L 118.354922 223.14921 
L 119.004881 224.725697 
L 119.329861 226.213769 
L 119.65484 230.646794 
L 120.304799 225.86116 
L 120.954758 218.156994 
L 121.279738 218.096829 
L 121.604717 215.99839 
L 122.254676 209.44101 
L 122.904636 219.670437 
L 123.229615 219.355259 
L 123.554595 219.228012 
L 123.879574 225.715793 
L 124.529533 234.913562 
L 124.854513 234.862206 
L 125.179492 236.942838 
L 125.504472 237.255586 
L 125.829451 230.278081 
L 126.47941 242.095913 
L 126.80439 245.704924 
L 127.129369 250.593274 
L 127.454349 252.6106 
L 127.779328 261.444741 
L 128.429287 260.849688 
L 128.754267 260.671841 
L 129.079247 263.677923 
L 129.404226 265.061201 
L 129.729206 263.406985 
L 130.054185 259.449152 
L 130.379165 253.429709 
L 131.679083 271.69869 
L 132.004062 266.702311 
L 132.329042 265.719224 
L 132.654021 267.653696 
L 132.979001 262.916588 
L 133.62896 260.373836 
L 133.953939 258.490407 
L 134.278919 257.431186 
L 134.603898 255.08592 
L 134.928878 258.15491 
L 135.253857 260.088681 
L 135.578837 257.952709 
L 135.903817 259.311728 
L 137.528714 269.528157 
L 138.178673 277.148445 
L 138.503653 274.136835 
L 138.828632 268.171399 
L 139.153612 272.281287 
L 139.478591 270.584807 
L 139.803571 278.792473 
L 140.12855 283.602895 
L 140.45353 277.598551 
L 140.778509 281.73582 
L 141.103489 282.648358 
L 141.428468 280.469272 
L 141.753448 284.546425 
L 142.078428 281.624761 
L 142.403407 280.957699 
L 142.728387 278.609425 
L 143.053366 278.364513 
L 143.378346 276.798761 
L 143.703325 273.92057 
L 144.028305 273.713966 
L 144.678264 271.929661 
L 145.003243 272.03628 
L 145.328223 271.916929 
L 145.653202 273.029741 
L 145.978182 267.181808 
L 146.303161 268.149492 
L 146.95312 261.957412 
L 147.2781 260.864144 
L 147.603079 262.923729 
L 147.928059 257.38775 
L 148.253038 261.662343 
L 148.578018 269.509469 
L 148.902998 266.995729 
L 149.227977 270.088323 
L 149.552957 270.69158 
L 149.877936 267.911614 
L 150.202916 263.70532 
L 150.527895 265.188805 
L 150.852875 262.865347 
L 151.177854 261.568043 
L 151.502834 261.012486 
L 151.827813 262.831287 
L 152.152793 261.767953 
L 152.477772 260.199506 
L 152.802752 262.840873 
L 153.452711 258.290405 
L 153.77769 261.730181 
L 154.10267 258.971396 
L 154.427649 258.50629 
L 154.752629 252.20153 
L 155.077609 256.445677 
L 155.727568 247.191854 
L 156.052547 247.129801 
L 156.377527 246.668211 
L 156.702506 247.479881 
L 157.027486 248.74473 
L 157.352465 242.59721 
L 157.677445 242.456551 
L 158.002424 239.620996 
L 158.327404 238.240692 
L 158.652383 234.881648 
L 158.977363 236.663759 
L 159.627322 242.05829 
L 159.952301 236.635424 
L 160.277281 236.518556 
L 160.60226 231.283153 
L 161.252219 235.313815 
L 161.577199 228.905494 
L 161.902179 231.710831 
L 162.227158 230.974802 
L 162.552138 234.121888 
L 162.877117 233.347486 
L 163.202097 233.227709 
L 163.527076 238.025966 
L 163.852056 237.729785 
L 164.177035 236.158877 
L 164.502015 238.920528 
L 164.826994 239.053953 
L 165.151974 237.876742 
L 165.476953 230.159004 
L 166.126912 220.621917 
L 166.451892 227.314794 
L 167.101851 224.64183 
L 167.42683 224.862025 
L 167.75181 223.8362 
L 168.07679 222.440882 
L 168.401769 223.216637 
L 168.726749 216.703478 
L 169.051728 214.886522 
L 169.376708 217.318416 
L 169.701687 218.10377 
L 170.026667 217.072932 
L 170.351646 223.13737 
L 170.676626 224.072464 
L 171.001605 226.592211 
L 171.326585 229.995241 
L 171.651564 231.363885 
L 171.976544 230.532389 
L 172.301523 231.262444 
L 172.626503 228.440057 
L 172.951482 227.396986 
L 173.276462 223.17997 
L 173.601441 227.091193 
L 173.926421 228.277718 
L 174.2514 233.229985 
L 174.57638 231.848239 
L 174.90136 235.191007 
L 175.226339 234.49096 
L 175.551319 230.808804 
L 175.876298 231.73703 
L 176.201278 234.274415 
L 176.526257 234.292901 
L 176.851237 231.852037 
L 177.501196 221.660439 
L 177.826175 225.263048 
L 178.151155 230.885647 
L 178.476134 223.9769 
L 178.801114 226.468238 
L 179.126093 225.496452 
L 179.451073 219.021861 
L 180.426011 230.41408 
L 180.750991 220.922693 
L 181.075971 224.243485 
L 181.40095 226.051486 
L 181.72593 224.910684 
L 182.050909 228.44588 
L 182.375889 229.068999 
L 182.700868 230.600515 
L 183.025848 224.7214 
L 183.675807 223.800338 
L 184.000786 219.286582 
L 184.325766 222.12588 
L 184.650745 222.215981 
L 184.975725 225.675496 
L 185.300704 221.90048 
L 185.625684 216.086196 
L 185.950663 218.212851 
L 186.600622 212.07401 
L 187.575561 204.494726 
L 187.900541 206.834878 
L 188.22552 205.472783 
L 188.5505 205.56025 
L 188.875479 203.128258 
L 189.200459 198.18313 
L 189.525438 195.151573 
L 189.850418 196.825247 
L 190.175397 199.598413 
L 190.500377 195.797923 
L 190.825356 199.677638 
L 191.150336 194.534597 
L 191.475315 196.118603 
L 191.800295 200.418475 
L 192.125274 198.286813 
L 192.450254 198.113113 
L 192.775233 199.540701 
L 193.425192 195.079952 
L 193.750172 184.229803 
L 194.075152 183.309432 
L 194.400131 187.60159 
L 194.725111 185.203567 
L 195.05009 184.364418 
L 195.37507 185.376032 
L 195.700049 182.721686 
L 196.025029 182.534322 
L 196.350008 185.330568 
L 196.674988 190.079938 
L 196.999967 183.702668 
L 197.324947 180.46658 
L 197.649926 181.331651 
L 197.974906 181.656692 
L 198.299885 182.156666 
L 198.624865 184.357796 
L 198.949844 180.956181 
L 199.274824 180.299362 
L 199.599803 178.569376 
L 199.924783 180.610597 
L 200.249762 176.211186 
L 200.574742 175.766269 
L 201.224701 178.785627 
L 201.87466 174.055493 
L 202.19964 174.67776 
L 202.524619 172.587209 
L 203.174578 166.613242 
L 203.499558 170.378728 
L 203.824537 168.236779 
L 204.149517 164.732217 
L 204.474496 166.75013 
L 204.799476 165.824447 
L 205.124455 157.220498 
L 205.774414 145.761581 
L 206.099394 146.363645 
L 206.424373 147.630806 
L 206.749353 146.656125 
L 207.074333 148.798735 
L 207.399312 154.599708 
L 207.724292 153.134468 
L 208.374251 144.214952 
L 208.69923 143.581256 
L 209.349189 133.826301 
L 209.674169 128.433043 
L 209.999148 130.104138 
L 210.324128 124.153151 
L 210.649107 124.968625 
L 211.299066 123.096927 
L 211.624046 121.195996 
L 211.949025 116.415735 
L 212.274005 116.995044 
L 212.598984 119.352556 
L 212.923964 119.273547 
L 213.248943 118.478984 
L 213.573923 118.233537 
L 213.898903 119.499542 
L 214.223882 127.223924 
L 214.548862 127.169917 
L 214.873841 122.207024 
L 215.198821 122.007046 
L 215.5238 117.079157 
L 215.84878 117.191606 
L 216.173759 114.731841 
L 216.498739 116.170291 
L 217.148698 111.261122 
L 217.473677 105.965153 
L 217.798657 109.283437 
L 218.123636 107.848189 
L 218.448616 111.229385 
L 219.098575 100.349582 
L 219.423554 103.152826 
L 219.748534 99.658245 
L 220.073514 99.108647 
L 220.398493 92.364414 
L 220.723473 92.601051 
L 221.048452 93.333171 
L 221.373432 96.413702 
L 221.698411 94.333526 
L 222.023391 91.176089 
L 222.34837 90.408905 
L 222.67335 89.35014 
L 222.998329 91.067251 
L 223.323309 93.444789 
L 223.648288 88.633335 
L 223.973268 95.725195 
L 224.298247 94.766264 
L 224.623227 93.121383 
L 224.948206 92.810657 
L 225.598165 103.203352 
L 225.923145 104.502243 
L 226.248124 100.671645 
L 226.573104 98.577197 
L 227.223063 106.111329 
L 227.548043 100.365928 
L 227.873022 103.486286 
L 228.198002 102.241823 
L 228.847961 96.16497 
L 229.17294 101.051493 
L 229.49792 99.397136 
L 229.822899 99.521279 
L 230.147879 96.37831 
L 230.472858 94.559534 
L 231.122817 102.29049 
L 231.447797 101.409019 
L 231.772776 104.059101 
L 232.097756 108.224727 
L 232.422735 109.827345 
L 234.047633 126.651453 
L 234.372613 125.708403 
L 234.697592 120.558983 
L 235.022572 120.174266 
L 235.347551 115.597409 
L 235.672531 116.711566 
L 235.99751 115.3507 
L 236.32249 114.540025 
L 236.647469 115.80833 
L 236.972449 118.524151 
L 237.297428 118.134947 
L 237.622408 119.340757 
L 238.272367 131.814246 
L 238.597346 132.301233 
L 238.922326 132.401516 
L 239.247305 136.267816 
L 239.572285 133.362721 
L 239.897265 135.70758 
L 240.222244 137.005376 
L 240.547224 135.238904 
L 240.872203 130.260483 
L 241.197183 129.033366 
L 241.522162 129.599844 
L 241.847142 133.308615 
L 242.172121 128.918615 
L 242.497101 127.540406 
L 242.82208 128.1688 
L 243.14706 120.388136 
L 243.472039 125.013607 
L 243.797019 123.991023 
L 244.446978 128.898898 
L 244.771957 129.907498 
L 245.096937 128.901516 
L 245.421916 128.940666 
L 246.396855 123.026011 
L 247.046814 126.852195 
L 247.371794 131.62775 
L 247.696773 132.718973 
L 248.346732 125.760096 
L 248.671712 124.639856 
L 248.996691 127.171768 
L 249.321671 136.19856 
L 249.64665 137.158226 
L 249.97163 132.249289 
L 250.296609 134.518968 
L 250.621589 133.116186 
L 250.946568 137.266112 
L 251.271548 138.364192 
L 251.596527 135.161389 
L 251.921507 138.570963 
L 252.246486 138.968443 
L 252.571466 142.76377 
L 252.896446 144.10364 
L 253.221425 138.995575 
L 253.546405 137.583015 
L 254.196364 133.083016 
L 254.521343 135.5364 
L 254.846323 133.183535 
L 255.171302 136.694299 
L 255.821261 148.419256 
L 256.146241 148.646576 
L 256.7962 145.127832 
L 257.121179 137.870891 
L 257.446159 133.779384 
L 257.771138 131.456339 
L 258.096118 132.477265 
L 258.421097 136.595194 
L 258.746077 138.52181 
L 259.071057 139.247946 
L 259.396036 140.27801 
L 259.721016 137.729349 
L 260.045995 131.388623 
L 260.370975 133.10256 
L 260.695954 132.099643 
L 261.020934 132.706309 
L 261.345913 137.408122 
L 261.670893 136.578627 
L 261.995872 139.420308 
L 262.645831 141.616966 
L 262.970811 147.464442 
L 263.29579 150.817734 
L 263.62077 151.084851 
L 263.945749 142.708765 
L 264.270729 145.36003 
L 264.595708 149.442947 
L 264.920688 143.468235 
L 265.245667 143.895041 
L 265.570647 143.498934 
L 265.895627 146.34354 
L 266.220606 145.415934 
L 266.545586 152.167231 
L 267.520524 154.985206 
L 267.845504 150.832917 
L 268.170483 151.899403 
L 268.495463 153.932099 
L 268.820442 150.166518 
L 269.145422 147.938508 
L 269.470401 151.472465 
L 269.795381 149.646251 
L 270.12036 145.715687 
L 270.44534 144.027413 
L 270.770319 142.972699 
L 271.095299 140.301199 
L 271.420278 141.102065 
L 271.745258 140.827687 
L 272.070238 140.026724 
L 272.395217 141.788365 
L 272.720197 133.266629 
L 273.045176 137.534963 
L 273.370156 138.748446 
L 273.695135 133.613885 
L 274.020115 134.441144 
L 274.345094 132.82292 
L 274.670074 128.225661 
L 275.320033 133.696893 
L 275.645012 129.2289 
L 275.969992 131.730611 
L 276.294971 135.228645 
L 277.26991 126.673758 
L 277.594889 128.322366 
L 277.919869 126.077269 
L 278.244848 126.648851 
L 278.569828 123.386803 
L 278.894808 125.120544 
L 279.219787 122.18407 
L 279.544767 126.07489 
L 279.869746 125.454308 
L 280.194726 131.004294 
L 280.519705 129.73248 
L 280.844685 129.139584 
L 281.169664 131.568173 
L 281.494644 128.971041 
L 281.819623 133.278793 
L 282.144603 132.493375 
L 282.469582 126.488729 
L 282.794562 128.912471 
L 283.444521 123.03122 
L 283.7695 126.88026 
L 284.09448 126.047935 
L 284.419459 120.942851 
L 284.744439 119.388909 
L 285.394398 111.160795 
L 285.719378 113.899794 
L 286.044357 121.656158 
L 286.369337 121.35679 
L 286.694316 127.475933 
L 287.019296 125.041617 
L 287.344275 129.428884 
L 287.669255 128.930702 
L 287.994234 127.092214 
L 288.319214 129.679691 
L 288.644193 129.643706 
L 288.969173 130.598684 
L 289.294152 132.074164 
L 289.944111 125.658719 
L 290.269091 126.984925 
L 290.59407 124.058129 
L 290.91905 123.616914 
L 291.244029 122.323462 
L 291.569009 122.299484 
L 291.893989 124.962975 
L 292.218968 126.116895 
L 292.543948 125.634975 
L 292.868927 123.110469 
L 293.518886 125.451616 
L 293.843866 126.437465 
L 294.168845 125.798364 
L 294.493825 121.07884 
L 294.818804 122.478207 
L 295.143784 118.336714 
L 295.468763 119.2082 
L 295.793743 120.870725 
L 296.118722 123.601212 
L 296.443702 129.319446 
L 296.768681 124.466318 
L 297.093661 125.290857 
L 297.41864 128.689609 
L 297.74362 129.38647 
L 298.0686 126.317587 
L 298.393579 128.327393 
L 298.718559 128.785194 
L 299.043538 125.242974 
L 299.368518 113.506261 
L 299.693497 120.926337 
L 300.018477 115.215033 
L 300.343456 117.841087 
L 300.668436 114.014925 
L 300.993415 113.37114 
L 301.318395 109.200901 
L 301.643374 109.624259 
L 301.968354 107.366426 
L 302.293333 106.005203 
L 302.618313 106.175389 
L 303.268272 101.032308 
L 303.593251 102.97486 
L 303.918231 107.133492 
L 304.24321 107.470873 
L 304.56819 106.836445 
L 304.89317 99.773393 
L 305.543129 104.961947 
L 305.868108 104.033523 
L 306.193088 106.821969 
L 306.518067 107.92196 
L 307.168026 98.362486 
L 307.493006 99.712831 
L 307.817985 103.218541 
L 308.142965 105.45513 
L 308.792924 96.275837 
L 309.117903 94.863119 
L 309.442883 96.353158 
L 309.767862 100.998912 
L 310.092842 101.913185 
L 310.742801 92.107682 
L 311.067781 90.781901 
L 311.39276 91.665603 
L 311.71774 93.527116 
L 312.042719 101.948128 
L 312.692678 103.741888 
L 313.017658 102.251383 
L 313.342637 102.539161 
L 313.667617 103.979628 
L 313.992596 108.716634 
L 314.317576 106.193015 
L 314.642555 107.930419 
L 314.967535 106.109127 
L 315.617494 101.589006 
L 315.942473 105.956939 
L 316.267453 112.81352 
L 316.592432 112.175165 
L 316.917412 112.799601 
L 317.242391 118.180554 
L 317.567371 119.426517 
L 317.892351 124.945147 
L 318.21733 125.190573 
L 318.54231 131.064093 
L 318.867289 130.790421 
L 319.192269 128.357259 
L 319.517248 128.840569 
L 319.842228 125.839118 
L 320.167207 126.115739 
L 320.492187 127.865056 
L 320.817166 127.771417 
L 321.142146 119.590569 
L 321.467125 123.670763 
L 321.792105 124.427007 
L 322.117084 121.86118 
L 322.442064 124.011035 
L 322.767043 120.757026 
L 323.092023 120.319622 
L 323.417002 120.274753 
L 323.741982 118.187947 
L 324.066962 119.505563 
L 325.0419 126.932304 
L 325.691859 122.827786 
L 326.016839 124.894401 
L 326.666798 116.14607 
L 326.991777 114.684425 
L 327.316757 108.305351 
L 327.641736 105.059915 
L 327.966716 104.186936 
L 328.291695 105.116183 
L 328.616675 104.645851 
L 328.941654 101.800488 
L 329.266634 101.82324 
L 329.591613 105.157934 
L 329.916593 104.04501 
L 330.241572 99.80352 
L 330.566552 99.355379 
L 330.891532 94.847114 
L 331.216511 95.539727 
L 331.541491 90.146661 
L 331.86647 91.059161 
L 332.19145 90.477877 
L 332.516429 86.232227 
L 333.166388 88.819895 
L 333.491368 84.663076 
L 333.816347 84.470273 
L 334.141327 78.930164 
L 334.466306 75.622269 
L 334.791286 79.727346 
L 335.116265 79.360269 
L 335.441245 80.841218 
L 335.766224 78.030751 
L 336.091204 77.106836 
L 336.416183 83.858922 
L 336.741163 85.241213 
L 337.066143 86.034273 
L 337.391122 83.649321 
L 338.041081 91.274266 
L 338.366061 89.935413 
L 338.69104 89.128175 
L 339.01602 92.915348 
L 339.340999 92.931826 
L 339.990958 95.259312 
L 340.315938 96.970905 
L 340.640917 96.382732 
L 340.965897 99.909615 
L 341.290876 99.95872 
L 341.615856 98.750951 
L 341.940835 100.16924 
L 342.265815 97.544952 
L 342.915774 90.128063 
L 343.240753 85.704315 
L 343.565733 88.138613 
L 344.215692 83.960335 
L 344.540672 83.529574 
L 344.865651 84.101671 
L 345.190631 80.360211 
L 345.84059 89.461979 
L 346.165569 92.075247 
L 346.490549 89.176154 
L 346.815528 90.867775 
L 347.465487 86.820693 
L 347.790467 87.165351 
L 348.115446 82.487171 
L 348.440426 87.3133 
L 348.765405 89.01541 
L 349.090385 89.001939 
L 349.415364 94.292408 
L 349.740344 88.673194 
L 350.065324 88.214553 
L 350.390303 89.959362 
L 350.715283 87.06946 
L 351.040262 82.604068 
L 351.365242 88.424925 
L 351.690221 86.045432 
L 352.015201 87.108841 
L 352.34018 84.446788 
L 352.66516 84.104534 
L 352.990139 84.051223 
L 353.315119 84.693434 
L 353.640098 83.234484 
L 353.965078 85.852801 
L 354.290057 93.92159 
L 354.940016 86.233425 
L 355.264996 89.929589 
L 355.589975 92.137685 
L 355.914955 98.055435 
L 356.564914 103.342568 
L 357.214873 94.168773 
L 357.539853 93.851036 
L 357.864832 89.184504 
L 358.189812 90.021096 
L 358.514791 90.390814 
L 358.839771 98.067663 
L 359.48973 100.347177 
L 359.814709 103.488516 
L 360.139689 99.999206 
L 360.464668 101.984671 
L 360.789648 102.418315 
L 361.439607 93.933418 
L 361.764586 96.833494 
L 362.089566 98.144672 
L 362.414545 97.570977 
L 362.739525 100.430055 
L 363.064505 105.340084 
L 363.389484 106.685592 
L 363.714464 108.881939 
L 364.039443 108.876046 
L 364.364423 105.975875 
L 365.339361 93.081544 
L 365.664341 93.545694 
L 366.3143 95.769275 
L 366.639279 89.341524 
L 366.964259 92.227629 
L 367.289238 87.341208 
L 367.614218 91.600949 
L 367.939197 93.209486 
L 368.264177 93.367312 
L 368.589156 91.981319 
L 368.914136 95.985088 
L 369.239115 103.584993 
L 369.564095 104.514649 
L 369.889075 101.977315 
L 370.539034 108.595319 
L 370.864013 109.705449 
L 371.188993 109.102419 
L 371.513972 112.74817 
L 371.838952 114.722526 
L 372.163931 113.220417 
L 372.488911 115.558891 
L 372.81389 116.67095 
L 373.13887 113.013597 
L 373.788829 121.426111 
L 374.113808 123.187283 
L 374.438788 124.061611 
L 375.088747 116.952213 
L 375.413726 118.280136 
L 375.738706 120.798034 
L 376.063686 115.18319 
L 376.713645 119.005984 
L 377.038624 116.837876 
L 377.363604 118.852027 
L 377.688583 114.238693 
L 378.013563 116.180095 
L 378.338542 120.332913 
L 378.663522 116.293776 
L 378.988501 116.378395 
L 379.313481 117.335982 
L 379.63846 117.060476 
L 379.96344 118.10369 
L 380.288419 120.676646 
L 380.938378 113.254145 
L 381.588337 124.180516 
L 381.913317 125.535058 
L 382.238296 129.749425 
L 382.563276 127.781124 
L 382.888256 127.351864 
L 383.213235 127.852454 
L 383.538215 130.511529 
L 384.188174 131.954512 
L 384.513153 125.838848 
L 384.838133 131.272306 
L 385.488092 125.924852 
L 385.813071 125.939937 
L 386.138051 125.529193 
L 386.46303 130.781219 
L 386.78801 129.392514 
L 387.112989 134.793507 
L 387.437969 137.994084 
L 387.762948 137.667828 
L 388.087928 138.128318 
L 388.412907 142.796383 
L 388.737887 140.119958 
L 389.062867 140.179437 
L 389.387846 143.110069 
L 390.037805 138.673346 
L 390.362785 140.652475 
L 390.687764 144.039132 
L 391.012744 142.387932 
L 391.337723 143.160212 
L 391.662703 146.123621 
L 391.987682 147.260715 
L 392.312662 150.71174 
L 392.637641 151.417109 
L 392.962621 148.430683 
L 393.2876 149.221673 
L 393.61258 144.032237 
L 393.937559 145.448629 
L 394.262539 143.963252 
L 394.587518 144.584347 
L 394.912498 139.783472 
L 395.237477 137.390863 
L 395.887437 123.277312 
L 396.212416 125.813765 
L 396.537396 124.550253 
L 396.862375 120.640399 
L 397.187355 118.661634 
L 397.512334 118.580274 
L 397.837314 116.03444 
L 398.162293 117.639332 
L 398.487273 114.972625 
L 398.487273 114.972625 
" clip-path="url(#p07755f91ca)" style="fill: none; stroke-dasharray: 5.55,2.4; stroke-dashoffset: 0; stroke: #000000; stroke-width: 1.5"/>
   </g>
   <g id="line2d_17">
    <path d="M 73.832727 224.147561 
L 74.157707 229.102561 
L 74.482686 226.404338 
L 74.807666 228.491058 
L 75.132645 227.204776 
L 75.782604 234.746694 
L 76.107584 235.383944 
L 76.432563 228.780162 
L 76.757543 233.799165 
L 77.082523 232.337093 
L 77.732482 234.902398 
L 78.057461 235.207826 
L 78.382441 240.115963 
L 79.0324 244.269998 
L 79.357379 243.724869 
L 80.007338 237.464142 
L 80.332318 238.700554 
L 80.657297 242.637179 
L 80.982277 239.75296 
L 81.957215 225.890898 
L 82.282195 225.750919 
L 82.607174 219.104149 
L 82.932154 219.861593 
L 83.257133 220.925214 
L 83.582113 221.411203 
L 83.907093 222.771192 
L 84.232072 227.55549 
L 84.557052 224.798406 
L 84.882031 224.037841 
L 85.207011 222.507159 
L 85.53199 216.586927 
L 85.85697 218.111831 
L 86.181949 218.977925 
L 86.506929 218.411066 
L 86.831908 220.739852 
L 87.156888 216.828012 
L 87.481867 221.527986 
L 87.806847 224.077566 
L 88.456806 226.217992 
L 89.106765 234.227417 
L 89.431744 232.775356 
L 89.756724 235.933539 
L 90.081704 236.554974 
L 90.731663 243.418134 
L 91.056642 242.000621 
L 91.381622 238.425654 
L 91.706601 242.332063 
L 92.031581 239.950689 
L 92.35656 232.882322 
L 93.006519 236.734164 
L 93.656478 230.676399 
L 93.981458 233.701625 
L 94.306437 231.198615 
L 94.631417 229.749806 
L 94.956396 235.136964 
L 95.606355 229.059873 
L 95.931335 229.257357 
L 96.256314 232.344428 
L 96.581294 232.609431 
L 96.906274 233.053672 
L 97.231253 236.765831 
L 97.556233 238.22071 
L 97.881212 241.842279 
L 98.206192 240.566061 
L 98.531171 237.032866 
L 99.18113 245.921565 
L 99.50611 256.841377 
L 99.831089 254.080399 
L 100.156069 252.630458 
L 100.481048 252.499746 
L 100.806028 251.109966 
L 101.131007 249.140925 
L 101.455987 250.585878 
L 101.780966 255.860499 
L 102.105946 253.631712 
L 102.430925 253.872545 
L 102.755905 253.791695 
L 103.080885 255.45263 
L 103.405864 259.208295 
L 103.730844 258.657761 
L 104.055823 259.709977 
L 104.380803 260.095472 
L 104.705782 264.568168 
L 105.030762 265.293047 
L 105.355741 261.960358 
L 105.680721 264.704921 
L 106.0057 270.721102 
L 106.33068 270.736087 
L 106.655659 273.313751 
L 106.980639 276.933349 
L 107.305618 273.889306 
L 107.630598 268.019202 
L 107.955577 265.254355 
L 108.605536 270.616667 
L 108.930516 271.527331 
L 109.580475 268.86965 
L 109.905455 271.605266 
L 110.230434 266.765457 
L 110.555414 264.581035 
L 110.880393 264.584712 
L 111.205373 262.518732 
L 111.530352 262.90155 
L 111.855332 271.105074 
L 112.180311 273.467967 
L 112.505291 278.998483 
L 112.83027 279.925585 
L 113.15525 275.715424 
L 113.480229 274.590738 
L 113.805209 274.867037 
L 114.130188 274.425055 
L 114.455168 274.711763 
L 114.780147 267.577952 
L 115.105127 266.230569 
L 115.430106 263.628907 
L 116.080066 270.340739 
L 116.405045 272.158671 
L 116.730025 268.720225 
L 117.055004 269.502084 
L 117.379984 266.898715 
L 117.704963 269.339958 
L 118.029943 270.679581 
L 118.354922 268.256036 
L 118.679902 270.719246 
L 119.004881 267.596774 
L 119.329861 270.88081 
L 119.65484 271.464912 
L 119.97982 273.374311 
L 120.304799 270.774785 
L 120.629779 272.759131 
L 120.954758 276.458224 
L 121.279738 277.720115 
L 121.604717 275.828963 
L 121.929697 280.837498 
L 122.904636 273.858459 
L 123.229615 278.704938 
L 123.554595 279.223644 
L 123.879574 278.965395 
L 124.204554 277.822281 
L 124.529533 284.38122 
L 124.854513 284.93727 
L 125.179492 283.166352 
L 125.504472 284.392145 
L 125.829451 283.511085 
L 126.154431 288.541626 
L 126.47941 284.687228 
L 127.129369 269.872541 
L 127.454349 268.048495 
L 127.779328 265.32054 
L 128.104308 261.080737 
L 128.754267 257.885875 
L 129.079247 259.686931 
L 129.404226 262.218191 
L 129.729206 265.96127 
L 130.054185 263.982415 
L 130.379165 264.853168 
L 131.354103 261.651072 
L 131.679083 261.950481 
L 132.004062 260.430033 
L 132.329042 258.332285 
L 132.654021 261.189363 
L 132.979001 259.890571 
L 133.30398 256.744499 
L 133.62896 256.754212 
L 133.953939 257.034693 
L 134.278919 255.034572 
L 134.603898 256.263577 
L 134.928878 252.673542 
L 135.253857 253.135959 
L 135.578837 252.367276 
L 135.903817 258.070306 
L 136.228796 256.405201 
L 136.553776 256.431037 
L 137.203735 254.548276 
L 137.528714 251.189948 
L 137.853694 252.366699 
L 138.178673 255.514438 
L 138.503653 256.242671 
L 138.828632 257.376501 
L 139.153612 256.287563 
L 139.478591 254.771926 
L 139.803571 256.207687 
L 140.12855 252.995072 
L 140.45353 251.013177 
L 140.778509 246.106891 
L 141.103489 250.935103 
L 141.428468 251.407406 
L 141.753448 246.892111 
L 142.078428 246.63921 
L 142.403407 247.99841 
L 142.728387 248.504257 
L 143.053366 246.607398 
L 143.378346 239.879819 
L 143.703325 241.22843 
L 144.353284 240.361837 
L 144.678264 243.683551 
L 145.003243 250.978466 
L 145.328223 252.585042 
L 145.653202 249.938525 
L 145.978182 252.548998 
L 146.303161 254.204561 
L 146.628141 261.075861 
L 146.95312 263.893686 
L 147.2781 263.954711 
L 147.603079 264.469441 
L 147.928059 265.970149 
L 149.227977 275.111593 
L 149.552957 273.097324 
L 149.877936 276.855246 
L 150.202916 272.312034 
L 150.527895 270.656266 
L 150.852875 272.319679 
L 151.177854 268.768502 
L 151.502834 267.283332 
L 151.827813 264.19482 
L 152.152793 268.983331 
L 152.477772 268.843363 
L 152.802752 265.294014 
L 153.452711 271.844256 
L 153.77769 270.614097 
L 154.10267 272.629686 
L 154.427649 276.099273 
L 154.752629 283.50605 
L 155.077609 283.74726 
L 155.402588 280.908561 
L 155.727568 285.981859 
L 156.377527 290.8396 
L 156.702506 288.712012 
L 157.027486 289.448392 
L 157.352465 284.607475 
L 157.677445 282.648111 
L 158.002424 282.348306 
L 158.327404 277.543022 
L 158.652383 278.55084 
L 159.302342 279.635637 
L 159.627322 279.114534 
L 159.952301 277.983264 
L 160.277281 278.937925 
L 160.60226 278.938379 
L 160.92724 282.32828 
L 161.252219 284.017237 
L 161.577199 286.718297 
L 161.902179 284.681254 
L 162.227158 284.257364 
L 162.877117 279.956561 
L 163.202097 279.430674 
L 163.527076 281.834907 
L 163.852056 280.50489 
L 164.177035 284.421444 
L 164.502015 285.897866 
L 164.826994 288.012521 
L 165.151974 288.510098 
L 165.476953 284.061426 
L 165.801933 286.089359 
L 166.126912 285.87875 
L 166.776871 274.599149 
L 167.101851 272.613629 
L 167.42683 269.901488 
L 168.401769 257.906414 
L 168.726749 256.249493 
L 169.051728 261.227595 
L 169.376708 261.991754 
L 169.701687 267.34918 
L 170.026667 263.065796 
L 170.676626 273.540865 
L 171.001605 273.520208 
L 171.326585 272.080909 
L 171.976544 267.467759 
L 172.301523 266.913674 
L 172.626503 271.188702 
L 172.951482 269.165252 
L 173.276462 274.014992 
L 173.601441 272.978309 
L 173.926421 276.366188 
L 174.2514 270.131407 
L 174.57638 273.472913 
L 174.90136 275.114117 
L 175.226339 277.620594 
L 175.551319 277.536687 
L 175.876298 277.680987 
L 176.201278 278.519901 
L 176.526257 282.156496 
L 177.501196 285.923651 
L 177.826175 288.312768 
L 178.151155 293.821268 
L 178.476134 295.488 
L 178.801114 292.825239 
L 179.126093 295.240651 
L 179.451073 288.345471 
L 179.776052 290.676321 
L 180.101032 289.529631 
L 180.426011 283.571102 
L 180.750991 281.391731 
L 181.075971 282.162342 
L 181.40095 282.563095 
L 181.72593 280.425901 
L 182.375889 271.010041 
L 183.025848 265.006744 
L 183.675807 269.974838 
L 184.000786 269.860321 
L 184.325766 267.449605 
L 184.975725 260.006439 
L 185.300704 257.797935 
L 185.625684 257.908041 
L 185.950663 258.258563 
L 186.275643 264.774126 
L 186.600622 264.009967 
L 186.925602 261.980421 
L 187.250581 267.186547 
L 187.575561 267.462214 
L 187.900541 267.117233 
L 188.22552 261.708788 
L 188.5505 259.040203 
L 188.875479 260.732444 
L 189.200459 255.495168 
L 189.525438 255.925692 
L 189.850418 249.126733 
L 190.175397 250.304745 
L 190.500377 245.103489 
L 190.825356 242.37448 
L 191.150336 245.499273 
L 191.475315 239.876803 
L 191.800295 239.946548 
L 192.125274 237.570916 
L 192.450254 237.841712 
L 192.775233 233.432927 
L 193.100213 232.150917 
L 193.425192 238.321705 
L 193.750172 231.583148 
L 194.075152 237.746155 
L 194.400131 234.725843 
L 194.725111 229.897383 
L 195.05009 230.81856 
L 195.37507 226.888666 
L 195.700049 227.688719 
L 196.025029 225.237929 
L 196.350008 231.463468 
L 196.674988 231.801585 
L 196.999967 233.361157 
L 197.324947 233.158041 
L 197.649926 234.538152 
L 197.974906 231.45801 
L 198.299885 229.841752 
L 198.624865 230.595185 
L 198.949844 232.038176 
L 199.599803 226.381636 
L 199.924783 221.076388 
L 200.249762 222.267371 
L 200.574742 220.274581 
L 200.899722 216.861386 
L 201.224701 217.613728 
L 201.549681 216.748377 
L 201.87466 212.145145 
L 202.524619 219.648184 
L 202.849599 219.83804 
L 203.174578 219.207645 
L 203.499558 221.333148 
L 204.149517 227.507554 
L 204.474496 226.573186 
L 205.124455 220.761757 
L 205.449435 219.876975 
L 205.774414 216.395059 
L 206.099394 220.580074 
L 206.424373 214.512658 
L 206.749353 216.589235 
L 207.074333 217.183599 
L 207.399312 214.471435 
L 208.049271 206.807425 
L 208.69923 204.253306 
L 209.02421 210.515982 
L 209.349189 211.221591 
L 209.674169 218.282132 
L 209.999148 221.398376 
L 210.324128 216.658103 
L 210.649107 219.319882 
L 210.974087 211.297893 
L 211.299066 207.548429 
L 211.624046 208.355671 
L 211.949025 215.746152 
L 212.274005 216.752159 
L 212.598984 220.110269 
L 212.923964 226.713524 
L 213.248943 226.580692 
L 213.573923 225.146458 
L 213.898903 225.402 
L 214.223882 223.708702 
L 214.548862 227.675639 
L 215.198821 225.427473 
L 215.5238 226.413587 
L 215.84878 230.846982 
L 216.173759 228.539411 
L 216.498739 230.088959 
L 217.148698 236.840144 
L 217.473677 237.862476 
L 217.798657 239.804771 
L 218.123636 240.955261 
L 218.448616 232.830772 
L 218.773595 231.768616 
L 219.098575 237.760305 
L 219.423554 235.48559 
L 219.748534 238.866407 
L 220.073514 235.947376 
L 220.398493 235.299581 
L 220.723473 237.578143 
L 221.048452 227.828829 
L 221.373432 228.288654 
L 221.698411 223.349832 
L 222.023391 222.184457 
L 222.34837 217.850605 
L 222.67335 223.1276 
L 222.998329 219.115614 
L 223.323309 225.990261 
L 223.648288 226.105259 
L 223.973268 222.382543 
L 224.298247 223.082179 
L 224.623227 222.224493 
L 224.948206 220.502249 
L 225.273186 217.913403 
L 225.598165 216.525112 
L 226.248124 211.605264 
L 226.573104 218.978113 
L 226.898084 219.1701 
L 227.223063 211.737491 
L 227.548043 219.101515 
L 227.873022 220.815641 
L 228.198002 219.706089 
L 228.522981 218.18668 
L 228.847961 219.551756 
L 229.17294 220.122738 
L 230.147879 207.895363 
L 230.472858 206.442752 
L 230.797838 207.404152 
L 231.122817 204.456868 
L 231.447797 203.778185 
L 232.097756 196.949984 
L 232.422735 199.258393 
L 233.072695 198.57833 
L 233.397674 199.895219 
L 233.722654 198.539153 
L 234.047633 202.460406 
L 234.372613 203.267821 
L 234.697592 204.550138 
L 235.022572 204.405599 
L 235.347551 207.974519 
L 235.672531 204.668485 
L 235.99751 206.054823 
L 236.32249 206.255829 
L 236.647469 207.718401 
L 236.972449 206.137839 
L 237.297428 207.761057 
L 237.622408 207.298998 
L 237.947387 203.488834 
L 238.272367 201.783855 
L 238.597346 198.417398 
L 238.922326 200.391523 
L 239.247305 197.69515 
L 239.572285 192.073573 
L 239.897265 193.128675 
L 240.222244 190.922617 
L 240.547224 185.7255 
L 240.872203 186.631957 
L 241.197183 184.312745 
L 242.172121 190.992538 
L 242.497101 190.855268 
L 242.82208 193.868372 
L 243.14706 190.361143 
L 243.472039 189.526543 
L 243.797019 191.432333 
L 244.121998 195.035901 
L 244.446978 197.131505 
L 244.771957 196.232076 
L 245.096937 193.933119 
L 245.421916 198.752484 
L 245.746896 198.863995 
L 246.071876 197.915829 
L 246.396855 195.316002 
L 246.721835 194.689286 
L 247.046814 196.894526 
L 247.696773 189.525798 
L 248.021753 188.447535 
L 248.346732 192.297401 
L 248.671712 193.741751 
L 248.996691 191.439283 
L 249.321671 191.630461 
L 249.64665 189.657465 
L 249.97163 190.155296 
L 250.296609 186.492636 
L 250.621589 193.521409 
L 250.946568 197.993561 
L 251.271548 199.767058 
L 251.596527 197.547812 
L 251.921507 197.306041 
L 252.246486 193.118865 
L 252.571466 192.133432 
L 252.896446 192.069334 
L 253.221425 197.105034 
L 253.546405 194.958823 
L 254.196364 186.392885 
L 254.521343 185.560565 
L 254.846323 185.481745 
L 255.496282 179.777417 
L 256.146241 185.874625 
L 256.47122 185.803246 
L 256.7962 182.948847 
L 257.121179 185.172036 
L 258.096118 187.519642 
L 258.421097 190.460767 
L 259.071057 191.585793 
L 259.721016 187.026935 
L 260.045995 187.752341 
L 260.370975 190.321687 
L 260.695954 186.670721 
L 261.020934 187.49682 
L 261.345913 187.3033 
L 261.670893 185.24457 
L 261.995872 190.897358 
L 262.320852 192.012961 
L 262.970811 188.620473 
L 263.29579 184.076157 
L 263.62077 185.459148 
L 263.945749 185.747522 
L 264.270729 185.553329 
L 264.595708 186.856237 
L 264.920688 179.391068 
L 265.245667 183.243197 
L 265.570647 179.664176 
L 265.895627 180.668203 
L 266.220606 174.928134 
L 266.545586 174.991075 
L 266.870565 177.186882 
L 267.195545 173.999718 
L 267.520524 174.123984 
L 267.845504 177.945755 
L 268.170483 172.70182 
L 268.495463 173.856973 
L 268.820442 170.445521 
L 269.145422 174.140017 
L 269.470401 172.921871 
L 269.795381 170.135749 
L 270.12036 169.646103 
L 270.770319 173.286423 
L 271.095299 170.590163 
L 271.420278 177.848185 
L 271.745258 175.717275 
L 272.395217 175.757558 
L 272.720197 178.784638 
L 273.045176 178.124484 
L 273.370156 175.390793 
L 273.695135 171.674549 
L 274.020115 171.808731 
L 274.345094 165.667567 
L 274.670074 166.640204 
L 274.995053 164.675016 
L 275.320033 165.365515 
L 275.645012 169.808471 
L 275.969992 168.709319 
L 276.619951 161.162272 
L 276.94493 161.084118 
L 277.26991 159.156785 
L 278.244848 147.16814 
L 278.569828 147.413504 
L 278.894808 151.328852 
L 279.219787 152.478851 
L 279.544767 152.15817 
L 279.869746 151.03359 
L 280.194726 152.426697 
L 280.519705 145.778202 
L 280.844685 144.897312 
L 281.819623 147.011004 
L 282.144603 152.017819 
L 282.794562 143.981549 
L 283.119541 136.7864 
L 283.444521 137.269813 
L 283.7695 133.393807 
L 284.09448 135.524743 
L 284.419459 133.957146 
L 284.744439 129.000664 
L 285.069419 134.740336 
L 285.394398 131.474751 
L 285.719378 134.621237 
L 286.044357 141.003399 
L 286.369337 137.591239 
L 286.694316 140.584021 
L 287.019296 139.306595 
L 287.344275 141.048087 
L 287.669255 139.217744 
L 287.994234 138.54382 
L 288.319214 136.135591 
L 288.644193 136.445011 
L 288.969173 143.616046 
L 289.294152 145.669076 
L 289.619132 143.03639 
L 289.944111 142.201882 
L 290.269091 142.409337 
L 290.59407 139.141641 
L 290.91905 139.774848 
L 291.569009 139.041152 
L 291.893989 137.426171 
L 292.218968 138.21135 
L 292.543948 138.012796 
L 292.868927 140.537599 
L 293.193907 138.114051 
L 293.518886 138.485408 
L 293.843866 138.332901 
L 294.168845 141.334456 
L 294.493825 138.026975 
L 294.818804 138.084489 
L 295.143784 137.369294 
L 295.468763 139.893431 
L 295.793743 139.307975 
L 296.118722 136.334229 
L 296.443702 139.226529 
L 296.768681 136.236961 
L 297.093661 136.562663 
L 297.41864 135.844939 
L 297.74362 131.131142 
L 298.393579 136.131684 
L 298.718559 134.320071 
L 299.043538 130.10263 
L 299.368518 129.070467 
L 299.693497 129.194677 
L 300.018477 127.425449 
L 300.343456 131.491009 
L 300.668436 126.422641 
L 300.993415 124.001719 
L 301.318395 123.588248 
L 301.968354 130.271789 
L 302.293333 131.683203 
L 302.618313 138.060134 
L 302.943292 137.282533 
L 303.268272 133.694578 
L 303.593251 137.226951 
L 303.918231 135.998539 
L 304.24321 133.699948 
L 304.56819 138.42954 
L 304.89317 134.445665 
L 305.218149 133.668829 
L 305.868108 128.500512 
L 306.193088 128.775016 
L 306.518067 130.637619 
L 306.843047 128.930763 
L 307.168026 129.32017 
L 307.493006 127.437189 
L 308.142965 116.438854 
L 308.467944 116.349712 
L 308.792924 114.240481 
L 309.117903 110.928585 
L 309.442883 115.020304 
L 309.767862 114.84505 
L 310.092842 109.419981 
L 310.417821 112.622603 
L 310.742801 114.526506 
L 311.067781 113.480171 
L 311.39276 114.10947 
L 311.71774 111.885801 
L 312.042719 113.425433 
L 312.367699 112.406315 
L 312.692678 105.061517 
L 313.017658 100.840971 
L 313.342637 102.183989 
L 313.992596 92.76174 
L 314.317576 90.646259 
L 314.642555 90.521584 
L 314.967535 94.199163 
L 315.617494 94.091023 
L 315.942473 90.866773 
L 316.592432 89.886149 
L 316.917412 96.784265 
L 317.242391 96.120141 
L 317.892351 86.128097 
L 318.21733 87.100895 
L 318.54231 90.110158 
L 318.867289 91.454335 
L 319.192269 94.963698 
L 319.517248 94.018767 
L 319.842228 87.12531 
L 320.167207 85.936455 
L 320.492187 87.5341 
L 320.817166 87.419431 
L 321.142146 87.065424 
L 321.467125 86.21748 
L 321.792105 83.073338 
L 322.117084 84.202183 
L 322.442064 90.102156 
L 322.767043 92.355359 
L 323.092023 91.203148 
L 323.417002 92.956711 
L 323.741982 91.903109 
L 324.391941 80.457812 
L 324.716921 83.532389 
L 325.0419 85.361384 
L 325.36688 88.318357 
L 325.691859 93.969225 
L 326.016839 96.325162 
L 326.666798 98.701296 
L 326.991777 97.998937 
L 327.316757 100.791302 
L 327.966716 94.131293 
L 328.291695 96.718226 
L 328.616675 88.797492 
L 328.941654 92.809275 
L 329.266634 92.360778 
L 329.591613 89.019827 
L 329.916593 90.245377 
L 330.241572 92.588114 
L 330.566552 96.040878 
L 330.891532 90.773766 
L 331.216511 90.586649 
L 331.541491 92.028742 
L 331.86647 91.160619 
L 332.19145 95.486819 
L 332.516429 94.320747 
L 332.841409 96.673028 
L 333.166388 101.882794 
L 333.491368 96.091244 
L 333.816347 94.688435 
L 334.466306 104.524791 
L 334.791286 108.047151 
L 335.116265 106.233491 
L 335.441245 113.078177 
L 335.766224 110.964242 
L 336.091204 112.038629 
L 336.416183 115.74645 
L 336.741163 109.262704 
L 337.066143 108.656569 
L 337.391122 112.898037 
L 337.716102 111.672674 
L 338.041081 114.774998 
L 338.366061 114.873398 
L 338.69104 115.745081 
L 339.340999 109.08326 
L 339.665979 114.403252 
L 339.990958 110.520643 
L 340.315938 110.808398 
L 340.640917 112.270161 
L 340.965897 110.429317 
L 341.290876 112.539975 
L 341.615856 113.91109 
L 341.940835 112.289898 
L 342.265815 112.859106 
L 342.915774 108.004049 
L 343.565733 107.95568 
L 343.890713 109.131004 
L 344.215692 106.971983 
L 344.540672 103.704027 
L 344.865651 103.095314 
L 345.190631 104.194781 
L 345.51561 101.903325 
L 346.165569 104.224468 
L 346.490549 105.797906 
L 346.815528 105.352972 
L 347.140508 101.309361 
L 347.465487 100.487291 
L 347.790467 95.667599 
L 348.440426 103.824169 
L 349.415364 95.269773 
L 349.740344 93.913705 
L 350.065324 90.724913 
L 350.715283 87.252349 
L 351.040262 85.310505 
L 351.365242 87.121439 
L 351.690221 83.566142 
L 352.015201 82.303619 
L 352.34018 83.883571 
L 352.66516 88.682619 
L 352.990139 84.919273 
L 353.315119 86.39569 
L 353.640098 85.405128 
L 354.290057 87.896304 
L 354.615037 87.733816 
L 354.940016 81.672881 
L 355.264996 87.000391 
L 355.589975 86.148032 
L 355.914955 86.675271 
L 356.239934 91.639055 
L 356.564914 88.212939 
L 357.214873 90.091759 
L 357.539853 87.858337 
L 357.864832 82.66512 
L 358.189812 85.253129 
L 358.514791 90.534865 
L 358.839771 92.647092 
L 359.16475 89.292058 
L 359.48973 91.282545 
L 359.814709 89.529219 
L 360.139689 87.080006 
L 360.464668 90.012793 
L 360.789648 88.120247 
L 361.114627 84.47113 
L 361.439607 76.825371 
L 361.764586 77.761106 
L 362.089566 74.585284 
L 362.414545 77.787333 
L 362.739525 72.163431 
L 363.064505 68.950824 
L 363.389484 71.298461 
L 363.714464 66.646609 
L 364.039443 74.19611 
L 364.689402 62.87784 
L 365.339361 68.179736 
L 365.664341 66.189973 
L 365.98932 63.165065 
L 366.3143 58.999028 
L 366.639279 58.272085 
L 366.964259 57.270305 
L 367.289238 59.504305 
L 367.939197 55.513779 
L 368.264177 56.226805 
L 368.589156 53.568 
L 368.914136 56.331272 
L 369.239115 61.943563 
L 369.564095 63.147457 
L 369.889075 63.380466 
L 370.214054 66.488196 
L 370.539034 66.298466 
L 370.864013 62.423382 
L 371.188993 63.083196 
L 371.513972 62.90682 
L 371.838952 65.851671 
L 372.163931 63.640804 
L 372.488911 64.979655 
L 372.81389 66.83142 
L 373.13887 63.765805 
L 373.463849 66.079247 
L 374.113808 69.587586 
L 374.438788 69.523062 
L 374.763767 67.417491 
L 375.088747 71.120613 
L 375.413726 70.37698 
L 375.738706 71.656183 
L 376.063686 67.956038 
L 376.388665 73.992724 
L 377.038624 76.806895 
L 377.363604 74.238694 
L 377.688583 77.626354 
L 378.338542 87.073688 
L 378.663522 84.513122 
L 378.988501 83.993324 
L 379.313481 84.959146 
L 379.63846 88.102575 
L 379.96344 89.6453 
L 380.288419 89.157247 
L 380.938378 85.839984 
L 381.263358 86.415803 
L 382.238296 94.877087 
L 382.563276 93.565095 
L 382.888256 94.697618 
L 383.213235 93.979722 
L 383.538215 91.254963 
L 383.863194 91.721872 
L 384.188174 90.499264 
L 384.513153 91.042054 
L 384.838133 92.227957 
L 385.488092 89.696051 
L 385.813071 88.93031 
L 386.138051 89.46824 
L 386.46303 87.778648 
L 386.78801 87.775861 
L 387.437969 95.807414 
L 387.762948 91.237698 
L 388.087928 88.81103 
L 388.412907 90.766839 
L 388.737887 91.418972 
L 389.062867 92.750952 
L 389.387846 85.323274 
L 389.712826 86.264176 
L 390.037805 86.063707 
L 390.362785 90.941578 
L 390.687764 91.991105 
L 391.012744 89.678219 
L 391.337723 85.865659 
L 391.662703 83.44939 
L 392.312662 79.79132 
L 392.637641 77.685882 
L 392.962621 78.908462 
L 393.2876 83.401839 
L 393.61258 82.789347 
L 394.262539 92.703059 
L 394.587518 94.260853 
L 394.912498 94.722562 
L 395.237477 89.583371 
L 395.887437 100.718204 
L 396.537396 94.645337 
L 396.862375 96.472169 
L 397.187355 99.501032 
L 397.512334 101.170214 
L 397.837314 104.908525 
L 398.162293 105.492093 
L 398.487273 109.630933 
L 398.487273 109.630933 
" clip-path="url(#p07755f91ca)" style="fill: none; stroke-dasharray: 1.5,2.475; stroke-dashoffset: 0; stroke: #000000; stroke-width: 1.5"/>
   </g>
   <g id="patch_3">
    <path d="M 57.6 307.584 
L 57.6 41.472 
" style="fill: none; stroke: #000000; stroke-width: 0.8; stroke-linejoin: miter; stroke-linecap: square"/>
   </g>
   <g id="patch_4">
    <path d="M 414.72 307.584 
L 414.72 41.472 
" style="fill: none; stroke: #000000; stroke-width: 0.8; stroke-linejoin: miter; stroke-linecap: square"/>
   </g>
   <g id="patch_5">
    <path d="M 57.6 307.584 
L 414.72 307.584 
" style="fill: none; stroke: #000000; stroke-width: 0.8; stroke-linejoin: miter; stroke-linecap: square"/>
   </g>
   <g id="patch_6">
    <path d="M 57.6 41.472 
L 414.72 41.472 
" style="fill: none; stroke: #000000; stroke-width: 0.8; stroke-linejoin: miter; stroke-linecap: square"/>
   </g>
   <g id="legend_1">
    <g id="patch_7">
     <path d="M 64.6 93.506375 
L 123.05 93.506375 
Q 125.05 93.506375 125.05 91.506375 
L 125.05 48.472 
Q 125.05 46.472 123.05 46.472 
L 64.6 46.472 
Q 62.6 46.472 62.6 48.472 
L 62.6 91.506375 
Q 62.6 93.506375 64.6 93.506375 
z
" style="fill: #ffffff; opacity: 0.8; stroke: #cccccc; stroke-linejoin: miter"/>
    </g>
    <g id="line2d_18">
     <path d="M 66.6 54.570438 
L 76.6 54.570438 
L 86.6 54.570438 
" style="fill: none; stroke: #000000; stroke-width: 1.5; stroke-linecap: square"/>
    </g>
    <g id="text_15">
     <!-- one -->
     <g transform="translate(94.6 58.070438) scale(0.1 -0.1)">
      <defs>
       <path id="DejaVuSans-6f" d="M 1959 3097 
Q 1497 3097 1228 2736 
Q 959 2375 959 1747 
Q 959 1119 1226 758 
Q 1494 397 1959 397 
Q 2419 397 2687 759 
Q 2956 1122 2956 1747 
Q 2956 2369 2687 2733 
Q 2419 3097 1959 3097 
z
M 1959 3584 
Q 2709 3584 3137 3096 
Q 3566 2609 3566 1747 
Q 3566 888 3137 398 
Q 2709 -91 1959 -91 
Q 1206 -91 779 398 
Q 353 888 353 1747 
Q 353 2609 779 3096 
Q 1206 3584 1959 3584 
z
" transform="scale(0.015625)"/>
       <path id="DejaVuSans-6e" d="M 3513 2113 
L 3513 0 
L 2938 0 
L 2938 2094 
Q 2938 2591 2744 2837 
Q 2550 3084 2163 3084 
Q 1697 3084 1428 2787 
Q 1159 2491 1159 1978 
L 1159 0 
L 581 0 
L 581 3500 
L 1159 3500 
L 1159 2956 
Q 1366 3272 1645 3428 
Q 1925 3584 2291 3584 
Q 2894 3584 3203 3211 
Q 3513 2838 3513 2113 
z
" transform="scale(0.015625)"/>
       <path id="DejaVuSans-65" d="M 3597 1894 
L 3597 1613 
L 953 1613 
Q 991 1019 1311 708 
Q 1631 397 2203 397 
Q 2534 397 2845 478 
Q 3156 559 3463 722 
L 3463 178 
Q 3153 47 2828 -22 
Q 2503 -91 2169 -91 
Q 1331 -91 842 396 
Q 353 884 353 1716 
Q 353 2575 817 3079 
Q 1281 3584 2069 3584 
Q 2775 3584 3186 3129 
Q 3597 2675 3597 1894 
z
M 3022 2063 
Q 3016 2534 2758 2815 
Q 2500 3097 2075 3097 
Q 1594 3097 1305 2825 
Q 1016 2553 972 2059 
L 3022 2063 
z
" transform="scale(0.015625)"/>
      </defs>
      <use xlink:href="#DejaVuSans-6f"/>
      <use xlink:href="#DejaVuSans-6e" transform="translate(61.181641 0)"/>
      <use xlink:href="#DejaVuSans-65" transform="translate(124.560547 0)"/>
     </g>
    </g>
    <g id="line2d_19">
     <path d="M 66.6 69.248563 
L 76.6 69.248563 
L 86.6 69.248563 
" style="fill: none; stroke-dasharray: 5.55,2.4; stroke-dashoffset: 0; stroke: #000000; stroke-width: 1.5"/>
    </g>
    <g id="text_16">
     <!-- two -->
     <g transform="translate(94.6 72.748563) scale(0.1 -0.1)">
      <defs>
       <path id="DejaVuSans-74" d="M 1172 4494 
L 1172 3500 
L 2356 3500 
L 2356 3053 
L 1172 3053 
L 1172 1153 
Q 1172 725 1289 603 
Q 1406 481 1766 481 
L 2356 481 
L 2356 0 
L 1766 0 
Q 1100 0 847 248 
Q 594 497 594 1153 
L 594 3053 
L 172 3053 
L 172 3500 
L 594 3500 
L 594 4494 
L 1172 4494 
z
" transform="scale(0.015625)"/>
       <path id="DejaVuSans-77" d="M 269 3500 
L 844 3500 
L 1563 769 
L 2278 3500 
L 2956 3500 
L 3675 769 
L 4391 3500 
L 4966 3500 
L 4050 0 
L 3372 0 
L 2619 2869 
L 1863 0 
L 1184 0 
L 269 3500 
z
" transform="scale(0.015625)"/>
      </defs>
      <use xlink:href="#DejaVuSans-74"/>
      <use xlink:href="#DejaVuSans-77" transform="translate(39.208984 0)"/>
      <use xlink:href="#DejaVuSans-6f" transform="translate(120.996094 0)"/>
     </g>
    </g>
    <g id="line2d_20">
     <path d="M 66.6 83.926688 
L 76.6 83.926688 
L 86.6 83.926688 
" style="fill: none; stroke-dasharray: 1.5,2.475; stroke-dashoffset: 0; stroke: #000000; stroke-width: 1.5"/>
    </g>
    <g id="text_17">
     <!-- three -->
     <g transform="translate(94.6 87.426688) scale(0.1 -0.1)">
      <defs>
       <path id="DejaVuSans-68" d="M 3513 2113 
L 3513 0 
L 2938 0 
L 2938 2094 
Q 2938 2591 2744 2837 
Q 2550 3084 2163 3084 
Q 1697 3084 1428 2787 
Q 1159 2491 1159 1978 
L 1159 0 
L 581 0 
L 581 4863 
L 1159 4863 
L 1159 2956 
Q 1366 3272 1645 3428 
Q 1925 3584 2291 3584 
Q 2894 3584 3203 3211 
Q 3513 2838 3513 2113 
z
" transform="scale(0.015625)"/>
       <path id="DejaVuSans-72" d="M 2631 2963 
Q 2534 3019 2420 3045 
Q 2306 3072 2169 3072 
Q 1681 3072 1420 2755 
Q 1159 2438 1159 1844 
L 1159 0 
L 581 0 
L 581 3500 
L 1159 3500 
L 1159 2956 
Q 1341 3275 1631 3429 
Q 1922 3584 2338 3584 
Q 2397 3584 2469 3576 
Q 2541 3569 2628 3553 
L 2631 2963 
z
" transform="scale(0.015625)"/>
      </defs>
      <use xlink:href="#DejaVuSans-74"/>
      <use xlink:href="#DejaVuSans-68" transform="translate(39.208984 0)"/>
      <use xlink:href="#DejaVuSans-72" transform="translate(102.587891 0)"/>
      <use xlink:href="#DejaVuSans-65" transform="translate(141.451172 0)"/>
      <use xlink:href="#DejaVuSans-65" transform="translate(202.974609 0)"/>
     </g>
    </g>
   </g>
  </g>
 </g>
 <defs>
  <clipPath id="p07755f91ca">
   <rect x="57.6" y="41.472" width="357.12" height="266.112"/>
  </clipPath>
 </defs>
</svg>
