<?xml version="1.0" encoding="utf-8" standalone="no"?>
<!DOCTYPE svg PUBLIC "-//W3C//DTD SVG 1.1//EN"
  "http://www.w3.org/Graphics/SVG/1.1/DTD/svg11.dtd">
<svg xmlns:xlink="http://www.w3.org/1999/xlink" width="460.8pt" height="345.6pt" viewBox="0 0 460.8 345.6" xmlns="http://www.w3.org/2000/svg" version="1.1">
 <metadata>
  <rdf:RDF xmlns:dc="http://purl.org/dc/elements/1.1/" xmlns:cc="http://creativecommons.org/ns#" xmlns:rdf="http://www.w3.org/1999/02/22-rdf-syntax-ns#">
   <cc:Work>
    <dc:type rdf:resource="http://purl.org/dc/dcmitype/StillImage"/>
    <dc:date>2025-05-14T10:48:47.137613</dc:date>
    <dc:format>image/svg+xml</dc:format>
    <dc:creator>
     <cc:Agent>
      <dc:title>Matplotlib v3.10.0, https://matplotlib.org/</dc:title>
     </cc:Agent>
    </dc:creator>
   </cc:Work>
  </rdf:RDF>
 </metadata>
 <defs>
  <style type="text/css">*{stroke-linejoin: round; stroke-linecap: butt}</style>
 </defs>
 <g id="figure_1">
  <g id="patch_1">
   <path d="M 0 345.6 
L 460.8 345.6 
L 460.8 0 
L 0 0 
z
" style="fill: #ffffff"/>
  </g>
  <g id="axes_1">
   <g id="patch_2">
    <path d="M 57.6 307.584 
L 414.72 307.584 
L 414.72 41.472 
L 57.6 41.472 
z
" style="fill: #ffffff"/>
   </g>
   <g id="matplotlib.axis_1">
    <g id="xtick_1">
     <g id="line2d_1">
      <defs>
       <path id="m485163180c" d="M 0 0 
L 0 3.5 
" style="stroke: #000000; stroke-width: 0.8"/>
      </defs>
      <g>
       <use xlink:href="#m485163180c" x="73.832727" y="307.584" style="stroke: #000000; stroke-width: 0.8"/>
      </g>
     </g>
     <g id="text_1">
      <!-- one -->
      <g transform="translate(68.490001 327.292102) rotate(-30) scale(0.08 -0.08)">
       <defs>
        <path id="DejaVuSans-6f" d="M 1959 3097 
Q 1497 3097 1228 2736 
Q 959 2375 959 1747 
Q 959 1119 1226 758 
Q 1494 397 1959 397 
Q 2419 397 2687 759 
Q 2956 1122 2956 1747 
Q 2956 2369 2687 2733 
Q 2419 3097 1959 3097 
z
M 1959 3584 
Q 2709 3584 3137 3096 
Q 3566 2609 3566 1747 
Q 3566 888 3137 398 
Q 2709 -91 1959 -91 
Q 1206 -91 779 398 
Q 353 888 353 1747 
Q 353 2609 779 3096 
Q 1206 3584 1959 3584 
z
" transform="scale(0.015625)"/>
        <path id="DejaVuSans-6e" d="M 3513 2113 
L 3513 0 
L 2938 0 
L 2938 2094 
Q 2938 2591 2744 2837 
Q 2550 3084 2163 3084 
Q 1697 3084 1428 2787 
Q 1159 2491 1159 1978 
L 1159 0 
L 581 0 
L 581 3500 
L 1159 3500 
L 1159 2956 
Q 1366 3272 1645 3428 
Q 1925 3584 2291 3584 
Q 2894 3584 3203 3211 
Q 3513 2838 3513 2113 
z
" transform="scale(0.015625)"/>
        <path id="DejaVuSans-65" d="M 3597 1894 
L 3597 1613 
L 953 1613 
Q 991 1019 1311 708 
Q 1631 397 2203 397 
Q 2534 397 2845 478 
Q 3156 559 3463 722 
L 3463 178 
Q 3153 47 2828 -22 
Q 2503 -91 2169 -91 
Q 1331 -91 842 396 
Q 353 884 353 1716 
Q 353 2575 817 3079 
Q 1281 3584 2069 3584 
Q 2775 3584 3186 3129 
Q 3597 2675 3597 1894 
z
M 3022 2063 
Q 3016 2534 2758 2815 
Q 2500 3097 2075 3097 
Q 1594 3097 1305 2825 
Q 1016 2553 972 2059 
L 3022 2063 
z
" transform="scale(0.015625)"/>
       </defs>
       <use xlink:href="#DejaVuSans-6f"/>
       <use xlink:href="#DejaVuSans-6e" transform="translate(61.181641 0)"/>
       <use xlink:href="#DejaVuSans-65" transform="translate(124.560547 0)"/>
      </g>
     </g>
    </g>
    <g id="xtick_2">
     <g id="line2d_2">
      <g>
       <use xlink:href="#m485163180c" x="155.077609" y="307.584" style="stroke: #000000; stroke-width: 0.8"/>
      </g>
     </g>
     <g id="text_2">
      <!-- two -->
      <g transform="translate(149.87074 327.135227) rotate(-30) scale(0.08 -0.08)">
       <defs>
        <path id="DejaVuSans-74" d="M 1172 4494 
L 1172 3500 
L 2356 3500 
L 2356 3053 
L 1172 3053 
L 1172 1153 
Q 1172 725 1289 603 
Q 1406 481 1766 481 
L 2356 481 
L 2356 0 
L 1766 0 
Q 1100 0 847 248 
Q 594 497 594 1153 
L 594 3053 
L 172 3053 
L 172 3500 
L 594 3500 
L 594 4494 
L 1172 4494 
z
" transform="scale(0.015625)"/>
        <path id="DejaVuSans-77" d="M 269 3500 
L 844 3500 
L 1563 769 
L 2278 3500 
L 2956 3500 
L 3675 769 
L 4391 3500 
L 4966 3500 
L 4050 0 
L 3372 0 
L 2619 2869 
L 1863 0 
L 1184 0 
L 269 3500 
z
" transform="scale(0.015625)"/>
       </defs>
       <use xlink:href="#DejaVuSans-74"/>
       <use xlink:href="#DejaVuSans-77" transform="translate(39.208984 0)"/>
       <use xlink:href="#DejaVuSans-6f" transform="translate(120.996094 0)"/>
      </g>
     </g>
    </g>
    <g id="xtick_3">
     <g id="line2d_3">
      <g>
       <use xlink:href="#m485163180c" x="236.32249" y="307.584" style="stroke: #000000; stroke-width: 0.8"/>
      </g>
     </g>
     <g id="text_3">
      <!-- three -->
      <g transform="translate(228.263691 330.428352) rotate(-30) scale(0.08 -0.08)">
       <defs>
        <path id="DejaVuSans-68" d="M 3513 2113 
L 3513 0 
L 2938 0 
L 2938 2094 
Q 2938 2591 2744 2837 
Q 2550 3084 2163 3084 
Q 1697 3084 1428 2787 
Q 1159 2491 1159 1978 
L 1159 0 
L 581 0 
L 581 4863 
L 1159 4863 
L 1159 2956 
Q 1366 3272 1645 3428 
Q 1925 3584 2291 3584 
Q 2894 3584 3203 3211 
Q 3513 2838 3513 2113 
z
" transform="scale(0.015625)"/>
        <path id="DejaVuSans-72" d="M 2631 2963 
Q 2534 3019 2420 3045 
Q 2306 3072 2169 3072 
Q 1681 3072 1420 2755 
Q 1159 2438 1159 1844 
L 1159 0 
L 581 0 
L 581 3500 
L 1159 3500 
L 1159 2956 
Q 1341 3275 1631 3429 
Q 1922 3584 2338 3584 
Q 2397 3584 2469 3576 
Q 2541 3569 2628 3553 
L 2631 2963 
z
" transform="scale(0.015625)"/>
       </defs>
       <use xlink:href="#DejaVuSans-74"/>
       <use xlink:href="#DejaVuSans-68" transform="translate(39.208984 0)"/>
       <use xlink:href="#DejaVuSans-72" transform="translate(102.587891 0)"/>
       <use xlink:href="#DejaVuSans-65" transform="translate(141.451172 0)"/>
       <use xlink:href="#DejaVuSans-65" transform="translate(202.974609 0)"/>
      </g>
     </g>
    </g>
    <g id="xtick_4">
     <g id="line2d_4">
      <g>
       <use xlink:href="#m485163180c" x="317.567371" y="307.584" style="stroke: #000000; stroke-width: 0.8"/>
      </g>
     </g>
     <g id="text_4">
      <!-- four -->
      <g transform="translate(311.712607 327.883352) rotate(-30) scale(0.08 -0.08)">
       <defs>
        <path id="DejaVuSans-66" d="M 2375 4863 
L 2375 4384 
L 1825 4384 
Q 1516 4384 1395 4259 
Q 1275 4134 1275 3809 
L 1275 3500 
L 2222 3500 
L 2222 3053 
L 1275 3053 
L 1275 0 
L 697 0 
L 697 3053 
L 147 3053 
L 147 3500 
L 697 3500 
L 697 3744 
Q 697 4328 969 4595 
Q 1241 4863 1831 4863 
L 2375 4863 
z
" transform="scale(0.015625)"/>
        <path id="DejaVuSans-75" d="M 544 1381 
L 544 3500 
L 1119 3500 
L 1119 1403 
Q 1119 906 1312 657 
Q 1506 409 1894 409 
Q 2359 409 2629 706 
Q 2900 1003 2900 1516 
L 2900 3500 
L 3475 3500 
L 3475 0 
L 2900 0 
L 2900 538 
Q 2691 219 2414 64 
Q 2138 -91 1772 -91 
Q 1169 -91 856 284 
Q 544 659 544 1381 
z
M 1991 3584 
L 1991 3584 
z
" transform="scale(0.015625)"/>
       </defs>
       <use xlink:href="#DejaVuSans-66"/>
       <use xlink:href="#DejaVuSans-6f" transform="translate(35.205078 0)"/>
       <use xlink:href="#DejaVuSans-75" transform="translate(96.386719 0)"/>
       <use xlink:href="#DejaVuSans-72" transform="translate(159.765625 0)"/>
      </g>
     </g>
    </g>
    <g id="xtick_5">
     <g id="line2d_5">
      <g>
       <use xlink:href="#m485163180c" x="398.812252" y="307.584" style="stroke: #000000; stroke-width: 0.8"/>
      </g>
     </g>
     <g id="text_5">
      <!-- five -->
      <g transform="translate(393.552339 327.196477) rotate(-30) scale(0.08 -0.08)">
       <defs>
        <path id="DejaVuSans-69" d="M 603 3500 
L 1178 3500 
L 1178 0 
L 603 0 
L 603 3500 
z
M 603 4863 
L 1178 4863 
L 1178 4134 
L 603 4134 
L 603 4863 
z
" transform="scale(0.015625)"/>
        <path id="DejaVuSans-76" d="M 191 3500 
L 800 3500 
L 1894 563 
L 2988 3500 
L 3597 3500 
L 2284 0 
L 1503 0 
L 191 3500 
z
" transform="scale(0.015625)"/>
       </defs>
       <use xlink:href="#DejaVuSans-66"/>
       <use xlink:href="#DejaVuSans-69" transform="translate(35.205078 0)"/>
       <use xlink:href="#DejaVuSans-76" transform="translate(62.988281 0)"/>
       <use xlink:href="#DejaVuSans-65" transform="translate(122.167969 0)"/>
      </g>
     </g>
    </g>
    <g id="text_6">
     <!-- Stages -->
     <g transform="translate(219.106094 343.467639) scale(0.1 -0.1)">
      <defs>
       <path id="DejaVuSans-53" d="M 3425 4513 
L 3425 3897 
Q 3066 4069 2747 4153 
Q 2428 4238 2131 4238 
Q 1616 4238 1336 4038 
Q 1056 3838 1056 3469 
Q 1056 3159 1242 3001 
Q 1428 2844 1947 2747 
L 2328 2669 
Q 3034 2534 3370 2195 
Q 3706 1856 3706 1288 
Q 3706 609 3251 259 
Q 2797 -91 1919 -91 
Q 1588 -91 1214 -16 
Q 841 59 441 206 
L 441 856 
Q 825 641 1194 531 
Q 1563 422 1919 422 
Q 2459 422 2753 634 
Q 3047 847 3047 1241 
Q 3047 1584 2836 1778 
Q 2625 1972 2144 2069 
L 1759 2144 
Q 1053 2284 737 2584 
Q 422 2884 422 3419 
Q 422 4038 858 4394 
Q 1294 4750 2059 4750 
Q 2388 4750 2728 4690 
Q 3069 4631 3425 4513 
z
" transform="scale(0.015625)"/>
       <path id="DejaVuSans-61" d="M 2194 1759 
Q 1497 1759 1228 1600 
Q 959 1441 959 1056 
Q 959 750 1161 570 
Q 1363 391 1709 391 
Q 2188 391 2477 730 
Q 2766 1069 2766 1631 
L 2766 1759 
L 2194 1759 
z
M 3341 1997 
L 3341 0 
L 2766 0 
L 2766 531 
Q 2569 213 2275 61 
Q 1981 -91 1556 -91 
Q 1019 -91 701 211 
Q 384 513 384 1019 
Q 384 1609 779 1909 
Q 1175 2209 1959 2209 
L 2766 2209 
L 2766 2266 
Q 2766 2663 2505 2880 
Q 2244 3097 1772 3097 
Q 1472 3097 1187 3025 
Q 903 2953 641 2809 
L 641 3341 
Q 956 3463 1253 3523 
Q 1550 3584 1831 3584 
Q 2591 3584 2966 3190 
Q 3341 2797 3341 1997 
z
" transform="scale(0.015625)"/>
       <path id="DejaVuSans-67" d="M 2906 1791 
Q 2906 2416 2648 2759 
Q 2391 3103 1925 3103 
Q 1463 3103 1205 2759 
Q 947 2416 947 1791 
Q 947 1169 1205 825 
Q 1463 481 1925 481 
Q 2391 481 2648 825 
Q 2906 1169 2906 1791 
z
M 3481 434 
Q 3481 -459 3084 -895 
Q 2688 -1331 1869 -1331 
Q 1566 -1331 1297 -1286 
Q 1028 -1241 775 -1147 
L 775 -588 
Q 1028 -725 1275 -790 
Q 1522 -856 1778 -856 
Q 2344 -856 2625 -561 
Q 2906 -266 2906 331 
L 2906 616 
Q 2728 306 2450 153 
Q 2172 0 1784 0 
Q 1141 0 747 490 
Q 353 981 353 1791 
Q 353 2603 747 3093 
Q 1141 3584 1784 3584 
Q 2172 3584 2450 3431 
Q 2728 3278 2906 2969 
L 2906 3500 
L 3481 3500 
L 3481 434 
z
" transform="scale(0.015625)"/>
       <path id="DejaVuSans-73" d="M 2834 3397 
L 2834 2853 
Q 2591 2978 2328 3040 
Q 2066 3103 1784 3103 
Q 1356 3103 1142 2972 
Q 928 2841 928 2578 
Q 928 2378 1081 2264 
Q 1234 2150 1697 2047 
L 1894 2003 
Q 2506 1872 2764 1633 
Q 3022 1394 3022 966 
Q 3022 478 2636 193 
Q 2250 -91 1575 -91 
Q 1294 -91 989 -36 
Q 684 19 347 128 
L 347 722 
Q 666 556 975 473 
Q 1284 391 1588 391 
Q 1994 391 2212 530 
Q 2431 669 2431 922 
Q 2431 1156 2273 1281 
Q 2116 1406 1581 1522 
L 1381 1569 
Q 847 1681 609 1914 
Q 372 2147 372 2553 
Q 372 3047 722 3315 
Q 1072 3584 1716 3584 
Q 2034 3584 2315 3537 
Q 2597 3491 2834 3397 
z
" transform="scale(0.015625)"/>
      </defs>
      <use xlink:href="#DejaVuSans-53"/>
      <use xlink:href="#DejaVuSans-74" transform="translate(63.476562 0)"/>
      <use xlink:href="#DejaVuSans-61" transform="translate(102.685547 0)"/>
      <use xlink:href="#DejaVuSans-67" transform="translate(163.964844 0)"/>
      <use xlink:href="#DejaVuSans-65" transform="translate(227.441406 0)"/>
      <use xlink:href="#DejaVuSans-73" transform="translate(288.964844 0)"/>
     </g>
    </g>
   </g>
   <g id="matplotlib.axis_2">
    <g id="ytick_1">
     <g id="line2d_6">
      <defs>
       <path id="m904ce7d8a4" d="M 0 0 
L -3.5 0 
" style="stroke: #000000; stroke-width: 0.8"/>
      </defs>
      <g>
       <use xlink:href="#m904ce7d8a4" x="57.6" y="286.944089" style="stroke: #000000; stroke-width: 0.8"/>
      </g>
     </g>
     <g id="text_7">
      <!-- −15 -->
      <g transform="translate(29.495313 290.743308) scale(0.1 -0.1)">
       <defs>
        <path id="DejaVuSans-2212" d="M 678 2272 
L 4684 2272 
L 4684 1741 
L 678 1741 
L 678 2272 
z
" transform="scale(0.015625)"/>
        <path id="DejaVuSans-31" d="M 794 531 
L 1825 531 
L 1825 4091 
L 703 3866 
L 703 4441 
L 1819 4666 
L 2450 4666 
L 2450 531 
L 3481 531 
L 3481 0 
L 794 0 
L 794 531 
z
" transform="scale(0.015625)"/>
        <path id="DejaVuSans-35" d="M 691 4666 
L 3169 4666 
L 3169 4134 
L 1269 4134 
L 1269 2991 
Q 1406 3038 1543 3061 
Q 1681 3084 1819 3084 
Q 2600 3084 3056 2656 
Q 3513 2228 3513 1497 
Q 3513 744 3044 326 
Q 2575 -91 1722 -91 
Q 1428 -91 1123 -41 
Q 819 9 494 109 
L 494 744 
Q 775 591 1075 516 
Q 1375 441 1709 441 
Q 2250 441 2565 725 
Q 2881 1009 2881 1497 
Q 2881 1984 2565 2268 
Q 2250 2553 1709 2553 
Q 1456 2553 1204 2497 
Q 953 2441 691 2322 
L 691 4666 
z
" transform="scale(0.015625)"/>
       </defs>
       <use xlink:href="#DejaVuSans-2212"/>
       <use xlink:href="#DejaVuSans-31" transform="translate(83.789062 0)"/>
       <use xlink:href="#DejaVuSans-35" transform="translate(147.412109 0)"/>
      </g>
     </g>
    </g>
    <g id="ytick_2">
     <g id="line2d_7">
      <g>
       <use xlink:href="#m904ce7d8a4" x="57.6" y="247.961419" style="stroke: #000000; stroke-width: 0.8"/>
      </g>
     </g>
     <g id="text_8">
      <!-- −10 -->
      <g transform="translate(29.495313 251.760638) scale(0.1 -0.1)">
       <defs>
        <path id="DejaVuSans-30" d="M 2034 4250 
Q 1547 4250 1301 3770 
Q 1056 3291 1056 2328 
Q 1056 1369 1301 889 
Q 1547 409 2034 409 
Q 2525 409 2770 889 
Q 3016 1369 3016 2328 
Q 3016 3291 2770 3770 
Q 2525 4250 2034 4250 
z
M 2034 4750 
Q 2819 4750 3233 4129 
Q 3647 3509 3647 2328 
Q 3647 1150 3233 529 
Q 2819 -91 2034 -91 
Q 1250 -91 836 529 
Q 422 1150 422 2328 
Q 422 3509 836 4129 
Q 1250 4750 2034 4750 
z
" transform="scale(0.015625)"/>
       </defs>
       <use xlink:href="#DejaVuSans-2212"/>
       <use xlink:href="#DejaVuSans-31" transform="translate(83.789062 0)"/>
       <use xlink:href="#DejaVuSans-30" transform="translate(147.412109 0)"/>
      </g>
     </g>
    </g>
    <g id="ytick_3">
     <g id="line2d_8">
      <g>
       <use xlink:href="#m904ce7d8a4" x="57.6" y="208.978749" style="stroke: #000000; stroke-width: 0.8"/>
      </g>
     </g>
     <g id="text_9">
      <!-- −5 -->
      <g transform="translate(35.857813 212.777968) scale(0.1 -0.1)">
       <use xlink:href="#DejaVuSans-2212"/>
       <use xlink:href="#DejaVuSans-35" transform="translate(83.789062 0)"/>
      </g>
     </g>
    </g>
    <g id="ytick_4">
     <g id="line2d_9">
      <g>
       <use xlink:href="#m904ce7d8a4" x="57.6" y="169.996078" style="stroke: #000000; stroke-width: 0.8"/>
      </g>
     </g>
     <g id="text_10">
      <!-- 0 -->
      <g transform="translate(44.2375 173.795297) scale(0.1 -0.1)">
       <use xlink:href="#DejaVuSans-30"/>
      </g>
     </g>
    </g>
    <g id="ytick_5">
     <g id="line2d_10">
      <g>
       <use xlink:href="#m904ce7d8a4" x="57.6" y="131.013408" style="stroke: #000000; stroke-width: 0.8"/>
      </g>
     </g>
     <g id="text_11">
      <!-- 5 -->
      <g transform="translate(44.2375 134.812627) scale(0.1 -0.1)">
       <use xlink:href="#DejaVuSans-35"/>
      </g>
     </g>
    </g>
    <g id="ytick_6">
     <g id="line2d_11">
      <g>
       <use xlink:href="#m904ce7d8a4" x="57.6" y="92.030738" style="stroke: #000000; stroke-width: 0.8"/>
      </g>
     </g>
     <g id="text_12">
      <!-- 10 -->
      <g transform="translate(37.875 95.829956) scale(0.1 -0.1)">
       <use xlink:href="#DejaVuSans-31"/>
       <use xlink:href="#DejaVuSans-30" transform="translate(63.623047 0)"/>
      </g>
     </g>
    </g>
    <g id="ytick_7">
     <g id="line2d_12">
      <g>
       <use xlink:href="#m904ce7d8a4" x="57.6" y="53.048067" style="stroke: #000000; stroke-width: 0.8"/>
      </g>
     </g>
     <g id="text_13">
      <!-- 15 -->
      <g transform="translate(37.875 56.847286) scale(0.1 -0.1)">
       <use xlink:href="#DejaVuSans-31"/>
       <use xlink:href="#DejaVuSans-35" transform="translate(63.623047 0)"/>
      </g>
     </g>
    </g>
   </g>
   <g id="line2d_13">
    <path d="M 73.832727 181.096979 
L 74.157707 171.244277 
L 74.482686 178.032421 
L 74.807666 180.053074 
L 75.132645 180.64049 
L 75.457625 186.416823 
L 75.782604 197.080865 
L 76.107584 192.02175 
L 76.432563 189.206748 
L 76.757543 204.432312 
L 77.082523 186.130653 
L 77.407502 178.579733 
L 77.732482 184.500321 
L 78.057461 177.466302 
L 78.382441 181.106918 
L 78.70742 181.580086 
L 79.0324 175.429834 
L 79.357379 185.22749 
L 79.682359 180.737797 
L 80.332318 159.521268 
L 80.657297 161.857878 
L 80.982277 154.818236 
L 81.307256 167.460961 
L 81.632236 168.694289 
L 81.957215 165.189873 
L 82.282195 175.665304 
L 82.607174 176.302184 
L 82.932154 162.855191 
L 83.257133 142.442621 
L 83.907093 129.92143 
L 84.557052 146.827252 
L 84.882031 157.838235 
L 85.207011 153.616047 
L 85.53199 147.753526 
L 85.85697 152.889573 
L 86.181949 162.468979 
L 86.831908 158.021363 
L 87.156888 159.041241 
L 87.481867 149.139774 
L 88.131826 150.380307 
L 88.456806 159.020539 
L 88.781785 157.960547 
L 89.106765 147.458009 
L 89.756724 146.428409 
L 90.081704 143.047407 
L 90.406683 140.883996 
L 91.381622 127.744315 
L 91.706601 133.942696 
L 92.031581 131.603494 
L 92.35656 144.099012 
L 92.68154 142.018906 
L 93.006519 151.855198 
L 93.331499 152.410864 
L 93.656478 148.714919 
L 93.981458 151.94934 
L 94.306437 151.18749 
L 94.631417 163.977064 
L 94.956396 170.660712 
L 95.281376 165.294499 
L 95.606355 174.295828 
L 95.931335 169.224554 
L 96.256314 180.04895 
L 96.906274 195.663909 
L 97.231253 195.608197 
L 97.556233 191.442042 
L 97.881212 199.751649 
L 98.206192 201.166508 
L 98.531171 188.520905 
L 98.856151 190.995462 
L 99.18113 197.355991 
L 99.50611 194.342015 
L 99.831089 196.085623 
L 100.156069 201.55638 
L 100.481048 215.556719 
L 100.806028 209.176615 
L 101.131007 213.628693 
L 101.455987 213.622568 
L 101.780966 221.915295 
L 102.105946 211.766433 
L 102.755905 198.288184 
L 103.080885 199.149067 
L 103.405864 195.500924 
L 104.055823 180.581348 
L 104.380803 178.14584 
L 104.705782 178.628482 
L 105.030762 181.431178 
L 105.680721 194.795395 
L 106.0057 191.988373 
L 106.33068 193.895035 
L 106.655659 209.455799 
L 106.980639 210.666192 
L 107.305618 202.371999 
L 107.630598 204.517383 
L 107.955577 218.96698 
L 108.280557 219.936416 
L 108.605536 213.816335 
L 108.930516 212.241446 
L 109.255495 215.578943 
L 109.905455 186.355648 
L 110.230434 187.123023 
L 110.555414 180.780968 
L 110.880393 177.720872 
L 111.205373 171.628325 
L 111.530352 160.297845 
L 111.855332 153.903236 
L 112.180311 153.219438 
L 112.83027 164.644421 
L 113.15525 164.84353 
L 113.480229 155.813705 
L 113.805209 153.470684 
L 114.130188 153.057026 
L 114.455168 151.0512 
L 114.780147 150.772529 
L 115.105127 146.50598 
L 115.430106 155.261188 
L 115.755086 170.661274 
L 116.080066 173.975971 
L 116.405045 182.934764 
L 116.730025 170.342285 
L 117.055004 171.577855 
L 117.379984 173.549391 
L 117.704963 185.541661 
L 118.029943 183.342368 
L 118.354922 188.204381 
L 119.004881 172.899447 
L 119.329861 178.948748 
L 119.65484 175.746583 
L 119.97982 196.971993 
L 120.304799 202.221437 
L 120.629779 192.505228 
L 120.954758 186.344344 
L 121.279738 184.977293 
L 121.604717 185.205689 
L 122.254676 206.876004 
L 122.579656 205.134169 
L 122.904636 191.398395 
L 123.229615 208.323812 
L 123.879574 198.736533 
L 124.204554 191.323917 
L 124.529533 198.101028 
L 124.854513 202.22545 
L 125.179492 201.869272 
L 126.154431 226.351945 
L 126.47941 226.904669 
L 126.80439 223.988349 
L 127.129369 224.180095 
L 127.454349 223.57773 
L 128.104308 234.529918 
L 128.429287 225.792944 
L 128.754267 226.220304 
L 129.079247 226.862846 
L 129.729206 209.909098 
L 130.054185 199.985704 
L 130.379165 196.821152 
L 130.704144 197.213514 
L 131.029124 194.95784 
L 131.354103 193.559877 
L 131.679083 182.664373 
L 132.004062 180.38742 
L 132.329042 175.410068 
L 132.654021 175.627496 
L 132.979001 164.938043 
L 133.30398 180.942828 
L 133.62896 177.976176 
L 133.953939 172.086747 
L 134.278919 181.123911 
L 134.603898 164.358945 
L 135.253857 166.787055 
L 135.578837 175.202965 
L 135.903817 168.357871 
L 136.228796 166.607804 
L 136.553776 171.220182 
L 136.878755 169.456116 
L 137.203735 164.106271 
L 137.528714 154.633446 
L 137.853694 152.948932 
L 138.178673 160.471211 
L 138.503653 164.810823 
L 138.828632 182.730281 
L 139.153612 188.437984 
L 139.478591 182.696077 
L 139.803571 179.065101 
L 140.12855 179.90616 
L 140.45353 182.56818 
L 140.778509 170.214308 
L 141.103489 168.013805 
L 141.428468 160.922496 
L 141.753448 157.842307 
L 142.078428 163.061124 
L 142.403407 150.934636 
L 143.053366 169.913837 
L 143.378346 173.259715 
L 144.028305 183.294859 
L 144.353284 187.972413 
L 144.678264 180.278582 
L 145.003243 179.856051 
L 145.328223 177.112393 
L 145.653202 189.493051 
L 145.978182 196.096336 
L 146.303161 187.640447 
L 146.628141 197.026122 
L 146.95312 187.837666 
L 147.2781 195.873288 
L 147.603079 193.540422 
L 147.928059 200.13816 
L 148.253038 198.605204 
L 148.578018 205.619261 
L 148.902998 207.619894 
L 149.227977 194.579818 
L 149.552957 197.50562 
L 149.877936 181.625681 
L 150.202916 185.202679 
L 150.527895 194.369607 
L 150.852875 193.784458 
L 151.177854 196.973164 
L 151.502834 183.278302 
L 151.827813 176.566086 
L 152.152793 167.356244 
L 152.477772 162.431406 
L 152.802752 143.166192 
L 153.452711 132.830675 
L 154.10267 146.386528 
L 154.427649 144.950126 
L 155.077609 128.462817 
L 155.402588 135.822749 
L 155.727568 131.679619 
L 156.052547 130.17219 
L 156.377527 138.89077 
L 156.702506 134.900149 
L 157.027486 152.602696 
L 157.352465 150.550933 
L 157.677445 131.283253 
L 158.002424 139.234823 
L 158.327404 139.088617 
L 158.652383 153.857313 
L 158.977363 159.743709 
L 159.302342 153.847988 
L 159.627322 161.975578 
L 159.952301 162.242673 
L 160.60226 167.962184 
L 160.92724 166.475785 
L 161.252219 162.699173 
L 161.902179 146.613065 
L 162.227158 151.017652 
L 162.877117 130.25566 
L 163.202097 142.410052 
L 163.852056 130.786762 
L 164.177035 123.252824 
L 164.502015 118.986754 
L 164.826994 129.100287 
L 165.151974 131.186907 
L 165.476953 147.327343 
L 165.801933 148.558358 
L 166.126912 132.739638 
L 166.776871 120.906257 
L 167.101851 124.909684 
L 167.75181 141.173313 
L 168.07679 140.207224 
L 168.726749 151.439313 
L 169.051728 142.516214 
L 169.701687 165.554235 
L 170.026667 169.533216 
L 170.676626 171.321489 
L 171.001605 182.210947 
L 171.326585 180.699906 
L 171.651564 181.707941 
L 171.976544 178.944233 
L 172.301523 187.386886 
L 172.951482 183.755572 
L 173.276462 188.904657 
L 173.601441 190.608474 
L 173.926421 194.943339 
L 174.2514 184.368268 
L 174.57638 208.690403 
L 175.226339 233.276439 
L 175.551319 236.224463 
L 175.876298 241.514364 
L 176.201278 244.720657 
L 176.526257 239.114851 
L 176.851237 251.842845 
L 177.176216 258.436324 
L 177.501196 260.175731 
L 177.826175 269.548867 
L 178.476134 264.09141 
L 178.801114 269.630431 
L 179.126093 283.438928 
L 179.451073 270.957957 
L 180.101032 263.981239 
L 180.426011 263.417858 
L 180.750991 263.475138 
L 181.075971 256.995629 
L 181.40095 257.117298 
L 181.72593 262.03618 
L 182.050909 256.504529 
L 182.375889 256.039113 
L 183.025848 269.127271 
L 183.350827 260.040572 
L 183.675807 255.120589 
L 184.000786 239.718391 
L 184.325766 243.824476 
L 184.650745 249.621516 
L 184.975725 246.472569 
L 185.300704 235.717977 
L 185.950663 227.688284 
L 186.275643 212.976317 
L 186.600622 218.77219 
L 186.925602 228.501867 
L 187.250581 234.307309 
L 187.575561 236.777695 
L 187.900541 233.866849 
L 188.22552 225.8991 
L 188.5505 222.73675 
L 188.875479 210.860183 
L 189.200459 217.311878 
L 189.525438 202.455618 
L 189.850418 208.786572 
L 190.175397 199.658887 
L 190.500377 206.970812 
L 190.825356 204.294519 
L 191.150336 203.897688 
L 191.475315 199.862517 
L 191.800295 194.004008 
L 192.125274 195.666222 
L 192.450254 196.187216 
L 192.775233 194.322973 
L 193.100213 204.497513 
L 193.425192 210.198623 
L 193.750172 222.863366 
L 194.075152 222.822431 
L 194.400131 205.497308 
L 194.725111 199.717666 
L 195.37507 211.982506 
L 195.700049 204.373878 
L 196.025029 208.072627 
L 196.350008 220.613211 
L 197.324947 244.771323 
L 197.649926 239.50125 
L 197.974906 238.950012 
L 198.299885 250.556241 
L 198.624865 254.764786 
L 199.274824 273.061237 
L 199.599803 284.808079 
L 199.924783 271.186271 
L 200.249762 273.582376 
L 200.574742 269.089774 
L 200.899722 262.316585 
L 201.224701 265.312572 
L 201.87466 256.927123 
L 202.19964 255.192734 
L 202.524619 238.277902 
L 202.849599 236.064247 
L 203.174578 237.845681 
L 203.499558 232.807838 
L 203.824537 218.945885 
L 204.149517 211.193728 
L 204.474496 214.92281 
L 205.449435 234.036124 
L 205.774414 231.022756 
L 206.099394 224.42698 
L 206.424373 242.124706 
L 206.749353 242.270253 
L 207.074333 250.88557 
L 207.724292 238.431245 
L 208.049271 244.499693 
L 208.374251 248.003637 
L 208.69923 255.422964 
L 209.02421 252.373907 
L 209.674169 273.701615 
L 209.999148 279.039308 
L 210.324128 269.476711 
L 210.649107 250.74575 
L 210.974087 250.590143 
L 211.299066 260.19213 
L 211.624046 259.613733 
L 211.949025 266.389308 
L 212.274005 262.804309 
L 212.598984 271.487344 
L 212.923964 274.368065 
L 213.248943 274.478039 
L 213.573923 270.424279 
L 213.898903 271.023743 
L 214.223882 261.1542 
L 214.548862 260.185615 
L 214.873841 274.327085 
L 215.198821 267.122627 
L 215.5238 269.392302 
L 215.84878 274.614127 
L 216.173759 262.859412 
L 216.498739 270.606096 
L 216.823718 270.039542 
L 217.148698 275.598272 
L 217.473677 265.054014 
L 217.798657 267.892087 
L 218.123636 266.054448 
L 218.448616 276.909442 
L 218.773595 265.72349 
L 219.098575 274.062042 
L 219.748534 258.280572 
L 220.073514 248.672783 
L 220.398493 234.52899 
L 220.723473 243.656689 
L 221.048452 240.522622 
L 221.373432 239.446937 
L 221.698411 236.173051 
L 222.023391 227.609965 
L 222.34837 226.757323 
L 222.67335 233.126461 
L 222.998329 233.884697 
L 223.323309 221.883988 
L 223.648288 231.076004 
L 223.973268 230.454743 
L 224.298247 238.105487 
L 224.623227 229.460851 
L 224.948206 242.313036 
L 225.273186 244.972329 
L 225.598165 245.940619 
L 225.923145 245.029081 
L 226.573104 214.494833 
L 226.898084 222.524167 
L 227.223063 205.688297 
L 227.548043 214.985924 
L 228.198002 241.255352 
L 228.522981 239.669143 
L 228.847961 235.499085 
L 229.17294 252.737891 
L 229.49792 249.338803 
L 229.822899 251.420885 
L 230.147879 245.913495 
L 230.472858 248.912095 
L 230.797838 241.894577 
L 231.122817 237.494641 
L 231.447797 246.637208 
L 231.772776 235.3666 
L 232.097756 233.710405 
L 232.422735 228.018555 
L 232.747715 218.181107 
L 233.072695 225.780843 
L 233.397674 226.4415 
L 234.047633 240.195137 
L 234.697592 235.472226 
L 235.347551 214.289478 
L 235.672531 214.455999 
L 235.99751 220.982202 
L 236.647469 179.28188 
L 236.972449 180.113495 
L 237.297428 187.36548 
L 237.622408 190.668672 
L 237.947387 188.478149 
L 238.597346 172.098142 
L 238.922326 168.703413 
L 239.247305 170.630137 
L 239.572285 169.318875 
L 239.897265 171.74067 
L 240.222244 171.187634 
L 240.547224 171.993579 
L 240.872203 167.897863 
L 241.197183 182.576219 
L 241.847142 187.542511 
L 242.172121 196.357572 
L 242.497101 197.704225 
L 242.82208 205.918204 
L 243.14706 211.099415 
L 243.797019 215.331793 
L 244.121998 219.805313 
L 244.446978 211.202036 
L 244.771957 209.633645 
L 245.421916 205.303106 
L 246.071876 217.397746 
L 246.396855 210.851467 
L 246.721835 213.604251 
L 247.371794 244.555903 
L 247.696773 242.826942 
L 248.021753 248.57359 
L 248.346732 249.100509 
L 248.996691 256.543617 
L 249.321671 257.890372 
L 249.64665 267.615826 
L 249.97163 267.762108 
L 250.621589 254.649913 
L 251.271548 278.673068 
L 251.596527 289.064494 
L 251.921507 290.998571 
L 252.246486 284.333822 
L 252.571466 281.815664 
L 252.896446 295.488 
L 253.221425 295.060083 
L 253.546405 288.765071 
L 253.871384 292.265824 
L 254.196364 277.419822 
L 254.521343 282.499017 
L 254.846323 273.357719 
L 255.171302 255.026298 
L 255.496282 264.977978 
L 255.821261 267.501612 
L 256.146241 263.020973 
L 256.47122 237.983046 
L 256.7962 251.926879 
L 257.121179 247.513649 
L 257.446159 245.293225 
L 257.771138 248.586294 
L 258.096118 255.09525 
L 258.421097 259.195573 
L 258.746077 261.558342 
L 259.071057 271.458844 
L 259.396036 259.175521 
L 259.721016 267.81759 
L 260.045995 271.150759 
L 260.370975 276.308019 
L 260.695954 279.529968 
L 261.020934 278.805062 
L 261.345913 284.711693 
L 261.670893 286.552688 
L 261.995872 273.107874 
L 262.320852 264.873172 
L 262.645831 267.1188 
L 262.970811 260.045959 
L 263.29579 266.037549 
L 263.62077 264.276068 
L 264.270729 284.333908 
L 264.595708 291.090045 
L 264.920688 281.441555 
L 265.245667 279.642962 
L 265.570647 275.372309 
L 265.895627 274.189942 
L 266.545586 268.058911 
L 266.870565 262.092059 
L 267.195545 260.834816 
L 267.845504 274.143139 
L 268.495463 253.669624 
L 268.820442 249.30852 
L 269.145422 262.133029 
L 269.470401 249.852157 
L 269.795381 247.334379 
L 270.12036 247.915392 
L 270.44534 247.762152 
L 270.770319 250.667793 
L 271.420278 223.840114 
L 271.745258 232.142003 
L 272.070238 233.621754 
L 272.395217 231.256259 
L 272.720197 221.309975 
L 273.045176 240.252447 
L 273.370156 232.996914 
L 273.695135 219.993554 
L 274.020115 222.598298 
L 274.345094 222.999902 
L 274.670074 213.306797 
L 274.995053 210.445185 
L 275.645012 230.15536 
L 275.969992 238.302775 
L 276.294971 249.470276 
L 276.619951 249.626897 
L 276.94493 253.791546 
L 277.26991 253.582011 
L 277.594889 248.1811 
L 277.919869 234.345509 
L 278.244848 232.769509 
L 278.569828 247.433596 
L 278.894808 236.683847 
L 279.219787 237.725832 
L 279.544767 228.746472 
L 279.869746 232.382971 
L 280.194726 230.133169 
L 280.519705 231.311669 
L 280.844685 231.639923 
L 281.169664 221.799768 
L 281.494644 227.044519 
L 281.819623 225.89416 
L 282.144603 224.305099 
L 282.469582 227.472198 
L 282.794562 244.795881 
L 283.119541 242.2089 
L 283.444521 264.511256 
L 283.7695 276.388882 
L 284.09448 280.115394 
L 284.419459 276.898097 
L 285.069419 263.967586 
L 285.394398 259.440893 
L 285.719378 262.411942 
L 286.044357 253.048349 
L 286.369337 255.260793 
L 286.694316 246.629213 
L 287.019296 264.218981 
L 287.344275 271.796082 
L 287.669255 276.418689 
L 287.994234 276.559794 
L 288.319214 295.370873 
L 289.294152 275.501803 
L 289.619132 279.659045 
L 289.944111 268.420418 
L 290.269091 272.817519 
L 290.59407 265.851544 
L 290.91905 266.430446 
L 291.244029 266.700261 
L 291.569009 268.032034 
L 291.893989 268.31701 
L 292.543948 248.635748 
L 292.868927 237.606148 
L 293.518886 225.536265 
L 293.843866 222.127993 
L 294.168845 208.512452 
L 294.493825 212.076216 
L 294.818804 217.138574 
L 295.143784 216.881576 
L 295.468763 230.01906 
L 295.793743 231.98845 
L 296.118722 232.565638 
L 296.443702 240.707008 
L 296.768681 245.328613 
L 297.093661 240.025639 
L 297.41864 241.943377 
L 297.74362 241.4712 
L 298.0686 233.52089 
L 298.393579 238.433101 
L 298.718559 247.480024 
L 299.043538 247.923451 
L 299.368518 244.732557 
L 299.693497 258.997679 
L 300.018477 253.992661 
L 300.668436 259.910137 
L 300.993415 266.746751 
L 301.318395 268.302982 
L 301.643374 260.894162 
L 301.968354 256.887736 
L 302.293333 250.667614 
L 302.618313 253.615712 
L 303.268272 231.412046 
L 303.593251 231.643804 
L 303.918231 252.224778 
L 304.24321 251.826056 
L 304.56819 230.402979 
L 304.89317 230.903002 
L 305.218149 238.935193 
L 305.543129 225.688092 
L 305.868108 230.550729 
L 306.193088 226.750067 
L 306.518067 220.832469 
L 306.843047 232.368784 
L 307.168026 231.423883 
L 307.493006 222.156691 
L 307.817985 224.756363 
L 308.142965 219.695701 
L 308.467944 219.904898 
L 308.792924 211.913081 
L 309.117903 197.503332 
L 309.442883 206.10313 
L 309.767862 208.367156 
L 310.092842 205.314282 
L 311.067781 219.464929 
L 311.39276 221.593718 
L 311.71774 226.723401 
L 312.042719 224.174936 
L 313.342637 197.482619 
L 313.667617 208.139139 
L 313.992596 209.048294 
L 314.317576 207.574592 
L 314.642555 203.475397 
L 314.967535 216.075455 
L 315.292514 201.412341 
L 315.617494 208.35601 
L 315.942473 206.297218 
L 316.267453 200.548784 
L 316.592432 192.07522 
L 317.242391 201.651201 
L 317.567371 198.75713 
L 317.892351 194.176985 
L 318.21733 187.064987 
L 318.54231 187.500239 
L 318.867289 192.909861 
L 319.192269 203.31585 
L 319.517248 189.699686 
L 319.842228 200.407226 
L 320.167207 194.94022 
L 320.492187 192.756678 
L 321.142146 179.339623 
L 321.467125 168.794013 
L 321.792105 169.228807 
L 322.117084 166.109193 
L 322.442064 181.323492 
L 322.767043 180.94329 
L 323.092023 187.994916 
L 323.417002 189.166471 
L 323.741982 179.487643 
L 324.066962 178.624475 
L 324.391941 170.085815 
L 324.716921 171.619389 
L 325.0419 168.46602 
L 325.36688 171.654775 
L 325.691859 191.468486 
L 326.016839 196.996498 
L 326.341818 199.03595 
L 326.666798 197.767985 
L 326.991777 197.705539 
L 327.316757 198.646629 
L 327.966716 186.282723 
L 328.291695 189.335122 
L 328.616675 182.485534 
L 328.941654 197.919213 
L 329.266634 200.069281 
L 329.591613 201.162949 
L 329.916593 190.943994 
L 330.241572 195.064468 
L 330.566552 206.477341 
L 330.891532 205.029876 
L 331.216511 191.756052 
L 331.541491 193.311806 
L 331.86647 194.004581 
L 332.19145 195.521853 
L 332.516429 195.032777 
L 332.841409 184.785708 
L 333.166388 169.384963 
L 333.491368 165.617246 
L 333.816347 166.333095 
L 334.141327 151.782427 
L 334.791286 150.285161 
L 335.441245 155.313672 
L 335.766224 153.322398 
L 336.091204 155.448321 
L 336.416183 152.07123 
L 336.741163 151.235691 
L 337.066143 146.781519 
L 337.391122 149.633578 
L 337.716102 151.068897 
L 338.041081 149.044646 
L 338.69104 147.47989 
L 339.01602 138.231771 
L 339.340999 146.464043 
L 339.665979 161.474859 
L 339.990958 155.697129 
L 340.315938 157.456182 
L 340.640917 146.80946 
L 340.965897 147.348731 
L 341.290876 156.338104 
L 341.615856 139.110311 
L 341.940835 135.863254 
L 342.265815 139.265428 
L 342.590794 145.003708 
L 342.915774 140.501703 
L 343.240753 145.659054 
L 343.565733 142.503443 
L 343.890713 133.311926 
L 344.215692 144.029108 
L 344.540672 146.697623 
L 344.865651 142.852444 
L 345.190631 129.799532 
L 345.51561 122.445578 
L 345.84059 125.888181 
L 346.165569 114.389729 
L 346.490549 117.085378 
L 346.815528 118.255171 
L 347.140508 115.215326 
L 347.465487 123.659612 
L 347.790467 99.603563 
L 348.115446 90.178774 
L 348.440426 88.384118 
L 348.765405 92.733042 
L 349.090385 101.687476 
L 349.415364 98.709426 
L 349.740344 93.217815 
L 350.065324 96.249887 
L 350.390303 97.696198 
L 350.715283 93.280783 
L 351.040262 93.681771 
L 351.365242 108.07602 
L 351.690221 102.816177 
L 352.015201 100.851165 
L 352.34018 95.096889 
L 352.66516 100.924447 
L 352.990139 117.432333 
L 353.315119 127.105225 
L 353.640098 124.725637 
L 354.290057 90.069028 
L 354.615037 87.655989 
L 354.940016 98.970887 
L 355.264996 101.544209 
L 355.914955 94.565044 
L 356.239934 93.781854 
L 356.564914 83.299235 
L 356.889894 90.266108 
L 357.214873 107.111916 
L 357.864832 122.930842 
L 358.189812 105.479553 
L 358.514791 106.891337 
L 358.839771 117.988209 
L 359.16475 113.140344 
L 359.48973 105.254133 
L 359.814709 104.801234 
L 360.139689 103.262096 
L 360.464668 95.244263 
L 360.789648 91.195209 
L 361.114627 96.614112 
L 361.439607 91.98526 
L 361.764586 84.709357 
L 362.089566 82.008313 
L 362.739525 70.576613 
L 363.064505 72.387262 
L 363.389484 73.500501 
L 363.714464 68.685661 
L 364.039443 72.972642 
L 364.689402 54.437236 
L 365.014382 70.255805 
L 365.339361 70.776603 
L 365.98932 81.530803 
L 366.3143 80.379796 
L 366.639279 81.679603 
L 366.964259 77.25676 
L 367.614218 71.824484 
L 367.939197 77.912983 
L 368.264177 80.613066 
L 368.589156 69.225235 
L 368.914136 88.541549 
L 369.239115 75.135751 
L 369.564095 79.496146 
L 369.889075 70.288642 
L 370.214054 90.508705 
L 370.539034 93.761748 
L 370.864013 87.1359 
L 371.188993 85.956785 
L 371.513972 78.027709 
L 371.838952 84.839418 
L 372.488911 94.282522 
L 373.13887 86.702298 
L 373.463849 87.649437 
L 374.113808 91.966375 
L 374.438788 91.279007 
L 374.763767 98.66381 
L 375.088747 99.098817 
L 375.413726 100.210822 
L 376.063686 108.846374 
L 376.388665 97.320207 
L 376.713645 102.101492 
L 377.038624 98.880046 
L 377.363604 88.206438 
L 377.688583 82.425702 
L 378.013563 82.260242 
L 378.338542 74.348324 
L 378.988501 95.042934 
L 379.313481 98.126035 
L 379.63846 99.835205 
L 379.96344 100.572811 
L 380.613399 72.741162 
L 380.938378 73.030559 
L 381.263358 71.034098 
L 381.588337 78.100298 
L 381.913317 75.606886 
L 382.238296 86.065873 
L 382.563276 75.148262 
L 382.888256 79.188642 
L 383.213235 74.835427 
L 383.538215 85.013608 
L 383.863194 74.160509 
L 384.188174 69.388184 
L 384.513153 54.104466 
L 384.838133 53.568 
L 385.163112 66.192728 
L 385.488092 72.302525 
L 385.813071 82.08705 
L 386.138051 69.777094 
L 386.78801 80.50609 
L 387.112989 75.858543 
L 387.437969 73.777464 
L 387.762948 69.931336 
L 388.087928 73.841129 
L 389.062867 117.127431 
L 389.712826 100.038497 
L 390.037805 102.951806 
L 391.337723 83.7062 
L 391.662703 76.806348 
L 391.987682 76.157678 
L 392.637641 115.038233 
L 392.962621 105.166788 
L 393.2876 100.50049 
L 393.61258 120.09389 
L 393.937559 118.724839 
L 394.262539 125.569327 
L 394.587518 129.83458 
L 394.912498 150.133428 
L 395.237477 144.10638 
L 395.562457 144.756428 
L 396.212416 129.869901 
L 396.862375 106.925476 
L 397.512334 102.92593 
L 397.837314 107.89895 
L 398.162293 103.759815 
L 398.487273 105.609243 
L 398.487273 105.609243 
" clip-path="url(#p1a66a8db99)" style="fill: none; stroke: #1f77b4; stroke-width: 1.5; stroke-linecap: square"/>
   </g>
   <g id="patch_3">
    <path d="M 57.6 307.584 
L 57.6 41.472 
" style="fill: none; stroke: #000000; stroke-width: 0.8; stroke-linejoin: miter; stroke-linecap: square"/>
   </g>
   <g id="patch_4">
    <path d="M 414.72 307.584 
L 414.72 41.472 
" style="fill: none; stroke: #000000; stroke-width: 0.8; stroke-linejoin: miter; stroke-linecap: square"/>
   </g>
   <g id="patch_5">
    <path d="M 57.6 307.584 
L 414.72 307.584 
" style="fill: none; stroke: #000000; stroke-width: 0.8; stroke-linejoin: miter; stroke-linecap: square"/>
   </g>
   <g id="patch_6">
    <path d="M 57.6 41.472 
L 414.72 41.472 
" style="fill: none; stroke: #000000; stroke-width: 0.8; stroke-linejoin: miter; stroke-linecap: square"/>
   </g>
   <g id="text_14">
    <!-- My first matplotlib plot -->
    <g transform="translate(167.972813 35.472) scale(0.12 -0.12)">
     <defs>
      <path id="DejaVuSans-4d" d="M 628 4666 
L 1569 4666 
L 2759 1491 
L 3956 4666 
L 4897 4666 
L 4897 0 
L 4281 0 
L 4281 4097 
L 3078 897 
L 2444 897 
L 1241 4097 
L 1241 0 
L 628 0 
L 628 4666 
z
" transform="scale(0.015625)"/>
      <path id="DejaVuSans-79" d="M 2059 -325 
Q 1816 -950 1584 -1140 
Q 1353 -1331 966 -1331 
L 506 -1331 
L 506 -850 
L 844 -850 
Q 1081 -850 1212 -737 
Q 1344 -625 1503 -206 
L 1606 56 
L 191 3500 
L 800 3500 
L 1894 763 
L 2988 3500 
L 3597 3500 
L 2059 -325 
z
" transform="scale(0.015625)"/>
      <path id="DejaVuSans-20" transform="scale(0.015625)"/>
      <path id="DejaVuSans-6d" d="M 3328 2828 
Q 3544 3216 3844 3400 
Q 4144 3584 4550 3584 
Q 5097 3584 5394 3201 
Q 5691 2819 5691 2113 
L 5691 0 
L 5113 0 
L 5113 2094 
Q 5113 2597 4934 2840 
Q 4756 3084 4391 3084 
Q 3944 3084 3684 2787 
Q 3425 2491 3425 1978 
L 3425 0 
L 2847 0 
L 2847 2094 
Q 2847 2600 2669 2842 
Q 2491 3084 2119 3084 
Q 1678 3084 1418 2786 
Q 1159 2488 1159 1978 
L 1159 0 
L 581 0 
L 581 3500 
L 1159 3500 
L 1159 2956 
Q 1356 3278 1631 3431 
Q 1906 3584 2284 3584 
Q 2666 3584 2933 3390 
Q 3200 3197 3328 2828 
z
" transform="scale(0.015625)"/>
      <path id="DejaVuSans-70" d="M 1159 525 
L 1159 -1331 
L 581 -1331 
L 581 3500 
L 1159 3500 
L 1159 2969 
Q 1341 3281 1617 3432 
Q 1894 3584 2278 3584 
Q 2916 3584 3314 3078 
Q 3713 2572 3713 1747 
Q 3713 922 3314 415 
Q 2916 -91 2278 -91 
Q 1894 -91 1617 61 
Q 1341 213 1159 525 
z
M 3116 1747 
Q 3116 2381 2855 2742 
Q 2594 3103 2138 3103 
Q 1681 3103 1420 2742 
Q 1159 2381 1159 1747 
Q 1159 1113 1420 752 
Q 1681 391 2138 391 
Q 2594 391 2855 752 
Q 3116 1113 3116 1747 
z
" transform="scale(0.015625)"/>
      <path id="DejaVuSans-6c" d="M 603 4863 
L 1178 4863 
L 1178 0 
L 603 0 
L 603 4863 
z
" transform="scale(0.015625)"/>
      <path id="DejaVuSans-62" d="M 3116 1747 
Q 3116 2381 2855 2742 
Q 2594 3103 2138 3103 
Q 1681 3103 1420 2742 
Q 1159 2381 1159 1747 
Q 1159 1113 1420 752 
Q 1681 391 2138 391 
Q 2594 391 2855 752 
Q 3116 1113 3116 1747 
z
M 1159 2969 
Q 1341 3281 1617 3432 
Q 1894 3584 2278 3584 
Q 2916 3584 3314 3078 
Q 3713 2572 3713 1747 
Q 3713 922 3314 415 
Q 2916 -91 2278 -91 
Q 1894 -91 1617 61 
Q 1341 213 1159 525 
L 1159 0 
L 581 0 
L 581 4863 
L 1159 4863 
L 1159 2969 
z
" transform="scale(0.015625)"/>
     </defs>
     <use xlink:href="#DejaVuSans-4d"/>
     <use xlink:href="#DejaVuSans-79" transform="translate(86.279297 0)"/>
     <use xlink:href="#DejaVuSans-20" transform="translate(145.458984 0)"/>
     <use xlink:href="#DejaVuSans-66" transform="translate(177.246094 0)"/>
     <use xlink:href="#DejaVuSans-69" transform="translate(212.451172 0)"/>
     <use xlink:href="#DejaVuSans-72" transform="translate(240.234375 0)"/>
     <use xlink:href="#DejaVuSans-73" transform="translate(281.347656 0)"/>
     <use xlink:href="#DejaVuSans-74" transform="translate(333.447266 0)"/>
     <use xlink:href="#DejaVuSans-20" transform="translate(372.65625 0)"/>
     <use xlink:href="#DejaVuSans-6d" transform="translate(404.443359 0)"/>
     <use xlink:href="#DejaVuSans-61" transform="translate(501.855469 0)"/>
     <use xlink:href="#DejaVuSans-74" transform="translate(563.134766 0)"/>
     <use xlink:href="#DejaVuSans-70" transform="translate(602.34375 0)"/>
     <use xlink:href="#DejaVuSans-6c" transform="translate(665.820312 0)"/>
     <use xlink:href="#DejaVuSans-6f" transform="translate(693.603516 0)"/>
     <use xlink:href="#DejaVuSans-74" transform="translate(754.785156 0)"/>
     <use xlink:href="#DejaVuSans-6c" transform="translate(793.994141 0)"/>
     <use xlink:href="#DejaVuSans-69" transform="translate(821.777344 0)"/>
     <use xlink:href="#DejaVuSans-62" transform="translate(849.560547 0)"/>
     <use xlink:href="#DejaVuSans-20" transform="translate(913.037109 0)"/>
     <use xlink:href="#DejaVuSans-70" transform="translate(944.824219 0)"/>
     <use xlink:href="#DejaVuSans-6c" transform="translate(1008.300781 0)"/>
     <use xlink:href="#DejaVuSans-6f" transform="translate(1036.083984 0)"/>
     <use xlink:href="#DejaVuSans-74" transform="translate(1097.265625 0)"/>
    </g>
   </g>
  </g>
 </g>
 <defs>
  <clipPath id="p1a66a8db99">
   <rect x="57.6" y="41.472" width="357.12" height="266.112"/>
  </clipPath>
 </defs>
</svg>
