<?xml version="1.0" encoding="utf-8" standalone="no"?>
<!DOCTYPE svg PUBLIC "-//W3C//DTD SVG 1.1//EN"
  "http://www.w3.org/Graphics/SVG/1.1/DTD/svg11.dtd">
<svg xmlns:xlink="http://www.w3.org/1999/xlink" width="460.8pt" height="345.6pt" viewBox="0 0 460.8 345.6" xmlns="http://www.w3.org/2000/svg" version="1.1">
 <metadata>
  <rdf:RDF xmlns:dc="http://purl.org/dc/elements/1.1/" xmlns:cc="http://creativecommons.org/ns#" xmlns:rdf="http://www.w3.org/1999/02/22-rdf-syntax-ns#">
   <cc:Work>
    <dc:type rdf:resource="http://purl.org/dc/dcmitype/StillImage"/>
    <dc:date>2025-05-23T08:42:42.891406</dc:date>
    <dc:format>image/svg+xml</dc:format>
    <dc:creator>
     <cc:Agent>
      <dc:title>Matplotlib v3.10.0, https://matplotlib.org/</dc:title>
     </cc:Agent>
    </dc:creator>
   </cc:Work>
  </rdf:RDF>
 </metadata>
 <defs>
  <style type="text/css">*{stroke-linejoin: round; stroke-linecap: butt}</style>
 </defs>
 <g id="figure_1">
  <g id="patch_1">
   <path d="M 0 345.6 
L 460.8 345.6 
L 460.8 0 
L 0 0 
z
" style="fill: #ffffff"/>
  </g>
  <g id="axes_1">
   <g id="patch_2">
    <path d="M 57.6 307.584 
L 414.72 307.584 
L 414.72 41.472 
L 57.6 41.472 
z
" style="fill: #ffffff"/>
   </g>
   <g id="matplotlib.axis_1">
    <g id="xtick_1">
     <g id="line2d_1">
      <defs>
       <path id="m3c3595cb1a" d="M 0 0 
L 0 3.5 
" style="stroke: #000000; stroke-width: 0.8"/>
      </defs>
      <g>
       <use xlink:href="#m3c3595cb1a" x="57.6" y="307.584" style="stroke: #000000; stroke-width: 0.8"/>
      </g>
     </g>
    </g>
    <g id="xtick_2">
     <g id="line2d_2">
      <g>
       <use xlink:href="#m3c3595cb1a" x="98.128677" y="307.584" style="stroke: #000000; stroke-width: 0.8"/>
      </g>
     </g>
     <g id="text_1">
      <!-- 2004 -->
      <g transform="translate(85.403677 322.182437) scale(0.1 -0.1)">
       <defs>
        <path id="DejaVuSans-32" d="M 1228 531 
L 3431 531 
L 3431 0 
L 469 0 
L 469 531 
Q 828 903 1448 1529 
Q 2069 2156 2228 2338 
Q 2531 2678 2651 2914 
Q 2772 3150 2772 3378 
Q 2772 3750 2511 3984 
Q 2250 4219 1831 4219 
Q 1534 4219 1204 4116 
Q 875 4013 500 3803 
L 500 4441 
Q 881 4594 1212 4672 
Q 1544 4750 1819 4750 
Q 2544 4750 2975 4387 
Q 3406 4025 3406 3419 
Q 3406 3131 3298 2873 
Q 3191 2616 2906 2266 
Q 2828 2175 2409 1742 
Q 1991 1309 1228 531 
z
" transform="scale(0.015625)"/>
        <path id="DejaVuSans-30" d="M 2034 4250 
Q 1547 4250 1301 3770 
Q 1056 3291 1056 2328 
Q 1056 1369 1301 889 
Q 1547 409 2034 409 
Q 2525 409 2770 889 
Q 3016 1369 3016 2328 
Q 3016 3291 2770 3770 
Q 2525 4250 2034 4250 
z
M 2034 4750 
Q 2819 4750 3233 4129 
Q 3647 3509 3647 2328 
Q 3647 1150 3233 529 
Q 2819 -91 2034 -91 
Q 1250 -91 836 529 
Q 422 1150 422 2328 
Q 422 3509 836 4129 
Q 1250 4750 2034 4750 
z
" transform="scale(0.015625)"/>
        <path id="DejaVuSans-34" d="M 2419 4116 
L 825 1625 
L 2419 1625 
L 2419 4116 
z
M 2253 4666 
L 3047 4666 
L 3047 1625 
L 3713 1625 
L 3713 1100 
L 3047 1100 
L 3047 0 
L 2419 0 
L 2419 1100 
L 313 1100 
L 313 1709 
L 2253 4666 
z
" transform="scale(0.015625)"/>
       </defs>
       <use xlink:href="#DejaVuSans-32"/>
       <use xlink:href="#DejaVuSans-30" transform="translate(63.623047 0)"/>
       <use xlink:href="#DejaVuSans-30" transform="translate(127.246094 0)"/>
       <use xlink:href="#DejaVuSans-34" transform="translate(190.869141 0)"/>
      </g>
     </g>
    </g>
    <g id="xtick_3">
     <g id="line2d_3">
      <g>
       <use xlink:href="#m3c3595cb1a" x="138.969114" y="307.584" style="stroke: #000000; stroke-width: 0.8"/>
      </g>
     </g>
     <g id="text_2">
      <!-- 2005 -->
      <g transform="translate(126.244114 322.182437) scale(0.1 -0.1)">
       <defs>
        <path id="DejaVuSans-35" d="M 691 4666 
L 3169 4666 
L 3169 4134 
L 1269 4134 
L 1269 2991 
Q 1406 3038 1543 3061 
Q 1681 3084 1819 3084 
Q 2600 3084 3056 2656 
Q 3513 2228 3513 1497 
Q 3513 744 3044 326 
Q 2575 -91 1722 -91 
Q 1428 -91 1123 -41 
Q 819 9 494 109 
L 494 744 
Q 775 591 1075 516 
Q 1375 441 1709 441 
Q 2250 441 2565 725 
Q 2881 1009 2881 1497 
Q 2881 1984 2565 2268 
Q 2250 2553 1709 2553 
Q 1456 2553 1204 2497 
Q 953 2441 691 2322 
L 691 4666 
z
" transform="scale(0.015625)"/>
       </defs>
       <use xlink:href="#DejaVuSans-32"/>
       <use xlink:href="#DejaVuSans-30" transform="translate(63.623047 0)"/>
       <use xlink:href="#DejaVuSans-30" transform="translate(127.246094 0)"/>
       <use xlink:href="#DejaVuSans-35" transform="translate(190.869141 0)"/>
      </g>
     </g>
    </g>
    <g id="xtick_4">
     <g id="line2d_4">
      <g>
       <use xlink:href="#m3c3595cb1a" x="179.497791" y="307.584" style="stroke: #000000; stroke-width: 0.8"/>
      </g>
     </g>
     <g id="text_3">
      <!-- 2006 -->
      <g transform="translate(166.772791 322.182437) scale(0.1 -0.1)">
       <defs>
        <path id="DejaVuSans-36" d="M 2113 2584 
Q 1688 2584 1439 2293 
Q 1191 2003 1191 1497 
Q 1191 994 1439 701 
Q 1688 409 2113 409 
Q 2538 409 2786 701 
Q 3034 994 3034 1497 
Q 3034 2003 2786 2293 
Q 2538 2584 2113 2584 
z
M 3366 4563 
L 3366 3988 
Q 3128 4100 2886 4159 
Q 2644 4219 2406 4219 
Q 1781 4219 1451 3797 
Q 1122 3375 1075 2522 
Q 1259 2794 1537 2939 
Q 1816 3084 2150 3084 
Q 2853 3084 3261 2657 
Q 3669 2231 3669 1497 
Q 3669 778 3244 343 
Q 2819 -91 2113 -91 
Q 1303 -91 875 529 
Q 447 1150 447 2328 
Q 447 3434 972 4092 
Q 1497 4750 2381 4750 
Q 2619 4750 2861 4703 
Q 3103 4656 3366 4563 
z
" transform="scale(0.015625)"/>
       </defs>
       <use xlink:href="#DejaVuSans-32"/>
       <use xlink:href="#DejaVuSans-30" transform="translate(63.623047 0)"/>
       <use xlink:href="#DejaVuSans-30" transform="translate(127.246094 0)"/>
       <use xlink:href="#DejaVuSans-36" transform="translate(190.869141 0)"/>
      </g>
     </g>
    </g>
    <g id="xtick_5">
     <g id="line2d_5">
      <g>
       <use xlink:href="#m3c3595cb1a" x="220.026469" y="307.584" style="stroke: #000000; stroke-width: 0.8"/>
      </g>
     </g>
     <g id="text_4">
      <!-- 2007 -->
      <g transform="translate(207.301469 322.182437) scale(0.1 -0.1)">
       <defs>
        <path id="DejaVuSans-37" d="M 525 4666 
L 3525 4666 
L 3525 4397 
L 1831 0 
L 1172 0 
L 2766 4134 
L 525 4134 
L 525 4666 
z
" transform="scale(0.015625)"/>
       </defs>
       <use xlink:href="#DejaVuSans-32"/>
       <use xlink:href="#DejaVuSans-30" transform="translate(63.623047 0)"/>
       <use xlink:href="#DejaVuSans-30" transform="translate(127.246094 0)"/>
       <use xlink:href="#DejaVuSans-37" transform="translate(190.869141 0)"/>
      </g>
     </g>
    </g>
    <g id="xtick_6">
     <g id="line2d_6">
      <g>
       <use xlink:href="#m3c3595cb1a" x="260.711026" y="307.584" style="stroke: #000000; stroke-width: 0.8"/>
      </g>
     </g>
     <g id="text_5">
      <!-- 2008 -->
      <g transform="translate(247.986026 322.182437) scale(0.1 -0.1)">
       <defs>
        <path id="DejaVuSans-38" d="M 2034 2216 
Q 1584 2216 1326 1975 
Q 1069 1734 1069 1313 
Q 1069 891 1326 650 
Q 1584 409 2034 409 
Q 2484 409 2743 651 
Q 3003 894 3003 1313 
Q 3003 1734 2745 1975 
Q 2488 2216 2034 2216 
z
M 1403 2484 
Q 997 2584 770 2862 
Q 544 3141 544 3541 
Q 544 4100 942 4425 
Q 1341 4750 2034 4750 
Q 2731 4750 3128 4425 
Q 3525 4100 3525 3541 
Q 3525 3141 3298 2862 
Q 3072 2584 2669 2484 
Q 3125 2378 3379 2068 
Q 3634 1759 3634 1313 
Q 3634 634 3220 271 
Q 2806 -91 2034 -91 
Q 1263 -91 848 271 
Q 434 634 434 1313 
Q 434 1759 690 2068 
Q 947 2378 1403 2484 
z
M 1172 3481 
Q 1172 3119 1398 2916 
Q 1625 2713 2034 2713 
Q 2441 2713 2670 2916 
Q 2900 3119 2900 3481 
Q 2900 3844 2670 4047 
Q 2441 4250 2034 4250 
Q 1625 4250 1398 4047 
Q 1172 3844 1172 3481 
z
" transform="scale(0.015625)"/>
       </defs>
       <use xlink:href="#DejaVuSans-32"/>
       <use xlink:href="#DejaVuSans-30" transform="translate(63.623047 0)"/>
       <use xlink:href="#DejaVuSans-30" transform="translate(127.246094 0)"/>
       <use xlink:href="#DejaVuSans-38" transform="translate(190.869141 0)"/>
      </g>
     </g>
    </g>
    <g id="xtick_7">
     <g id="line2d_7">
      <g>
       <use xlink:href="#m3c3595cb1a" x="301.551462" y="307.584" style="stroke: #000000; stroke-width: 0.8"/>
      </g>
     </g>
     <g id="text_6">
      <!-- 2009 -->
      <g transform="translate(288.826462 322.182437) scale(0.1 -0.1)">
       <defs>
        <path id="DejaVuSans-39" d="M 703 97 
L 703 672 
Q 941 559 1184 500 
Q 1428 441 1663 441 
Q 2288 441 2617 861 
Q 2947 1281 2994 2138 
Q 2813 1869 2534 1725 
Q 2256 1581 1919 1581 
Q 1219 1581 811 2004 
Q 403 2428 403 3163 
Q 403 3881 828 4315 
Q 1253 4750 1959 4750 
Q 2769 4750 3195 4129 
Q 3622 3509 3622 2328 
Q 3622 1225 3098 567 
Q 2575 -91 1691 -91 
Q 1453 -91 1209 -44 
Q 966 3 703 97 
z
M 1959 2075 
Q 2384 2075 2632 2365 
Q 2881 2656 2881 3163 
Q 2881 3666 2632 3958 
Q 2384 4250 1959 4250 
Q 1534 4250 1286 3958 
Q 1038 3666 1038 3163 
Q 1038 2656 1286 2365 
Q 1534 2075 1959 2075 
z
" transform="scale(0.015625)"/>
       </defs>
       <use xlink:href="#DejaVuSans-32"/>
       <use xlink:href="#DejaVuSans-30" transform="translate(63.623047 0)"/>
       <use xlink:href="#DejaVuSans-30" transform="translate(127.246094 0)"/>
       <use xlink:href="#DejaVuSans-39" transform="translate(190.869141 0)"/>
      </g>
     </g>
    </g>
    <g id="xtick_8">
     <g id="line2d_8">
      <g>
       <use xlink:href="#m3c3595cb1a" x="342.236019" y="307.584" style="stroke: #000000; stroke-width: 0.8"/>
      </g>
     </g>
     <g id="text_7">
      <!-- 2010 -->
      <g transform="translate(329.511019 322.182437) scale(0.1 -0.1)">
       <defs>
        <path id="DejaVuSans-31" d="M 794 531 
L 1825 531 
L 1825 4091 
L 703 3866 
L 703 4441 
L 1819 4666 
L 2450 4666 
L 2450 531 
L 3481 531 
L 3481 0 
L 794 0 
L 794 531 
z
" transform="scale(0.015625)"/>
       </defs>
       <use xlink:href="#DejaVuSans-32"/>
       <use xlink:href="#DejaVuSans-30" transform="translate(63.623047 0)"/>
       <use xlink:href="#DejaVuSans-31" transform="translate(127.246094 0)"/>
       <use xlink:href="#DejaVuSans-30" transform="translate(190.869141 0)"/>
      </g>
     </g>
    </g>
    <g id="xtick_9">
     <g id="line2d_9">
      <g>
       <use xlink:href="#m3c3595cb1a" x="382.920576" y="307.584" style="stroke: #000000; stroke-width: 0.8"/>
      </g>
     </g>
     <g id="text_8">
      <!-- 2011 -->
      <g transform="translate(370.195576 322.182437) scale(0.1 -0.1)">
       <use xlink:href="#DejaVuSans-32"/>
       <use xlink:href="#DejaVuSans-30" transform="translate(63.623047 0)"/>
       <use xlink:href="#DejaVuSans-31" transform="translate(127.246094 0)"/>
       <use xlink:href="#DejaVuSans-31" transform="translate(190.869141 0)"/>
      </g>
     </g>
    </g>
    <g id="xtick_10">
     <g id="line2d_10">
      <g>
       <use xlink:href="#m3c3595cb1a" x="414.72" y="307.584" style="stroke: #000000; stroke-width: 0.8"/>
      </g>
     </g>
    </g>
    <g id="xtick_11">
     <g id="line2d_11">
      <defs>
       <path id="ma6ea761911" d="M 0 0 
L 0 2 
" style="stroke: #000000; stroke-width: 0.6"/>
      </defs>
      <g>
       <use xlink:href="#ma6ea761911" x="67.42041" y="307.584" style="stroke: #000000; stroke-width: 0.6"/>
      </g>
     </g>
    </g>
    <g id="xtick_12">
     <g id="line2d_12">
      <g>
       <use xlink:href="#ma6ea761911" x="77.55258" y="307.584" style="stroke: #000000; stroke-width: 0.6"/>
      </g>
     </g>
    </g>
    <g id="xtick_13">
     <g id="line2d_13">
      <g>
       <use xlink:href="#ma6ea761911" x="87.840629" y="307.584" style="stroke: #000000; stroke-width: 0.6"/>
      </g>
     </g>
    </g>
    <g id="xtick_14">
     <g id="line2d_14">
      <g>
       <use xlink:href="#ma6ea761911" x="108.260847" y="307.584" style="stroke: #000000; stroke-width: 0.6"/>
      </g>
     </g>
    </g>
    <g id="xtick_15">
     <g id="line2d_15">
      <g>
       <use xlink:href="#ma6ea761911" x="118.393016" y="307.584" style="stroke: #000000; stroke-width: 0.6"/>
      </g>
     </g>
    </g>
    <g id="xtick_16">
     <g id="line2d_16">
      <g>
       <use xlink:href="#ma6ea761911" x="128.681065" y="307.584" style="stroke: #000000; stroke-width: 0.6"/>
      </g>
     </g>
    </g>
    <g id="xtick_17">
     <g id="line2d_17">
      <g>
       <use xlink:href="#ma6ea761911" x="148.945404" y="307.584" style="stroke: #000000; stroke-width: 0.6"/>
      </g>
     </g>
    </g>
    <g id="xtick_18">
     <g id="line2d_18">
      <g>
       <use xlink:href="#ma6ea761911" x="159.077573" y="307.584" style="stroke: #000000; stroke-width: 0.6"/>
      </g>
     </g>
    </g>
    <g id="xtick_19">
     <g id="line2d_19">
      <g>
       <use xlink:href="#ma6ea761911" x="169.365622" y="307.584" style="stroke: #000000; stroke-width: 0.6"/>
      </g>
     </g>
    </g>
    <g id="xtick_20">
     <g id="line2d_20">
      <g>
       <use xlink:href="#ma6ea761911" x="189.629961" y="307.584" style="stroke: #000000; stroke-width: 0.6"/>
      </g>
     </g>
    </g>
    <g id="xtick_21">
     <g id="line2d_21">
      <g>
       <use xlink:href="#ma6ea761911" x="199.76213" y="307.584" style="stroke: #000000; stroke-width: 0.6"/>
      </g>
     </g>
    </g>
    <g id="xtick_22">
     <g id="line2d_22">
      <g>
       <use xlink:href="#ma6ea761911" x="209.894299" y="307.584" style="stroke: #000000; stroke-width: 0.6"/>
      </g>
     </g>
    </g>
    <g id="xtick_23">
     <g id="line2d_23">
      <g>
       <use xlink:href="#ma6ea761911" x="230.158638" y="307.584" style="stroke: #000000; stroke-width: 0.6"/>
      </g>
     </g>
    </g>
    <g id="xtick_24">
     <g id="line2d_24">
      <g>
       <use xlink:href="#ma6ea761911" x="240.290808" y="307.584" style="stroke: #000000; stroke-width: 0.6"/>
      </g>
     </g>
    </g>
    <g id="xtick_25">
     <g id="line2d_25">
      <g>
       <use xlink:href="#ma6ea761911" x="250.422977" y="307.584" style="stroke: #000000; stroke-width: 0.6"/>
      </g>
     </g>
    </g>
    <g id="xtick_26">
     <g id="line2d_26">
      <g>
       <use xlink:href="#ma6ea761911" x="270.843195" y="307.584" style="stroke: #000000; stroke-width: 0.6"/>
      </g>
     </g>
    </g>
    <g id="xtick_27">
     <g id="line2d_27">
      <g>
       <use xlink:href="#ma6ea761911" x="280.975364" y="307.584" style="stroke: #000000; stroke-width: 0.6"/>
      </g>
     </g>
    </g>
    <g id="xtick_28">
     <g id="line2d_28">
      <g>
       <use xlink:href="#ma6ea761911" x="291.263413" y="307.584" style="stroke: #000000; stroke-width: 0.6"/>
      </g>
     </g>
    </g>
    <g id="xtick_29">
     <g id="line2d_29">
      <g>
       <use xlink:href="#ma6ea761911" x="311.527752" y="307.584" style="stroke: #000000; stroke-width: 0.6"/>
      </g>
     </g>
    </g>
    <g id="xtick_30">
     <g id="line2d_30">
      <g>
       <use xlink:href="#ma6ea761911" x="321.659921" y="307.584" style="stroke: #000000; stroke-width: 0.6"/>
      </g>
     </g>
    </g>
    <g id="xtick_31">
     <g id="line2d_31">
      <g>
       <use xlink:href="#ma6ea761911" x="331.94797" y="307.584" style="stroke: #000000; stroke-width: 0.6"/>
      </g>
     </g>
    </g>
    <g id="xtick_32">
     <g id="line2d_32">
      <g>
       <use xlink:href="#ma6ea761911" x="352.212309" y="307.584" style="stroke: #000000; stroke-width: 0.6"/>
      </g>
     </g>
    </g>
    <g id="xtick_33">
     <g id="line2d_33">
      <g>
       <use xlink:href="#ma6ea761911" x="362.344478" y="307.584" style="stroke: #000000; stroke-width: 0.6"/>
      </g>
     </g>
    </g>
    <g id="xtick_34">
     <g id="line2d_34">
      <g>
       <use xlink:href="#ma6ea761911" x="372.632527" y="307.584" style="stroke: #000000; stroke-width: 0.6"/>
      </g>
     </g>
    </g>
    <g id="xtick_35">
     <g id="line2d_35">
      <g>
       <use xlink:href="#ma6ea761911" x="392.896866" y="307.584" style="stroke: #000000; stroke-width: 0.6"/>
      </g>
     </g>
    </g>
    <g id="xtick_36">
     <g id="line2d_36">
      <g>
       <use xlink:href="#ma6ea761911" x="403.029035" y="307.584" style="stroke: #000000; stroke-width: 0.6"/>
      </g>
     </g>
    </g>
    <g id="xtick_37">
     <g id="line2d_37">
      <g>
       <use xlink:href="#ma6ea761911" x="413.317084" y="307.584" style="stroke: #000000; stroke-width: 0.6"/>
      </g>
     </g>
    </g>
   </g>
   <g id="matplotlib.axis_2">
    <g id="ytick_1">
     <g id="line2d_38">
      <defs>
       <path id="mf2395e0ef0" d="M 0 0 
L -3.5 0 
" style="stroke: #000000; stroke-width: 0.8"/>
      </defs>
      <g>
       <use xlink:href="#mf2395e0ef0" x="57.6" y="292.169245" style="stroke: #000000; stroke-width: 0.8"/>
      </g>
     </g>
     <g id="text_9">
      <!-- 0.010 -->
      <g transform="translate(21.971875 295.968464) scale(0.1 -0.1)">
       <defs>
        <path id="DejaVuSans-2e" d="M 684 794 
L 1344 794 
L 1344 0 
L 684 0 
L 684 794 
z
" transform="scale(0.015625)"/>
       </defs>
       <use xlink:href="#DejaVuSans-30"/>
       <use xlink:href="#DejaVuSans-2e" transform="translate(63.623047 0)"/>
       <use xlink:href="#DejaVuSans-30" transform="translate(95.410156 0)"/>
       <use xlink:href="#DejaVuSans-31" transform="translate(159.033203 0)"/>
       <use xlink:href="#DejaVuSans-30" transform="translate(222.65625 0)"/>
      </g>
     </g>
    </g>
    <g id="ytick_2">
     <g id="line2d_39">
      <g>
       <use xlink:href="#mf2395e0ef0" x="57.6" y="247.537569" style="stroke: #000000; stroke-width: 0.8"/>
      </g>
     </g>
     <g id="text_10">
      <!-- 0.015 -->
      <g transform="translate(21.971875 251.336787) scale(0.1 -0.1)">
       <use xlink:href="#DejaVuSans-30"/>
       <use xlink:href="#DejaVuSans-2e" transform="translate(63.623047 0)"/>
       <use xlink:href="#DejaVuSans-30" transform="translate(95.410156 0)"/>
       <use xlink:href="#DejaVuSans-31" transform="translate(159.033203 0)"/>
       <use xlink:href="#DejaVuSans-35" transform="translate(222.65625 0)"/>
      </g>
     </g>
    </g>
    <g id="ytick_3">
     <g id="line2d_40">
      <g>
       <use xlink:href="#mf2395e0ef0" x="57.6" y="202.905892" style="stroke: #000000; stroke-width: 0.8"/>
      </g>
     </g>
     <g id="text_11">
      <!-- 0.020 -->
      <g transform="translate(21.971875 206.705111) scale(0.1 -0.1)">
       <use xlink:href="#DejaVuSans-30"/>
       <use xlink:href="#DejaVuSans-2e" transform="translate(63.623047 0)"/>
       <use xlink:href="#DejaVuSans-30" transform="translate(95.410156 0)"/>
       <use xlink:href="#DejaVuSans-32" transform="translate(159.033203 0)"/>
       <use xlink:href="#DejaVuSans-30" transform="translate(222.65625 0)"/>
      </g>
     </g>
    </g>
    <g id="ytick_4">
     <g id="line2d_41">
      <g>
       <use xlink:href="#mf2395e0ef0" x="57.6" y="158.274215" style="stroke: #000000; stroke-width: 0.8"/>
      </g>
     </g>
     <g id="text_12">
      <!-- 0.025 -->
      <g transform="translate(21.971875 162.073434) scale(0.1 -0.1)">
       <use xlink:href="#DejaVuSans-30"/>
       <use xlink:href="#DejaVuSans-2e" transform="translate(63.623047 0)"/>
       <use xlink:href="#DejaVuSans-30" transform="translate(95.410156 0)"/>
       <use xlink:href="#DejaVuSans-32" transform="translate(159.033203 0)"/>
       <use xlink:href="#DejaVuSans-35" transform="translate(222.65625 0)"/>
      </g>
     </g>
    </g>
    <g id="ytick_5">
     <g id="line2d_42">
      <g>
       <use xlink:href="#mf2395e0ef0" x="57.6" y="113.642539" style="stroke: #000000; stroke-width: 0.8"/>
      </g>
     </g>
     <g id="text_13">
      <!-- 0.030 -->
      <g transform="translate(21.971875 117.441757) scale(0.1 -0.1)">
       <defs>
        <path id="DejaVuSans-33" d="M 2597 2516 
Q 3050 2419 3304 2112 
Q 3559 1806 3559 1356 
Q 3559 666 3084 287 
Q 2609 -91 1734 -91 
Q 1441 -91 1130 -33 
Q 819 25 488 141 
L 488 750 
Q 750 597 1062 519 
Q 1375 441 1716 441 
Q 2309 441 2620 675 
Q 2931 909 2931 1356 
Q 2931 1769 2642 2001 
Q 2353 2234 1838 2234 
L 1294 2234 
L 1294 2753 
L 1863 2753 
Q 2328 2753 2575 2939 
Q 2822 3125 2822 3475 
Q 2822 3834 2567 4026 
Q 2313 4219 1838 4219 
Q 1578 4219 1281 4162 
Q 984 4106 628 3988 
L 628 4550 
Q 988 4650 1302 4700 
Q 1616 4750 1894 4750 
Q 2613 4750 3031 4423 
Q 3450 4097 3450 3541 
Q 3450 3153 3228 2886 
Q 3006 2619 2597 2516 
z
" transform="scale(0.015625)"/>
       </defs>
       <use xlink:href="#DejaVuSans-30"/>
       <use xlink:href="#DejaVuSans-2e" transform="translate(63.623047 0)"/>
       <use xlink:href="#DejaVuSans-30" transform="translate(95.410156 0)"/>
       <use xlink:href="#DejaVuSans-33" transform="translate(159.033203 0)"/>
       <use xlink:href="#DejaVuSans-30" transform="translate(222.65625 0)"/>
      </g>
     </g>
    </g>
    <g id="ytick_6">
     <g id="line2d_43">
      <g>
       <use xlink:href="#mf2395e0ef0" x="57.6" y="69.010862" style="stroke: #000000; stroke-width: 0.8"/>
      </g>
     </g>
     <g id="text_14">
      <!-- 0.035 -->
      <g transform="translate(21.971875 72.810081) scale(0.1 -0.1)">
       <use xlink:href="#DejaVuSans-30"/>
       <use xlink:href="#DejaVuSans-2e" transform="translate(63.623047 0)"/>
       <use xlink:href="#DejaVuSans-30" transform="translate(95.410156 0)"/>
       <use xlink:href="#DejaVuSans-33" transform="translate(159.033203 0)"/>
       <use xlink:href="#DejaVuSans-35" transform="translate(222.65625 0)"/>
      </g>
     </g>
    </g>
   </g>
   <g id="line2d_44">
    <path d="M 59.158795 295.488 
L 59.314675 258.091739 
L 59.782313 271.788634 
L 60.405832 228.389798 
L 60.561711 223.879325 
L 60.717591 206.526531 
L 60.87347 210.753699 
L 61.02935 209.614673 
L 61.496988 219.464422 
L 61.652868 218.939359 
L 61.808747 219.393516 
L 62.276386 226.923048 
L 62.588145 231.148045 
L 62.899904 216.9066 
L 63.211663 219.953735 
L 63.367543 220.068215 
L 63.523422 219.916605 
L 63.835181 212.687707 
L 63.991061 214.169712 
L 64.14694 212.434419 
L 64.926338 220.898489 
L 65.238097 223.832786 
L 65.393976 219.025754 
L 65.549856 220.579442 
L 65.705735 220.921358 
L 66.329254 226.532417 
L 66.485133 219.701829 
L 66.796892 221.150706 
L 67.108651 223.566448 
L 67.264531 221.513442 
L 67.42041 222.792545 
L 67.57629 220.150605 
L 68.043928 223.330067 
L 68.199808 224.489305 
L 68.355687 224.478157 
L 68.511567 224.988228 
L 68.667447 204.23846 
L 68.823326 202.645238 
L 69.290965 205.318933 
L 69.602724 207.620423 
L 69.758603 206.062859 
L 70.226242 208.976617 
L 70.382121 205.892572 
L 70.69388 207.0238 
L 71.005639 208.723994 
L 71.317399 162.839994 
L 71.629158 164.567989 
L 72.096796 167.431887 
L 72.564435 170.527942 
L 72.720314 168.519948 
L 72.876194 168.93369 
L 73.343832 171.448429 
L 73.499712 172.47991 
L 73.655591 172.031925 
L 73.811471 170.884894 
L 74.12323 172.456656 
L 74.27911 171.846739 
L 74.746748 174.11264 
L 74.902628 173.476486 
L 75.214387 173.791757 
L 75.526146 174.793944 
L 75.682025 174.880184 
L 75.837905 172.03903 
L 75.993784 172.868395 
L 76.149664 169.991708 
L 76.617302 172.477986 
L 76.929062 173.394338 
L 77.084941 174.132839 
L 77.240821 173.358195 
L 77.3967 173.796948 
L 78.020218 176.765084 
L 78.176098 175.472749 
L 78.331977 175.438854 
L 78.487857 175.068537 
L 78.799616 175.958355 
L 79.111375 177.078862 
L 79.267254 177.651906 
L 79.423134 175.058491 
L 80.046652 177.601469 
L 80.202532 177.96086 
L 80.358411 175.687825 
L 80.514291 175.297781 
L 80.67017 175.7043 
L 80.82605 175.664888 
L 80.981929 174.584368 
L 81.293688 174.921159 
L 81.605447 172.182033 
L 82.073086 173.59229 
L 82.228966 174.255257 
L 82.384845 174.310024 
L 82.696604 175.12598 
L 82.852484 174.662147 
L 83.008363 175.289088 
L 83.476002 173.170534 
L 83.94364 174.587915 
L 84.09952 174.10818 
L 84.255399 174.42087 
L 84.878918 176.646116 
L 85.034797 176.920956 
L 85.346556 177.631871 
L 85.658315 178.3958 
L 85.814195 178.466246 
L 85.970074 177.157736 
L 86.281833 178.066401 
L 86.437713 177.541023 
L 86.593592 177.832486 
L 86.749472 177.74281 
L 86.905351 178.086522 
L 87.21711 174.417615 
L 87.37299 174.8463 
L 87.684749 174.333232 
L 87.996508 175.217921 
L 88.152388 172.938268 
L 88.308267 172.843066 
L 88.464147 171.91461 
L 88.931785 173.15313 
L 89.087665 173.025876 
L 89.399424 173.964266 
L 89.555303 170.366257 
L 89.711183 170.390689 
L 89.867062 170.612681 
L 90.022942 171.106641 
L 90.178821 171.229436 
L 90.64646 172.35454 
L 90.80234 170.852594 
L 90.958219 171.33764 
L 91.114099 171.147333 
L 91.893496 173.212899 
L 92.205255 172.708589 
L 92.361135 172.886612 
L 92.517014 172.353991 
L 92.672894 172.816425 
L 92.828773 171.577405 
L 92.984653 171.777937 
L 93.140533 171.164612 
L 93.608171 172.493451 
L 93.764051 171.581499 
L 93.91993 171.58108 
L 94.387569 172.882967 
L 94.543448 172.249308 
L 94.699328 172.622329 
L 94.855207 172.559638 
L 95.322846 173.640065 
L 95.478725 173.392687 
L 95.634605 173.797301 
L 95.790485 173.053845 
L 95.946364 173.25903 
L 96.102244 172.723165 
L 96.569882 173.796704 
L 96.725762 173.557818 
L 97.037521 173.522364 
L 97.1934 173.247482 
L 97.34928 173.279391 
L 97.661039 172.909567 
L 97.816918 172.906897 
L 98.128677 173.110169 
L 98.284557 174.155499 
L 98.440436 172.909027 
L 98.596316 172.930368 
L 98.752196 172.722146 
L 98.908075 172.255242 
L 99.063955 172.663231 
L 99.219834 172.401372 
L 99.531593 173.260994 
L 99.687473 172.184584 
L 99.843352 172.132878 
L 99.999232 172.400674 
L 100.310991 172.523995 
L 100.46687 172.17405 
L 100.62275 172.399512 
L 100.934509 172.28596 
L 101.090388 171.788177 
L 101.402148 171.816899 
L 101.558027 171.698528 
L 101.713907 172.846708 
L 101.869786 173.11759 
L 102.025666 172.616416 
L 102.181545 172.659577 
L 102.493304 173.06402 
L 102.649184 173.234793 
L 102.805063 173.604975 
L 102.960943 172.85594 
L 103.116822 173.42637 
L 103.428581 173.451644 
L 103.584461 172.460613 
L 103.89622 172.499533 
L 104.0521 172.585769 
L 104.207979 172.353229 
L 104.363859 173.136383 
L 104.519738 172.142658 
L 104.675618 172.290824 
L 104.987377 172.224809 
L 105.299136 167.64579 
L 105.455015 168.495732 
L 105.610895 167.415082 
L 105.766774 167.300337 
L 106.390292 165.668381 
L 106.546172 166.159763 
L 106.702052 165.895717 
L 107.013811 165.91656 
L 107.16969 165.502317 
L 107.32557 165.795756 
L 107.481449 163.917713 
L 107.637329 169.134061 
L 107.793208 169.010686 
L 107.949088 169.209886 
L 108.104967 168.475809 
L 108.260847 168.588151 
L 108.416726 168.508345 
L 108.572606 167.983001 
L 108.728485 168.148348 
L 108.884365 167.792869 
L 109.196124 167.958611 
L 109.352003 168.67181 
L 109.507883 167.432969 
L 109.663763 167.341389 
L 109.819642 160.473583 
L 109.975522 160.439979 
L 110.287281 174.002201 
L 110.44316 174.025742 
L 110.754919 174.435043 
L 110.910799 174.151584 
L 111.066678 174.114278 
L 111.378437 173.851631 
L 111.534317 172.690439 
L 111.690196 173.785748 
L 111.846076 174.043786 
L 112.001955 173.815067 
L 112.157835 174.094166 
L 112.313715 174.096381 
L 112.625474 173.78323 
L 112.781353 174.640662 
L 113.093112 174.756759 
L 113.248992 175.207584 
L 113.404871 175.157465 
L 113.560751 174.888417 
L 113.71663 174.848813 
L 114.028389 175.765989 
L 114.184269 175.052241 
L 114.651907 175.608262 
L 114.807787 177.351158 
L 114.963667 177.379782 
L 115.119546 178.589498 
L 115.431305 178.176058 
L 115.587185 177.362797 
L 115.743064 177.366158 
L 115.898944 177.497303 
L 116.054823 177.357035 
L 116.210703 178.16954 
L 116.522462 177.74768 
L 116.678341 174.577141 
L 116.9901 174.670397 
L 117.14598 175.466096 
L 117.613619 175.966466 
L 117.769498 175.939528 
L 117.925378 174.82349 
L 118.237137 175.118921 
L 118.393016 176.933315 
L 118.548896 175.71529 
L 118.860655 175.862835 
L 119.016534 175.536948 
L 119.172414 175.644776 
L 119.328293 177.425162 
L 119.484173 177.241539 
L 119.640052 177.394089 
L 119.795932 177.718481 
L 119.951811 169.207775 
L 120.107691 169.030555 
L 120.26357 169.30169 
L 120.57533 171.404846 
L 120.731209 171.557502 
L 121.198848 169.79618 
L 121.354727 170.128752 
L 121.666486 170.275709 
L 121.822366 170.474809 
L 121.978245 170.391778 
L 122.290004 171.536645 
L 122.445884 170.558103 
L 122.601763 170.375968 
L 122.757643 169.294093 
L 122.913522 169.333055 
L 123.069402 169.725836 
L 123.537041 169.867572 
L 123.8488 168.508899 
L 124.004679 168.687764 
L 124.160559 168.707545 
L 124.316438 168.400762 
L 124.472318 167.719213 
L 124.628197 166.236982 
L 124.784077 166.504129 
L 124.939956 167.700834 
L 125.095836 167.6587 
L 125.251715 166.742892 
L 125.407595 167.473379 
L 125.563474 167.490476 
L 125.719354 167.927398 
L 125.875234 167.947316 
L 126.186993 170.996465 
L 126.342872 171.073037 
L 126.654631 172.188973 
L 126.810511 172.100568 
L 126.96639 171.566811 
L 127.12227 173.422729 
L 127.278149 173.789939 
L 127.434029 174.937691 
L 127.589908 174.27652 
L 127.901667 174.449518 
L 128.057547 174.988879 
L 128.369306 174.80107 
L 128.525186 178.184288 
L 128.836945 178.832522 
L 128.992824 178.730113 
L 129.304583 177.793438 
L 129.460463 177.860543 
L 129.616342 177.706746 
L 129.772222 179.389353 
L 129.928101 178.380395 
L 130.083981 166.313441 
L 130.23986 166.37542 
L 130.39574 164.819052 
L 130.707499 164.879997 
L 130.863378 164.84891 
L 131.331017 166.297237 
L 131.642776 164.755077 
L 131.798656 166.363368 
L 131.954535 166.647745 
L 132.110415 167.546775 
L 132.422174 166.62756 
L 132.578053 166.689684 
L 132.889812 168.122279 
L 133.201571 168.051945 
L 133.357451 168.06677 
L 133.51333 168.886001 
L 133.66921 168.916494 
L 133.825089 169.460365 
L 133.980969 169.444572 
L 134.136849 169.623268 
L 134.292728 161.054788 
L 134.448608 161.786083 
L 134.604487 160.644884 
L 134.916246 161.820193 
L 135.228005 160.276942 
L 135.383885 160.463666 
L 136.007403 155.016624 
L 136.163282 155.471677 
L 137.09856 155.349382 
L 137.254439 154.812529 
L 137.566198 154.681506 
L 137.722078 154.905596 
L 138.033837 155.773283 
L 138.189716 156.066025 
L 138.501475 156.07904 
L 138.657355 158.625238 
L 138.813234 158.624496 
L 138.969114 158.306194 
L 139.280873 158.34051 
L 139.436753 158.744462 
L 139.592632 155.575817 
L 139.748512 155.694102 
L 139.904391 152.409358 
L 140.060271 152.893173 
L 140.21615 150.257034 
L 140.683789 150.516779 
L 141.151427 151.195359 
L 141.463186 151.139852 
L 141.619066 151.797972 
L 141.774945 151.843885 
L 141.930825 152.583692 
L 142.086704 151.776406 
L 142.242584 151.77279 
L 142.398464 151.4401 
L 142.554343 151.984914 
L 142.710223 151.984615 
L 142.866102 152.115733 
L 143.021982 151.855834 
L 143.177861 151.28147 
L 143.333741 151.229996 
L 143.48962 151.316794 
L 143.801379 149.451092 
L 143.957259 149.323664 
L 144.113138 150.133164 
L 144.424897 152.981169 
L 144.580777 153.606423 
L 144.736656 153.184861 
L 144.892536 153.601066 
L 145.048416 153.662638 
L 145.360175 155.572187 
L 145.516054 155.501771 
L 145.671934 153.575123 
L 145.827813 153.315642 
L 145.983693 153.304208 
L 146.295452 150.735711 
L 146.451331 152.392953 
L 146.607211 152.365805 
L 146.76309 152.873968 
L 146.91897 152.795651 
L 147.074849 153.715565 
L 147.230729 153.403755 
L 147.386608 153.362491 
L 147.542488 153.692466 
L 147.698368 153.617728 
L 147.854247 153.916074 
L 148.166006 153.901413 
L 148.321886 154.015102 
L 148.477765 155.004616 
L 148.633645 154.897644 
L 148.789524 160.675267 
L 148.945404 160.339223 
L 149.257163 161.487903 
L 149.413042 161.480243 
L 149.568922 161.058661 
L 149.724801 161.102111 
L 149.880681 160.019796 
L 150.03656 159.997518 
L 150.19244 159.044778 
L 150.34832 152.449755 
L 150.504199 151.504389 
L 150.660079 151.526314 
L 150.971838 149.209914 
L 151.439476 145.621433 
L 151.595356 145.716819 
L 152.062994 145.501304 
L 152.218874 145.744567 
L 152.374753 145.760333 
L 152.530633 145.923133 
L 152.686512 145.739422 
L 152.998271 145.664462 
L 153.154151 146.227605 
L 153.310031 145.757475 
L 153.46591 144.52553 
L 153.933549 144.156486 
L 154.089428 144.573512 
L 154.245308 143.621206 
L 154.401187 143.665707 
L 154.557067 142.31741 
L 154.868826 142.493918 
L 155.180585 142.315431 
L 155.336464 142.703497 
L 155.492344 142.469671 
L 155.648223 145.028895 
L 155.804103 144.95738 
L 155.959983 143.354233 
L 156.115862 143.545527 
L 156.271742 142.657653 
L 156.583501 142.901575 
L 156.73938 141.167098 
L 156.89526 142.184675 
L 157.051139 142.192652 
L 157.362898 141.517424 
L 157.518778 142.661293 
L 157.674657 142.341539 
L 157.830537 142.377008 
L 158.142296 142.670004 
L 158.298175 141.971242 
L 158.454055 142.435234 
L 158.609935 142.434846 
L 158.765814 141.909465 
L 158.921694 150.059961 
L 159.077573 150.429767 
L 159.233453 150.505678 
L 159.389332 149.577102 
L 159.701091 149.645095 
L 159.856971 150.374296 
L 160.01285 150.472999 
L 160.16873 151.271223 
L 160.324609 151.323422 
L 160.480489 148.977483 
L 160.636368 148.931393 
L 160.792248 149.436852 
L 160.948127 148.630527 
L 161.259887 148.810546 
L 161.415766 150.843147 
L 161.571646 150.901886 
L 161.883405 152.017655 
L 162.039284 152.405066 
L 162.195164 151.82489 
L 162.506923 151.827147 
L 162.662802 152.20128 
L 162.818682 152.983049 
L 163.28632 152.919105 
L 163.4422 153.385932 
L 163.598079 154.732432 
L 163.909838 152.97693 
L 164.065718 152.184052 
L 164.221598 152.887329 
L 164.377477 152.609015 
L 165.000995 152.810099 
L 165.156875 153.135823 
L 165.312754 153.050438 
L 165.468634 153.138067 
L 165.624513 153.074855 
L 165.780393 153.182411 
L 166.092152 153.734943 
L 166.248031 153.81113 
L 166.403911 151.942915 
L 166.55979 152.653467 
L 166.71567 152.439059 
L 166.87155 151.962075 
L 167.183309 151.852802 
L 167.339188 151.418483 
L 167.495068 151.420485 
L 167.806827 150.706444 
L 168.118586 150.890581 
L 168.274465 151.438339 
L 168.430345 151.373367 
L 168.742104 151.520357 
L 168.897983 150.686302 
L 169.053863 161.912926 
L 169.209742 161.650068 
L 169.365622 163.093841 
L 169.521502 162.984079 
L 169.833261 162.25805 
L 169.98914 162.324418 
L 170.456779 161.466171 
L 170.612658 156.730283 
L 170.768538 156.729116 
L 170.924417 156.601234 
L 171.080297 156.316361 
L 171.236176 155.27672 
L 171.547935 155.180655 
L 172.015574 154.87952 
L 172.327333 153.925294 
L 172.483213 151.916481 
L 172.639092 151.953022 
L 172.950851 150.362062 
L 173.106731 150.248351 
L 173.26261 158.346067 
L 173.41849 158.305829 
L 173.574369 159.60174 
L 173.730249 159.446784 
L 173.886128 159.45772 
L 174.042008 161.826577 
L 174.197887 162.12317 
L 174.353767 161.006084 
L 175.133165 166.345663 
L 175.289044 166.386479 
L 175.444924 165.883807 
L 175.600803 165.919122 
L 175.756683 165.434684 
L 175.912562 165.405704 
L 176.068442 163.596431 
L 176.224321 164.075156 
L 176.380201 165 
L 176.53608 164.545768 
L 177.003719 164.538765 
L 177.315478 164.85164 
L 177.471357 163.47644 
L 177.627237 163.478628 
L 177.783117 163.301049 
L 177.938996 163.612274 
L 178.094876 163.611144 
L 178.406635 163.446317 
L 178.562514 166.85591 
L 178.718394 166.888027 
L 178.874273 170.23437 
L 179.030153 170.198247 
L 179.186032 172.430331 
L 179.497791 172.428498 
L 179.653671 171.415593 
L 179.80955 171.572304 
L 179.96543 171.496231 
L 180.121309 171.117984 
L 180.277189 171.084807 
L 180.588948 167.681938 
L 180.900707 167.743991 
L 181.056587 168.701768 
L 181.368346 168.346373 
L 181.835984 165.970624 
L 181.991864 165.903413 
L 182.147743 166.008452 
L 182.303623 165.470334 
L 182.459502 166.272727 
L 182.615382 166.324211 
L 182.771261 167.651883 
L 182.927141 167.854596 
L 183.083021 166.838561 
L 183.2389 166.953395 
L 183.39478 163.77943 
L 183.550659 164.051505 
L 183.706539 164.639485 
L 184.018298 161.330722 
L 184.485936 158.638965 
L 184.641816 160.611948 
L 184.797695 160.935968 
L 184.953575 160.942055 
L 185.109454 162.810918 
L 185.577093 162.969702 
L 185.732973 162.90962 
L 185.888852 162.003793 
L 186.044732 161.979189 
L 186.200611 162.368683 
L 186.51237 161.16684 
L 186.66825 161.432251 
L 186.824129 161.383743 
L 186.980009 160.807935 
L 187.135888 160.678651 
L 187.291768 159.666407 
L 187.447647 159.592598 
L 187.603527 159.732287 
L 187.759406 159.621201 
L 187.915286 159.92573 
L 188.071165 159.818975 
L 188.227045 159.103347 
L 188.694684 159.17713 
L 188.850563 160.467186 
L 189.006443 160.487889 
L 189.162322 159.040954 
L 189.474081 167.660014 
L 189.629961 167.669168 
L 189.78584 168.292534 
L 189.94172 162.947766 
L 190.097599 161.991096 
L 190.409358 164.131511 
L 190.565238 164.44271 
L 190.721117 164.163762 
L 191.032876 164.380088 
L 191.344636 163.647272 
L 191.500515 163.953976 
L 191.656395 163.570305 
L 191.812274 163.590597 
L 191.968154 163.311216 
L 192.124033 163.526171 
L 192.279913 163.445603 
L 192.435792 164.748244 
L 192.747551 164.954251 
L 192.903431 164.508166 
L 193.05931 164.518899 
L 193.21519 165.995414 
L 193.371069 165.956131 
L 193.526949 168.298773 
L 193.838708 168.095941 
L 193.994588 167.41344 
L 194.306347 167.391123 
L 194.462226 166.325581 
L 194.618106 166.418168 
L 194.773985 165.612804 
L 194.929865 167.006868 
L 195.085744 166.79805 
L 195.241624 167.895906 
L 195.553383 168.037752 
L 195.709262 169.863869 
L 195.865142 169.858882 
L 196.021021 168.703087 
L 196.176901 168.832053 
L 196.33278 168.072081 
L 196.48866 168.021974 
L 196.64454 167.700993 
L 196.800419 167.681692 
L 196.956299 167.533436 
L 197.112178 166.624448 
L 197.268058 166.799743 
L 197.579817 165.57492 
L 197.735696 165.972904 
L 198.203335 164.679635 
L 198.359214 165.77288 
L 198.515094 165.983773 
L 198.670973 165.430887 
L 198.982732 165.451299 
L 199.294491 164.341666 
L 199.450371 165.159746 
L 199.606251 164.71065 
L 199.76213 164.63961 
L 199.91801 165.788176 
L 200.385648 165.406782 
L 200.697407 165.314918 
L 200.853287 163.546421 
L 201.165046 163.243699 
L 201.320925 162.471559 
L 201.476805 162.473847 
L 201.632684 162.135472 
L 201.788564 152.514041 
L 202.100323 152.526064 
L 202.256203 152.95764 
L 202.412082 152.445265 
L 202.567962 152.494847 
L 202.723841 153.221663 
L 202.879721 153.134382 
L 203.0356 153.719315 
L 203.347359 153.845253 
L 203.659118 153.430618 
L 203.970877 152.1578 
L 204.438516 152.14774 
L 204.750275 151.010798 
L 205.062034 151.132266 
L 205.217914 150.807472 
L 205.373793 152.70648 
L 205.529673 152.691181 
L 205.841432 153.46769 
L 205.997311 152.949784 
L 206.153191 153.007363 
L 206.30907 153.431723 
L 206.46495 153.344404 
L 206.776709 154.260727 
L 206.932588 152.964287 
L 207.088468 152.964872 
L 207.244347 151.979857 
L 207.400227 152.342001 
L 207.711986 152.472658 
L 208.023745 154.03225 
L 208.335504 154.509744 
L 208.803143 154.95706 
L 208.959022 154.618779 
L 209.114902 153.995283 
L 209.270781 153.98475 
L 209.426661 155.352587 
L 209.58254 161.037762 
L 209.73842 161.041519 
L 209.894299 160.527598 
L 210.050179 160.863489 
L 210.206058 162.547636 
L 210.361938 162.79355 
L 210.517818 162.79926 
L 210.673697 163.048048 
L 210.985456 163.178168 
L 211.297215 163.5572 
L 211.453095 165.847063 
L 211.608974 165.661963 
L 211.764854 166.932149 
L 211.920733 165.0692 
L 212.388372 165.08011 
L 212.544251 165.054034 
L 212.700131 165.234068 
L 212.85601 164.855244 
L 213.16777 164.934427 
L 213.323649 165.760672 
L 213.635408 165.725076 
L 213.791288 165.5288 
L 213.947167 165.859445 
L 214.103047 165.511595 
L 214.258926 165.443387 
L 214.414806 166.199949 
L 214.570685 166.068653 
L 214.726565 166.447187 
L 214.882444 166.354646 
L 215.038324 168.359508 
L 215.505962 168.832632 
L 215.661842 168.586076 
L 215.817722 168.585555 
L 215.973601 168.452068 
L 216.28536 167.616155 
L 216.44124 168.863118 
L 216.597119 168.858293 
L 216.752999 169.034445 
L 217.220637 169.122618 
L 217.376517 168.376944 
L 217.688276 168.310164 
L 218.000035 166.977676 
L 218.155914 167.612493 
L 218.311794 167.549344 
L 218.467674 167.018419 
L 218.623553 168.089085 
L 218.935312 167.498587 
L 219.091192 167.910811 
L 219.247071 167.921732 
L 219.55883 171.901735 
L 219.71471 171.867172 
L 219.870589 170.22416 
L 220.182348 170.308317 
L 220.338228 170.721871 
L 220.805866 173.07606 
L 220.961746 168.307005 
L 221.117625 167.161372 
L 221.273505 167.54817 
L 221.429385 167.430588 
L 221.585264 168.625432 
L 221.897023 167.775063 
L 222.052903 166.327926 
L 222.208782 166.301501 
L 222.364662 169.103621 
L 222.520541 168.967439 
L 222.676421 169.094816 
L 222.98818 172.397729 
L 223.455818 175.450583 
L 223.767577 175.610217 
L 223.923457 175.52452 
L 224.391096 176.165363 
L 224.546975 175.2482 
L 224.702855 175.02899 
L 224.858734 176.042867 
L 225.170493 176.089744 
L 225.638132 177.610415 
L 225.794011 176.63468 
L 225.949891 177.240417 
L 226.10577 177.343365 
L 226.26165 178.422319 
L 226.417529 176.65467 
L 226.729289 176.977645 
L 226.885168 176.66574 
L 227.041048 176.707365 
L 227.196927 177.385271 
L 227.352807 177.358987 
L 227.508686 177.896464 
L 227.664566 177.913425 
L 227.976325 177.598771 
L 228.132204 180.219174 
L 228.443963 180.208069 
L 228.599843 180.024062 
L 228.755722 180.535046 
L 229.067481 190.533287 
L 229.223361 190.898306 
L 229.379241 190.695069 
L 229.53512 190.77883 
L 229.691 190.610772 
L 230.002759 190.529524 
L 230.314518 191.38317 
L 230.470397 191.457817 
L 230.626277 192.138793 
L 230.782156 192.226521 
L 230.938036 192.462605 
L 231.093915 192.462451 
L 231.405674 193.033415 
L 231.561554 192.762303 
L 231.717433 192.773924 
L 231.873313 193.285477 
L 232.340952 193.373583 
L 232.496831 192.769054 
L 232.652711 192.903253 
L 232.80859 192.56653 
L 233.120349 192.628505 
L 233.276229 192.621176 
L 233.432108 194.193728 
L 233.587988 194.152799 
L 233.899747 195.439955 
L 234.055626 195.060096 
L 234.211506 195.02382 
L 234.367385 194.830158 
L 234.679144 195.059559 
L 234.835024 195.054914 
L 235.302663 197.606808 
L 235.458542 197.699718 
L 235.614422 198.259207 
L 235.770301 198.197837 
L 236.23794 199.377584 
L 236.393819 200.83191 
L 236.549699 201.190248 
L 236.705578 200.273025 
L 237.017337 201.08862 
L 237.173217 200.753678 
L 237.484976 200.693384 
L 237.796735 201.538438 
L 237.952615 200.280988 
L 238.108494 201.052029 
L 238.264374 201.082533 
L 238.576133 204.01948 
L 238.732012 202.993629 
L 239.043771 202.785859 
L 239.199651 203.111156 
L 239.51141 203.131713 
L 239.667289 202.621819 
L 239.823169 204.820208 
L 239.979048 204.891173 
L 240.290808 206.591186 
L 240.446687 204.777081 
L 240.602567 205.092978 
L 240.758446 215.90739 
L 240.914326 215.864188 
L 241.226085 215.49245 
L 241.381964 216.251744 
L 241.537844 216.269754 
L 241.693723 216.659881 
L 241.849603 217.72448 
L 242.317241 218.185616 
L 242.473121 218.090734 
L 242.629 218.437651 
L 242.78488 215.895062 
L 242.940759 216.143992 
L 243.096639 212.676383 
L 243.408398 212.072455 
L 243.564278 208.510055 
L 243.876037 208.459455 
L 244.031916 207.206244 
L 244.187796 207.2049 
L 244.343675 207.338911 
L 244.499555 207.289675 
L 244.655434 204.06662 
L 244.811314 204.012453 
L 244.967193 204.394246 
L 245.746591 200.493541 
L 245.902471 200.609631 
L 246.05835 199.92404 
L 246.21423 200.96574 
L 246.525989 199.673122 
L 246.993627 195.5776 
L 247.149507 195.427854 
L 247.305386 195.448052 
L 247.461266 194.213746 
L 247.617145 191.986484 
L 247.928904 191.80103 
L 248.084784 191.811758 
L 248.396543 192.336088 
L 248.708302 192.296051 
L 248.864182 193.041949 
L 249.020061 192.987747 
L 249.33182 193.215979 
L 249.643579 192.251126 
L 249.799459 191.658603 
L 249.955338 191.732243 
L 250.111218 192.185984 
L 250.267097 192.138797 
L 250.422977 191.936864 
L 250.578856 192.118698 
L 250.734736 192.082002 
L 250.890615 194.661736 
L 251.202375 192.997196 
L 251.514134 192.98588 
L 251.670013 192.214043 
L 251.981772 192.061105 
L 252.137652 191.952585 
L 252.293531 192.3651 
L 252.449411 192.391177 
L 252.76117 191.992521 
L 252.917049 188.578443 
L 253.072929 188.910399 
L 253.228808 188.610639 
L 253.384688 188.599122 
L 253.696447 188.681038 
L 254.008206 188.692096 
L 254.164086 188.691402 
L 254.475845 188.358235 
L 254.631724 187.732329 
L 255.099363 178.159826 
L 255.255242 170.401788 
L 255.567001 169.79568 
L 255.722881 169.749557 
L 255.87876 169.540649 
L 256.03464 168.983596 
L 256.190519 169.223408 
L 256.346399 170.086453 
L 256.658158 169.999919 
L 256.814038 170.719578 
L 256.969917 170.845558 
L 257.281676 170.579258 
L 257.437556 170.855906 
L 257.593435 170.885727 
L 257.749315 170.619946 
L 257.905194 170.793205 
L 258.061074 170.623397 
L 258.216953 170.620617 
L 258.372833 169.912174 
L 258.528712 169.865165 
L 258.684592 169.967065 
L 258.840471 171.442403 
L 258.996351 170.524799 
L 259.15223 170.440433 
L 259.30811 170.620828 
L 259.46399 170.616838 
L 259.775749 169.560852 
L 260.087508 175.927949 
L 260.399267 176.276427 
L 260.555146 176.172382 
L 260.866905 176.781066 
L 261.022785 180.125046 
L 261.178664 175.224542 
L 261.334544 175.404054 
L 261.802182 172.90763 
L 262.113942 171.42528 
L 262.425701 166.396086 
L 262.73746 166.536602 
L 262.893339 166.645731 
L 263.049219 165.557048 
L 263.205098 157.253243 
L 263.516857 156.310453 
L 263.672737 156.519517 
L 263.984496 156.477071 
L 264.296255 156.033153 
L 264.608014 155.623583 
L 264.763893 154.141542 
L 264.919773 154.101427 
L 265.231532 152.770538 
L 265.387412 153.80968 
L 265.543291 153.006283 
L 265.699171 153.31684 
L 265.85505 153.21461 
L 266.166809 153.225744 
L 266.322689 153.163256 
L 266.634448 152.640399 
L 266.946207 153.116564 
L 267.102086 152.660202 
L 267.413845 149.525637 
L 267.725605 148.821165 
L 267.881484 149.233347 
L 268.037364 148.613897 
L 268.349123 148.618662 
L 268.505002 145.958196 
L 268.660882 146.279657 
L 268.972641 146.1425 
L 269.12852 146.170022 
L 269.440279 144.322659 
L 269.596159 143.868706 
L 269.752038 143.868706 
L 269.907918 142.609009 
L 270.063797 142.574638 
L 270.219677 142.350186 
L 270.375557 141.547213 
L 270.687316 141.782761 
L 270.843195 140.862183 
L 270.999075 140.694241 
L 271.154954 140.270398 
L 271.310834 140.25422 
L 271.466713 140.517176 
L 271.622593 140.216013 
L 271.778472 140.40394 
L 271.934352 140.967363 
L 272.090231 139.363184 
L 272.40199 139.381143 
L 272.55787 138.66015 
L 272.713749 138.6566 
L 273.181388 135.427785 
L 273.337268 135.438156 
L 273.493147 134.645322 
L 273.649027 134.717779 
L 273.804906 134.62278 
L 273.960786 134.731193 
L 274.116665 134.693506 
L 274.272545 134.204068 
L 274.740183 134.179687 
L 274.896063 133.844729 
L 275.207822 134.369922 
L 275.363701 134.021513 
L 275.519581 133.998821 
L 275.67546 134.547289 
L 275.83134 134.586485 
L 275.98722 134.883984 
L 276.298979 134.83694 
L 276.454858 133.639597 
L 276.610738 133.597661 
L 276.766617 133.30311 
L 276.922497 134.161111 
L 277.078376 133.69169 
L 277.234256 134.131977 
L 277.546015 134.219099 
L 277.701894 134.891412 
L 277.857774 134.985621 
L 278.013653 135.216633 
L 278.169533 135.128505 
L 278.481292 134.539602 
L 278.637172 134.651353 
L 278.793051 134.320914 
L 278.948931 133.195721 
L 279.10481 133.235364 
L 279.26069 132.904805 
L 279.416569 133.948196 
L 279.572449 133.773244 
L 279.728328 134.856668 
L 279.884208 134.180225 
L 280.195967 134.361949 
L 280.351846 134.038524 
L 280.507726 132.317012 
L 280.663605 132.693263 
L 280.819485 132.513714 
L 281.131244 130.481941 
L 281.287124 130.512106 
L 281.443003 130.931639 
L 281.598883 130.414833 
L 281.754762 132.569318 
L 281.910642 132.120857 
L 282.066521 134.534905 
L 282.222401 134.322821 
L 282.37828 134.506011 
L 282.53416 137.238957 
L 282.845919 137.424389 
L 283.001798 137.188963 
L 283.157678 137.563014 
L 283.469437 136.737147 
L 283.625316 137.638553 
L 283.781196 137.524226 
L 283.937076 136.249966 
L 284.404714 137.691918 
L 284.560594 138.648747 
L 284.872353 138.023696 
L 285.028232 138.661636 
L 285.184112 138.74169 
L 285.339991 138.554396 
L 285.495871 138.603791 
L 285.65175 139.620147 
L 285.80763 141.565452 
L 285.963509 141.708204 
L 286.275268 141.547601 
L 286.431148 142.513757 
L 286.587027 144.272612 
L 286.742907 144.338011 
L 287.210546 145.161876 
L 287.522305 145.170088 
L 287.678184 144.806382 
L 287.989943 144.720791 
L 288.145823 144.714928 
L 288.301702 143.883823 
L 288.613461 144.70241 
L 288.769341 144.340498 
L 289.0811 144.399043 
L 289.236979 144.024213 
L 289.392859 142.023438 
L 289.548739 142.139756 
L 289.860498 135.748573 
L 290.016377 134.785455 
L 290.328136 132.075176 
L 290.484016 131.943211 
L 290.795775 132.139166 
L 290.951654 112.536268 
L 291.107534 108.821116 
L 291.263413 108.175985 
L 291.419293 104.368849 
L 291.575172 104.046936 
L 291.731052 104.310133 
L 291.886931 102.516558 
L 292.042811 102.4657 
L 292.198691 102.537465 
L 292.35457 97.704728 
L 292.51045 86.739117 
L 292.978088 82.747518 
L 293.133968 81.809004 
L 293.289847 81.749002 
L 293.601606 78.213133 
L 294.225124 84.915013 
L 294.381004 83.923402 
L 294.536883 81.832649 
L 294.692763 81.454453 
L 294.848643 81.540035 
L 295.004522 81.250037 
L 295.316281 77.982331 
L 295.472161 78.164114 
L 295.62804 77.931305 
L 295.78392 77.999159 
L 295.939799 77.405888 
L 296.251558 73.021745 
L 296.407438 72.928296 
L 296.719197 72.551132 
L 296.875076 70.763029 
L 297.030956 70.677027 
L 297.186835 62.338737 
L 297.342715 62.483971 
L 297.498595 61.413221 
L 297.654474 61.437062 
L 297.966233 60.90276 
L 298.433872 58.585303 
L 298.589751 58.838707 
L 298.745631 57.245053 
L 298.90151 57.232297 
L 299.05739 57.104113 
L 299.680908 55.446999 
L 299.836787 53.578479 
L 299.992667 53.568 
L 300.148546 56.219453 
L 300.304426 55.279192 
L 300.460306 55.795359 
L 300.616185 56.927778 
L 300.772065 56.939496 
L 300.927944 57.256324 
L 301.083824 57.88372 
L 301.395583 60.633961 
L 301.551462 60.679129 
L 301.863221 57.640853 
L 302.019101 58.10081 
L 302.17498 63.419242 
L 302.33086 63.516494 
L 302.486739 64.093434 
L 302.642619 63.885192 
L 302.798498 63.918421 
L 302.954378 63.593313 
L 303.422017 63.77512 
L 303.577896 62.704955 
L 303.733776 62.437525 
L 303.889655 60.173615 
L 304.357294 61.735871 
L 305.136691 61.388842 
L 305.292571 61.463503 
L 305.76021 60.30964 
L 305.916089 59.287042 
L 306.071969 59.751506 
L 306.383728 61.73071 
L 306.539607 62.071406 
L 306.695487 61.284981 
L 306.851366 61.284392 
L 307.007246 60.917824 
L 307.163125 60.960685 
L 307.319005 60.111286 
L 307.474884 61.453951 
L 307.942523 61.394689 
L 308.098402 61.290256 
L 308.254282 62.473496 
L 308.410162 62.20342 
L 308.566041 62.309035 
L 308.721921 61.556172 
L 308.8778 62.424574 
L 309.189559 59.558166 
L 309.345439 59.253601 
L 309.501318 59.457926 
L 309.813077 59.352023 
L 309.968957 59.242451 
L 310.124836 59.653642 
L 310.280716 59.709958 
L 310.436595 58.069027 
L 310.748354 58.228653 
L 310.904234 57.930774 
L 311.060113 58.681467 
L 311.215993 58.466807 
L 311.527752 58.522376 
L 311.683632 57.837389 
L 311.995391 59.078125 
L 312.15127 59.757085 
L 312.30715 59.835423 
L 312.463029 60.140035 
L 313.086547 60.293081 
L 313.242427 60.375369 
L 313.554186 60.230766 
L 313.710065 60.230665 
L 313.865945 60.445413 
L 314.021825 60.008696 
L 314.177704 59.978111 
L 314.333584 60.302102 
L 314.645343 60.451997 
L 314.801222 60.622543 
L 314.957102 60.600467 
L 315.112981 60.064726 
L 315.268861 60.136392 
L 315.42474 60.968243 
L 315.58062 60.66357 
L 315.736499 60.947968 
L 315.892379 60.941594 
L 316.048258 60.630956 
L 316.360017 59.450124 
L 316.515897 59.517378 
L 316.671777 58.975005 
L 316.983536 58.888109 
L 317.451174 59.407987 
L 317.607054 57.351791 
L 317.762933 57.509331 
L 317.918813 58.232082 
L 318.230572 58.223483 
L 318.386451 58.565196 
L 318.542331 58.610416 
L 318.69821 58.485806 
L 318.85409 58.938252 
L 319.321729 59.107023 
L 319.477608 60.413179 
L 319.633488 60.25109 
L 319.789367 60.349651 
L 320.101126 61.95957 
L 320.257006 62.025989 
L 320.412885 61.669165 
L 320.568765 62.004772 
L 320.724644 62.041014 
L 320.880524 62.321296 
L 321.036403 62.052773 
L 321.348162 62.161619 
L 321.659921 62.623997 
L 321.815801 62.448694 
L 321.97168 63.199374 
L 322.28344 63.234966 
L 322.439319 63.489938 
L 322.595199 64.421025 
L 322.751078 64.4849 
L 322.906958 65.258266 
L 323.062837 65.4058 
L 323.218717 65.039159 
L 323.374596 65.049868 
L 323.530476 64.757361 
L 323.686355 64.986916 
L 323.842235 66.099423 
L 323.998114 65.748066 
L 324.153994 65.736233 
L 324.465753 66.583993 
L 324.777512 66.852958 
L 324.933392 66.705237 
L 325.089271 66.907845 
L 325.245151 66.741609 
L 325.868669 66.934577 
L 326.024548 67.22351 
L 326.336307 67.073001 
L 326.492187 66.91838 
L 326.648066 67.176728 
L 326.803946 66.211337 
L 326.959825 66.043799 
L 327.115705 66.047334 
L 327.271584 66.621445 
L 327.427464 66.508467 
L 327.583344 66.620812 
L 327.739223 67.454739 
L 328.050982 67.326478 
L 328.206862 67.652192 
L 328.362741 69.348595 
L 328.518621 69.182559 
L 328.83038 74.282997 
L 328.986259 75.325433 
L 329.142139 78.005244 
L 329.298018 78.511378 
L 329.453898 78.522737 
L 329.765657 79.244565 
L 329.921536 97.158303 
L 330.077416 100.533804 
L 330.233296 100.818713 
L 330.389175 104.923839 
L 330.545055 105.564497 
L 330.700934 105.560458 
L 330.856814 110.808981 
L 331.168573 110.857166 
L 331.324452 115.365923 
L 331.480332 126.581413 
L 331.94797 131.567317 
L 332.10385 132.733666 
L 332.259729 132.765924 
L 332.571488 138.091316 
L 332.727368 138.126955 
L 332.883247 138.434746 
L 333.039127 139.936115 
L 333.350886 145.653451 
L 333.506766 148.035069 
L 333.662645 148.640924 
L 333.818525 148.656213 
L 333.974404 148.155664 
L 334.286163 152.540086 
L 334.442043 152.57789 
L 334.597922 153.023394 
L 334.753802 152.608534 
L 334.909681 153.963135 
L 335.22144 158.843456 
L 335.533199 159.525354 
L 335.689079 160.861602 
L 335.844959 164.405816 
L 336.000838 164.765913 
L 336.156718 175.205879 
L 336.312597 175.740523 
L 336.468477 177.171027 
L 336.624356 177.108942 
L 336.780236 177.657445 
L 337.091995 180.174799 
L 337.559633 182.798482 
L 337.715513 184.916189 
L 337.871392 184.832926 
L 338.027272 185.198413 
L 338.494911 187.905601 
L 338.65079 187.65446 
L 338.80667 191.580415 
L 338.962549 191.57678 
L 339.118429 191.267153 
L 339.274308 192.867847 
L 339.430188 192.880117 
L 339.586067 191.945745 
L 340.209585 191.504344 
L 340.365465 191.67832 
L 340.521344 191.359837 
L 340.833103 195.401529 
L 341.144863 196.200653 
L 341.300742 195.574741 
L 341.612501 196.632562 
L 341.768381 196.602821 
L 342.08014 197.934735 
L 342.236019 198.159888 
L 342.391899 198.057289 
L 343.015417 206.557957 
L 343.327176 206.386915 
L 343.483055 207.392184 
L 343.638935 207.554378 
L 343.794814 208.265485 
L 343.950694 208.384055 
L 344.106574 207.000659 
L 344.262453 206.679694 
L 344.418333 206.99407 
L 344.574212 205.318812 
L 344.730092 205.366719 
L 344.885971 207.422773 
L 345.041851 207.555767 
L 345.35361 204.814854 
L 345.509489 204.712085 
L 345.665369 206.955104 
L 345.821248 206.795336 
L 345.977128 207.057285 
L 346.133007 206.871547 
L 346.444766 210.140208 
L 346.600646 210.112711 
L 346.756526 210.486254 
L 346.912405 210.464892 
L 347.068285 210.784455 
L 347.224164 210.660788 
L 347.535923 212.144755 
L 348.315321 220.856247 
L 348.4712 220.816709 
L 348.62708 220.563343 
L 348.782959 222.247347 
L 348.938839 222.490716 
L 349.094718 222.482571 
L 349.250598 221.198923 
L 349.406478 224.427598 
L 349.718237 224.380311 
L 350.185875 226.591869 
L 350.341755 226.599943 
L 350.809393 229.304338 
L 350.965273 229.587433 
L 351.121152 230.47867 
L 351.277032 230.554592 
L 351.432911 230.999146 
L 351.588791 230.73469 
L 351.74467 230.727856 
L 352.05643 230.979458 
L 352.212309 231.907998 
L 352.368189 232.093593 
L 352.524068 232.77896 
L 352.835827 232.861889 
L 352.991707 233.750716 
L 353.147586 233.960176 
L 353.615225 234.001427 
L 353.926984 233.883494 
L 354.082863 235.218304 
L 354.238743 235.048763 
L 354.394622 231.54594 
L 354.550502 231.768619 
L 354.862261 231.516243 
L 355.018141 232.467339 
L 355.17402 234.424153 
L 355.3299 234.533989 
L 355.485779 233.530566 
L 355.641659 234.287083 
L 355.797538 233.200473 
L 355.953418 233.262487 
L 356.265177 229.877158 
L 356.421056 224.219003 
L 356.576936 228.478187 
L 356.888695 228.183208 
L 357.044574 227.762889 
L 357.200454 228.336061 
L 357.356333 228.237079 
L 357.512213 227.95069 
L 357.668093 226.179386 
L 357.979852 225.700635 
L 358.135731 225.731701 
L 358.291611 226.080388 
L 358.44749 224.816403 
L 358.60337 225.269055 
L 358.759249 225.34669 
L 359.071008 225.169899 
L 359.226888 225.133968 
L 359.538647 224.616271 
L 359.694526 225.281908 
L 360.006285 224.550617 
L 360.318045 224.75255 
L 360.473924 224.394366 
L 360.629804 223.680536 
L 360.785683 223.975568 
L 361.097442 223.828913 
L 361.253322 224.402736 
L 361.565081 224.311548 
L 361.72096 224.35223 
L 361.87684 224.971229 
L 362.032719 222.660375 
L 362.188599 223.143075 
L 362.344478 222.937892 
L 362.500358 223.577311 
L 362.812117 223.71002 
L 362.967997 223.290735 
L 363.123876 223.294074 
L 363.279756 223.416459 
L 363.435635 223.294837 
L 363.591515 222.7511 
L 363.747394 222.751376 
L 363.903274 222.938175 
L 364.215033 222.794623 
L 364.370912 222.268833 
L 364.526792 222.233319 
L 364.682671 222.032835 
L 364.99443 222.116414 
L 365.306189 222.008958 
L 365.617948 222.237831 
L 365.929708 224.703492 
L 366.241467 224.728053 
L 366.397346 224.905489 
L 366.709105 224.773439 
L 366.864985 223.541017 
L 367.020864 223.629509 
L 367.176744 223.477186 
L 367.644382 223.696905 
L 367.800262 223.528389 
L 367.956141 223.961854 
L 368.42378 223.233049 
L 368.735539 223.125297 
L 369.047298 223.224322 
L 369.203178 223.789766 
L 369.359057 223.934117 
L 369.514937 223.315692 
L 369.826696 223.335211 
L 369.982575 223.01297 
L 370.606093 223.465653 
L 370.761973 223.427363 
L 370.917852 223.632649 
L 371.073732 224.022479 
L 371.229612 223.315233 
L 371.385491 223.706409 
L 371.541371 223.554799 
L 371.69725 223.59913 
L 372.476648 223.089955 
L 372.632527 223.277955 
L 372.788407 223.098802 
L 373.100166 224.786967 
L 373.256045 224.784918 
L 373.411925 224.609893 
L 373.567804 224.681234 
L 374.035443 226.409814 
L 374.191323 226.656267 
L 374.347202 226.592206 
L 374.503082 225.756332 
L 374.97072 225.954673 
L 375.1266 227.193102 
L 375.594238 227.158587 
L 376.217756 226.731789 
L 376.373636 227.314418 
L 376.529515 227.307437 
L 376.685395 228.107808 
L 377.153034 228.042976 
L 377.308913 227.557286 
L 377.464793 227.559178 
L 377.776552 227.44638 
L 377.932431 226.825103 
L 378.24419 227.341555 
L 378.40007 227.052701 
L 378.555949 228.371589 
L 379.023588 228.660755 
L 379.335347 228.292902 
L 379.647106 228.89882 
L 379.958865 229.02354 
L 380.114745 229.021914 
L 380.270624 230.093481 
L 380.582383 230.209516 
L 380.894142 230.478518 
L 381.51766 230.675006 
L 381.67354 231.008082 
L 381.985299 230.996403 
L 382.608817 231.467434 
L 382.764697 231.80772 
L 382.920576 231.395252 
L 383.076456 233.303444 
L 383.388215 233.97913 
L 383.544094 236.885131 
L 383.855853 237.389523 
L 384.011733 237.408409 
L 384.323492 241.191876 
L 384.479371 241.333758 
L 384.635251 240.642624 
L 384.791131 240.829668 
L 384.94701 242.029535 
L 385.10289 241.838946 
L 385.258769 240.86542 
L 385.570528 240.88772 
L 385.726408 241.153487 
L 385.882287 240.5989 
L 386.505805 240.487993 
L 386.661685 240.519236 
L 386.817564 240.404331 
L 387.129323 241.012307 
L 387.285203 240.854658 
L 387.441082 240.963138 
L 387.596962 241.356282 
L 387.908721 241.315569 
L 388.064601 241.059458 
L 388.22048 241.979326 
L 388.37636 241.977 
L 388.532239 240.793021 
L 389.467516 240.350514 
L 389.623396 239.935016 
L 389.779275 240.117199 
L 389.935155 239.962758 
L 390.091034 240.188124 
L 390.402794 239.88921 
L 390.714553 240.022958 
L 390.870432 239.528192 
L 391.026312 237.170249 
L 391.338071 236.808735 
L 391.49395 236.234076 
L 391.805709 236.173599 
L 392.273348 235.611012 
L 392.585107 235.692895 
L 392.740986 235.837972 
L 393.052746 235.591193 
L 393.208625 235.662241 
L 393.364505 239.451969 
L 393.520384 240.264702 
L 393.676264 240.418935 
L 393.832143 240.245992 
L 393.988023 241.165197 
L 394.143902 241.057203 
L 394.76742 243.277605 
L 394.9233 243.261096 
L 395.079179 244.466944 
L 395.235059 246.724527 
L 395.390938 253.606215 
L 395.546818 253.603046 
L 395.858577 254.270565 
L 396.014457 254.631726 
L 396.170336 254.439198 
L 396.326216 254.512118 
L 396.482095 254.884602 
L 396.637975 257.253562 
L 396.949734 258.014039 
L 397.261493 258.039572 
L 397.417372 259.757633 
L 397.573252 259.503637 
L 397.729131 258.853237 
L 398.04089 259.070739 
L 398.19677 259.093578 
L 398.508529 260.334622 
L 398.664409 260.330669 
L 399.132047 262.163116 
L 399.287927 262.165492 
L 399.443806 261.526988 
L 399.755565 262.842033 
L 400.067324 262.74287 
L 400.223204 262.490563 
L 400.534963 262.742064 
L 400.690842 262.43733 
L 400.846722 262.470379 
L 401.002601 264.98599 
L 401.158481 265.037361 
L 401.314361 265.229963 
L 401.62612 264.570034 
L 401.781999 263.344681 
L 401.937879 265.33778 
L 402.249638 264.138789 
L 402.405517 263.910166 
L 402.561397 264.502274 
L 402.873156 264.514176 
L 403.029035 263.970085 
L 403.340794 264.87567 
L 403.808433 265.03105 
L 403.964313 264.644407 
L 404.120192 265.045851 
L 404.276072 265.122998 
L 404.431951 265.325127 
L 404.74371 264.536364 
L 404.89959 264.478186 
L 405.055469 263.628678 
L 405.211349 263.685724 
L 405.523108 263.360894 
L 405.678987 263.367899 
L 405.834867 264.151785 
L 405.990746 264.159628 
L 406.146626 264.336603 
L 406.614265 263.769442 
L 406.770144 261.835546 
L 406.926024 261.663444 
L 407.237783 254.542129 
L 407.549542 252.966351 
L 407.705421 252.923653 
L 408.01718 252.530013 
L 408.17306 253.495366 
L 408.328939 251.597098 
L 408.484819 251.32153 
L 408.640698 251.323823 
L 408.796578 248.707064 
L 408.952457 249.074817 
L 409.108337 248.997254 
L 409.264216 248.255276 
L 409.731855 247.951867 
L 409.887735 248.380814 
L 410.043614 247.954695 
L 410.199494 248.846691 
L 410.355373 248.612166 
L 410.667132 248.702246 
L 410.823012 248.423499 
L 410.978891 248.42048 
L 411.134771 248.580566 
L 411.29065 248.438791 
L 411.44653 248.595944 
L 411.758289 247.716871 
L 411.914168 249.211568 
L 412.070048 249.185338 
L 412.225928 248.339609 
L 412.381807 248.596305 
L 412.849446 248.511104 
L 413.005325 248.190892 
L 413.161205 249.396256 
L 413.317084 249.094594 
L 413.472964 249.966604 
L 413.628843 249.716275 
L 413.784723 249.724575 
L 413.940602 249.261288 
L 414.252361 245.291048 
L 414.408241 245.28025 
L 414.56412 245.150006 
L 414.72 244.238165 
L 414.72 244.238165 
" clip-path="url(#pa69f3c56bd)" style="fill: none; stroke: #1f77b4; stroke-width: 1.5; stroke-linecap: square"/>
   </g>
   <g id="line2d_45">
    <path d="M 59.158795 295.488 
L 59.314675 276.78987 
L 59.470554 272.296298 
L 59.626434 271.286561 
L 59.782313 271.386975 
L 60.094072 267.008438 
L 60.561711 256.293785 
L 61.02935 245.37175 
L 61.496988 239.918657 
L 61.964627 236.812933 
L 62.432265 235.463251 
L 62.588145 235.275633 
L 63.523422 231.989276 
L 64.30282 229.282207 
L 64.770458 228.363298 
L 65.549856 227.522521 
L 66.017495 227.182173 
L 66.485133 226.973522 
L 66.952772 226.637347 
L 67.57629 226.300504 
L 68.043928 226.089172 
L 68.511567 226.018487 
L 69.446844 224.082843 
L 70.84976 222.083218 
L 71.005639 221.909721 
L 71.629158 219.209018 
L 72.564435 215.670498 
L 73.655591 212.310249 
L 74.746748 209.543242 
L 76.305543 206.257323 
L 77.3967 204.291233 
L 78.799616 202.255215 
L 80.67017 200.029154 
L 83.320122 197.21929 
L 84.723038 195.983988 
L 86.437713 194.837339 
L 88.620026 193.364334 
L 91.737617 191.318832 
L 95.478725 189.383986 
L 99.843352 187.639914 
L 103.272702 186.475652 
L 105.922654 185.598192 
L 109.352003 184.347482 
L 111.066678 183.874118 
L 114.963667 183.239931 
L 118.548896 182.832963 
L 121.354727 182.393827 
L 127.901667 181.225993 
L 131.331017 180.819383 
L 136.94268 179.535556 
L 146.91897 176.554899 
L 149.724801 175.940969 
L 151.127717 175.600627 
L 160.16873 172.842058 
L 166.092152 171.692388 
L 170.924417 170.994688 
L 175.600803 170.489663 
L 183.083021 170.275333 
L 186.044732 170.086889 
L 194.929865 169.656877 
L 202.412082 169.389424 
L 210.050179 168.598627 
L 215.661842 168.485203 
L 225.170493 168.597869 
L 229.846879 168.932099 
L 236.23794 169.845829 
L 241.693723 170.902808 
L 244.811314 171.592462 
L 247.928904 172.032135 
L 255.411122 172.712602 
L 265.387412 172.465493 
L 270.687316 171.856377 
L 277.234256 170.787635 
L 286.119389 169.406622 
L 291.575172 168.634898 
L 293.445727 168.014966 
L 299.05739 165.756787 
L 304.513173 163.39789 
L 315.112981 159.12952 
L 323.218717 156.114801 
L 329.298018 154.13062 
L 330.856814 153.798405 
L 332.571488 153.629131 
L 335.22144 153.583984 
L 337.403754 153.731956 
L 341.456622 154.264214 
L 345.821248 155.026402 
L 349.718237 155.8432 
L 366.709105 159.7839 
L 388.064601 164.315659 
L 400.690842 167.406436 
L 409.575976 169.764697 
L 414.72 170.898727 
L 414.72 170.898727 
" clip-path="url(#pa69f3c56bd)" style="fill: none; stroke: #ff7f0e; stroke-width: 1.5; stroke-linecap: square"/>
   </g>
   <g id="patch_3">
    <path d="M 57.6 307.584 
L 57.6 41.472 
" style="fill: none; stroke: #000000; stroke-width: 0.8; stroke-linejoin: miter; stroke-linecap: square"/>
   </g>
   <g id="patch_4">
    <path d="M 414.72 307.584 
L 414.72 41.472 
" style="fill: none; stroke: #000000; stroke-width: 0.8; stroke-linejoin: miter; stroke-linecap: square"/>
   </g>
   <g id="patch_5">
    <path d="M 57.6 307.584 
L 414.72 307.584 
" style="fill: none; stroke: #000000; stroke-width: 0.8; stroke-linejoin: miter; stroke-linecap: square"/>
   </g>
   <g id="patch_6">
    <path d="M 57.6 41.472 
L 414.72 41.472 
" style="fill: none; stroke: #000000; stroke-width: 0.8; stroke-linejoin: miter; stroke-linecap: square"/>
   </g>
  </g>
 </g>
 <defs>
  <clipPath id="pa69f3c56bd">
   <rect x="57.6" y="41.472" width="357.12" height="266.112"/>
  </clipPath>
 </defs>
</svg>
