<?xml version="1.0" encoding="utf-8" standalone="no"?>
<!DOCTYPE svg PUBLIC "-//W3C//DTD SVG 1.1//EN"
  "http://www.w3.org/Graphics/SVG/1.1/DTD/svg11.dtd">
<svg xmlns:xlink="http://www.w3.org/1999/xlink" width="460.8pt" height="345.6pt" viewBox="0 0 460.8 345.6" xmlns="http://www.w3.org/2000/svg" version="1.1">
 <metadata>
  <rdf:RDF xmlns:dc="http://purl.org/dc/elements/1.1/" xmlns:cc="http://creativecommons.org/ns#" xmlns:rdf="http://www.w3.org/1999/02/22-rdf-syntax-ns#">
   <cc:Work>
    <dc:type rdf:resource="http://purl.org/dc/dcmitype/StillImage"/>
    <dc:date>2025-05-23T08:20:09.814104</dc:date>
    <dc:format>image/svg+xml</dc:format>
    <dc:creator>
     <cc:Agent>
      <dc:title>Matplotlib v3.10.0, https://matplotlib.org/</dc:title>
     </cc:Agent>
    </dc:creator>
   </cc:Work>
  </rdf:RDF>
 </metadata>
 <defs>
  <style type="text/css">*{stroke-linejoin: round; stroke-linecap: butt}</style>
 </defs>
 <g id="figure_1">
  <g id="patch_1">
   <path d="M 0 345.6 
L 460.8 345.6 
L 460.8 0 
L 0 0 
z
" style="fill: #ffffff"/>
  </g>
  <g id="axes_1">
   <g id="patch_2">
    <path d="M 57.6 307.584 
L 414.72 307.584 
L 414.72 41.472 
L 57.6 41.472 
z
" style="fill: #ffffff"/>
   </g>
   <g id="matplotlib.axis_1">
    <g id="xtick_1">
     <g id="line2d_1">
      <defs>
       <path id="m0e9527fef9" d="M 0 0 
L 0 3.5 
" style="stroke: #000000; stroke-width: 0.8"/>
      </defs>
      <g>
       <use xlink:href="#m0e9527fef9" x="57.6" y="307.584" style="stroke: #000000; stroke-width: 0.8"/>
      </g>
     </g>
    </g>
    <g id="xtick_2">
     <g id="line2d_2">
      <g>
       <use xlink:href="#m0e9527fef9" x="98.128677" y="307.584" style="stroke: #000000; stroke-width: 0.8"/>
      </g>
     </g>
     <g id="text_1">
      <!-- 2004 -->
      <g transform="translate(85.403677 322.182437) scale(0.1 -0.1)">
       <defs>
        <path id="DejaVuSans-32" d="M 1228 531 
L 3431 531 
L 3431 0 
L 469 0 
L 469 531 
Q 828 903 1448 1529 
Q 2069 2156 2228 2338 
Q 2531 2678 2651 2914 
Q 2772 3150 2772 3378 
Q 2772 3750 2511 3984 
Q 2250 4219 1831 4219 
Q 1534 4219 1204 4116 
Q 875 4013 500 3803 
L 500 4441 
Q 881 4594 1212 4672 
Q 1544 4750 1819 4750 
Q 2544 4750 2975 4387 
Q 3406 4025 3406 3419 
Q 3406 3131 3298 2873 
Q 3191 2616 2906 2266 
Q 2828 2175 2409 1742 
Q 1991 1309 1228 531 
z
" transform="scale(0.015625)"/>
        <path id="DejaVuSans-30" d="M 2034 4250 
Q 1547 4250 1301 3770 
Q 1056 3291 1056 2328 
Q 1056 1369 1301 889 
Q 1547 409 2034 409 
Q 2525 409 2770 889 
Q 3016 1369 3016 2328 
Q 3016 3291 2770 3770 
Q 2525 4250 2034 4250 
z
M 2034 4750 
Q 2819 4750 3233 4129 
Q 3647 3509 3647 2328 
Q 3647 1150 3233 529 
Q 2819 -91 2034 -91 
Q 1250 -91 836 529 
Q 422 1150 422 2328 
Q 422 3509 836 4129 
Q 1250 4750 2034 4750 
z
" transform="scale(0.015625)"/>
        <path id="DejaVuSans-34" d="M 2419 4116 
L 825 1625 
L 2419 1625 
L 2419 4116 
z
M 2253 4666 
L 3047 4666 
L 3047 1625 
L 3713 1625 
L 3713 1100 
L 3047 1100 
L 3047 0 
L 2419 0 
L 2419 1100 
L 313 1100 
L 313 1709 
L 2253 4666 
z
" transform="scale(0.015625)"/>
       </defs>
       <use xlink:href="#DejaVuSans-32"/>
       <use xlink:href="#DejaVuSans-30" transform="translate(63.623047 0)"/>
       <use xlink:href="#DejaVuSans-30" transform="translate(127.246094 0)"/>
       <use xlink:href="#DejaVuSans-34" transform="translate(190.869141 0)"/>
      </g>
     </g>
    </g>
    <g id="xtick_3">
     <g id="line2d_3">
      <g>
       <use xlink:href="#m0e9527fef9" x="138.969114" y="307.584" style="stroke: #000000; stroke-width: 0.8"/>
      </g>
     </g>
     <g id="text_2">
      <!-- 2005 -->
      <g transform="translate(126.244114 322.182437) scale(0.1 -0.1)">
       <defs>
        <path id="DejaVuSans-35" d="M 691 4666 
L 3169 4666 
L 3169 4134 
L 1269 4134 
L 1269 2991 
Q 1406 3038 1543 3061 
Q 1681 3084 1819 3084 
Q 2600 3084 3056 2656 
Q 3513 2228 3513 1497 
Q 3513 744 3044 326 
Q 2575 -91 1722 -91 
Q 1428 -91 1123 -41 
Q 819 9 494 109 
L 494 744 
Q 775 591 1075 516 
Q 1375 441 1709 441 
Q 2250 441 2565 725 
Q 2881 1009 2881 1497 
Q 2881 1984 2565 2268 
Q 2250 2553 1709 2553 
Q 1456 2553 1204 2497 
Q 953 2441 691 2322 
L 691 4666 
z
" transform="scale(0.015625)"/>
       </defs>
       <use xlink:href="#DejaVuSans-32"/>
       <use xlink:href="#DejaVuSans-30" transform="translate(63.623047 0)"/>
       <use xlink:href="#DejaVuSans-30" transform="translate(127.246094 0)"/>
       <use xlink:href="#DejaVuSans-35" transform="translate(190.869141 0)"/>
      </g>
     </g>
    </g>
    <g id="xtick_4">
     <g id="line2d_4">
      <g>
       <use xlink:href="#m0e9527fef9" x="179.497791" y="307.584" style="stroke: #000000; stroke-width: 0.8"/>
      </g>
     </g>
     <g id="text_3">
      <!-- 2006 -->
      <g transform="translate(166.772791 322.182437) scale(0.1 -0.1)">
       <defs>
        <path id="DejaVuSans-36" d="M 2113 2584 
Q 1688 2584 1439 2293 
Q 1191 2003 1191 1497 
Q 1191 994 1439 701 
Q 1688 409 2113 409 
Q 2538 409 2786 701 
Q 3034 994 3034 1497 
Q 3034 2003 2786 2293 
Q 2538 2584 2113 2584 
z
M 3366 4563 
L 3366 3988 
Q 3128 4100 2886 4159 
Q 2644 4219 2406 4219 
Q 1781 4219 1451 3797 
Q 1122 3375 1075 2522 
Q 1259 2794 1537 2939 
Q 1816 3084 2150 3084 
Q 2853 3084 3261 2657 
Q 3669 2231 3669 1497 
Q 3669 778 3244 343 
Q 2819 -91 2113 -91 
Q 1303 -91 875 529 
Q 447 1150 447 2328 
Q 447 3434 972 4092 
Q 1497 4750 2381 4750 
Q 2619 4750 2861 4703 
Q 3103 4656 3366 4563 
z
" transform="scale(0.015625)"/>
       </defs>
       <use xlink:href="#DejaVuSans-32"/>
       <use xlink:href="#DejaVuSans-30" transform="translate(63.623047 0)"/>
       <use xlink:href="#DejaVuSans-30" transform="translate(127.246094 0)"/>
       <use xlink:href="#DejaVuSans-36" transform="translate(190.869141 0)"/>
      </g>
     </g>
    </g>
    <g id="xtick_5">
     <g id="line2d_5">
      <g>
       <use xlink:href="#m0e9527fef9" x="220.026469" y="307.584" style="stroke: #000000; stroke-width: 0.8"/>
      </g>
     </g>
     <g id="text_4">
      <!-- 2007 -->
      <g transform="translate(207.301469 322.182437) scale(0.1 -0.1)">
       <defs>
        <path id="DejaVuSans-37" d="M 525 4666 
L 3525 4666 
L 3525 4397 
L 1831 0 
L 1172 0 
L 2766 4134 
L 525 4134 
L 525 4666 
z
" transform="scale(0.015625)"/>
       </defs>
       <use xlink:href="#DejaVuSans-32"/>
       <use xlink:href="#DejaVuSans-30" transform="translate(63.623047 0)"/>
       <use xlink:href="#DejaVuSans-30" transform="translate(127.246094 0)"/>
       <use xlink:href="#DejaVuSans-37" transform="translate(190.869141 0)"/>
      </g>
     </g>
    </g>
    <g id="xtick_6">
     <g id="line2d_6">
      <g>
       <use xlink:href="#m0e9527fef9" x="260.711026" y="307.584" style="stroke: #000000; stroke-width: 0.8"/>
      </g>
     </g>
     <g id="text_5">
      <!-- 2008 -->
      <g transform="translate(247.986026 322.182437) scale(0.1 -0.1)">
       <defs>
        <path id="DejaVuSans-38" d="M 2034 2216 
Q 1584 2216 1326 1975 
Q 1069 1734 1069 1313 
Q 1069 891 1326 650 
Q 1584 409 2034 409 
Q 2484 409 2743 651 
Q 3003 894 3003 1313 
Q 3003 1734 2745 1975 
Q 2488 2216 2034 2216 
z
M 1403 2484 
Q 997 2584 770 2862 
Q 544 3141 544 3541 
Q 544 4100 942 4425 
Q 1341 4750 2034 4750 
Q 2731 4750 3128 4425 
Q 3525 4100 3525 3541 
Q 3525 3141 3298 2862 
Q 3072 2584 2669 2484 
Q 3125 2378 3379 2068 
Q 3634 1759 3634 1313 
Q 3634 634 3220 271 
Q 2806 -91 2034 -91 
Q 1263 -91 848 271 
Q 434 634 434 1313 
Q 434 1759 690 2068 
Q 947 2378 1403 2484 
z
M 1172 3481 
Q 1172 3119 1398 2916 
Q 1625 2713 2034 2713 
Q 2441 2713 2670 2916 
Q 2900 3119 2900 3481 
Q 2900 3844 2670 4047 
Q 2441 4250 2034 4250 
Q 1625 4250 1398 4047 
Q 1172 3844 1172 3481 
z
" transform="scale(0.015625)"/>
       </defs>
       <use xlink:href="#DejaVuSans-32"/>
       <use xlink:href="#DejaVuSans-30" transform="translate(63.623047 0)"/>
       <use xlink:href="#DejaVuSans-30" transform="translate(127.246094 0)"/>
       <use xlink:href="#DejaVuSans-38" transform="translate(190.869141 0)"/>
      </g>
     </g>
    </g>
    <g id="xtick_7">
     <g id="line2d_7">
      <g>
       <use xlink:href="#m0e9527fef9" x="301.551462" y="307.584" style="stroke: #000000; stroke-width: 0.8"/>
      </g>
     </g>
     <g id="text_6">
      <!-- 2009 -->
      <g transform="translate(288.826462 322.182437) scale(0.1 -0.1)">
       <defs>
        <path id="DejaVuSans-39" d="M 703 97 
L 703 672 
Q 941 559 1184 500 
Q 1428 441 1663 441 
Q 2288 441 2617 861 
Q 2947 1281 2994 2138 
Q 2813 1869 2534 1725 
Q 2256 1581 1919 1581 
Q 1219 1581 811 2004 
Q 403 2428 403 3163 
Q 403 3881 828 4315 
Q 1253 4750 1959 4750 
Q 2769 4750 3195 4129 
Q 3622 3509 3622 2328 
Q 3622 1225 3098 567 
Q 2575 -91 1691 -91 
Q 1453 -91 1209 -44 
Q 966 3 703 97 
z
M 1959 2075 
Q 2384 2075 2632 2365 
Q 2881 2656 2881 3163 
Q 2881 3666 2632 3958 
Q 2384 4250 1959 4250 
Q 1534 4250 1286 3958 
Q 1038 3666 1038 3163 
Q 1038 2656 1286 2365 
Q 1534 2075 1959 2075 
z
" transform="scale(0.015625)"/>
       </defs>
       <use xlink:href="#DejaVuSans-32"/>
       <use xlink:href="#DejaVuSans-30" transform="translate(63.623047 0)"/>
       <use xlink:href="#DejaVuSans-30" transform="translate(127.246094 0)"/>
       <use xlink:href="#DejaVuSans-39" transform="translate(190.869141 0)"/>
      </g>
     </g>
    </g>
    <g id="xtick_8">
     <g id="line2d_8">
      <g>
       <use xlink:href="#m0e9527fef9" x="342.236019" y="307.584" style="stroke: #000000; stroke-width: 0.8"/>
      </g>
     </g>
     <g id="text_7">
      <!-- 2010 -->
      <g transform="translate(329.511019 322.182437) scale(0.1 -0.1)">
       <defs>
        <path id="DejaVuSans-31" d="M 794 531 
L 1825 531 
L 1825 4091 
L 703 3866 
L 703 4441 
L 1819 4666 
L 2450 4666 
L 2450 531 
L 3481 531 
L 3481 0 
L 794 0 
L 794 531 
z
" transform="scale(0.015625)"/>
       </defs>
       <use xlink:href="#DejaVuSans-32"/>
       <use xlink:href="#DejaVuSans-30" transform="translate(63.623047 0)"/>
       <use xlink:href="#DejaVuSans-31" transform="translate(127.246094 0)"/>
       <use xlink:href="#DejaVuSans-30" transform="translate(190.869141 0)"/>
      </g>
     </g>
    </g>
    <g id="xtick_9">
     <g id="line2d_9">
      <g>
       <use xlink:href="#m0e9527fef9" x="382.920576" y="307.584" style="stroke: #000000; stroke-width: 0.8"/>
      </g>
     </g>
     <g id="text_8">
      <!-- 2011 -->
      <g transform="translate(370.195576 322.182437) scale(0.1 -0.1)">
       <use xlink:href="#DejaVuSans-32"/>
       <use xlink:href="#DejaVuSans-30" transform="translate(63.623047 0)"/>
       <use xlink:href="#DejaVuSans-31" transform="translate(127.246094 0)"/>
       <use xlink:href="#DejaVuSans-31" transform="translate(190.869141 0)"/>
      </g>
     </g>
    </g>
    <g id="xtick_10">
     <g id="line2d_10">
      <g>
       <use xlink:href="#m0e9527fef9" x="414.72" y="307.584" style="stroke: #000000; stroke-width: 0.8"/>
      </g>
     </g>
    </g>
    <g id="xtick_11">
     <g id="line2d_11">
      <defs>
       <path id="mf8e77f69a8" d="M 0 0 
L 0 2 
" style="stroke: #000000; stroke-width: 0.6"/>
      </defs>
      <g>
       <use xlink:href="#mf8e77f69a8" x="67.42041" y="307.584" style="stroke: #000000; stroke-width: 0.6"/>
      </g>
     </g>
    </g>
    <g id="xtick_12">
     <g id="line2d_12">
      <g>
       <use xlink:href="#mf8e77f69a8" x="77.55258" y="307.584" style="stroke: #000000; stroke-width: 0.6"/>
      </g>
     </g>
    </g>
    <g id="xtick_13">
     <g id="line2d_13">
      <g>
       <use xlink:href="#mf8e77f69a8" x="87.840629" y="307.584" style="stroke: #000000; stroke-width: 0.6"/>
      </g>
     </g>
    </g>
    <g id="xtick_14">
     <g id="line2d_14">
      <g>
       <use xlink:href="#mf8e77f69a8" x="108.260847" y="307.584" style="stroke: #000000; stroke-width: 0.6"/>
      </g>
     </g>
    </g>
    <g id="xtick_15">
     <g id="line2d_15">
      <g>
       <use xlink:href="#mf8e77f69a8" x="118.393016" y="307.584" style="stroke: #000000; stroke-width: 0.6"/>
      </g>
     </g>
    </g>
    <g id="xtick_16">
     <g id="line2d_16">
      <g>
       <use xlink:href="#mf8e77f69a8" x="128.681065" y="307.584" style="stroke: #000000; stroke-width: 0.6"/>
      </g>
     </g>
    </g>
    <g id="xtick_17">
     <g id="line2d_17">
      <g>
       <use xlink:href="#mf8e77f69a8" x="148.945404" y="307.584" style="stroke: #000000; stroke-width: 0.6"/>
      </g>
     </g>
    </g>
    <g id="xtick_18">
     <g id="line2d_18">
      <g>
       <use xlink:href="#mf8e77f69a8" x="159.077573" y="307.584" style="stroke: #000000; stroke-width: 0.6"/>
      </g>
     </g>
    </g>
    <g id="xtick_19">
     <g id="line2d_19">
      <g>
       <use xlink:href="#mf8e77f69a8" x="169.365622" y="307.584" style="stroke: #000000; stroke-width: 0.6"/>
      </g>
     </g>
    </g>
    <g id="xtick_20">
     <g id="line2d_20">
      <g>
       <use xlink:href="#mf8e77f69a8" x="189.629961" y="307.584" style="stroke: #000000; stroke-width: 0.6"/>
      </g>
     </g>
    </g>
    <g id="xtick_21">
     <g id="line2d_21">
      <g>
       <use xlink:href="#mf8e77f69a8" x="199.76213" y="307.584" style="stroke: #000000; stroke-width: 0.6"/>
      </g>
     </g>
    </g>
    <g id="xtick_22">
     <g id="line2d_22">
      <g>
       <use xlink:href="#mf8e77f69a8" x="209.894299" y="307.584" style="stroke: #000000; stroke-width: 0.6"/>
      </g>
     </g>
    </g>
    <g id="xtick_23">
     <g id="line2d_23">
      <g>
       <use xlink:href="#mf8e77f69a8" x="230.158638" y="307.584" style="stroke: #000000; stroke-width: 0.6"/>
      </g>
     </g>
    </g>
    <g id="xtick_24">
     <g id="line2d_24">
      <g>
       <use xlink:href="#mf8e77f69a8" x="240.290808" y="307.584" style="stroke: #000000; stroke-width: 0.6"/>
      </g>
     </g>
    </g>
    <g id="xtick_25">
     <g id="line2d_25">
      <g>
       <use xlink:href="#mf8e77f69a8" x="250.422977" y="307.584" style="stroke: #000000; stroke-width: 0.6"/>
      </g>
     </g>
    </g>
    <g id="xtick_26">
     <g id="line2d_26">
      <g>
       <use xlink:href="#mf8e77f69a8" x="270.843195" y="307.584" style="stroke: #000000; stroke-width: 0.6"/>
      </g>
     </g>
    </g>
    <g id="xtick_27">
     <g id="line2d_27">
      <g>
       <use xlink:href="#mf8e77f69a8" x="280.975364" y="307.584" style="stroke: #000000; stroke-width: 0.6"/>
      </g>
     </g>
    </g>
    <g id="xtick_28">
     <g id="line2d_28">
      <g>
       <use xlink:href="#mf8e77f69a8" x="291.263413" y="307.584" style="stroke: #000000; stroke-width: 0.6"/>
      </g>
     </g>
    </g>
    <g id="xtick_29">
     <g id="line2d_29">
      <g>
       <use xlink:href="#mf8e77f69a8" x="311.527752" y="307.584" style="stroke: #000000; stroke-width: 0.6"/>
      </g>
     </g>
    </g>
    <g id="xtick_30">
     <g id="line2d_30">
      <g>
       <use xlink:href="#mf8e77f69a8" x="321.659921" y="307.584" style="stroke: #000000; stroke-width: 0.6"/>
      </g>
     </g>
    </g>
    <g id="xtick_31">
     <g id="line2d_31">
      <g>
       <use xlink:href="#mf8e77f69a8" x="331.94797" y="307.584" style="stroke: #000000; stroke-width: 0.6"/>
      </g>
     </g>
    </g>
    <g id="xtick_32">
     <g id="line2d_32">
      <g>
       <use xlink:href="#mf8e77f69a8" x="352.212309" y="307.584" style="stroke: #000000; stroke-width: 0.6"/>
      </g>
     </g>
    </g>
    <g id="xtick_33">
     <g id="line2d_33">
      <g>
       <use xlink:href="#mf8e77f69a8" x="362.344478" y="307.584" style="stroke: #000000; stroke-width: 0.6"/>
      </g>
     </g>
    </g>
    <g id="xtick_34">
     <g id="line2d_34">
      <g>
       <use xlink:href="#mf8e77f69a8" x="372.632527" y="307.584" style="stroke: #000000; stroke-width: 0.6"/>
      </g>
     </g>
    </g>
    <g id="xtick_35">
     <g id="line2d_35">
      <g>
       <use xlink:href="#mf8e77f69a8" x="392.896866" y="307.584" style="stroke: #000000; stroke-width: 0.6"/>
      </g>
     </g>
    </g>
    <g id="xtick_36">
     <g id="line2d_36">
      <g>
       <use xlink:href="#mf8e77f69a8" x="403.029035" y="307.584" style="stroke: #000000; stroke-width: 0.6"/>
      </g>
     </g>
    </g>
    <g id="xtick_37">
     <g id="line2d_37">
      <g>
       <use xlink:href="#mf8e77f69a8" x="413.317084" y="307.584" style="stroke: #000000; stroke-width: 0.6"/>
      </g>
     </g>
    </g>
   </g>
   <g id="matplotlib.axis_2">
    <g id="ytick_1">
     <g id="line2d_38">
      <defs>
       <path id="mead453c7b6" d="M 0 0 
L -3.5 0 
" style="stroke: #000000; stroke-width: 0.8"/>
      </defs>
      <g>
       <use xlink:href="#mead453c7b6" x="57.6" y="299.308035" style="stroke: #000000; stroke-width: 0.8"/>
      </g>
     </g>
     <g id="text_9">
      <!-- 0 -->
      <g transform="translate(44.2375 303.107253) scale(0.1 -0.1)">
       <use xlink:href="#DejaVuSans-30"/>
      </g>
     </g>
    </g>
    <g id="ytick_2">
     <g id="line2d_39">
      <g>
       <use xlink:href="#mead453c7b6" x="57.6" y="241.075799" style="stroke: #000000; stroke-width: 0.8"/>
      </g>
     </g>
     <g id="text_10">
      <!-- 100 -->
      <g transform="translate(31.5125 244.875018) scale(0.1 -0.1)">
       <use xlink:href="#DejaVuSans-31"/>
       <use xlink:href="#DejaVuSans-30" transform="translate(63.623047 0)"/>
       <use xlink:href="#DejaVuSans-30" transform="translate(127.246094 0)"/>
      </g>
     </g>
    </g>
    <g id="ytick_3">
     <g id="line2d_40">
      <g>
       <use xlink:href="#mead453c7b6" x="57.6" y="182.843563" style="stroke: #000000; stroke-width: 0.8"/>
      </g>
     </g>
     <g id="text_11">
      <!-- 200 -->
      <g transform="translate(31.5125 186.642782) scale(0.1 -0.1)">
       <use xlink:href="#DejaVuSans-32"/>
       <use xlink:href="#DejaVuSans-30" transform="translate(63.623047 0)"/>
       <use xlink:href="#DejaVuSans-30" transform="translate(127.246094 0)"/>
      </g>
     </g>
    </g>
    <g id="ytick_4">
     <g id="line2d_41">
      <g>
       <use xlink:href="#mead453c7b6" x="57.6" y="124.611328" style="stroke: #000000; stroke-width: 0.8"/>
      </g>
     </g>
     <g id="text_12">
      <!-- 300 -->
      <g transform="translate(31.5125 128.410546) scale(0.1 -0.1)">
       <defs>
        <path id="DejaVuSans-33" d="M 2597 2516 
Q 3050 2419 3304 2112 
Q 3559 1806 3559 1356 
Q 3559 666 3084 287 
Q 2609 -91 1734 -91 
Q 1441 -91 1130 -33 
Q 819 25 488 141 
L 488 750 
Q 750 597 1062 519 
Q 1375 441 1716 441 
Q 2309 441 2620 675 
Q 2931 909 2931 1356 
Q 2931 1769 2642 2001 
Q 2353 2234 1838 2234 
L 1294 2234 
L 1294 2753 
L 1863 2753 
Q 2328 2753 2575 2939 
Q 2822 3125 2822 3475 
Q 2822 3834 2567 4026 
Q 2313 4219 1838 4219 
Q 1578 4219 1281 4162 
Q 984 4106 628 3988 
L 628 4550 
Q 988 4650 1302 4700 
Q 1616 4750 1894 4750 
Q 2613 4750 3031 4423 
Q 3450 4097 3450 3541 
Q 3450 3153 3228 2886 
Q 3006 2619 2597 2516 
z
" transform="scale(0.015625)"/>
       </defs>
       <use xlink:href="#DejaVuSans-33"/>
       <use xlink:href="#DejaVuSans-30" transform="translate(63.623047 0)"/>
       <use xlink:href="#DejaVuSans-30" transform="translate(127.246094 0)"/>
      </g>
     </g>
    </g>
    <g id="ytick_5">
     <g id="line2d_42">
      <g>
       <use xlink:href="#mead453c7b6" x="57.6" y="66.379092" style="stroke: #000000; stroke-width: 0.8"/>
      </g>
     </g>
     <g id="text_13">
      <!-- 400 -->
      <g transform="translate(31.5125 70.178311) scale(0.1 -0.1)">
       <use xlink:href="#DejaVuSans-34"/>
       <use xlink:href="#DejaVuSans-30" transform="translate(63.623047 0)"/>
       <use xlink:href="#DejaVuSans-30" transform="translate(127.246094 0)"/>
      </g>
     </g>
    </g>
   </g>
   <g id="line2d_43">
    <path d="M 57.6 294.998849 
L 58.067639 294.98138 
L 58.379398 295.033789 
L 58.847036 295.057081 
L 59.782313 295.266718 
L 59.938193 295.179369 
L 60.094072 295.29001 
L 60.561711 294.958087 
L 60.717591 295.138607 
L 61.496988 295.103667 
L 61.652868 295.191016 
L 62.120506 295.115314 
L 62.899904 294.98138 
L 63.367543 295.016319 
L 63.523422 294.934794 
L 63.679302 295.086198 
L 63.991061 294.934794 
L 64.30282 295.068728 
L 64.770458 295.080374 
L 65.238097 295.167723 
L 65.549856 295.004672 
L 65.861615 294.940617 
L 66.329254 294.940617 
L 66.485133 295.12696 
L 66.796892 295.115314 
L 67.108651 295.068728 
L 67.42041 295.185192 
L 67.57629 295.057081 
L 68.043928 295.092021 
L 68.511567 295.12696 
L 68.667447 295.464707 
L 68.823326 295.354066 
L 69.446844 295.488 
L 69.758603 295.371536 
L 70.69388 295.167723 
L 71.005639 295.103667 
L 71.317399 294.212714 
L 71.785037 293.979785 
L 72.096796 293.869144 
L 72.408555 293.857497 
L 72.564435 293.834205 
L 72.876194 294.125366 
L 73.499712 293.973962 
L 73.655591 293.810912 
L 73.967351 294.038017 
L 75.214387 294.305886 
L 75.526146 294.131189 
L 75.682025 294.236007 
L 75.837905 293.985608 
L 75.993784 294.008901 
L 76.149664 293.741033 
L 76.617302 293.758503 
L 76.773182 293.840028 
L 77.084941 293.688624 
L 77.240821 293.857497 
L 77.55258 293.746856 
L 77.864339 293.741033 
L 78.020218 293.741033 
L 78.331977 293.368347 
L 78.643736 293.607099 
L 78.955495 293.513927 
L 79.111375 293.595452 
L 79.267254 293.51975 
L 79.423134 293.222766 
L 80.202532 293.333407 
L 80.358411 293.036423 
L 80.82605 293.403286 
L 80.981929 293.170357 
L 81.137809 293.275175 
L 81.293688 293.135418 
L 81.605447 293.595452 
L 81.761327 293.502281 
L 82.073086 293.583806 
L 82.228966 293.572159 
L 82.384845 293.432402 
L 82.696604 293.572159 
L 82.852484 293.385816 
L 83.008363 293.39164 
L 83.320122 292.99566 
L 83.476002 293.228589 
L 83.787761 293.182003 
L 84.567158 292.65209 
L 84.878918 292.663737 
L 85.034797 292.756908 
L 85.190677 292.687029 
L 85.502436 292.85008 
L 85.814195 292.582211 
L 85.970074 292.844256 
L 86.125954 292.797671 
L 86.281833 292.867549 
L 86.437713 292.646267 
L 86.749472 292.879196 
L 86.905351 292.774378 
L 87.21711 293.3567 
L 87.528869 293.106302 
L 87.684749 293.275175 
L 87.996508 293.321761 
L 88.464147 292.547272 
L 88.620026 292.593858 
L 89.399424 292.081414 
L 89.711183 292.681206 
L 90.022942 292.558919 
L 90.178821 292.681206 
L 90.334701 292.617151 
L 90.64646 292.727792 
L 90.80234 292.401692 
L 90.958219 292.407515 
L 91.269978 292.646267 
L 91.425858 292.570565 
L 91.737617 292.599681 
L 91.893496 292.576388 
L 92.361135 293.036423 
L 92.517014 292.809317 
L 92.672894 292.780201 
L 92.984653 293.158711 
L 93.140533 293.368347 
L 93.608171 293.403286 
L 93.764051 293.152887 
L 94.07581 293.275175 
L 94.387569 293.222766 
L 94.543448 292.989837 
L 95.634605 293.37417 
L 95.790485 293.135418 
L 96.725762 293.572159 
L 97.505159 293.257705 
L 97.816918 293.112125 
L 98.284557 293.112125 
L 98.440436 292.85008 
L 98.596316 292.873373 
L 98.908075 292.50651 
L 99.063955 292.611328 
L 99.375714 292.285227 
L 99.531593 292.261934 
L 99.687473 292.65209 
L 100.46687 292.85008 
L 100.934509 292.593858 
L 101.090388 292.751085 
L 101.402148 292.739438 
L 101.869786 292.960721 
L 102.181545 292.698676 
L 102.493304 292.617151 
L 102.649184 292.378399 
L 102.805063 292.401692 
L 102.960943 292.611328 
L 103.428581 292.535626 
L 103.584461 292.768555 
L 104.0521 292.797671 
L 104.675618 292.314343 
L 104.987377 292.343459 
L 105.299136 291.522385 
L 105.455015 291.737844 
L 105.766774 291.248693 
L 105.922654 291.40592 
L 106.078533 291.283633 
L 106.390292 291.790253 
L 106.546172 291.679612 
L 106.702052 291.831016 
L 107.013811 291.778607 
L 107.16969 291.941657 
L 107.32557 291.883425 
L 107.481449 291.481622 
L 107.637329 291.435036 
L 107.793208 291.184638 
L 107.949088 291.178815 
L 108.104967 291.435036 
L 108.416726 291.301102 
L 108.572606 291.06235 
L 108.884365 291.359334 
L 109.352003 291.143875 
L 109.663763 291.551501 
L 109.819642 290.777012 
L 109.975522 290.811951 
L 110.287281 291.237047 
L 110.754919 291.24287 
L 111.222558 291.60391 
L 111.378437 291.510738 
L 111.534317 291.801899 
L 112.157835 291.568971 
L 112.313715 291.539854 
L 112.469594 291.656319 
L 112.781353 291.359334 
L 113.71663 291.534031 
L 114.340148 291.004118 
L 114.651907 291.138052 
L 114.963667 291.138052 
L 115.119546 290.887653 
L 115.275426 291.039057 
L 115.431305 290.928416 
L 115.743064 290.468381 
L 115.898944 290.514967 
L 116.210703 290.35774 
L 116.366582 290.53826 
L 116.522462 290.369386 
L 116.678341 289.775418 
L 116.9901 289.728832 
L 117.14598 289.891882 
L 117.457739 289.495903 
L 117.613619 289.647307 
L 117.769498 289.495903 
L 117.925378 289.845296 
L 118.393016 289.903529 
L 118.548896 290.258745 
L 118.860655 290.293685 
L 119.172414 290.532437 
L 119.328293 290.561553 
L 119.484173 290.823598 
L 119.795932 290.695487 
L 119.951811 289.717185 
L 120.26357 290.002523 
L 120.41945 289.932645 
L 120.57533 290.101518 
L 120.731209 290.084049 
L 120.887089 290.369386 
L 121.042968 290.206336 
L 121.198848 289.862766 
L 121.354727 289.909352 
L 121.510607 289.804534 
L 121.666486 289.891882 
L 121.978245 290.19469 
L 122.134125 290.049109 
L 122.290004 290.171397 
L 122.445884 290.637255 
L 122.601763 290.485851 
L 122.757643 290.130634 
L 123.069402 290.462558 
L 123.225282 290.328624 
L 123.537041 290.316977 
L 123.69292 290.066579 
L 123.8488 290.369386 
L 124.160559 290.258745 
L 124.472318 289.688069 
L 124.628197 289.216388 
L 124.939956 289.373615 
L 125.095836 289.262974 
L 125.251715 288.866995 
L 125.719354 289.053338 
L 126.031113 288.727237 
L 126.186993 288.913581 
L 126.342872 288.866995 
L 126.810511 289.059161 
L 127.12227 288.494308 
L 127.434029 288.24391 
L 127.589908 288.558364 
L 127.901667 288.447723 
L 128.213426 288.232263 
L 128.525186 288.022627 
L 128.836945 288.010981 
L 128.992824 287.847931 
L 129.148704 287.475244 
L 129.460463 287.935279 
L 129.772222 288.156562 
L 129.928101 287.731466 
L 130.083981 286.211605 
L 130.23986 286.060201 
L 130.39574 285.402177 
L 130.707499 285.483702 
L 130.863378 285.349768 
L 131.019258 285.506995 
L 131.331017 285.338121 
L 131.642776 284.115244 
L 131.954535 284.033719 
L 132.266294 283.200998 
L 132.422174 283.451397 
L 132.578053 283.375695 
L 132.889812 283.573685 
L 133.201571 283.206821 
L 133.357451 283.148589 
L 133.825089 283.323286 
L 133.980969 283.183529 
L 134.136849 283.247584 
L 134.292728 281.448208 
L 134.448608 281.465678 
L 134.604487 280.65625 
L 134.760367 280.65625 
L 134.916246 280.510669 
L 135.072126 279.380964 
L 135.228005 279.782766 
L 135.383885 279.567307 
L 135.695644 281.058052 
L 135.851523 280.155452 
L 136.007403 280.99982 
L 136.319162 280.673719 
L 136.475041 280.335972 
L 136.630921 280.405851 
L 136.94268 280.306856 
L 137.09856 279.9167 
L 137.410319 281.046406 
L 137.566198 280.766891 
L 138.033837 280.667896 
L 138.189716 280.918295 
L 138.501475 280.545608 
L 138.657355 280.44079 
L 138.813234 280.557255 
L 138.969114 280.877532 
L 139.280873 280.528139 
L 139.436753 280.510669 
L 139.592632 279.148035 
L 139.748512 279.22956 
L 139.904391 280.510669 
L 140.060271 280.248624 
L 140.21615 278.984984 
L 140.683789 278.734586 
L 140.839668 278.961692 
L 141.151427 278.786995 
L 141.307307 278.70547 
L 141.463186 278.32696 
L 141.774945 278.158087 
L 141.930825 277.767931 
L 142.086704 276.91774 
L 142.242584 276.73722 
L 142.398464 276.125782 
L 142.554343 276.655695 
L 142.710223 276.352887 
L 142.866102 276.323771 
L 143.021982 275.753095 
L 143.177861 276.382003 
L 143.333741 276.492645 
L 143.957259 273.068589 
L 144.269018 274.035244 
L 144.424897 274.035244 
L 144.580777 274.471986 
L 144.736656 273.615972 
L 144.892536 273.412159 
L 145.048416 273.400513 
L 145.204295 273.185054 
L 145.516054 273.615972 
L 145.671934 274.972783 
L 145.827813 274.378815 
L 145.983693 274.413754 
L 146.295452 276.39365 
L 146.607211 275.857913 
L 146.76309 275.828797 
L 147.542488 273.860548 
L 147.854247 274.530218 
L 148.321886 274.541865 
L 148.477765 274.996076 
L 148.633645 274.384638 
L 148.945404 275.496873 
L 149.101283 275.380409 
L 149.724801 273.837255 
L 149.880681 274.897081 
L 150.03656 274.466163 
L 150.19244 275.409525 
L 150.504199 278.722939 
L 150.660079 278.565712 
L 150.815958 277.709698 
L 150.971838 278.629768 
L 151.127717 277.657289 
L 151.283597 278.635591 
L 151.439476 277.773754 
L 151.751235 278.373546 
L 151.907115 278.612298 
L 152.218874 278.094031 
L 152.374753 278.222142 
L 152.530633 277.674759 
L 152.686512 277.948451 
L 152.842392 277.62235 
L 152.998271 277.779577 
L 153.310031 278.571536 
L 153.46591 279.433373 
L 153.777669 278.606475 
L 153.933549 278.717116 
L 154.089428 278.437601 
L 154.245308 277.44183 
L 154.401187 277.44183 
L 154.557067 276.154898 
L 154.868826 276.143251 
L 155.024705 275.584222 
L 155.336464 275.68904 
L 155.492344 276.154898 
L 155.648223 275.840444 
L 155.804103 275.991847 
L 155.959983 277.040028 
L 156.115862 277.226371 
L 156.271742 278.029976 
L 156.427621 277.808693 
L 156.583501 277.383598 
L 156.73938 278.455071 
L 157.051139 278.34443 
L 157.362898 277.191432 
L 157.518778 276.999265 
L 157.674657 277.406891 
L 157.830537 277.26131 
L 158.142296 276.661518 
L 158.454055 277.703875 
L 158.609935 277.581588 
L 158.765814 278.128971 
L 158.921694 277.872749 
L 159.077573 278.053269 
L 159.233453 278.053269 
L 159.389332 277.191432 
L 159.545212 277.535002 
L 159.701091 277.395244 
L 159.856971 277.034205 
L 160.01285 277.121553 
L 160.324609 276.975972 
L 160.636368 275.112541 
L 160.792248 275.14748 
L 160.948127 274.157532 
L 161.104007 273.90131 
L 161.259887 274.0993 
L 161.415766 273.685851 
L 161.727525 273.90131 
L 161.883405 273.691674 
L 162.039284 273.802315 
L 162.195164 274.471986 
L 162.351043 274.413754 
L 162.506923 274.157532 
L 162.662802 274.140062 
L 162.818682 274.437047 
L 162.974561 274.273997 
L 163.130441 274.471986 
L 163.28632 273.790669 
L 163.4422 274.046891 
L 163.598079 273.685851 
L 163.909838 271.542905 
L 164.065718 272.375626 
L 164.221598 271.851536 
L 164.533357 272.620201 
L 165.156875 272.486267 
L 165.312754 272.67261 
L 165.468634 272.614378 
L 165.780393 272.002939 
L 165.936272 272.369802 
L 166.248031 272.393095 
L 166.403911 270.890704 
L 166.55979 270.960582 
L 167.027429 269.376666 
L 167.183309 269.714412 
L 167.339188 270.419023 
L 167.495068 270.267619 
L 167.962706 268.334308 
L 168.118586 268.963217 
L 168.274465 269.085504 
L 168.586224 267.955799 
L 168.742104 268.188728 
L 168.897983 269.563009 
L 169.365622 267.606406 
L 169.677381 268.573061 
L 169.98914 269.434898 
L 170.14502 269.976458 
L 170.300899 269.266024 
L 170.456779 270.628659 
L 170.612658 268.014031 
L 170.768538 267.862627 
L 170.924417 268.188728 
L 171.080297 268.904984 
L 171.392056 266.616458 
L 171.547935 266.895972 
L 171.703815 266.237948 
L 171.859694 266.63975 
L 172.015574 266.098191 
L 172.327333 267.588936 
L 172.483213 265.77209 
L 172.639092 265.824499 
L 172.950851 263.291397 
L 173.41849 264.426925 
L 173.574369 264.304638 
L 173.886128 263.471917 
L 174.042008 263.524326 
L 174.197887 263.040998 
L 174.353767 261.486198 
L 174.509646 261.736596 
L 174.665526 261.713303 
L 174.821405 261.480374 
L 175.133165 260.228381 
L 175.289044 260.228381 
L 175.444924 258.929802 
L 175.600803 258.743459 
L 175.756683 259.651882 
L 175.912562 259.814932 
L 176.068442 257.613754 
L 176.224321 257.013962 
L 176.380201 257.485643 
L 176.53608 256.187064 
L 176.69196 256.245296 
L 177.003719 256.024014 
L 177.159598 255.686267 
L 177.315478 255.645504 
L 177.471357 257.375002 
L 177.627237 257.276007 
L 177.783117 257.899092 
L 177.938996 257.741865 
L 178.094876 257.316769 
L 178.406635 256.204534 
L 178.562514 256.59469 
L 178.718394 256.59469 
L 178.874273 256.082246 
L 179.030153 256.466579 
L 179.186032 257.701102 
L 179.341912 257.44488 
L 179.497791 257.44488 
L 179.653671 255.779438 
L 179.80955 255.651328 
L 179.96543 255.994898 
L 180.121309 254.876839 
L 180.277189 255.022419 
L 180.588948 250.451189 
L 180.744828 250.224083 
L 180.900707 249.467064 
L 181.056587 249.467064 
L 181.212466 249.979508 
L 181.524225 253.281276 
L 181.680105 254.999127 
L 181.835984 254.079057 
L 182.459502 257.363355 
L 182.615382 255.633858 
L 182.771261 255.336873 
L 182.927141 255.389282 
L 183.083021 257.322593 
L 183.2389 257.468173 
L 183.39478 260.11774 
L 183.550659 259.943043 
L 183.706539 259.238433 
L 183.862418 261.486198 
L 184.018298 260.111917 
L 184.174177 261.625955 
L 184.485936 258.999681 
L 184.641816 258.213546 
L 184.797695 258.376596 
L 184.953575 258.376596 
L 185.109454 259.081206 
L 185.265334 257.776804 
L 185.421213 257.526406 
L 185.732973 257.968971 
L 185.888852 259.424776 
L 186.200611 258.772575 
L 186.51237 261.177567 
L 186.66825 260.694239 
L 186.824129 261.072749 
L 187.135888 262.511085 
L 187.447647 260.106094 
L 187.603527 260.740825 
L 187.759406 261.858884 
L 187.915286 261.655071 
L 188.071165 262.045227 
L 188.227045 263.31469 
L 188.382924 263.396215 
L 188.538804 264.275522 
L 188.694684 264.391986 
L 189.006443 265.119889 
L 189.162322 263.011882 
L 189.318202 262.767307 
L 189.629961 262.825539 
L 189.78584 263.687376 
L 190.097599 257.82339 
L 190.409358 259.319958 
L 190.565238 259.715938 
L 190.721117 260.46131 
L 191.032876 260.601068 
L 191.188756 261.567723 
L 191.344636 260.746648 
L 191.500515 261.078572 
L 191.656395 259.925574 
L 191.812274 260.269144 
L 191.968154 261.02034 
L 192.124033 260.775764 
L 192.435792 258.918156 
L 192.591672 258.318364 
L 192.747551 258.778399 
L 192.903431 257.602107 
L 193.05931 257.881622 
L 193.21519 257.887445 
L 193.371069 257.44488 
L 193.526949 257.44488 
L 193.838708 258.196076 
L 193.994588 259.622766 
L 194.150467 259.884811 
L 194.306347 259.832402 
L 194.462226 261.468728 
L 194.618106 261.305678 
L 194.773985 262.516908 
L 194.929865 261.742419 
L 195.085744 262.400444 
L 195.241624 262.534378 
L 195.397503 262.423737 
L 195.553383 261.847237 
L 195.709262 262.301449 
L 195.865142 262.301449 
L 196.176901 264.502627 
L 196.33278 263.105054 
L 196.48866 263.402038 
L 196.64454 264.368693 
L 196.800419 264.531744 
L 196.956299 265.207237 
L 197.112178 263.926128 
L 197.423937 266.11566 
L 197.579817 265.341172 
L 197.735696 265.760444 
L 197.891576 264.729733 
L 198.047455 265.78956 
L 198.203335 265.999196 
L 198.515094 265.614863 
L 198.670973 264.613269 
L 198.826853 265.05001 
L 198.982732 264.956839 
L 199.294491 266.686336 
L 199.450371 264.968485 
L 199.606251 265.958433 
L 199.76213 265.562454 
L 199.91801 265.562454 
L 200.385648 267.047376 
L 200.541528 267.280305 
L 200.697407 266.901795 
L 200.853287 268.468243 
L 201.009166 268.881692 
L 201.165046 269.801761 
L 201.476805 268.503182 
L 201.632684 267.804395 
L 201.788564 264.077532 
L 201.944443 263.949421 
L 202.256203 263.244811 
L 202.412082 262.115106 
L 202.567962 262.388797 
L 202.879721 259.733407 
L 203.0356 260.187619 
L 203.347359 258.784222 
L 203.659118 260.170149 
L 203.970877 262.278156 
L 204.126757 261.998641 
L 204.282636 262.243217 
L 204.438516 262.074343 
L 204.750275 259.721761 
L 204.906155 259.948867 
L 205.062034 259.762523 
L 205.217914 260.548659 
L 205.373793 259.931397 
L 205.529673 260.111917 
L 205.685552 259.820756 
L 205.841432 259.273373 
L 206.153191 260.595244 
L 206.30907 260.31573 
L 206.620829 259.488832 
L 206.776709 259.488832 
L 206.932588 257.683633 
L 207.088468 258.528 
L 207.244347 256.914967 
L 207.556107 257.089664 
L 207.711986 257.013962 
L 207.867866 256.099716 
L 208.179625 256.157948 
L 208.491384 256.350114 
L 208.647263 255.482454 
L 208.803143 255.837671 
L 208.959022 256.798503 
L 209.270781 254.113997 
L 209.426661 254.812783 
L 209.58254 254.46339 
L 209.73842 254.48086 
L 210.050179 256.169594 
L 210.206058 255.412575 
L 210.517818 256.088069 
L 210.673697 255.849317 
L 210.985456 256.664568 
L 211.141336 255.482454 
L 211.297215 255.622211 
L 211.453095 255.400929 
L 211.608974 256.047307 
L 211.764854 255.907549 
L 211.920733 253.310392 
L 212.232492 251.872055 
L 212.388372 252.110808 
L 212.700131 251.44696 
L 212.85601 252.483494 
L 213.01189 252.477671 
L 213.16777 252.093338 
L 213.323649 253.211397 
L 213.479529 253.316215 
L 213.635408 253.718017 
L 214.258926 250.777289 
L 214.414806 250.9054 
L 214.726565 249.810634 
L 214.882444 250.363841 
L 215.038324 249.455418 
L 215.194203 249.31566 
L 215.350083 248.95462 
L 215.661842 246.718503 
L 215.817722 246.718503 
L 215.973601 245.949837 
L 216.129481 247.166891 
L 216.28536 245.845019 
L 216.597119 245.932367 
L 216.908878 246.246821 
L 217.064758 246.159473 
L 217.220637 246.998017 
L 217.376517 248.622697 
L 217.688276 247.626925 
L 217.844155 249.146787 
L 218.000035 247.452229 
L 218.311794 248.226718 
L 218.467674 249.536943 
L 218.623553 249.047792 
L 219.091192 251.441137 
L 219.247071 251.441137 
L 219.402951 251.842939 
L 219.55883 251.837116 
L 219.71471 252.215626 
L 219.870589 249.903806 
L 220.182348 249.903806 
L 220.338228 250.509421 
L 220.494107 249.426302 
L 220.649987 249.781518 
L 220.805866 249.536943 
L 221.117625 242.822766 
L 221.429385 244.208693 
L 221.585264 244.208693 
L 221.741144 242.764534 
L 221.897023 244.016527 
L 222.052903 247.440582 
L 222.208782 247.772506 
L 222.520541 249.403009 
L 222.676421 248.820686 
L 222.8323 249.082731 
L 222.98818 249.589352 
L 223.144059 249.263251 
L 223.299939 249.490357 
L 223.455818 249.385539 
L 223.611698 249.962038 
L 223.767577 249.956215 
L 223.923457 250.427896 
L 224.079337 250.305608 
L 224.235216 249.140964 
L 224.391096 249.123494 
L 224.546975 250.818052 
L 224.702855 249.880513 
L 224.858734 249.985331 
L 225.014614 249.635938 
L 225.170493 249.688347 
L 225.326373 249.909629 
L 225.482252 249.909629 
L 225.638132 249.286544 
L 225.794011 247.36488 
L 225.949891 247.18436 
L 226.26165 247.766683 
L 226.417529 250.433719 
L 226.573409 250.03774 
L 226.729289 248.61105 
L 226.885168 249.571882 
L 227.041048 249.041969 
L 227.196927 247.953026 
L 227.352807 248.226718 
L 227.508686 248.063667 
L 227.664566 248.081137 
L 227.820445 246.974724 
L 227.976325 247.830738 
L 228.132204 246.899023 
L 228.288084 247.149421 
L 228.443963 247.137775 
L 228.599843 246.240998 
L 228.755722 246.037185 
L 228.911602 244.645435 
L 229.067481 244.593026 
L 229.223361 244.849248 
L 229.379241 243.492437 
L 229.53512 243.719542 
L 229.691 245.012298 
L 229.846879 244.715314 
L 230.002759 245.204464 
L 230.314518 244.278572 
L 230.470397 244.412506 
L 230.626277 244.173754 
L 230.782156 244.173754 
L 230.938036 244.773546 
L 231.093915 244.424153 
L 231.249795 245.390808 
L 231.405674 245.623737 
L 231.561554 246.759265 
L 231.717433 246.066302 
L 231.873313 246.69521 
L 232.185072 246.741795 
L 232.340952 246.33417 
L 232.496831 244.855071 
L 232.652711 245.012298 
L 233.120349 241.122385 
L 233.276229 241.192263 
L 233.432108 241.38443 
L 233.587988 240.848693 
L 233.743867 240.84287 
L 233.899747 240.604118 
L 234.211506 238.129248 
L 234.367385 237.069421 
L 234.523265 236.801553 
L 234.835024 235.625262 
L 234.990904 236.696735 
L 235.146783 236.801553 
L 235.302663 235.578676 
L 235.458542 235.240929 
L 235.770301 233.191154 
L 235.926181 233.569664 
L 236.08206 234.850773 
L 236.23794 233.144568 
L 236.393819 233.144568 
L 236.549699 232.719473 
L 236.861458 228.736388 
L 237.017337 230.361068 
L 237.329096 227.874551 
L 237.640856 227.0593 
L 237.796735 226.814724 
L 237.952615 229.318711 
L 238.108494 229.208069 
L 238.264374 230.885158 
L 238.576133 229.138191 
L 238.732012 226.465331 
L 239.043771 228.526752 
L 239.199651 227.158295 
L 239.51141 228.066718 
L 239.667289 229.633165 
L 239.823169 228.328763 
L 239.979048 229.103251 
L 240.134928 228.241414 
L 240.290808 228.695626 
L 240.446687 225.254101 
L 240.602567 225.254101 
L 240.758446 222.004742 
L 240.914326 222.266787 
L 241.070205 223.413962 
L 241.226085 222.237671 
L 241.381964 222.214378 
L 241.537844 221.236076 
L 241.693723 219.104776 
L 241.849603 218.889317 
L 242.005482 218.417636 
L 242.161362 218.877671 
L 242.317241 217.782905 
L 242.473121 215.599196 
L 242.629 215.628312 
L 242.78488 220.758572 
L 242.940759 219.378468 
L 243.096639 214.288971 
L 243.408398 216.950184 
L 243.564278 222.581241 
L 243.876037 219.826856 
L 244.031916 222.528832 
L 244.187796 220.548936 
L 244.343675 220.677047 
L 244.499555 221.271016 
L 244.655434 225.708312 
L 244.811314 226.51774 
L 244.967193 224.893061 
L 245.434832 231.147203 
L 245.590711 228.229768 
L 245.746591 228.136596 
L 246.05835 222.144499 
L 246.21423 222.983043 
L 246.370109 220.51982 
L 246.525989 222.295903 
L 246.681868 225.457913 
L 246.993627 219.966614 
L 247.149507 218.668035 
L 247.305386 218.668035 
L 247.461266 215.360444 
L 247.617145 219.669629 
L 247.773025 220.688693 
L 247.928904 222.575418 
L 248.084784 219.698745 
L 248.240663 220.409179 
L 248.396543 219.61722 
L 248.552423 219.413407 
L 248.708302 218.475868 
L 248.864182 218.708797 
L 249.020061 217.247168 
L 249.175941 217.334516 
L 249.33182 217.602385 
L 249.799459 210.107896 
L 249.955338 210.346648 
L 250.111218 209.339231 
L 250.267097 209.939023 
L 250.578856 207.039057 
L 250.734736 207.347688 
L 250.890615 208.32599 
L 251.202375 201.530288 
L 251.358254 201.559404 
L 251.514134 202.182489 
L 251.670013 204.837879 
L 251.825893 201.91462 
L 251.981772 202.071847 
L 252.449411 198.275106 
L 252.60529 200.068659 
L 252.76117 197.774308 
L 252.917049 190.902905 
L 253.072929 191.036839 
L 253.228808 192.871154 
L 253.384688 191.753095 
L 253.540567 191.52599 
L 253.852326 188.695903 
L 254.008206 190.157532 
L 254.164086 189.907133 
L 254.319965 190.891258 
L 254.475845 187.62443 
L 254.631724 190.82138 
L 255.099363 209.770149 
L 255.255242 200.336527 
L 255.567001 203.632471 
L 255.722881 202.415418 
L 255.87876 203.836284 
L 256.03464 200.982905 
L 256.190519 201.21001 
L 256.346399 201.21001 
L 256.658158 198.834135 
L 256.814038 197.512263 
L 257.125797 191.991847 
L 257.437556 195.153858 
L 257.593435 194.600652 
L 258.061074 186.162801 
L 258.216953 186.21521 
L 258.372833 189.516977 
L 258.684592 187.601137 
L 258.840471 188.439681 
L 258.996351 191.927792 
L 259.15223 192.75469 
L 259.30811 192.673165 
L 259.619869 186.389906 
L 259.775749 183.54235 
L 260.087508 183.455002 
L 260.243387 183.676284 
L 260.399267 182.942558 
L 260.555146 183.961622 
L 260.711026 183.961622 
L 260.866905 185.848347 
L 261.022785 185.795938 
L 261.178664 194.460894 
L 261.334544 195.864291 
L 261.490423 199.585331 
L 261.646303 194.839404 
L 261.802182 195.643009 
L 261.958062 198.746787 
L 262.113942 195.200444 
L 262.425701 206.346094 
L 262.73746 205.344499 
L 262.893339 205.344499 
L 263.049219 208.675383 
L 263.205098 218.324464 
L 263.672737 223.600305 
L 264.140375 220.48488 
L 264.452134 222.645296 
L 264.608014 223.978815 
L 264.763893 228.264707 
L 264.919773 228.707272 
L 265.231532 223.926406 
L 265.387412 226.599265 
L 265.543291 223.955522 
L 266.166809 228.159889 
L 266.322689 227.20488 
L 266.634448 229.743806 
L 266.790327 229.580756 
L 266.946207 229.924326 
L 267.102086 227.705678 
L 267.257966 223.658537 
L 267.569725 228.421934 
L 267.725605 226.739023 
L 267.881484 226.814724 
L 268.037364 228.887792 
L 268.193243 228.119127 
L 268.349123 229.609872 
L 268.505002 225.149282 
L 268.660882 225.917948 
L 268.816761 224.805712 
L 268.972641 225.580201 
L 269.12852 225.510322 
L 269.2844 221.963979 
L 269.440279 223.798295 
L 269.596159 221.701934 
L 269.752038 221.701934 
L 269.907918 218.056596 
L 270.063797 217.212229 
L 270.219677 214.836354 
L 270.375557 217.637324 
L 270.531436 216.030114 
L 270.687316 215.744776 
L 270.843195 212.233373 
L 270.999075 213.42131 
L 271.310834 210.166128 
L 271.466713 208.529802 
L 271.778472 211.121137 
L 271.934352 209.310114 
L 272.090231 213.625123 
L 272.40199 212.903043 
L 272.55787 209.805088 
L 272.713749 209.345054 
L 273.025509 201.384707 
L 273.181388 206.019993 
L 273.337268 204.453546 
L 273.493147 200.930496 
L 273.649027 200.470461 
L 273.960786 197.372506 
L 274.116665 198.013061 
L 274.272545 194.49001 
L 274.428424 193.942627 
L 274.740183 190.611744 
L 274.896063 192.981795 
L 275.051942 191.543459 
L 275.207822 192.480998 
L 275.519581 188.69008 
L 275.67546 190.844672 
L 275.83134 188.824014 
L 275.98722 190.052714 
L 276.143099 192.39365 
L 276.298979 191.054308 
L 276.454858 195.544014 
L 276.610738 196.207861 
L 276.766617 193.808693 
L 276.922497 193.808693 
L 277.078376 190.745678 
L 277.234256 190.407931 
L 277.390135 190.594274 
L 277.546015 189.39469 
L 277.701894 190.937844 
L 278.013653 191.467757 
L 278.169533 188.998711 
L 278.481292 193.552471 
L 278.637172 191.205712 
L 279.10481 198.93313 
L 279.416569 193.657289 
L 279.572449 195.217913 
L 279.728328 193.96592 
L 280.040087 198.473095 
L 280.195967 198.420686 
L 280.351846 196.009872 
L 280.507726 201.326475 
L 280.663605 200.260825 
L 280.819485 201.803979 
L 280.975364 197.587965 
L 281.131244 201.373061 
L 281.287124 200.243355 
L 281.443003 200.243355 
L 281.754762 194.752055 
L 281.910642 197.838364 
L 282.066521 196.452437 
L 282.222401 198.810842 
L 282.37828 198.053823 
L 282.53416 200.52287 
L 282.690039 198.676908 
L 282.845919 199.259231 
L 283.001798 203.137497 
L 283.157678 202.47365 
L 283.313557 204.960166 
L 283.469437 202.49112 
L 283.625316 206.70131 
L 283.781196 204.901934 
L 283.937076 209.397463 
L 284.248835 206.206336 
L 284.404714 206.747896 
L 284.716473 210.07878 
L 285.028232 203.696527 
L 285.184112 204.057567 
L 285.495871 198.240166 
L 285.80763 194.897636 
L 285.963509 194.88599 
L 286.119389 196.970704 
L 286.275268 197.174516 
L 286.431148 198.257636 
L 286.587027 196.912471 
L 286.742907 197.815071 
L 286.898787 196.359265 
L 287.054666 198.828312 
L 287.366425 197.593789 
L 287.522305 198.135348 
L 287.678184 200.586925 
L 287.834064 200.586925 
L 287.989943 202.531882 
L 288.145823 202.083494 
L 288.301702 205.426024 
L 288.457582 206.03164 
L 288.613461 207.347688 
L 288.769341 210.98138 
L 288.92522 211.022142 
L 289.0811 210.416527 
L 289.236979 212.576943 
L 289.392859 217.573269 
L 289.548739 217.852783 
L 289.704618 224.869768 
L 290.016377 217.252991 
L 290.328136 225.446267 
L 290.484016 224.357324 
L 290.639895 222.482246 
L 290.795775 224.631016 
L 290.951654 238.012783 
L 291.107534 233.121276 
L 291.263413 235.765019 
L 291.575172 242.782003 
L 291.731052 242.158919 
L 291.886931 247.388173 
L 292.042811 247.02131 
L 292.198691 247.632749 
L 292.51045 235.101172 
L 292.822209 242.26956 
L 292.978088 239.97521 
L 293.133968 242.589837 
L 293.289847 241.984222 
L 293.445727 246.031362 
L 293.601606 242.898468 
L 293.757486 242.10651 
L 293.913365 243.183806 
L 294.069245 245.681969 
L 294.536883 234.64696 
L 294.692763 236.655972 
L 294.848643 237.022835 
L 295.004522 234.676076 
L 295.316281 241.599889 
L 295.472161 242.100686 
L 295.939799 246.829144 
L 296.095679 243.148867 
L 296.407438 247.982142 
L 296.563317 246.951432 
L 296.875076 252.436908 
L 297.030956 251.219854 
L 297.186835 245.181172 
L 297.342715 246.433165 
L 297.498595 243.987411 
L 297.654474 243.987411 
L 297.966233 247.522107 
L 298.277992 243.463321 
L 298.433872 246.077948 
L 298.589751 244.569733 
L 298.745631 241.238849 
L 298.90151 241.04086 
L 299.05739 242.118156 
L 299.213269 243.987411 
L 299.369149 242.083217 
L 299.525028 244.132991 
L 299.680908 243.737012 
L 299.836787 247.388173 
L 299.992667 247.230946 
L 300.148546 246.899023 
L 300.304426 249.379716 
L 300.460306 249.007029 
L 300.616185 249.787341 
L 300.772065 249.787341 
L 301.083824 248.873095 
L 301.239703 249.059438 
L 301.395583 249.606821 
L 301.551462 249.606821 
L 301.863221 244.231986 
L 302.17498 246.310877 
L 302.33086 245.326752 
L 303.110258 250.753997 
L 303.266137 251.365435 
L 303.422017 251.365435 
L 303.577896 253.770426 
L 303.889655 247.854031 
L 304.045535 247.854031 
L 304.357294 246.473927 
L 304.513173 244.453269 
L 304.669053 245.152055 
L 304.824932 246.823321 
L 305.44845 243.13722 
L 305.76021 239.61417 
L 305.916089 242.339438 
L 306.071969 242.927584 
L 306.227848 241.500894 
L 306.539607 241.56495 
L 306.695487 244.261102 
L 306.851366 244.354274 
L 307.007246 246.526336 
L 307.163125 246.200236 
L 307.319005 248.675106 
L 307.474884 246.753442 
L 307.630764 246.223529 
L 307.786643 247.370704 
L 307.942523 247.300825 
L 308.098402 248.098607 
L 308.254282 247.848208 
L 308.410162 246.217705 
L 308.8778 250.911224 
L 309.345439 243.201276 
L 309.657198 243.742835 
L 309.968957 240.190669 
L 310.280716 240.149906 
L 310.436595 236.61521 
L 310.592475 237.290704 
L 310.748354 237.296527 
L 310.904234 235.328277 
L 311.215993 238.461172 
L 311.371873 238.094308 
L 311.995391 230.331951 
L 312.15127 232.340964 
L 312.30715 231.572298 
L 312.463029 229.67975 
L 312.618909 229.67975 
L 312.774788 229.301241 
L 313.086547 230.803633 
L 313.398306 227.437809 
L 313.554186 229.138191 
L 313.710065 228.404464 
L 313.865945 228.550045 
L 314.021825 226.284811 
L 314.177704 227.158295 
L 314.333584 226.674967 
L 314.489463 227.158295 
L 314.957102 225.213338 
L 315.112981 222.400721 
L 315.268861 222.028035 
L 315.42474 222.150322 
L 315.58062 224.153511 
L 315.736499 224.077809 
L 315.892379 223.856527 
L 316.204138 229.726336 
L 316.360017 227.711501 
L 316.515897 228.020132 
L 316.671777 225.556908 
L 316.827656 225.09105 
L 317.295295 227.973546 
L 317.451174 227.973546 
L 317.607054 223.151917 
L 317.918813 220.653754 
L 318.074692 220.222835 
L 318.230572 218.161414 
L 318.386451 218.079889 
L 318.542331 217.229698 
L 318.85409 215.063459 
L 319.165849 216.198988 
L 319.321729 217.637324 
L 319.477608 217.812021 
L 319.789367 220.059785 
L 319.945247 219.908381 
L 320.101126 220.356769 
L 320.257006 220.182073 
L 320.412885 218.085712 
L 320.724644 221.271016 
L 321.036403 217.86443 
L 321.192283 216.362038 
L 321.348162 216.63573 
L 321.659921 216.134932 
L 321.815801 217.771258 
L 321.97168 217.771258 
L 322.12756 218.592333 
L 322.28344 220.461588 
L 322.439319 219.401761 
L 322.595199 219.902558 
L 322.751078 218.644742 
L 322.906958 216.42027 
L 323.062837 216.461033 
L 323.218717 213.776527 
L 323.374596 213.403841 
L 323.530476 210.940617 
L 323.686355 210.265123 
L 323.842235 211.080374 
L 323.998114 208.034828 
L 324.153994 207.40592 
L 324.309873 206.142281 
L 324.465753 206.078225 
L 324.777512 206.118988 
L 324.933392 204.511778 
L 325.089271 204.162385 
L 325.245151 202.392125 
L 325.712789 203.859577 
L 325.868669 202.927861 
L 326.024548 203.387896 
L 326.180428 204.488485 
L 326.492187 201.233303 
L 326.648066 202.188312 
L 326.803946 206.37521 
L 326.959825 203.807168 
L 327.115705 203.457775 
L 327.427464 200.767445 
L 327.583344 200.860617 
L 327.739223 200.662627 
L 327.895103 201.821449 
L 328.206862 200.284118 
L 328.6745 203.120028 
L 328.83038 202.322246 
L 328.986259 200.132714 
L 329.142139 200.132714 
L 329.298018 198.607029 
L 329.453898 199.649386 
L 329.609777 198.822489 
L 329.765657 199.055418 
L 330.077416 197.308451 
L 330.389175 191.840444 
L 330.545055 191.566752 
L 330.700934 192.149075 
L 330.856814 191.881206 
L 331.012693 191.287237 
L 331.324452 193.109906 
L 331.480332 190.908728 
L 331.636211 191.357116 
L 331.792091 191.374586 
L 331.94797 193.989213 
L 332.10385 191.636631 
L 332.259729 190.98443 
L 332.415609 188.660964 
L 332.571488 188.521206 
L 332.727368 189.091882 
L 333.039127 188.195106 
L 333.195007 188.65514 
L 333.350886 187.915591 
L 333.506766 188.340686 
L 333.662645 189.802315 
L 333.818525 188.748312 
L 334.130284 179.978537 
L 334.286163 179.815487 
L 334.597922 181.399404 
L 334.909681 187.269213 
L 335.065561 184.96904 
L 335.22144 189.54027 
L 335.37732 189.068589 
L 335.533199 189.39469 
L 336.000838 186.139508 
L 336.156718 181.993373 
L 336.312597 181.108243 
L 336.468477 180.951016 
L 336.624356 181.684742 
L 336.936115 178.982766 
L 337.091995 178.767307 
L 337.247874 179.372922 
L 337.403754 182.546579 
L 337.559633 182.890149 
L 337.715513 179.419508 
L 337.871392 180.258052 
L 338.183151 180.403633 
L 338.339031 182.499993 
L 338.494911 182.895972 
L 338.65079 184.608 
L 338.80667 185.038919 
L 338.962549 184.893338 
L 339.274308 189.278225 
L 339.430188 188.742489 
L 339.586067 184.124672 
L 339.897826 185.947341 
L 340.053706 184.602177 
L 340.209585 186.238503 
L 340.365465 185.737705 
L 340.521344 187.583667 
L 340.988983 182.633927 
L 341.144863 181.620686 
L 341.300742 177.579369 
L 341.456622 177.579369 
L 341.612501 176.082801 
L 341.768381 177.54443 
L 341.92426 176.065331 
L 342.08014 176.595244 
L 342.236019 176.595244 
L 342.391899 174.685227 
L 342.547778 174.469768 
L 342.703658 176.455487 
L 342.859537 176.682593 
L 343.015417 175.867341 
L 343.327176 178.348035 
L 343.483055 176.64183 
L 343.638935 177.352263 
L 343.794814 179.390392 
L 343.950694 179.390392 
L 344.106574 174.085435 
L 344.418333 178.144222 
L 344.574212 184.153789 
L 344.885971 179.384568 
L 345.041851 178.254863 
L 345.35361 187.467203 
L 345.821248 183.291951 
L 345.977128 187.473026 
L 346.133007 185.487307 
L 346.288887 186.267619 
L 346.444766 185.062211 
L 346.600646 185.685296 
L 346.912405 182.622281 
L 347.068285 182.622281 
L 347.224164 180.863667 
L 347.380044 181.358641 
L 347.535923 181.137359 
L 347.847682 182.598988 
L 348.003562 184.555591 
L 348.315321 181.678919 
L 348.62708 177.608485 
L 348.782959 177.69001 
L 348.938839 177.410496 
L 349.094718 176.606891 
L 349.250598 171.808555 
L 349.406478 171.732853 
L 349.718237 168.378676 
L 350.029996 167.353789 
L 350.185875 168.960998 
L 350.341755 168.605782 
L 350.497634 168.797948 
L 350.653514 168.489317 
L 350.809393 169.886891 
L 351.277032 165.740756 
L 351.432911 167.324672 
L 351.74467 163.982142 
L 351.90055 161.967307 
L 352.05643 162.462281 
L 352.212309 161.897428 
L 352.368189 161.897428 
L 352.679948 159.818537 
L 352.835827 159.201276 
L 352.991707 159.579785 
L 353.147586 158.508312 
L 353.459345 158.135626 
L 353.771104 154.356354 
L 353.926984 155.241484 
L 354.082863 155.43365 
L 354.238743 156.877809 
L 354.550502 144.136596 
L 354.706381 141.597671 
L 354.862261 142.372159 
L 355.018141 146.716284 
L 355.17402 146.972506 
L 355.3299 142.872957 
L 355.485779 147.26949 
L 355.641659 144.206475 
L 356.265177 161.961484 
L 356.421056 151.403979 
L 356.576936 149.930704 
L 356.732815 146.687168 
L 357.044574 151.502974 
L 357.200454 151.270045 
L 357.356333 152.353165 
L 357.512213 154.694101 
L 357.668093 160.855071 
L 357.979852 155.61417 
L 358.291611 157.157324 
L 358.60337 149.721068 
L 358.759249 149.721068 
L 359.071008 145.604049 
L 359.226888 146.087376 
L 359.538647 153.180062 
L 359.694526 154.117601 
L 359.850406 157.687237 
L 360.162165 151.683494 
L 360.318045 151.235106 
L 360.941563 139.710946 
L 361.097442 141.982003 
L 361.253322 139.839057 
L 361.72096 144.002662 
L 361.87684 143.070946 
L 362.188599 152.836492 
L 362.500358 155.509352 
L 362.656237 155.509352 
L 362.812117 154.525227 
L 362.967997 148.678711 
L 363.123876 149.016458 
L 363.279756 148.125504 
L 363.435635 149.482315 
L 363.591515 152.679265 
L 363.747394 152.137705 
L 364.059153 153.785678 
L 364.215033 156.30131 
L 364.526792 151.258399 
L 364.682671 148.474898 
L 364.838551 147.939161 
L 364.99443 148.323494 
L 365.15031 145.528347 
L 365.462069 149.004811 
L 365.617948 149.505608 
L 365.773828 146.826925 
L 365.929708 146.78034 
L 366.085587 146.168901 
L 366.397346 147.851813 
L 366.553226 146.885158 
L 366.709105 148.247792 
L 366.864985 153.616804 
L 367.020864 152.685088 
L 367.332623 155.101726 
L 367.488503 152.58027 
L 367.644382 151.939716 
L 367.800262 153.797324 
L 367.956141 153.937081 
L 368.2679 159.591432 
L 368.42378 157.867757 
L 368.57966 159.387619 
L 368.891419 158.094863 
L 369.047298 157.74547 
L 369.203178 153.535279 
L 369.359057 152.463806 
L 369.514937 148.620478 
L 369.670816 148.620478 
L 369.826696 149.179508 
L 369.982575 146.203841 
L 370.294334 145.918503 
L 370.450214 143.804672 
L 370.606093 143.210704 
L 370.761973 141.952887 
L 370.917852 138.25514 
L 371.073732 138.953927 
L 371.229612 134.376873 
L 371.385491 134.062419 
L 371.69725 131.063459 
L 371.85313 129.083563 
L 372.009009 129.759057 
L 372.164889 132.263043 
L 372.320768 131.966059 
L 372.788407 137.049733 
L 372.944286 131.051813 
L 373.256045 130.888763 
L 373.411925 128.064499 
L 373.567804 127.313303 
L 373.879564 124.529802 
L 374.035443 123.266163 
L 374.191323 116.027896 
L 374.347202 114.129525 
L 374.503082 119.085088 
L 374.658961 118.479473 
L 374.814841 119.067619 
L 374.97072 120.26138 
L 375.1266 119.463598 
L 375.438359 120.051744 
L 375.750118 124.040652 
L 376.217756 117.157601 
L 376.373636 113.972298 
L 376.529515 114.636146 
L 376.685395 113.768485 
L 376.841275 115.247584 
L 376.997154 114.112055 
L 377.153034 114.91566 
L 377.308913 119.935279 
L 377.464793 120.511778 
L 377.620672 123.685435 
L 377.776552 124.320166 
L 377.932431 119.70235 
L 378.088311 120.692298 
L 378.24419 116.831501 
L 378.40007 119.527653 
L 378.555949 115.992957 
L 378.711829 115.992957 
L 378.867708 115.876492 
L 379.023588 114.787549 
L 379.179467 118.118433 
L 379.491227 114.042177 
L 379.647106 114.455626 
L 379.802986 112.877532 
L 379.958865 114.007237 
L 380.114745 112.376735 
L 380.270624 113.104638 
L 380.582383 111.992402 
L 380.738263 112.796007 
L 380.894142 112.755244 
L 381.050022 112.236977 
L 381.205901 112.609664 
L 381.67354 109.960097 
L 381.829419 110.86852 
L 381.985299 110.86852 
L 382.297058 109.779577 
L 382.452938 109.884395 
L 382.764697 111.474135 
L 382.920576 107.392055 
L 383.544094 103.577844 
L 383.699974 99.891744 
L 383.855853 100.363425 
L 384.323492 96.38034 
L 384.479371 96.38034 
L 384.635251 100.939924 
L 384.791131 101.993927 
L 385.10289 109.051674 
L 385.414649 100.503182 
L 385.570528 99.076492 
L 385.726408 99.449179 
L 385.882287 103.58949 
L 386.038167 101.714412 
L 386.194046 98.389352 
L 386.505805 99.315244 
L 386.661685 97.533338 
L 386.973444 92.467133 
L 387.129323 90.743459 
L 387.285203 92.851466 
L 387.908721 87.849317 
L 388.37636 95.169109 
L 388.532239 102.127861 
L 388.688119 99.792749 
L 388.843998 99.641345 
L 389.155757 93.625955 
L 389.311637 95.897012 
L 389.467516 94.260686 
L 389.623396 89.928208 
L 389.779275 89.671986 
L 389.935155 92.373962 
L 390.091034 92.141033 
L 390.246914 94.056873 
L 390.402794 97.434343 
L 390.714553 93.422142 
L 390.870432 98.156423 
L 391.026312 107.135834 
L 391.182191 104.439681 
L 391.338071 106.751501 
L 391.49395 101.726059 
L 391.64983 100.619646 
L 391.805709 101.790114 
L 392.117468 94.598433 
L 392.273348 95.238988 
L 392.429227 94.93618 
L 392.585107 96.292991 
L 392.740986 96.36287 
L 393.208625 101.964811 
L 393.364505 102.459785 
L 393.520384 102.436492 
L 393.832143 106.675799 
L 393.988023 105.744083 
L 394.143902 103.572021 
L 394.455661 108.620756 
L 394.9233 99.915036 
L 395.079179 95.087584 
L 395.235059 95.087584 
L 395.390938 93.742419 
L 395.546818 95.250634 
L 395.702698 95.407861 
L 395.858577 97.387757 
L 396.014457 95.419508 
L 396.170336 97.661449 
L 396.482095 95.745608 
L 396.637975 97.387757 
L 396.793854 97.440166 
L 396.949734 96.892783 
L 397.105613 95.815487 
L 397.417372 97.492575 
L 397.729131 105.219993 
L 398.19677 101.009802 
L 398.352649 104.101934 
L 398.508529 104.579438 
L 398.664409 105.866371 
L 398.820288 103.193511 
L 398.976168 104.230045 
L 399.132047 102.826648 
L 399.287927 102.826648 
L 399.443806 96.758849 
L 399.599686 98.109837 
L 399.755565 97.766267 
L 399.911445 99.315244 
L 400.223204 105.953719 
L 400.379083 105.837255 
L 400.534963 106.273997 
L 400.690842 109.529179 
L 400.846722 109.121553 
L 401.002601 105.72079 
L 401.158481 109.034205 
L 401.314361 109.960097 
L 401.62612 115.690149 
L 401.781999 109.878572 
L 401.937879 111.445019 
L 402.093758 106.4254 
L 402.249638 109.267133 
L 402.561397 104.078641 
L 402.717276 104.789075 
L 402.873156 103.839889 
L 403.029035 99.420062 
L 403.184915 99.420062 
L 403.496674 94.470322 
L 403.808433 89.84086 
L 403.964313 93.16592 
L 404.120192 93.311501 
L 404.276072 90.824984 
L 404.431951 90.970565 
L 405.055469 74.007515 
L 405.211349 73.780409 
L 405.678987 64.393373 
L 405.834867 70.694101 
L 406.146626 71.922801 
L 406.302505 68.27164 
L 406.458385 72.837047 
L 406.614265 70.705747 
L 406.770144 79.557047 
L 406.926024 81.740756 
L 407.081903 93.625955 
L 407.237783 81.51365 
L 407.393662 87.523217 
L 407.705421 79.778329 
L 407.861301 76.03982 
L 408.01718 77.746024 
L 408.17306 77.769317 
L 408.484819 91.983806 
L 408.640698 91.745054 
L 408.796578 81.752402 
L 408.952457 80.25001 
L 409.108337 81.682523 
L 409.420096 72.219785 
L 409.575976 72.208139 
L 410.043614 81.490357 
L 410.199494 81.490357 
L 410.511253 75.737012 
L 410.667132 75.614724 
L 410.823012 79.492991 
L 410.978891 78.060478 
L 411.602409 66.087931 
L 411.758289 59.606683 
L 411.914168 58.546856 
L 412.070048 59.309698 
L 412.225928 65.319265 
L 412.381807 63.875106 
L 412.537687 64.53313 
L 413.005325 71.870392 
L 413.317084 81.17008 
L 413.472964 82.392957 
L 413.628843 79.044603 
L 413.784723 79.557047 
L 413.940602 83.965227 
L 414.252361 66.210218 
L 414.408241 65.103806 
L 414.56412 61.470114 
L 414.72 53.568 
L 414.72 53.568 
" clip-path="url(#p79f6dc019b)" style="fill: none; stroke: #1f77b4; stroke-width: 1.5; stroke-linecap: square"/>
   </g>
   <g id="line2d_44">
    <path d="M 96.414003 293.937043 
L 102.649184 293.582665 
L 109.040244 293.048512 
L 112.625474 292.777313 
L 120.57533 292.130981 
L 130.39574 291.167797 
L 133.045692 290.576227 
L 135.695644 289.782965 
L 143.957259 286.843425 
L 147.698368 285.211431 
L 151.283597 283.777847 
L 157.051139 281.836384 
L 160.948127 280.518472 
L 167.806827 277.563116 
L 170.300899 276.419505 
L 172.327333 275.582079 
L 175.912562 273.858312 
L 180.277189 271.235578 
L 182.459502 269.89633 
L 183.862418 269.325607 
L 185.577093 268.630687 
L 186.980009 268.099516 
L 190.097599 267.030628 
L 193.682828 265.31527 
L 195.553383 264.576047 
L 197.268058 263.974158 
L 200.697407 263.060261 
L 202.256203 262.761996 
L 213.16777 259.530596 
L 218.000035 258.395021 
L 219.247071 258.189042 
L 220.961746 258.108215 
L 223.299939 257.415927 
L 227.196927 256.349322 
L 233.899747 253.65126 
L 235.614422 252.483168 
L 237.484976 250.843301 
L 241.226085 247.090211 
L 243.252519 244.874078 
L 244.343675 243.758907 
L 245.434832 242.822463 
L 247.149507 241.314435 
L 250.422977 238.008497 
L 252.917049 234.730838 
L 254.943483 231.761506 
L 256.03464 230.562388 
L 257.281676 228.938407 
L 258.372833 227.247763 
L 261.022785 223.118026 
L 262.893339 220.741801 
L 263.516857 220.22803 
L 266.01093 218.658718 
L 270.375557 216.35724 
L 273.181388 214.005915 
L 274.272545 212.966633 
L 276.922497 210.318743 
L 279.26069 208.15467 
L 280.351846 207.396044 
L 288.613461 203.248069 
L 289.548739 203.349602 
L 290.951654 204.094439 
L 291.575172 204.714729 
L 292.51045 205.940238 
L 294.536883 208.318862 
L 295.62804 209.385979 
L 296.719197 210.852966 
L 298.122113 212.941337 
L 299.213269 214.53704 
L 301.239703 217.412967 
L 302.17498 218.339791 
L 305.136691 220.128289 
L 306.383728 220.585482 
L 307.319005 220.997441 
L 308.8778 221.972435 
L 310.904234 223.428962 
L 312.463029 224.476048 
L 313.710065 225.548523 
L 317.762933 229.097358 
L 320.101126 230.30959 
L 322.751078 231.541272 
L 326.492187 232.12222 
L 327.583344 232.103469 
L 328.6745 231.726008 
L 329.765657 231.08734 
L 330.700934 230.013561 
L 332.571488 227.539343 
L 335.37732 223.543237 
L 336.624356 221.529357 
L 340.209585 215.754536 
L 342.236019 212.250935 
L 343.794814 209.390615 
L 345.509489 206.659476 
L 347.535923 203.392834 
L 351.432911 196.835372 
L 353.926984 192.473405 
L 354.862261 190.673842 
L 357.044574 186.415575 
L 363.591515 175.34812 
L 367.800262 169.681774 
L 369.047298 168.359972 
L 370.450214 166.784184 
L 371.541371 165.288314 
L 376.061877 158.374308 
L 378.40007 154.450434 
L 384.167612 144.172677 
L 385.726408 140.799237 
L 387.285203 137.391393 
L 388.532239 134.751051 
L 390.091034 131.793738 
L 391.182191 129.956767 
L 392.585107 127.790179 
L 393.520384 126.542611 
L 394.9233 125.071269 
L 397.417372 121.370401 
L 400.067324 118.209019 
L 401.314361 116.98004 
L 403.184915 114.797589 
L 405.055469 111.926553 
L 406.146626 109.682609 
L 407.081903 107.855444 
L 408.640698 104.965076 
L 410.511253 101.924305 
L 411.758289 99.993254 
L 412.849446 98.186447 
L 413.472964 97.547174 
L 414.408241 96.465289 
L 414.72 95.943039 
L 414.72 95.943039 
" clip-path="url(#p79f6dc019b)" style="fill: none; stroke: #ff7f0e; stroke-width: 1.5; stroke-linecap: square"/>
   </g>
   <g id="patch_3">
    <path d="M 57.6 307.584 
L 57.6 41.472 
" style="fill: none; stroke: #000000; stroke-width: 0.8; stroke-linejoin: miter; stroke-linecap: square"/>
   </g>
   <g id="patch_4">
    <path d="M 414.72 307.584 
L 414.72 41.472 
" style="fill: none; stroke: #000000; stroke-width: 0.8; stroke-linejoin: miter; stroke-linecap: square"/>
   </g>
   <g id="patch_5">
    <path d="M 57.6 307.584 
L 414.72 307.584 
" style="fill: none; stroke: #000000; stroke-width: 0.8; stroke-linejoin: miter; stroke-linecap: square"/>
   </g>
   <g id="patch_6">
    <path d="M 57.6 41.472 
L 414.72 41.472 
" style="fill: none; stroke: #000000; stroke-width: 0.8; stroke-linejoin: miter; stroke-linecap: square"/>
   </g>
  </g>
 </g>
 <defs>
  <clipPath id="p79f6dc019b">
   <rect x="57.6" y="41.472" width="357.12" height="266.112"/>
  </clipPath>
 </defs>
</svg>
