<?xml version="1.0" encoding="utf-8" standalone="no"?>
<!DOCTYPE svg PUBLIC "-//W3C//DTD SVG 1.1//EN"
  "http://www.w3.org/Graphics/SVG/1.1/DTD/svg11.dtd">
<svg xmlns:xlink="http://www.w3.org/1999/xlink" width="460.8pt" height="345.6pt" viewBox="0 0 460.8 345.6" xmlns="http://www.w3.org/2000/svg" version="1.1">
 <metadata>
  <rdf:RDF xmlns:dc="http://purl.org/dc/elements/1.1/" xmlns:cc="http://creativecommons.org/ns#" xmlns:rdf="http://www.w3.org/1999/02/22-rdf-syntax-ns#">
   <cc:Work>
    <dc:type rdf:resource="http://purl.org/dc/dcmitype/StillImage"/>
    <dc:date>2025-05-25T22:02:21.550194</dc:date>
    <dc:format>image/svg+xml</dc:format>
    <dc:creator>
     <cc:Agent>
      <dc:title>Matplotlib v3.10.1, https://matplotlib.org/</dc:title>
     </cc:Agent>
    </dc:creator>
   </cc:Work>
  </rdf:RDF>
 </metadata>
 <defs>
  <style type="text/css">*{stroke-linejoin: round; stroke-linecap: butt}</style>
 </defs>
 <g id="figure_1">
  <g id="patch_1">
   <path d="M 0 345.6 
L 460.8 345.6 
L 460.8 0 
L 0 0 
z
" style="fill: #ffffff"/>
  </g>
  <g id="axes_1">
   <g id="patch_2">
    <path d="M 57.6 307.584 
L 414.72 307.584 
L 414.72 41.472 
L 57.6 41.472 
z
" style="fill: #ffffff"/>
   </g>
   <g id="matplotlib.axis_1">
    <g id="xtick_1">
     <g id="line2d_1">
      <defs>
       <path id="m305e413105" d="M 0 0 
L 0 3.5 
" style="stroke: #000000; stroke-width: 0.8"/>
      </defs>
      <g>
       <use xlink:href="#m305e413105" x="57.6" y="307.584" style="stroke: #000000; stroke-width: 0.8"/>
      </g>
     </g>
    </g>
    <g id="xtick_2">
     <g id="line2d_2">
      <g>
       <use xlink:href="#m305e413105" x="98.128677" y="307.584" style="stroke: #000000; stroke-width: 0.8"/>
      </g>
     </g>
     <g id="text_1">
      <!-- 2004 -->
      <g transform="translate(85.403677 322.182437) scale(0.1 -0.1)">
       <defs>
        <path id="DejaVuSans-32" d="M 1228 531 
L 3431 531 
L 3431 0 
L 469 0 
L 469 531 
Q 828 903 1448 1529 
Q 2069 2156 2228 2338 
Q 2531 2678 2651 2914 
Q 2772 3150 2772 3378 
Q 2772 3750 2511 3984 
Q 2250 4219 1831 4219 
Q 1534 4219 1204 4116 
Q 875 4013 500 3803 
L 500 4441 
Q 881 4594 1212 4672 
Q 1544 4750 1819 4750 
Q 2544 4750 2975 4387 
Q 3406 4025 3406 3419 
Q 3406 3131 3298 2873 
Q 3191 2616 2906 2266 
Q 2828 2175 2409 1742 
Q 1991 1309 1228 531 
z
" transform="scale(0.015625)"/>
        <path id="DejaVuSans-30" d="M 2034 4250 
Q 1547 4250 1301 3770 
Q 1056 3291 1056 2328 
Q 1056 1369 1301 889 
Q 1547 409 2034 409 
Q 2525 409 2770 889 
Q 3016 1369 3016 2328 
Q 3016 3291 2770 3770 
Q 2525 4250 2034 4250 
z
M 2034 4750 
Q 2819 4750 3233 4129 
Q 3647 3509 3647 2328 
Q 3647 1150 3233 529 
Q 2819 -91 2034 -91 
Q 1250 -91 836 529 
Q 422 1150 422 2328 
Q 422 3509 836 4129 
Q 1250 4750 2034 4750 
z
" transform="scale(0.015625)"/>
        <path id="DejaVuSans-34" d="M 2419 4116 
L 825 1625 
L 2419 1625 
L 2419 4116 
z
M 2253 4666 
L 3047 4666 
L 3047 1625 
L 3713 1625 
L 3713 1100 
L 3047 1100 
L 3047 0 
L 2419 0 
L 2419 1100 
L 313 1100 
L 313 1709 
L 2253 4666 
z
" transform="scale(0.015625)"/>
       </defs>
       <use xlink:href="#DejaVuSans-32"/>
       <use xlink:href="#DejaVuSans-30" transform="translate(63.623047 0)"/>
       <use xlink:href="#DejaVuSans-30" transform="translate(127.246094 0)"/>
       <use xlink:href="#DejaVuSans-34" transform="translate(190.869141 0)"/>
      </g>
     </g>
    </g>
    <g id="xtick_3">
     <g id="line2d_3">
      <g>
       <use xlink:href="#m305e413105" x="138.969114" y="307.584" style="stroke: #000000; stroke-width: 0.8"/>
      </g>
     </g>
     <g id="text_2">
      <!-- 2005 -->
      <g transform="translate(126.244114 322.182437) scale(0.1 -0.1)">
       <defs>
        <path id="DejaVuSans-35" d="M 691 4666 
L 3169 4666 
L 3169 4134 
L 1269 4134 
L 1269 2991 
Q 1406 3038 1543 3061 
Q 1681 3084 1819 3084 
Q 2600 3084 3056 2656 
Q 3513 2228 3513 1497 
Q 3513 744 3044 326 
Q 2575 -91 1722 -91 
Q 1428 -91 1123 -41 
Q 819 9 494 109 
L 494 744 
Q 775 591 1075 516 
Q 1375 441 1709 441 
Q 2250 441 2565 725 
Q 2881 1009 2881 1497 
Q 2881 1984 2565 2268 
Q 2250 2553 1709 2553 
Q 1456 2553 1204 2497 
Q 953 2441 691 2322 
L 691 4666 
z
" transform="scale(0.015625)"/>
       </defs>
       <use xlink:href="#DejaVuSans-32"/>
       <use xlink:href="#DejaVuSans-30" transform="translate(63.623047 0)"/>
       <use xlink:href="#DejaVuSans-30" transform="translate(127.246094 0)"/>
       <use xlink:href="#DejaVuSans-35" transform="translate(190.869141 0)"/>
      </g>
     </g>
    </g>
    <g id="xtick_4">
     <g id="line2d_4">
      <g>
       <use xlink:href="#m305e413105" x="179.497791" y="307.584" style="stroke: #000000; stroke-width: 0.8"/>
      </g>
     </g>
     <g id="text_3">
      <!-- 2006 -->
      <g transform="translate(166.772791 322.182437) scale(0.1 -0.1)">
       <defs>
        <path id="DejaVuSans-36" d="M 2113 2584 
Q 1688 2584 1439 2293 
Q 1191 2003 1191 1497 
Q 1191 994 1439 701 
Q 1688 409 2113 409 
Q 2538 409 2786 701 
Q 3034 994 3034 1497 
Q 3034 2003 2786 2293 
Q 2538 2584 2113 2584 
z
M 3366 4563 
L 3366 3988 
Q 3128 4100 2886 4159 
Q 2644 4219 2406 4219 
Q 1781 4219 1451 3797 
Q 1122 3375 1075 2522 
Q 1259 2794 1537 2939 
Q 1816 3084 2150 3084 
Q 2853 3084 3261 2657 
Q 3669 2231 3669 1497 
Q 3669 778 3244 343 
Q 2819 -91 2113 -91 
Q 1303 -91 875 529 
Q 447 1150 447 2328 
Q 447 3434 972 4092 
Q 1497 4750 2381 4750 
Q 2619 4750 2861 4703 
Q 3103 4656 3366 4563 
z
" transform="scale(0.015625)"/>
       </defs>
       <use xlink:href="#DejaVuSans-32"/>
       <use xlink:href="#DejaVuSans-30" transform="translate(63.623047 0)"/>
       <use xlink:href="#DejaVuSans-30" transform="translate(127.246094 0)"/>
       <use xlink:href="#DejaVuSans-36" transform="translate(190.869141 0)"/>
      </g>
     </g>
    </g>
    <g id="xtick_5">
     <g id="line2d_5">
      <g>
       <use xlink:href="#m305e413105" x="220.026469" y="307.584" style="stroke: #000000; stroke-width: 0.8"/>
      </g>
     </g>
     <g id="text_4">
      <!-- 2007 -->
      <g transform="translate(207.301469 322.182437) scale(0.1 -0.1)">
       <defs>
        <path id="DejaVuSans-37" d="M 525 4666 
L 3525 4666 
L 3525 4397 
L 1831 0 
L 1172 0 
L 2766 4134 
L 525 4134 
L 525 4666 
z
" transform="scale(0.015625)"/>
       </defs>
       <use xlink:href="#DejaVuSans-32"/>
       <use xlink:href="#DejaVuSans-30" transform="translate(63.623047 0)"/>
       <use xlink:href="#DejaVuSans-30" transform="translate(127.246094 0)"/>
       <use xlink:href="#DejaVuSans-37" transform="translate(190.869141 0)"/>
      </g>
     </g>
    </g>
    <g id="xtick_6">
     <g id="line2d_6">
      <g>
       <use xlink:href="#m305e413105" x="260.711026" y="307.584" style="stroke: #000000; stroke-width: 0.8"/>
      </g>
     </g>
     <g id="text_5">
      <!-- 2008 -->
      <g transform="translate(247.986026 322.182437) scale(0.1 -0.1)">
       <defs>
        <path id="DejaVuSans-38" d="M 2034 2216 
Q 1584 2216 1326 1975 
Q 1069 1734 1069 1313 
Q 1069 891 1326 650 
Q 1584 409 2034 409 
Q 2484 409 2743 651 
Q 3003 894 3003 1313 
Q 3003 1734 2745 1975 
Q 2488 2216 2034 2216 
z
M 1403 2484 
Q 997 2584 770 2862 
Q 544 3141 544 3541 
Q 544 4100 942 4425 
Q 1341 4750 2034 4750 
Q 2731 4750 3128 4425 
Q 3525 4100 3525 3541 
Q 3525 3141 3298 2862 
Q 3072 2584 2669 2484 
Q 3125 2378 3379 2068 
Q 3634 1759 3634 1313 
Q 3634 634 3220 271 
Q 2806 -91 2034 -91 
Q 1263 -91 848 271 
Q 434 634 434 1313 
Q 434 1759 690 2068 
Q 947 2378 1403 2484 
z
M 1172 3481 
Q 1172 3119 1398 2916 
Q 1625 2713 2034 2713 
Q 2441 2713 2670 2916 
Q 2900 3119 2900 3481 
Q 2900 3844 2670 4047 
Q 2441 4250 2034 4250 
Q 1625 4250 1398 4047 
Q 1172 3844 1172 3481 
z
" transform="scale(0.015625)"/>
       </defs>
       <use xlink:href="#DejaVuSans-32"/>
       <use xlink:href="#DejaVuSans-30" transform="translate(63.623047 0)"/>
       <use xlink:href="#DejaVuSans-30" transform="translate(127.246094 0)"/>
       <use xlink:href="#DejaVuSans-38" transform="translate(190.869141 0)"/>
      </g>
     </g>
    </g>
    <g id="xtick_7">
     <g id="line2d_7">
      <g>
       <use xlink:href="#m305e413105" x="301.551462" y="307.584" style="stroke: #000000; stroke-width: 0.8"/>
      </g>
     </g>
     <g id="text_6">
      <!-- 2009 -->
      <g transform="translate(288.826462 322.182437) scale(0.1 -0.1)">
       <defs>
        <path id="DejaVuSans-39" d="M 703 97 
L 703 672 
Q 941 559 1184 500 
Q 1428 441 1663 441 
Q 2288 441 2617 861 
Q 2947 1281 2994 2138 
Q 2813 1869 2534 1725 
Q 2256 1581 1919 1581 
Q 1219 1581 811 2004 
Q 403 2428 403 3163 
Q 403 3881 828 4315 
Q 1253 4750 1959 4750 
Q 2769 4750 3195 4129 
Q 3622 3509 3622 2328 
Q 3622 1225 3098 567 
Q 2575 -91 1691 -91 
Q 1453 -91 1209 -44 
Q 966 3 703 97 
z
M 1959 2075 
Q 2384 2075 2632 2365 
Q 2881 2656 2881 3163 
Q 2881 3666 2632 3958 
Q 2384 4250 1959 4250 
Q 1534 4250 1286 3958 
Q 1038 3666 1038 3163 
Q 1038 2656 1286 2365 
Q 1534 2075 1959 2075 
z
" transform="scale(0.015625)"/>
       </defs>
       <use xlink:href="#DejaVuSans-32"/>
       <use xlink:href="#DejaVuSans-30" transform="translate(63.623047 0)"/>
       <use xlink:href="#DejaVuSans-30" transform="translate(127.246094 0)"/>
       <use xlink:href="#DejaVuSans-39" transform="translate(190.869141 0)"/>
      </g>
     </g>
    </g>
    <g id="xtick_8">
     <g id="line2d_8">
      <g>
       <use xlink:href="#m305e413105" x="342.236019" y="307.584" style="stroke: #000000; stroke-width: 0.8"/>
      </g>
     </g>
     <g id="text_7">
      <!-- 2010 -->
      <g transform="translate(329.511019 322.182437) scale(0.1 -0.1)">
       <defs>
        <path id="DejaVuSans-31" d="M 794 531 
L 1825 531 
L 1825 4091 
L 703 3866 
L 703 4441 
L 1819 4666 
L 2450 4666 
L 2450 531 
L 3481 531 
L 3481 0 
L 794 0 
L 794 531 
z
" transform="scale(0.015625)"/>
       </defs>
       <use xlink:href="#DejaVuSans-32"/>
       <use xlink:href="#DejaVuSans-30" transform="translate(63.623047 0)"/>
       <use xlink:href="#DejaVuSans-31" transform="translate(127.246094 0)"/>
       <use xlink:href="#DejaVuSans-30" transform="translate(190.869141 0)"/>
      </g>
     </g>
    </g>
    <g id="xtick_9">
     <g id="line2d_9">
      <g>
       <use xlink:href="#m305e413105" x="382.920576" y="307.584" style="stroke: #000000; stroke-width: 0.8"/>
      </g>
     </g>
     <g id="text_8">
      <!-- 2011 -->
      <g transform="translate(370.195576 322.182437) scale(0.1 -0.1)">
       <use xlink:href="#DejaVuSans-32"/>
       <use xlink:href="#DejaVuSans-30" transform="translate(63.623047 0)"/>
       <use xlink:href="#DejaVuSans-31" transform="translate(127.246094 0)"/>
       <use xlink:href="#DejaVuSans-31" transform="translate(190.869141 0)"/>
      </g>
     </g>
    </g>
    <g id="xtick_10">
     <g id="line2d_10">
      <g>
       <use xlink:href="#m305e413105" x="414.72" y="307.584" style="stroke: #000000; stroke-width: 0.8"/>
      </g>
     </g>
    </g>
    <g id="xtick_11">
     <g id="line2d_11">
      <defs>
       <path id="m073e08b747" d="M 0 0 
L 0 2 
" style="stroke: #000000; stroke-width: 0.6"/>
      </defs>
      <g>
       <use xlink:href="#m073e08b747" x="67.42041" y="307.584" style="stroke: #000000; stroke-width: 0.6"/>
      </g>
     </g>
    </g>
    <g id="xtick_12">
     <g id="line2d_12">
      <g>
       <use xlink:href="#m073e08b747" x="77.55258" y="307.584" style="stroke: #000000; stroke-width: 0.6"/>
      </g>
     </g>
    </g>
    <g id="xtick_13">
     <g id="line2d_13">
      <g>
       <use xlink:href="#m073e08b747" x="87.840629" y="307.584" style="stroke: #000000; stroke-width: 0.6"/>
      </g>
     </g>
    </g>
    <g id="xtick_14">
     <g id="line2d_14">
      <g>
       <use xlink:href="#m073e08b747" x="108.260847" y="307.584" style="stroke: #000000; stroke-width: 0.6"/>
      </g>
     </g>
    </g>
    <g id="xtick_15">
     <g id="line2d_15">
      <g>
       <use xlink:href="#m073e08b747" x="118.393016" y="307.584" style="stroke: #000000; stroke-width: 0.6"/>
      </g>
     </g>
    </g>
    <g id="xtick_16">
     <g id="line2d_16">
      <g>
       <use xlink:href="#m073e08b747" x="128.681065" y="307.584" style="stroke: #000000; stroke-width: 0.6"/>
      </g>
     </g>
    </g>
    <g id="xtick_17">
     <g id="line2d_17">
      <g>
       <use xlink:href="#m073e08b747" x="148.945404" y="307.584" style="stroke: #000000; stroke-width: 0.6"/>
      </g>
     </g>
    </g>
    <g id="xtick_18">
     <g id="line2d_18">
      <g>
       <use xlink:href="#m073e08b747" x="159.077573" y="307.584" style="stroke: #000000; stroke-width: 0.6"/>
      </g>
     </g>
    </g>
    <g id="xtick_19">
     <g id="line2d_19">
      <g>
       <use xlink:href="#m073e08b747" x="169.365622" y="307.584" style="stroke: #000000; stroke-width: 0.6"/>
      </g>
     </g>
    </g>
    <g id="xtick_20">
     <g id="line2d_20">
      <g>
       <use xlink:href="#m073e08b747" x="189.629961" y="307.584" style="stroke: #000000; stroke-width: 0.6"/>
      </g>
     </g>
    </g>
    <g id="xtick_21">
     <g id="line2d_21">
      <g>
       <use xlink:href="#m073e08b747" x="199.76213" y="307.584" style="stroke: #000000; stroke-width: 0.6"/>
      </g>
     </g>
    </g>
    <g id="xtick_22">
     <g id="line2d_22">
      <g>
       <use xlink:href="#m073e08b747" x="209.894299" y="307.584" style="stroke: #000000; stroke-width: 0.6"/>
      </g>
     </g>
    </g>
    <g id="xtick_23">
     <g id="line2d_23">
      <g>
       <use xlink:href="#m073e08b747" x="230.158638" y="307.584" style="stroke: #000000; stroke-width: 0.6"/>
      </g>
     </g>
    </g>
    <g id="xtick_24">
     <g id="line2d_24">
      <g>
       <use xlink:href="#m073e08b747" x="240.290808" y="307.584" style="stroke: #000000; stroke-width: 0.6"/>
      </g>
     </g>
    </g>
    <g id="xtick_25">
     <g id="line2d_25">
      <g>
       <use xlink:href="#m073e08b747" x="250.422977" y="307.584" style="stroke: #000000; stroke-width: 0.6"/>
      </g>
     </g>
    </g>
    <g id="xtick_26">
     <g id="line2d_26">
      <g>
       <use xlink:href="#m073e08b747" x="270.843195" y="307.584" style="stroke: #000000; stroke-width: 0.6"/>
      </g>
     </g>
    </g>
    <g id="xtick_27">
     <g id="line2d_27">
      <g>
       <use xlink:href="#m073e08b747" x="280.975364" y="307.584" style="stroke: #000000; stroke-width: 0.6"/>
      </g>
     </g>
    </g>
    <g id="xtick_28">
     <g id="line2d_28">
      <g>
       <use xlink:href="#m073e08b747" x="291.263413" y="307.584" style="stroke: #000000; stroke-width: 0.6"/>
      </g>
     </g>
    </g>
    <g id="xtick_29">
     <g id="line2d_29">
      <g>
       <use xlink:href="#m073e08b747" x="311.527752" y="307.584" style="stroke: #000000; stroke-width: 0.6"/>
      </g>
     </g>
    </g>
    <g id="xtick_30">
     <g id="line2d_30">
      <g>
       <use xlink:href="#m073e08b747" x="321.659921" y="307.584" style="stroke: #000000; stroke-width: 0.6"/>
      </g>
     </g>
    </g>
    <g id="xtick_31">
     <g id="line2d_31">
      <g>
       <use xlink:href="#m073e08b747" x="331.94797" y="307.584" style="stroke: #000000; stroke-width: 0.6"/>
      </g>
     </g>
    </g>
    <g id="xtick_32">
     <g id="line2d_32">
      <g>
       <use xlink:href="#m073e08b747" x="352.212309" y="307.584" style="stroke: #000000; stroke-width: 0.6"/>
      </g>
     </g>
    </g>
    <g id="xtick_33">
     <g id="line2d_33">
      <g>
       <use xlink:href="#m073e08b747" x="362.344478" y="307.584" style="stroke: #000000; stroke-width: 0.6"/>
      </g>
     </g>
    </g>
    <g id="xtick_34">
     <g id="line2d_34">
      <g>
       <use xlink:href="#m073e08b747" x="372.632527" y="307.584" style="stroke: #000000; stroke-width: 0.6"/>
      </g>
     </g>
    </g>
    <g id="xtick_35">
     <g id="line2d_35">
      <g>
       <use xlink:href="#m073e08b747" x="392.896866" y="307.584" style="stroke: #000000; stroke-width: 0.6"/>
      </g>
     </g>
    </g>
    <g id="xtick_36">
     <g id="line2d_36">
      <g>
       <use xlink:href="#m073e08b747" x="403.029035" y="307.584" style="stroke: #000000; stroke-width: 0.6"/>
      </g>
     </g>
    </g>
    <g id="xtick_37">
     <g id="line2d_37">
      <g>
       <use xlink:href="#m073e08b747" x="413.317084" y="307.584" style="stroke: #000000; stroke-width: 0.6"/>
      </g>
     </g>
    </g>
   </g>
   <g id="matplotlib.axis_2">
    <g id="ytick_1">
     <g id="line2d_38">
      <defs>
       <path id="mfced2e17b7" d="M 0 0 
L -3.5 0 
" style="stroke: #000000; stroke-width: 0.8"/>
      </defs>
      <g>
       <use xlink:href="#mfced2e17b7" x="57.6" y="287.928" style="stroke: #000000; stroke-width: 0.8"/>
      </g>
     </g>
     <g id="text_9">
      <!-- 75.0 -->
      <g transform="translate(28.334375 291.727219) scale(0.1 -0.1)">
       <defs>
        <path id="DejaVuSans-2e" d="M 684 794 
L 1344 794 
L 1344 0 
L 684 0 
L 684 794 
z
" transform="scale(0.015625)"/>
       </defs>
       <use xlink:href="#DejaVuSans-37"/>
       <use xlink:href="#DejaVuSans-35" transform="translate(63.623047 0)"/>
       <use xlink:href="#DejaVuSans-2e" transform="translate(127.246094 0)"/>
       <use xlink:href="#DejaVuSans-30" transform="translate(159.033203 0)"/>
      </g>
     </g>
    </g>
    <g id="ytick_2">
     <g id="line2d_39">
      <g>
       <use xlink:href="#mfced2e17b7" x="57.6" y="256.428" style="stroke: #000000; stroke-width: 0.8"/>
      </g>
     </g>
     <g id="text_10">
      <!-- 77.5 -->
      <g transform="translate(28.334375 260.227219) scale(0.1 -0.1)">
       <use xlink:href="#DejaVuSans-37"/>
       <use xlink:href="#DejaVuSans-37" transform="translate(63.623047 0)"/>
       <use xlink:href="#DejaVuSans-2e" transform="translate(127.246094 0)"/>
       <use xlink:href="#DejaVuSans-35" transform="translate(159.033203 0)"/>
      </g>
     </g>
    </g>
    <g id="ytick_3">
     <g id="line2d_40">
      <g>
       <use xlink:href="#mfced2e17b7" x="57.6" y="224.928" style="stroke: #000000; stroke-width: 0.8"/>
      </g>
     </g>
     <g id="text_11">
      <!-- 80.0 -->
      <g transform="translate(28.334375 228.727219) scale(0.1 -0.1)">
       <use xlink:href="#DejaVuSans-38"/>
       <use xlink:href="#DejaVuSans-30" transform="translate(63.623047 0)"/>
       <use xlink:href="#DejaVuSans-2e" transform="translate(127.246094 0)"/>
       <use xlink:href="#DejaVuSans-30" transform="translate(159.033203 0)"/>
      </g>
     </g>
    </g>
    <g id="ytick_4">
     <g id="line2d_41">
      <g>
       <use xlink:href="#mfced2e17b7" x="57.6" y="193.428" style="stroke: #000000; stroke-width: 0.8"/>
      </g>
     </g>
     <g id="text_12">
      <!-- 82.5 -->
      <g transform="translate(28.334375 197.227219) scale(0.1 -0.1)">
       <use xlink:href="#DejaVuSans-38"/>
       <use xlink:href="#DejaVuSans-32" transform="translate(63.623047 0)"/>
       <use xlink:href="#DejaVuSans-2e" transform="translate(127.246094 0)"/>
       <use xlink:href="#DejaVuSans-35" transform="translate(159.033203 0)"/>
      </g>
     </g>
    </g>
    <g id="ytick_5">
     <g id="line2d_42">
      <g>
       <use xlink:href="#mfced2e17b7" x="57.6" y="161.928" style="stroke: #000000; stroke-width: 0.8"/>
      </g>
     </g>
     <g id="text_13">
      <!-- 85.0 -->
      <g transform="translate(28.334375 165.727219) scale(0.1 -0.1)">
       <use xlink:href="#DejaVuSans-38"/>
       <use xlink:href="#DejaVuSans-35" transform="translate(63.623047 0)"/>
       <use xlink:href="#DejaVuSans-2e" transform="translate(127.246094 0)"/>
       <use xlink:href="#DejaVuSans-30" transform="translate(159.033203 0)"/>
      </g>
     </g>
    </g>
    <g id="ytick_6">
     <g id="line2d_43">
      <g>
       <use xlink:href="#mfced2e17b7" x="57.6" y="130.428" style="stroke: #000000; stroke-width: 0.8"/>
      </g>
     </g>
     <g id="text_14">
      <!-- 87.5 -->
      <g transform="translate(28.334375 134.227219) scale(0.1 -0.1)">
       <use xlink:href="#DejaVuSans-38"/>
       <use xlink:href="#DejaVuSans-37" transform="translate(63.623047 0)"/>
       <use xlink:href="#DejaVuSans-2e" transform="translate(127.246094 0)"/>
       <use xlink:href="#DejaVuSans-35" transform="translate(159.033203 0)"/>
      </g>
     </g>
    </g>
    <g id="ytick_7">
     <g id="line2d_44">
      <g>
       <use xlink:href="#mfced2e17b7" x="57.6" y="98.928" style="stroke: #000000; stroke-width: 0.8"/>
      </g>
     </g>
     <g id="text_15">
      <!-- 90.0 -->
      <g transform="translate(28.334375 102.727219) scale(0.1 -0.1)">
       <use xlink:href="#DejaVuSans-39"/>
       <use xlink:href="#DejaVuSans-30" transform="translate(63.623047 0)"/>
       <use xlink:href="#DejaVuSans-2e" transform="translate(127.246094 0)"/>
       <use xlink:href="#DejaVuSans-30" transform="translate(159.033203 0)"/>
      </g>
     </g>
    </g>
    <g id="ytick_8">
     <g id="line2d_45">
      <g>
       <use xlink:href="#mfced2e17b7" x="57.6" y="67.428" style="stroke: #000000; stroke-width: 0.8"/>
      </g>
     </g>
     <g id="text_16">
      <!-- 92.5 -->
      <g transform="translate(28.334375 71.227219) scale(0.1 -0.1)">
       <use xlink:href="#DejaVuSans-39"/>
       <use xlink:href="#DejaVuSans-32" transform="translate(63.623047 0)"/>
       <use xlink:href="#DejaVuSans-2e" transform="translate(127.246094 0)"/>
       <use xlink:href="#DejaVuSans-35" transform="translate(159.033203 0)"/>
      </g>
     </g>
    </g>
   </g>
   <g id="line2d_46">
    <path d="M 96.569882 199.728 
L 97.037521 199.728 
L 97.1934 204.768 
L 98.284557 204.768 
L 98.440436 209.808 
L 98.596316 209.808 
L 98.752196 214.848 
L 99.219834 214.848 
L 99.531593 204.768 
L 99.843352 204.768 
L 99.999232 199.728 
L 100.62275 199.728 
L 100.778629 204.768 
L 101.558027 204.768 
L 101.713907 199.728 
L 101.869786 199.728 
L 102.025666 204.768 
L 102.493304 204.768 
L 102.649184 209.808 
L 102.805063 204.768 
L 104.207979 204.768 
L 104.363859 199.728 
L 104.519738 204.768 
L 104.987377 204.768 
L 105.299136 214.848 
L 105.455015 214.848 
L 105.766774 224.928 
L 106.390292 224.928 
L 106.546172 219.888 
L 107.32557 219.888 
L 107.481449 224.928 
L 108.416726 224.928 
L 108.572606 229.968 
L 108.728485 224.928 
L 109.196124 224.928 
L 109.352003 219.888 
L 109.663763 219.888 
L 109.819642 224.928 
L 109.975522 224.928 
L 110.287281 214.848 
L 110.44316 214.848 
L 110.59904 209.808 
L 112.001955 209.808 
L 112.157835 204.768 
L 114.651907 204.768 
L 114.807787 199.728 
L 115.431305 199.728 
L 115.587185 204.768 
L 116.522462 204.768 
L 116.678341 209.808 
L 116.9901 209.808 
L 117.14598 204.768 
L 117.301859 204.768 
L 117.457739 209.808 
L 118.237137 209.808 
L 118.393016 204.768 
L 119.172414 204.768 
L 119.328293 199.728 
L 120.107691 199.728 
L 120.26357 194.688 
L 121.042968 194.688 
L 121.198848 199.728 
L 121.354727 194.688 
L 121.666486 194.688 
L 121.822366 189.648 
L 121.978245 189.648 
L 122.290004 179.568 
L 122.601763 179.568 
L 122.757643 184.608 
L 123.069402 174.528 
L 123.537041 174.528 
L 123.69292 179.568 
L 124.160559 179.568 
L 124.628197 194.688 
L 124.784077 189.648 
L 125.095836 189.648 
L 125.251715 194.688 
L 125.407595 189.648 
L 126.342872 189.648 
L 126.498752 184.608 
L 126.810511 184.608 
L 126.96639 189.648 
L 127.12227 189.648 
L 127.434029 179.568 
L 127.901667 179.568 
L 128.057547 174.528 
L 128.681065 174.528 
L 128.836945 169.488 
L 128.992824 169.488 
L 129.148704 174.528 
L 129.616342 174.528 
L 129.772222 169.488 
L 130.083981 179.568 
L 130.23986 179.568 
L 130.39574 184.608 
L 131.486897 184.608 
L 131.642776 189.648 
L 132.110415 189.648 
L 132.266294 194.688 
L 132.578053 194.688 
L 132.733933 189.648 
L 133.357451 189.648 
L 133.51333 184.608 
L 134.136849 184.608 
L 134.292728 189.648 
L 134.448608 189.648 
L 134.604487 194.688 
L 134.760367 189.648 
L 134.916246 189.648 
L 135.072126 194.688 
L 135.695644 194.688 
L 135.851523 199.728 
L 136.007403 199.728 
L 136.163282 194.688 
L 136.94268 194.688 
L 137.09856 199.728 
L 137.254439 199.728 
L 137.410319 194.688 
L 137.566198 194.688 
L 137.877957 184.608 
L 138.033837 184.608 
L 138.189716 179.568 
L 139.436753 179.568 
L 139.592632 184.608 
L 139.748512 179.568 
L 140.060271 179.568 
L 140.21615 184.608 
L 140.839668 184.608 
L 140.995548 179.568 
L 141.463186 179.568 
L 141.619066 174.528 
L 141.930825 174.528 
L 142.086704 179.568 
L 142.242584 179.568 
L 142.398464 184.608 
L 142.866102 184.608 
L 143.021982 189.648 
L 143.48962 189.648 
L 143.801379 199.728 
L 143.957259 199.728 
L 144.269018 189.648 
L 144.424897 189.648 
L 144.580777 184.608 
L 145.671934 184.608 
L 145.827813 189.648 
L 146.295452 189.648 
L 146.451331 184.608 
L 146.607211 184.608 
L 146.76309 179.568 
L 147.074849 179.568 
L 147.230729 184.608 
L 147.386608 184.608 
L 147.542488 179.568 
L 148.477765 179.568 
L 148.633645 184.608 
L 148.789524 179.568 
L 149.413042 179.568 
L 149.568922 184.608 
L 150.660079 184.608 
L 150.815958 189.648 
L 150.971838 189.648 
L 151.127717 194.688 
L 151.283597 194.688 
L 151.439476 199.728 
L 151.595356 194.688 
L 152.374753 194.688 
L 152.530633 199.728 
L 152.998271 199.728 
L 153.154151 194.688 
L 153.62179 194.688 
L 153.777669 199.728 
L 153.933549 199.728 
L 154.089428 194.688 
L 154.245308 199.728 
L 154.868826 199.728 
L 155.024705 204.768 
L 155.492344 204.768 
L 155.648223 199.728 
L 156.115862 199.728 
L 156.427621 189.648 
L 157.051139 189.648 
L 157.362898 199.728 
L 158.765814 199.728 
L 158.921694 194.688 
L 159.233453 194.688 
L 159.389332 199.728 
L 160.01285 199.728 
L 160.16873 194.688 
L 160.324609 194.688 
L 160.480489 199.728 
L 160.792248 199.728 
L 160.948127 204.768 
L 161.571646 204.768 
L 161.727525 199.728 
L 162.506923 199.728 
L 162.662802 194.688 
L 163.28632 194.688 
L 163.598079 184.608 
L 163.909838 194.688 
L 164.065718 194.688 
L 164.221598 189.648 
L 165.780393 189.648 
L 166.092152 179.568 
L 166.248031 179.568 
L 166.403911 184.608 
L 166.55979 184.608 
L 166.87155 194.688 
L 167.495068 194.688 
L 167.806827 204.768 
L 167.962706 204.768 
L 168.118586 199.728 
L 168.274465 199.728 
L 168.430345 204.768 
L 168.742104 204.768 
L 168.897983 199.728 
L 169.053863 199.728 
L 169.209742 204.768 
L 169.365622 199.728 
L 170.14502 199.728 
L 170.300899 204.768 
L 170.456779 199.728 
L 171.236176 199.728 
L 171.392056 204.768 
L 171.547935 204.768 
L 171.703815 209.808 
L 172.327333 209.808 
L 172.483213 214.848 
L 172.639092 214.848 
L 172.950851 224.928 
L 173.106731 224.928 
L 173.26261 219.888 
L 173.41849 219.888 
L 173.574369 214.848 
L 173.886128 214.848 
L 174.042008 209.808 
L 174.197887 209.808 
L 174.353767 214.848 
L 174.665526 214.848 
L 174.821405 209.808 
L 174.977285 214.848 
L 175.289044 214.848 
L 175.444924 219.888 
L 176.380201 219.888 
L 176.53608 224.928 
L 178.406635 224.928 
L 178.562514 219.888 
L 179.030153 219.888 
L 179.186032 214.848 
L 179.497791 214.848 
L 179.653671 219.888 
L 179.96543 219.888 
L 180.121309 224.928 
L 180.277189 224.928 
L 180.588948 235.008 
L 180.900707 235.008 
L 181.056587 229.968 
L 181.212466 229.968 
L 181.368346 224.928 
L 181.680105 224.928 
L 181.835984 229.968 
L 181.991864 224.928 
L 182.303623 224.928 
L 182.459502 219.888 
L 182.615382 219.888 
L 182.771261 214.848 
L 183.550659 214.848 
L 183.706539 209.808 
L 183.862418 209.808 
L 184.018298 214.848 
L 184.174177 214.848 
L 184.485936 224.928 
L 184.641816 224.928 
L 184.797695 219.888 
L 185.109454 219.888 
L 185.265334 224.928 
L 186.044732 224.928 
L 186.200611 219.888 
L 187.135888 219.888 
L 187.447647 229.968 
L 187.603527 224.928 
L 188.382924 224.928 
L 188.538804 219.888 
L 189.006443 219.888 
L 189.162322 224.928 
L 189.629961 224.928 
L 189.78584 219.888 
L 189.94172 224.928 
L 190.253479 224.928 
L 190.409358 219.888 
L 191.188756 219.888 
L 191.344636 224.928 
L 191.500515 219.888 
L 191.656395 224.928 
L 192.124033 224.928 
L 192.279913 229.968 
L 192.591672 229.968 
L 192.747551 224.928 
L 192.903431 229.968 
L 193.05931 229.968 
L 193.21519 224.928 
L 193.371069 224.928 
L 193.526949 219.888 
L 193.838708 219.888 
L 193.994588 214.848 
L 194.773985 214.848 
L 194.929865 219.888 
L 196.021021 219.888 
L 196.176901 214.848 
L 196.956299 214.848 
L 197.112178 219.888 
L 197.423937 219.888 
L 197.579817 224.928 
L 197.735696 224.928 
L 197.891576 229.968 
L 198.203335 229.968 
L 198.359214 224.928 
L 198.515094 224.928 
L 198.670973 229.968 
L 199.76213 229.968 
L 199.91801 224.928 
L 201.165046 224.928 
L 201.320925 229.968 
L 201.476805 229.968 
L 201.788564 240.048 
L 202.100323 240.048 
L 202.256203 235.008 
L 202.412082 240.048 
L 203.19148 240.048 
L 203.347359 245.088 
L 204.438516 245.088 
L 204.750275 255.168 
L 205.217914 255.168 
L 205.373793 250.128 
L 205.529673 250.128 
L 205.841432 240.048 
L 206.46495 240.048 
L 206.776709 229.968 
L 206.932588 235.008 
L 207.088468 235.008 
L 207.244347 240.048 
L 207.400227 235.008 
L 207.711986 235.008 
L 207.867866 240.048 
L 208.179625 229.968 
L 208.491384 229.968 
L 208.647263 235.008 
L 208.959022 235.008 
L 209.114902 240.048 
L 209.426661 240.048 
L 209.58254 235.008 
L 210.050179 235.008 
L 210.361938 224.928 
L 210.517818 224.928 
L 210.673697 219.888 
L 210.985456 219.888 
L 211.141336 224.928 
L 211.297215 224.928 
L 211.453095 219.888 
L 211.608974 219.888 
L 211.764854 214.848 
L 213.16777 214.848 
L 213.323649 209.808 
L 213.791288 209.808 
L 213.947167 204.768 
L 214.103047 209.808 
L 214.258926 209.808 
L 214.414806 204.768 
L 214.882444 204.768 
L 215.038324 199.728 
L 216.129481 199.728 
L 216.28536 204.768 
L 217.844155 204.768 
L 218.000035 209.808 
L 218.467674 209.808 
L 218.623553 204.768 
L 218.935312 204.768 
L 219.091192 199.728 
L 219.247071 199.728 
L 219.55883 189.648 
L 219.71471 189.648 
L 219.870589 194.688 
L 220.338228 194.688 
L 220.494107 199.728 
L 220.649987 199.728 
L 220.805866 194.688 
L 221.117625 204.768 
L 221.429385 204.768 
L 221.585264 199.728 
L 221.741144 204.768 
L 222.8323 204.768 
L 222.98818 199.728 
L 223.144059 199.728 
L 223.455818 189.648 
L 225.638132 189.648 
L 225.794011 194.688 
L 226.10577 194.688 
L 226.417529 184.608 
L 226.573409 184.608 
L 226.729289 189.648 
L 227.041048 189.648 
L 227.196927 194.688 
L 227.664566 194.688 
L 227.820445 199.728 
L 227.976325 199.728 
L 228.132204 194.688 
L 228.911602 194.688 
L 229.067481 189.648 
L 229.223361 189.648 
L 229.379241 194.688 
L 230.158638 194.688 
L 230.314518 189.648 
L 230.470397 189.648 
L 230.626277 184.608 
L 231.093915 184.608 
L 231.249795 179.568 
L 231.717433 179.568 
L 231.873313 174.528 
L 232.340952 174.528 
L 232.496831 179.568 
L 232.652711 179.568 
L 232.96447 189.648 
L 233.743867 189.648 
L 233.899747 184.608 
L 234.055626 189.648 
L 235.146783 189.648 
L 235.302663 184.608 
L 235.926181 184.608 
L 236.08206 179.568 
L 236.23794 184.608 
L 236.393819 184.608 
L 236.549699 179.568 
L 236.705578 184.608 
L 237.017337 184.608 
L 237.173217 189.648 
L 237.484976 189.648 
L 237.640856 184.608 
L 238.264374 184.608 
L 238.420253 179.568 
L 238.576133 179.568 
L 238.732012 184.608 
L 240.134928 184.608 
L 240.290808 179.568 
L 240.446687 184.608 
L 240.602567 179.568 
L 241.226085 179.568 
L 241.381964 174.528 
L 241.693723 174.528 
L 241.849603 169.488 
L 242.161362 169.488 
L 242.317241 164.448 
L 242.473121 169.488 
L 242.940759 169.488 
L 243.096639 174.528 
L 243.408398 174.528 
L 243.564278 169.488 
L 244.031916 169.488 
L 244.187796 174.528 
L 244.811314 174.528 
L 244.967193 179.568 
L 245.434832 179.568 
L 245.590711 184.608 
L 245.902471 184.608 
L 246.05835 189.648 
L 246.21423 184.608 
L 246.370109 189.648 
L 247.305386 189.648 
L 247.461266 194.688 
L 247.617145 189.648 
L 248.084784 189.648 
L 248.240663 184.608 
L 249.33182 184.608 
L 249.799459 199.728 
L 249.955338 199.728 
L 250.111218 194.688 
L 250.734736 194.688 
L 250.890615 189.648 
L 251.202375 199.728 
L 251.670013 199.728 
L 251.825893 204.768 
L 252.60529 204.768 
L 252.917049 214.848 
L 253.072929 209.808 
L 255.87876 209.808 
L 256.03464 214.848 
L 256.969917 214.848 
L 257.125797 219.888 
L 257.593435 219.888 
L 258.061074 235.008 
L 258.684592 235.008 
L 258.840471 229.968 
L 259.46399 229.968 
L 259.775749 240.048 
L 260.087508 229.968 
L 260.555146 229.968 
L 260.711026 224.928 
L 261.490423 224.928 
L 261.646303 229.968 
L 261.958062 229.968 
L 262.113942 235.008 
L 263.049219 235.008 
L 263.205098 229.968 
L 263.984496 229.968 
L 264.140375 235.008 
L 264.608014 235.008 
L 264.763893 229.968 
L 264.919773 229.968 
L 265.231532 240.048 
L 265.387412 240.048 
L 265.543291 245.088 
L 265.699171 240.048 
L 266.01093 240.048 
L 266.166809 235.008 
L 266.634448 235.008 
L 266.790327 229.968 
L 266.946207 229.968 
L 267.257966 240.048 
L 267.569725 240.048 
L 267.725605 245.088 
L 267.881484 240.048 
L 268.193243 240.048 
L 268.349123 235.008 
L 268.505002 240.048 
L 269.12852 240.048 
L 269.2844 245.088 
L 269.440279 245.088 
L 269.596159 250.128 
L 269.752038 250.128 
L 269.907918 255.168 
L 270.063797 255.168 
L 270.219677 260.208 
L 270.687316 260.208 
L 270.843195 265.248 
L 270.999075 265.248 
L 271.154954 270.288 
L 271.310834 270.288 
L 271.466713 265.248 
L 271.622593 265.248 
L 271.778472 260.208 
L 272.40199 260.208 
L 272.55787 265.248 
L 272.713749 265.248 
L 272.869629 270.288 
L 273.337268 270.288 
L 273.493147 275.328 
L 274.116665 275.328 
L 274.272545 280.368 
L 274.428424 280.368 
L 274.584304 285.408 
L 275.051942 285.408 
L 275.207822 280.368 
L 275.363701 285.408 
L 275.519581 285.408 
L 275.83134 275.328 
L 275.98722 275.328 
L 276.143099 270.288 
L 276.610738 270.288 
L 276.766617 275.328 
L 276.922497 275.328 
L 277.078376 280.368 
L 277.546015 280.368 
L 277.701894 275.328 
L 278.013653 275.328 
L 278.169533 280.368 
L 278.481292 280.368 
L 278.637172 285.408 
L 279.10481 285.408 
L 279.26069 290.448 
L 279.572449 290.448 
L 279.728328 285.408 
L 280.195967 285.408 
L 280.351846 290.448 
L 280.507726 290.448 
L 280.663605 285.408 
L 280.819485 285.408 
L 280.975364 290.448 
L 281.287124 290.448 
L 281.443003 285.408 
L 281.754762 295.488 
L 281.910642 295.488 
L 282.066521 290.448 
L 282.53416 290.448 
L 282.690039 285.408 
L 283.001798 285.408 
L 283.157678 280.368 
L 283.313557 280.368 
L 283.469437 285.408 
L 283.781196 285.408 
L 283.937076 280.368 
L 284.404714 280.368 
L 284.560594 275.328 
L 285.339991 275.328 
L 285.495871 280.368 
L 285.65175 280.368 
L 285.80763 275.328 
L 286.275268 275.328 
L 286.431148 270.288 
L 286.898787 270.288 
L 287.054666 265.248 
L 288.301702 265.248 
L 288.769341 250.128 
L 289.704618 250.128 
L 289.860498 255.168 
L 290.016377 255.168 
L 290.172257 250.128 
L 290.484016 250.128 
L 290.639895 255.168 
L 290.795775 250.128 
L 290.951654 250.128 
L 291.107534 255.168 
L 291.575172 255.168 
L 291.886931 245.088 
L 292.198691 245.088 
L 292.51045 255.168 
L 292.822209 255.168 
L 292.978088 260.208 
L 293.289847 260.208 
L 293.445727 255.168 
L 293.601606 260.208 
L 294.225124 260.208 
L 294.536883 270.288 
L 295.78392 270.288 
L 295.939799 265.248 
L 296.407438 265.248 
L 296.563317 270.288 
L 296.875076 260.208 
L 297.030956 260.208 
L 297.186835 265.248 
L 297.342715 265.248 
L 297.498595 270.288 
L 297.966233 270.288 
L 298.277992 280.368 
L 298.433872 275.328 
L 299.213269 275.328 
L 299.369149 280.368 
L 300.460306 280.368 
L 300.616185 275.328 
L 300.927944 275.328 
L 301.083824 270.288 
L 301.551462 270.288 
L 301.863221 280.368 
L 302.954378 280.368 
L 303.110258 275.328 
L 303.577896 275.328 
L 303.889655 285.408 
L 304.201414 275.328 
L 305.292571 275.328 
L 305.76021 290.448 
L 305.916089 290.448 
L 306.071969 285.408 
L 306.539607 285.408 
L 306.695487 280.368 
L 308.098402 280.368 
L 308.254282 275.328 
L 308.410162 280.368 
L 308.566041 275.328 
L 308.721921 275.328 
L 308.8778 270.288 
L 309.03368 275.328 
L 309.189559 275.328 
L 309.345439 280.368 
L 309.968957 280.368 
L 310.124836 275.328 
L 310.280716 275.328 
L 310.436595 280.368 
L 311.527752 280.368 
L 311.683632 285.408 
L 313.398306 285.408 
L 313.554186 280.368 
L 313.865945 280.368 
L 314.021825 285.408 
L 314.177704 285.408 
L 314.333584 280.368 
L 314.957102 280.368 
L 315.112981 285.408 
L 315.58062 285.408 
L 315.736499 280.368 
L 315.892379 280.368 
L 316.048258 275.328 
L 316.204138 275.328 
L 316.360017 280.368 
L 316.515897 280.368 
L 316.671777 285.408 
L 316.983536 285.408 
L 317.139415 280.368 
L 318.230572 280.368 
L 318.386451 275.328 
L 319.165849 275.328 
L 319.321729 270.288 
L 319.789367 270.288 
L 319.945247 265.248 
L 320.257006 265.248 
L 320.412885 270.288 
L 320.724644 260.208 
L 320.880524 260.208 
L 321.036403 265.248 
L 322.28344 265.248 
L 322.439319 260.208 
L 322.751078 260.208 
L 322.906958 265.248 
L 323.062837 265.248 
L 323.218717 270.288 
L 323.374596 270.288 
L 323.530476 275.328 
L 323.686355 275.328 
L 323.842235 270.288 
L 324.153994 270.288 
L 324.465753 260.208 
L 326.803946 260.208 
L 326.959825 265.248 
L 328.6745 265.248 
L 328.83038 260.208 
L 329.453898 260.208 
L 329.609777 255.168 
L 329.921536 255.168 
L 330.077416 250.128 
L 330.233296 255.168 
L 331.168573 255.168 
L 331.324452 250.128 
L 331.792091 250.128 
L 331.94797 245.088 
L 332.10385 250.128 
L 332.259729 250.128 
L 332.415609 255.168 
L 332.571488 250.128 
L 333.039127 250.128 
L 333.506766 235.008 
L 333.974404 235.008 
L 334.130284 240.048 
L 335.37732 240.048 
L 335.533199 235.008 
L 335.844959 235.008 
L 336.000838 229.968 
L 336.312597 229.968 
L 336.468477 224.928 
L 336.936115 224.928 
L 337.247874 214.848 
L 337.403754 214.848 
L 337.559633 209.808 
L 338.183151 209.808 
L 338.339031 204.768 
L 339.430188 204.768 
L 339.586067 209.808 
L 340.521344 209.808 
L 340.833103 199.728 
L 341.144863 199.728 
L 341.300742 204.768 
L 342.547778 204.768 
L 342.859537 194.688 
L 343.327176 194.688 
L 343.483055 189.648 
L 343.950694 189.648 
L 344.106574 194.688 
L 344.262453 194.688 
L 344.574212 184.608 
L 345.041851 184.608 
L 345.19773 179.568 
L 346.288887 179.568 
L 346.444766 174.528 
L 347.224164 174.528 
L 347.380044 169.488 
L 347.847682 169.488 
L 348.315321 154.368 
L 348.4712 154.368 
L 348.62708 159.408 
L 348.782959 154.368 
L 349.094718 154.368 
L 349.250598 159.408 
L 349.406478 154.368 
L 349.718237 154.368 
L 349.874116 149.328 
L 350.341755 149.328 
L 350.965273 129.168 
L 351.277032 129.168 
L 351.432911 124.128 
L 352.05643 124.128 
L 352.212309 119.088 
L 352.835827 119.088 
L 352.991707 114.048 
L 353.926984 114.048 
L 354.082863 109.008 
L 354.238743 109.008 
L 354.550502 119.088 
L 356.265177 119.088 
L 356.421056 124.128 
L 356.576936 119.088 
L 356.732815 124.128 
L 357.044574 124.128 
L 357.200454 119.088 
L 358.291611 119.088 
L 358.44749 124.128 
L 359.226888 124.128 
L 359.382767 119.088 
L 360.318045 119.088 
L 360.629804 129.168 
L 361.72096 129.168 
L 361.87684 124.128 
L 362.032719 124.128 
L 362.188599 119.088 
L 362.344478 119.088 
L 362.500358 114.048 
L 364.215033 114.048 
L 364.370912 119.088 
L 365.773828 119.088 
L 365.929708 114.048 
L 367.800262 114.048 
L 367.956141 109.008 
L 369.359057 109.008 
L 369.514937 114.048 
L 370.294334 114.048 
L 370.450214 109.008 
L 370.761973 109.008 
L 370.917852 114.048 
L 371.073732 109.008 
L 371.229612 114.048 
L 371.385491 109.008 
L 372.944286 109.008 
L 373.100166 103.968 
L 373.879564 103.968 
L 374.035443 98.928 
L 374.191323 103.968 
L 374.97072 103.968 
L 375.1266 98.928 
L 376.529515 98.928 
L 376.685395 93.888 
L 377.776552 93.888 
L 377.932431 98.928 
L 378.088311 98.928 
L 378.24419 103.968 
L 378.40007 103.968 
L 378.555949 98.928 
L 380.114745 98.928 
L 380.270624 93.888 
L 382.764697 93.888 
L 382.920576 98.928 
L 383.076456 93.888 
L 383.544094 93.888 
L 383.699974 88.848 
L 385.10289 88.848 
L 385.258769 93.888 
L 387.441082 93.888 
L 387.596962 88.848 
L 388.064601 88.848 
L 388.22048 83.808 
L 389.467516 83.808 
L 389.623396 88.848 
L 391.338071 88.848 
L 391.49395 93.888 
L 393.208625 93.888 
L 393.520384 83.808 
L 394.143902 83.808 
L 394.299782 78.768 
L 394.455661 78.768 
L 394.611541 73.728 
L 394.9233 73.728 
L 395.079179 78.768 
L 395.235059 78.768 
L 395.390938 73.728 
L 395.546818 73.728 
L 395.702698 68.688 
L 397.261493 68.688 
L 397.417372 63.648 
L 398.820288 63.648 
L 398.976168 58.608 
L 399.443806 58.608 
L 399.599686 53.568 
L 401.62612 53.568 
L 401.781999 58.608 
L 401.937879 53.568 
L 402.093758 58.608 
L 402.873156 58.608 
L 403.029035 63.648 
L 403.184915 63.648 
L 403.340794 58.608 
L 404.587831 58.608 
L 404.74371 63.648 
L 404.89959 63.648 
L 405.055469 68.688 
L 407.081903 68.688 
L 407.237783 73.728 
L 407.393662 73.728 
L 407.549542 78.768 
L 408.01718 78.768 
L 408.17306 73.728 
L 408.328939 73.728 
L 408.484819 68.688 
L 408.640698 68.688 
L 408.796578 73.728 
L 409.108337 73.728 
L 409.264216 78.768 
L 409.731855 78.768 
L 409.887735 73.728 
L 410.043614 73.728 
L 410.199494 68.688 
L 411.602409 68.688 
L 411.758289 73.728 
L 411.914168 68.688 
L 413.005325 68.688 
L 413.161205 63.648 
L 413.940602 63.648 
L 414.252361 73.728 
L 414.56412 73.728 
L 414.72 78.768 
L 414.72 78.768 
" clip-path="url(#p2503757bed)" style="fill: none; stroke: #000000; stroke-width: 1.5; stroke-linecap: square"/>
   </g>
   <g id="patch_3">
    <path d="M 57.6 307.584 
L 57.6 41.472 
" style="fill: none; stroke: #000000; stroke-width: 0.8; stroke-linejoin: miter; stroke-linecap: square"/>
   </g>
   <g id="patch_4">
    <path d="M 414.72 307.584 
L 414.72 41.472 
" style="fill: none; stroke: #000000; stroke-width: 0.8; stroke-linejoin: miter; stroke-linecap: square"/>
   </g>
   <g id="patch_5">
    <path d="M 57.6 307.584 
L 414.72 307.584 
" style="fill: none; stroke: #000000; stroke-width: 0.8; stroke-linejoin: miter; stroke-linecap: square"/>
   </g>
   <g id="patch_6">
    <path d="M 57.6 41.472 
L 414.72 41.472 
" style="fill: none; stroke: #000000; stroke-width: 0.8; stroke-linejoin: miter; stroke-linecap: square"/>
   </g>
  </g>
 </g>
 <defs>
  <clipPath id="p2503757bed">
   <rect x="57.6" y="41.472" width="357.12" height="266.112"/>
  </clipPath>
 </defs>
</svg>
