<?xml version="1.0" encoding="utf-8" standalone="no"?>
<!DOCTYPE svg PUBLIC "-//W3C//DTD SVG 1.1//EN"
  "http://www.w3.org/Graphics/SVG/1.1/DTD/svg11.dtd">
<svg xmlns:xlink="http://www.w3.org/1999/xlink" width="460.8pt" height="345.6pt" viewBox="0 0 460.8 345.6" xmlns="http://www.w3.org/2000/svg" version="1.1">
 <metadata>
  <rdf:RDF xmlns:dc="http://purl.org/dc/elements/1.1/" xmlns:cc="http://creativecommons.org/ns#" xmlns:rdf="http://www.w3.org/1999/02/22-rdf-syntax-ns#">
   <cc:Work>
    <dc:type rdf:resource="http://purl.org/dc/dcmitype/StillImage"/>
    <dc:date>2025-05-23T17:41:36.888322</dc:date>
    <dc:format>image/svg+xml</dc:format>
    <dc:creator>
     <cc:Agent>
      <dc:title>Matplotlib v3.10.0, https://matplotlib.org/</dc:title>
     </cc:Agent>
    </dc:creator>
   </cc:Work>
  </rdf:RDF>
 </metadata>
 <defs>
  <style type="text/css">*{stroke-linejoin: round; stroke-linecap: butt}</style>
 </defs>
 <g id="figure_1">
  <g id="patch_1">
   <path d="M 0 345.6 
L 460.8 345.6 
L 460.8 0 
L 0 0 
z
" style="fill: #ffffff"/>
  </g>
  <g id="axes_1">
   <g id="patch_2">
    <path d="M 57.6 307.584 
L 414.72 307.584 
L 414.72 41.472 
L 57.6 41.472 
z
" style="fill: #ffffff"/>
   </g>
   <g id="matplotlib.axis_1">
    <g id="xtick_1">
     <g id="line2d_1">
      <defs>
       <path id="m5269c939c1" d="M 0 0 
L 0 3.5 
" style="stroke: #000000; stroke-width: 0.8"/>
      </defs>
      <g>
       <use xlink:href="#m5269c939c1" x="57.6" y="307.584" style="stroke: #000000; stroke-width: 0.8"/>
      </g>
     </g>
     <g id="text_1">
      <!-- Jan -->
      <g transform="translate(49.892188 322.182437) scale(0.1 -0.1)">
       <defs>
        <path id="DejaVuSans-4a" d="M 628 4666 
L 1259 4666 
L 1259 325 
Q 1259 -519 939 -900 
Q 619 -1281 -91 -1281 
L -331 -1281 
L -331 -750 
L -134 -750 
Q 284 -750 456 -515 
Q 628 -281 628 325 
L 628 4666 
z
" transform="scale(0.015625)"/>
        <path id="DejaVuSans-61" d="M 2194 1759 
Q 1497 1759 1228 1600 
Q 959 1441 959 1056 
Q 959 750 1161 570 
Q 1363 391 1709 391 
Q 2188 391 2477 730 
Q 2766 1069 2766 1631 
L 2766 1759 
L 2194 1759 
z
M 3341 1997 
L 3341 0 
L 2766 0 
L 2766 531 
Q 2569 213 2275 61 
Q 1981 -91 1556 -91 
Q 1019 -91 701 211 
Q 384 513 384 1019 
Q 384 1609 779 1909 
Q 1175 2209 1959 2209 
L 2766 2209 
L 2766 2266 
Q 2766 2663 2505 2880 
Q 2244 3097 1772 3097 
Q 1472 3097 1187 3025 
Q 903 2953 641 2809 
L 641 3341 
Q 956 3463 1253 3523 
Q 1550 3584 1831 3584 
Q 2591 3584 2966 3190 
Q 3341 2797 3341 1997 
z
" transform="scale(0.015625)"/>
        <path id="DejaVuSans-6e" d="M 3513 2113 
L 3513 0 
L 2938 0 
L 2938 2094 
Q 2938 2591 2744 2837 
Q 2550 3084 2163 3084 
Q 1697 3084 1428 2787 
Q 1159 2491 1159 1978 
L 1159 0 
L 581 0 
L 581 3500 
L 1159 3500 
L 1159 2956 
Q 1366 3272 1645 3428 
Q 1925 3584 2291 3584 
Q 2894 3584 3203 3211 
Q 3513 2838 3513 2113 
z
" transform="scale(0.015625)"/>
       </defs>
       <use xlink:href="#DejaVuSans-4a"/>
       <use xlink:href="#DejaVuSans-61" transform="translate(29.492188 0)"/>
       <use xlink:href="#DejaVuSans-6e" transform="translate(90.771484 0)"/>
      </g>
      <!-- 2006 -->
      <g transform="translate(44.875 333.38025) scale(0.1 -0.1)">
       <defs>
        <path id="DejaVuSans-32" d="M 1228 531 
L 3431 531 
L 3431 0 
L 469 0 
L 469 531 
Q 828 903 1448 1529 
Q 2069 2156 2228 2338 
Q 2531 2678 2651 2914 
Q 2772 3150 2772 3378 
Q 2772 3750 2511 3984 
Q 2250 4219 1831 4219 
Q 1534 4219 1204 4116 
Q 875 4013 500 3803 
L 500 4441 
Q 881 4594 1212 4672 
Q 1544 4750 1819 4750 
Q 2544 4750 2975 4387 
Q 3406 4025 3406 3419 
Q 3406 3131 3298 2873 
Q 3191 2616 2906 2266 
Q 2828 2175 2409 1742 
Q 1991 1309 1228 531 
z
" transform="scale(0.015625)"/>
        <path id="DejaVuSans-30" d="M 2034 4250 
Q 1547 4250 1301 3770 
Q 1056 3291 1056 2328 
Q 1056 1369 1301 889 
Q 1547 409 2034 409 
Q 2525 409 2770 889 
Q 3016 1369 3016 2328 
Q 3016 3291 2770 3770 
Q 2525 4250 2034 4250 
z
M 2034 4750 
Q 2819 4750 3233 4129 
Q 3647 3509 3647 2328 
Q 3647 1150 3233 529 
Q 2819 -91 2034 -91 
Q 1250 -91 836 529 
Q 422 1150 422 2328 
Q 422 3509 836 4129 
Q 1250 4750 2034 4750 
z
" transform="scale(0.015625)"/>
        <path id="DejaVuSans-36" d="M 2113 2584 
Q 1688 2584 1439 2293 
Q 1191 2003 1191 1497 
Q 1191 994 1439 701 
Q 1688 409 2113 409 
Q 2538 409 2786 701 
Q 3034 994 3034 1497 
Q 3034 2003 2786 2293 
Q 2538 2584 2113 2584 
z
M 3366 4563 
L 3366 3988 
Q 3128 4100 2886 4159 
Q 2644 4219 2406 4219 
Q 1781 4219 1451 3797 
Q 1122 3375 1075 2522 
Q 1259 2794 1537 2939 
Q 1816 3084 2150 3084 
Q 2853 3084 3261 2657 
Q 3669 2231 3669 1497 
Q 3669 778 3244 343 
Q 2819 -91 2113 -91 
Q 1303 -91 875 529 
Q 447 1150 447 2328 
Q 447 3434 972 4092 
Q 1497 4750 2381 4750 
Q 2619 4750 2861 4703 
Q 3103 4656 3366 4563 
z
" transform="scale(0.015625)"/>
       </defs>
       <use xlink:href="#DejaVuSans-32"/>
       <use xlink:href="#DejaVuSans-30" transform="translate(63.623047 0)"/>
       <use xlink:href="#DejaVuSans-30" transform="translate(127.246094 0)"/>
       <use xlink:href="#DejaVuSans-36" transform="translate(190.869141 0)"/>
      </g>
     </g>
    </g>
    <g id="xtick_2">
     <g id="line2d_2">
      <g>
       <use xlink:href="#m5269c939c1" x="102.24" y="307.584" style="stroke: #000000; stroke-width: 0.8"/>
      </g>
     </g>
     <g id="text_2">
      <!-- Apr -->
      <g transform="translate(93.59 322.182437) scale(0.1 -0.1)">
       <defs>
        <path id="DejaVuSans-41" d="M 2188 4044 
L 1331 1722 
L 3047 1722 
L 2188 4044 
z
M 1831 4666 
L 2547 4666 
L 4325 0 
L 3669 0 
L 3244 1197 
L 1141 1197 
L 716 0 
L 50 0 
L 1831 4666 
z
" transform="scale(0.015625)"/>
        <path id="DejaVuSans-70" d="M 1159 525 
L 1159 -1331 
L 581 -1331 
L 581 3500 
L 1159 3500 
L 1159 2969 
Q 1341 3281 1617 3432 
Q 1894 3584 2278 3584 
Q 2916 3584 3314 3078 
Q 3713 2572 3713 1747 
Q 3713 922 3314 415 
Q 2916 -91 2278 -91 
Q 1894 -91 1617 61 
Q 1341 213 1159 525 
z
M 3116 1747 
Q 3116 2381 2855 2742 
Q 2594 3103 2138 3103 
Q 1681 3103 1420 2742 
Q 1159 2381 1159 1747 
Q 1159 1113 1420 752 
Q 1681 391 2138 391 
Q 2594 391 2855 752 
Q 3116 1113 3116 1747 
z
" transform="scale(0.015625)"/>
        <path id="DejaVuSans-72" d="M 2631 2963 
Q 2534 3019 2420 3045 
Q 2306 3072 2169 3072 
Q 1681 3072 1420 2755 
Q 1159 2438 1159 1844 
L 1159 0 
L 581 0 
L 581 3500 
L 1159 3500 
L 1159 2956 
Q 1341 3275 1631 3429 
Q 1922 3584 2338 3584 
Q 2397 3584 2469 3576 
Q 2541 3569 2628 3553 
L 2631 2963 
z
" transform="scale(0.015625)"/>
       </defs>
       <use xlink:href="#DejaVuSans-41"/>
       <use xlink:href="#DejaVuSans-70" transform="translate(68.408203 0)"/>
       <use xlink:href="#DejaVuSans-72" transform="translate(131.884766 0)"/>
      </g>
     </g>
    </g>
    <g id="xtick_3">
     <g id="line2d_3">
      <g>
       <use xlink:href="#m5269c939c1" x="146.88" y="307.584" style="stroke: #000000; stroke-width: 0.8"/>
      </g>
     </g>
     <g id="text_3">
      <!-- Jul -->
      <g transform="translate(140.847188 322.182437) scale(0.1 -0.1)">
       <defs>
        <path id="DejaVuSans-75" d="M 544 1381 
L 544 3500 
L 1119 3500 
L 1119 1403 
Q 1119 906 1312 657 
Q 1506 409 1894 409 
Q 2359 409 2629 706 
Q 2900 1003 2900 1516 
L 2900 3500 
L 3475 3500 
L 3475 0 
L 2900 0 
L 2900 538 
Q 2691 219 2414 64 
Q 2138 -91 1772 -91 
Q 1169 -91 856 284 
Q 544 659 544 1381 
z
M 1991 3584 
L 1991 3584 
z
" transform="scale(0.015625)"/>
        <path id="DejaVuSans-6c" d="M 603 4863 
L 1178 4863 
L 1178 0 
L 603 0 
L 603 4863 
z
" transform="scale(0.015625)"/>
       </defs>
       <use xlink:href="#DejaVuSans-4a"/>
       <use xlink:href="#DejaVuSans-75" transform="translate(29.492188 0)"/>
       <use xlink:href="#DejaVuSans-6c" transform="translate(92.871094 0)"/>
      </g>
     </g>
    </g>
    <g id="xtick_4">
     <g id="line2d_4">
      <g>
       <use xlink:href="#m5269c939c1" x="191.52" y="307.584" style="stroke: #000000; stroke-width: 0.8"/>
      </g>
     </g>
     <g id="text_4">
      <!-- Oct -->
      <g transform="translate(182.874688 322.182437) scale(0.1 -0.1)">
       <defs>
        <path id="DejaVuSans-4f" d="M 2522 4238 
Q 1834 4238 1429 3725 
Q 1025 3213 1025 2328 
Q 1025 1447 1429 934 
Q 1834 422 2522 422 
Q 3209 422 3611 934 
Q 4013 1447 4013 2328 
Q 4013 3213 3611 3725 
Q 3209 4238 2522 4238 
z
M 2522 4750 
Q 3503 4750 4090 4092 
Q 4678 3434 4678 2328 
Q 4678 1225 4090 567 
Q 3503 -91 2522 -91 
Q 1538 -91 948 565 
Q 359 1222 359 2328 
Q 359 3434 948 4092 
Q 1538 4750 2522 4750 
z
" transform="scale(0.015625)"/>
        <path id="DejaVuSans-63" d="M 3122 3366 
L 3122 2828 
Q 2878 2963 2633 3030 
Q 2388 3097 2138 3097 
Q 1578 3097 1268 2742 
Q 959 2388 959 1747 
Q 959 1106 1268 751 
Q 1578 397 2138 397 
Q 2388 397 2633 464 
Q 2878 531 3122 666 
L 3122 134 
Q 2881 22 2623 -34 
Q 2366 -91 2075 -91 
Q 1284 -91 818 406 
Q 353 903 353 1747 
Q 353 2603 823 3093 
Q 1294 3584 2113 3584 
Q 2378 3584 2631 3529 
Q 2884 3475 3122 3366 
z
" transform="scale(0.015625)"/>
        <path id="DejaVuSans-74" d="M 1172 4494 
L 1172 3500 
L 2356 3500 
L 2356 3053 
L 1172 3053 
L 1172 1153 
Q 1172 725 1289 603 
Q 1406 481 1766 481 
L 2356 481 
L 2356 0 
L 1766 0 
Q 1100 0 847 248 
Q 594 497 594 1153 
L 594 3053 
L 172 3053 
L 172 3500 
L 594 3500 
L 594 4494 
L 1172 4494 
z
" transform="scale(0.015625)"/>
       </defs>
       <use xlink:href="#DejaVuSans-4f"/>
       <use xlink:href="#DejaVuSans-63" transform="translate(78.710938 0)"/>
       <use xlink:href="#DejaVuSans-74" transform="translate(133.691406 0)"/>
      </g>
     </g>
    </g>
    <g id="xtick_5">
     <g id="line2d_5">
      <g>
       <use xlink:href="#m5269c939c1" x="236.16" y="307.584" style="stroke: #000000; stroke-width: 0.8"/>
      </g>
     </g>
     <g id="text_5">
      <!-- Jan -->
      <g transform="translate(228.452188 322.182437) scale(0.1 -0.1)">
       <use xlink:href="#DejaVuSans-4a"/>
       <use xlink:href="#DejaVuSans-61" transform="translate(29.492188 0)"/>
       <use xlink:href="#DejaVuSans-6e" transform="translate(90.771484 0)"/>
      </g>
      <!-- 2007 -->
      <g transform="translate(223.435 333.38025) scale(0.1 -0.1)">
       <defs>
        <path id="DejaVuSans-37" d="M 525 4666 
L 3525 4666 
L 3525 4397 
L 1831 0 
L 1172 0 
L 2766 4134 
L 525 4134 
L 525 4666 
z
" transform="scale(0.015625)"/>
       </defs>
       <use xlink:href="#DejaVuSans-32"/>
       <use xlink:href="#DejaVuSans-30" transform="translate(63.623047 0)"/>
       <use xlink:href="#DejaVuSans-30" transform="translate(127.246094 0)"/>
       <use xlink:href="#DejaVuSans-37" transform="translate(190.869141 0)"/>
      </g>
     </g>
    </g>
    <g id="xtick_6">
     <g id="line2d_6">
      <g>
       <use xlink:href="#m5269c939c1" x="280.8" y="307.584" style="stroke: #000000; stroke-width: 0.8"/>
      </g>
     </g>
     <g id="text_6">
      <!-- Apr -->
      <g transform="translate(272.15 322.182437) scale(0.1 -0.1)">
       <use xlink:href="#DejaVuSans-41"/>
       <use xlink:href="#DejaVuSans-70" transform="translate(68.408203 0)"/>
       <use xlink:href="#DejaVuSans-72" transform="translate(131.884766 0)"/>
      </g>
     </g>
    </g>
    <g id="xtick_7">
     <g id="line2d_7">
      <g>
       <use xlink:href="#m5269c939c1" x="325.44" y="307.584" style="stroke: #000000; stroke-width: 0.8"/>
      </g>
     </g>
     <g id="text_7">
      <!-- Jul -->
      <g transform="translate(319.407188 322.182437) scale(0.1 -0.1)">
       <use xlink:href="#DejaVuSans-4a"/>
       <use xlink:href="#DejaVuSans-75" transform="translate(29.492188 0)"/>
       <use xlink:href="#DejaVuSans-6c" transform="translate(92.871094 0)"/>
      </g>
     </g>
    </g>
    <g id="xtick_8">
     <g id="line2d_8">
      <g>
       <use xlink:href="#m5269c939c1" x="370.08" y="307.584" style="stroke: #000000; stroke-width: 0.8"/>
      </g>
     </g>
     <g id="text_8">
      <!-- Oct -->
      <g transform="translate(361.434688 322.182437) scale(0.1 -0.1)">
       <use xlink:href="#DejaVuSans-4f"/>
       <use xlink:href="#DejaVuSans-63" transform="translate(78.710938 0)"/>
       <use xlink:href="#DejaVuSans-74" transform="translate(133.691406 0)"/>
      </g>
     </g>
    </g>
    <g id="xtick_9">
     <g id="line2d_9">
      <g>
       <use xlink:href="#m5269c939c1" x="414.72" y="307.584" style="stroke: #000000; stroke-width: 0.8"/>
      </g>
     </g>
    </g>
    <g id="xtick_10">
     <g id="line2d_10">
      <defs>
       <path id="mc3a13153c8" d="M 0 0 
L 0 2 
" style="stroke: #000000; stroke-width: 0.6"/>
      </defs>
      <g>
       <use xlink:href="#mc3a13153c8" x="72.708923" y="307.584" style="stroke: #000000; stroke-width: 0.6"/>
      </g>
     </g>
    </g>
    <g id="xtick_11">
     <g id="line2d_11">
      <g>
       <use xlink:href="#mc3a13153c8" x="86.444308" y="307.584" style="stroke: #000000; stroke-width: 0.6"/>
      </g>
     </g>
    </g>
    <g id="xtick_12">
     <g id="line2d_12">
      <g>
       <use xlink:href="#mc3a13153c8" x="115.975385" y="307.584" style="stroke: #000000; stroke-width: 0.6"/>
      </g>
     </g>
    </g>
    <g id="xtick_13">
     <g id="line2d_13">
      <g>
       <use xlink:href="#mc3a13153c8" x="131.771077" y="307.584" style="stroke: #000000; stroke-width: 0.6"/>
      </g>
     </g>
    </g>
    <g id="xtick_14">
     <g id="line2d_14">
      <g>
       <use xlink:href="#mc3a13153c8" x="161.302154" y="307.584" style="stroke: #000000; stroke-width: 0.6"/>
      </g>
     </g>
    </g>
    <g id="xtick_15">
     <g id="line2d_15">
      <g>
       <use xlink:href="#mc3a13153c8" x="177.097846" y="307.584" style="stroke: #000000; stroke-width: 0.6"/>
      </g>
     </g>
    </g>
    <g id="xtick_16">
     <g id="line2d_16">
      <g>
       <use xlink:href="#mc3a13153c8" x="206.628923" y="307.584" style="stroke: #000000; stroke-width: 0.6"/>
      </g>
     </g>
    </g>
    <g id="xtick_17">
     <g id="line2d_17">
      <g>
       <use xlink:href="#mc3a13153c8" x="221.737846" y="307.584" style="stroke: #000000; stroke-width: 0.6"/>
      </g>
     </g>
    </g>
    <g id="xtick_18">
     <g id="line2d_18">
      <g>
       <use xlink:href="#mc3a13153c8" x="251.955692" y="307.584" style="stroke: #000000; stroke-width: 0.6"/>
      </g>
     </g>
    </g>
    <g id="xtick_19">
     <g id="line2d_19">
      <g>
       <use xlink:href="#mc3a13153c8" x="265.691077" y="307.584" style="stroke: #000000; stroke-width: 0.6"/>
      </g>
     </g>
    </g>
    <g id="xtick_20">
     <g id="line2d_20">
      <g>
       <use xlink:href="#mc3a13153c8" x="295.222154" y="307.584" style="stroke: #000000; stroke-width: 0.6"/>
      </g>
     </g>
    </g>
    <g id="xtick_21">
     <g id="line2d_21">
      <g>
       <use xlink:href="#mc3a13153c8" x="311.017846" y="307.584" style="stroke: #000000; stroke-width: 0.6"/>
      </g>
     </g>
    </g>
    <g id="xtick_22">
     <g id="line2d_22">
      <g>
       <use xlink:href="#mc3a13153c8" x="340.548923" y="307.584" style="stroke: #000000; stroke-width: 0.6"/>
      </g>
     </g>
    </g>
    <g id="xtick_23">
     <g id="line2d_23">
      <g>
       <use xlink:href="#mc3a13153c8" x="356.344615" y="307.584" style="stroke: #000000; stroke-width: 0.6"/>
      </g>
     </g>
    </g>
    <g id="xtick_24">
     <g id="line2d_24">
      <g>
       <use xlink:href="#mc3a13153c8" x="385.875692" y="307.584" style="stroke: #000000; stroke-width: 0.6"/>
      </g>
     </g>
    </g>
    <g id="xtick_25">
     <g id="line2d_25">
      <g>
       <use xlink:href="#mc3a13153c8" x="400.984615" y="307.584" style="stroke: #000000; stroke-width: 0.6"/>
      </g>
     </g>
    </g>
   </g>
   <g id="matplotlib.axis_2">
    <g id="ytick_1">
     <g id="line2d_26">
      <defs>
       <path id="m874ec8c7c0" d="M 0 0 
L -3.5 0 
" style="stroke: #000000; stroke-width: 0.8"/>
      </defs>
      <g>
       <use xlink:href="#m874ec8c7c0" x="57.6" y="280.355836" style="stroke: #000000; stroke-width: 0.8"/>
      </g>
     </g>
     <g id="text_9">
      <!-- 60 -->
      <g transform="translate(37.875 284.155055) scale(0.1 -0.1)">
       <use xlink:href="#DejaVuSans-36"/>
       <use xlink:href="#DejaVuSans-30" transform="translate(63.623047 0)"/>
      </g>
     </g>
    </g>
    <g id="ytick_2">
     <g id="line2d_27">
      <g>
       <use xlink:href="#m874ec8c7c0" x="57.6" y="247.918185" style="stroke: #000000; stroke-width: 0.8"/>
      </g>
     </g>
     <g id="text_10">
      <!-- 80 -->
      <g transform="translate(37.875 251.717404) scale(0.1 -0.1)">
       <defs>
        <path id="DejaVuSans-38" d="M 2034 2216 
Q 1584 2216 1326 1975 
Q 1069 1734 1069 1313 
Q 1069 891 1326 650 
Q 1584 409 2034 409 
Q 2484 409 2743 651 
Q 3003 894 3003 1313 
Q 3003 1734 2745 1975 
Q 2488 2216 2034 2216 
z
M 1403 2484 
Q 997 2584 770 2862 
Q 544 3141 544 3541 
Q 544 4100 942 4425 
Q 1341 4750 2034 4750 
Q 2731 4750 3128 4425 
Q 3525 4100 3525 3541 
Q 3525 3141 3298 2862 
Q 3072 2584 2669 2484 
Q 3125 2378 3379 2068 
Q 3634 1759 3634 1313 
Q 3634 634 3220 271 
Q 2806 -91 2034 -91 
Q 1263 -91 848 271 
Q 434 634 434 1313 
Q 434 1759 690 2068 
Q 947 2378 1403 2484 
z
M 1172 3481 
Q 1172 3119 1398 2916 
Q 1625 2713 2034 2713 
Q 2441 2713 2670 2916 
Q 2900 3119 2900 3481 
Q 2900 3844 2670 4047 
Q 2441 4250 2034 4250 
Q 1625 4250 1398 4047 
Q 1172 3844 1172 3481 
z
" transform="scale(0.015625)"/>
       </defs>
       <use xlink:href="#DejaVuSans-38"/>
       <use xlink:href="#DejaVuSans-30" transform="translate(63.623047 0)"/>
      </g>
     </g>
    </g>
    <g id="ytick_3">
     <g id="line2d_28">
      <g>
       <use xlink:href="#m874ec8c7c0" x="57.6" y="215.480534" style="stroke: #000000; stroke-width: 0.8"/>
      </g>
     </g>
     <g id="text_11">
      <!-- 100 -->
      <g transform="translate(31.5125 219.279753) scale(0.1 -0.1)">
       <defs>
        <path id="DejaVuSans-31" d="M 794 531 
L 1825 531 
L 1825 4091 
L 703 3866 
L 703 4441 
L 1819 4666 
L 2450 4666 
L 2450 531 
L 3481 531 
L 3481 0 
L 794 0 
L 794 531 
z
" transform="scale(0.015625)"/>
       </defs>
       <use xlink:href="#DejaVuSans-31"/>
       <use xlink:href="#DejaVuSans-30" transform="translate(63.623047 0)"/>
       <use xlink:href="#DejaVuSans-30" transform="translate(127.246094 0)"/>
      </g>
     </g>
    </g>
    <g id="ytick_4">
     <g id="line2d_29">
      <g>
       <use xlink:href="#m874ec8c7c0" x="57.6" y="183.042883" style="stroke: #000000; stroke-width: 0.8"/>
      </g>
     </g>
     <g id="text_12">
      <!-- 120 -->
      <g transform="translate(31.5125 186.842102) scale(0.1 -0.1)">
       <use xlink:href="#DejaVuSans-31"/>
       <use xlink:href="#DejaVuSans-32" transform="translate(63.623047 0)"/>
       <use xlink:href="#DejaVuSans-30" transform="translate(127.246094 0)"/>
      </g>
     </g>
    </g>
    <g id="ytick_5">
     <g id="line2d_30">
      <g>
       <use xlink:href="#m874ec8c7c0" x="57.6" y="150.605233" style="stroke: #000000; stroke-width: 0.8"/>
      </g>
     </g>
     <g id="text_13">
      <!-- 140 -->
      <g transform="translate(31.5125 154.404451) scale(0.1 -0.1)">
       <defs>
        <path id="DejaVuSans-34" d="M 2419 4116 
L 825 1625 
L 2419 1625 
L 2419 4116 
z
M 2253 4666 
L 3047 4666 
L 3047 1625 
L 3713 1625 
L 3713 1100 
L 3047 1100 
L 3047 0 
L 2419 0 
L 2419 1100 
L 313 1100 
L 313 1709 
L 2253 4666 
z
" transform="scale(0.015625)"/>
       </defs>
       <use xlink:href="#DejaVuSans-31"/>
       <use xlink:href="#DejaVuSans-34" transform="translate(63.623047 0)"/>
       <use xlink:href="#DejaVuSans-30" transform="translate(127.246094 0)"/>
      </g>
     </g>
    </g>
    <g id="ytick_6">
     <g id="line2d_31">
      <g>
       <use xlink:href="#m874ec8c7c0" x="57.6" y="118.167582" style="stroke: #000000; stroke-width: 0.8"/>
      </g>
     </g>
     <g id="text_14">
      <!-- 160 -->
      <g transform="translate(31.5125 121.9668) scale(0.1 -0.1)">
       <use xlink:href="#DejaVuSans-31"/>
       <use xlink:href="#DejaVuSans-36" transform="translate(63.623047 0)"/>
       <use xlink:href="#DejaVuSans-30" transform="translate(127.246094 0)"/>
      </g>
     </g>
    </g>
    <g id="ytick_7">
     <g id="line2d_32">
      <g>
       <use xlink:href="#m874ec8c7c0" x="57.6" y="85.729931" style="stroke: #000000; stroke-width: 0.8"/>
      </g>
     </g>
     <g id="text_15">
      <!-- 180 -->
      <g transform="translate(31.5125 89.52915) scale(0.1 -0.1)">
       <use xlink:href="#DejaVuSans-31"/>
       <use xlink:href="#DejaVuSans-38" transform="translate(63.623047 0)"/>
       <use xlink:href="#DejaVuSans-30" transform="translate(127.246094 0)"/>
      </g>
     </g>
    </g>
    <g id="ytick_8">
     <g id="line2d_33">
      <g>
       <use xlink:href="#m874ec8c7c0" x="57.6" y="53.29228" style="stroke: #000000; stroke-width: 0.8"/>
      </g>
     </g>
     <g id="text_16">
      <!-- 200 -->
      <g transform="translate(31.5125 57.091499) scale(0.1 -0.1)">
       <use xlink:href="#DejaVuSans-32"/>
       <use xlink:href="#DejaVuSans-30" transform="translate(63.623047 0)"/>
       <use xlink:href="#DejaVuSans-30" transform="translate(127.246094 0)"/>
      </g>
     </g>
    </g>
   </g>
   <g id="line2d_34">
    <path d="M 57.6 261.071652 
L 58.286769 256.433068 
L 58.973538 256.076254 
L 59.660308 257.033165 
L 60.347077 253.91915 
L 61.033846 254.324621 
L 61.720615 246.523366 
L 62.407385 241.592843 
L 63.094154 240.960309 
L 63.780923 238.851862 
L 64.467692 238.851862 
L 65.154462 240.279118 
L 65.841231 243.879698 
L 67.214769 254.259746 
L 67.901538 251.697171 
L 69.275077 257.325104 
L 69.961846 260.358024 
L 70.648615 260.844589 
L 71.335385 256.027598 
L 72.022154 255.200438 
L 72.708923 255.346407 
L 73.395692 260.731057 
L 74.082462 261.136528 
L 74.769231 268.516093 
L 75.456 268.029529 
L 76.142769 266.067051 
L 76.829538 272.327517 
L 77.516308 268.499874 
L 78.203077 272.716769 
L 78.889846 267.964653 
L 80.263385 263.212537 
L 80.950154 263.666665 
L 81.636923 263.666665 
L 82.323692 265.629142 
L 83.010462 261.996126 
L 83.697231 261.298716 
L 84.384 261.769062 
L 85.070769 262.531347 
L 85.757538 266.586053 
L 87.131077 264.769545 
L 87.817846 267.834903 
L 88.504615 271.46792 
L 89.191385 270.121757 
L 89.878154 271.175981 
L 90.564923 273.981837 
L 91.251692 275.182031 
L 91.938462 271.143543 
L 92.625231 268.483656 
L 93.312 270.251508 
L 93.998769 273.365522 
L 94.685538 272.797863 
L 95.372308 273.884525 
L 96.059077 277.420228 
L 96.745846 277.647292 
L 97.432615 280.096335 
L 98.119385 280.420711 
L 98.806154 281.150558 
L 99.492923 282.448064 
L 100.179692 276.57685 
L 100.866462 275.895659 
L 102.24 276.057847 
L 102.926769 278.458233 
L 103.613538 268.662063 
L 104.300308 262.125876 
L 104.987077 264.477606 
L 105.673846 266.294114 
L 106.360615 267.396994 
L 107.047385 269.473004 
L 107.734154 269.862256 
L 108.420923 269.862256 
L 109.107692 272.554581 
L 109.794462 270.267726 
L 110.481231 271.1922 
L 111.168 267.980872 
L 111.854769 268.937783 
L 112.541538 271.030011 
L 113.228308 270.348821 
L 113.915077 267.137493 
L 115.288615 263.504476 
L 115.975385 264.785763 
L 116.662154 261.509561 
L 117.348923 262.288064 
L 118.035692 262.304283 
L 118.722462 261.071652 
L 119.409231 261.071652 
L 120.096 262.466471 
L 120.782769 263.163881 
L 121.469538 267.137493 
L 122.156308 267.86734 
L 122.843077 267.721371 
L 123.529846 272.278861 
L 124.216615 271.824734 
L 124.903385 275.198249 
L 125.590154 273.041146 
L 126.276923 274.873873 
L 126.963692 275.246906 
L 127.650462 274.938748 
L 128.337231 273.333084 
L 129.024 274.598153 
L 129.710769 274.598153 
L 130.397538 278.377139 
L 131.084308 280.728869 
L 131.771077 276.836351 
L 132.457846 277.663511 
L 133.144615 280.355836 
L 133.831385 280.809963 
L 134.518154 282.691347 
L 135.204923 279.123205 
L 135.891692 281.588467 
L 136.578462 285.221484 
L 137.265231 283.06438 
L 137.952 284.232135 
L 138.638769 281.361403 
L 139.325538 284.313229 
L 140.012308 284.897107 
L 140.699077 284.459199 
L 141.385846 283.826665 
L 142.072615 281.037027 
L 142.759385 282.253438 
L 143.446154 281.993937 
L 144.819692 286.810928 
L 145.506462 282.026375 
L 146.193231 284.783575 
L 146.88 283.680695 
L 147.566769 283.680695 
L 148.253538 285.221484 
L 148.940308 287.216399 
L 150.313846 288.465249 
L 151.000615 287.411025 
L 151.687385 291.773889 
L 152.374154 292.925426 
L 153.060923 295.488 
L 153.747692 292.7308 
L 154.434462 291.871202 
L 155.121231 289.924943 
L 155.808 279.544895 
L 156.494769 279.18808 
L 157.181538 278.052763 
L 157.868308 277.225603 
L 158.555077 274.07915 
L 159.241846 274.841435 
L 160.615385 267.445651 
L 161.302154 268.710719 
L 161.988923 267.121274 
L 162.675692 264.801982 
L 164.049231 268.662063 
L 164.736 272.603237 
L 165.422769 274.533278 
L 166.109538 273.754774 
L 166.796308 274.435965 
L 167.483077 273.965619 
L 168.169846 269.894693 
L 168.856615 267.413213 
L 169.543385 268.045747 
L 170.230154 267.526745 
L 170.916923 269.716286 
L 171.603692 267.997091 
L 172.290462 268.499874 
L 172.977231 267.688933 
L 173.664 266.164364 
L 174.350769 269.035096 
L 175.037538 269.846037 
L 175.724308 269.067533 
L 176.411077 267.624058 
L 177.097846 266.76446 
L 177.784615 266.76446 
L 178.471385 261.736624 
L 179.158154 264.088354 
L 179.844923 259.595739 
L 180.531692 260.049866 
L 181.218462 260.082304 
L 181.905231 259.871459 
L 182.592 257.325104 
L 183.965538 257.487292 
L 184.652308 257.827887 
L 185.339077 258.022513 
L 186.025846 255.605908 
L 186.712615 256.595257 
L 187.399385 259.271363 
L 188.086154 254.811186 
L 188.772923 251.794484 
L 189.459692 253.740743 
L 190.146462 252.767614 
L 190.833231 252.81627 
L 191.52 256.254661 
L 192.206769 257.51973 
L 192.893538 255.411282 
L 194.267077 257.292666 
L 194.953846 256.627694 
L 195.640615 257.957638 
L 196.327385 258.89833 
L 197.014154 255.605908 
L 197.700923 255.99516 
L 198.387692 255.378845 
L 199.074462 257.179134 
L 199.761231 256.789883 
L 200.448 249.556286 
L 201.134769 247.999279 
L 201.821538 245.550237 
L 202.508308 246.215208 
L 203.881846 244.366262 
L 204.568615 247.253213 
L 205.255385 247.236994 
L 205.942154 246.166552 
L 206.628923 249.280566 
L 207.315692 249.572505 
L 208.002462 250.691604 
L 208.689231 248.388531 
L 209.376 247.091025 
L 210.062769 243.944573 
L 210.749538 242.501097 
L 211.436308 242.857912 
L 212.123077 240.862996 
L 212.809846 239.808772 
L 213.496615 241.349561 
L 214.183385 238.819424 
L 214.870154 238.430172 
L 215.556923 237.424605 
L 216.243692 233.969995 
L 216.930462 231.196576 
L 217.617231 231.196576 
L 218.304 229.055691 
L 218.990769 232.445426 
L 219.677538 228.763752 
L 220.364308 228.779971 
L 221.051077 229.007035 
L 221.737846 229.558475 
L 222.424615 229.882851 
L 223.111385 229.639569 
L 223.798154 231.97508 
L 224.484923 236.500132 
L 225.171692 234.521435 
L 225.858462 233.726713 
L 226.545231 237.959826 
L 227.232 233.240148 
L 227.918769 234.051089 
L 228.605538 235.397252 
L 229.292308 239.046488 
L 229.979077 237.684106 
L 230.665846 240.198024 
L 231.352615 243.214726 
L 232.039385 244.350043 
L 232.726154 244.350043 
L 233.412923 245.469142 
L 234.099692 245.452924 
L 234.786462 246.507147 
L 235.473231 240.068274 
L 236.846769 240.068274 
L 237.533538 241.755031 
L 238.220308 238.73833 
L 238.907077 239.727678 
L 239.593846 239.046488 
L 240.280615 227.531121 
L 240.967385 220.346182 
L 242.340923 224.206262 
L 243.027692 224.206262 
L 243.714462 220.183994 
L 244.401231 223.671041 
L 245.088 233.20771 
L 245.774769 234.132183 
L 246.461538 236.905603 
L 247.148308 238.673455 
L 247.835077 237.051572 
L 248.521846 237.781419 
L 249.208615 239.192457 
L 249.895385 238.284203 
L 250.582154 238.916737 
L 251.268923 238.624798 
L 251.955692 240.230462 
L 252.642462 240.214243 
L 253.329231 241.527968 
L 254.016 241.187372 
L 254.702769 237.943607 
L 255.389538 237.894951 
L 256.076308 242.614629 
L 256.763077 240.003398 
L 257.449846 240.295337 
L 258.136615 239.322208 
L 258.823385 239.468177 
L 259.510154 240.084492 
L 260.196923 240.084492 
L 260.883692 238.349078 
L 261.570462 232.996866 
L 262.257231 232.494082 
L 262.944 233.20771 
L 263.630769 234.115965 
L 264.317538 241.544187 
L 265.004308 240.441307 
L 265.691077 236.467694 
L 266.377846 239.1438 
L 267.064615 237.667887 
L 267.751385 234.634967 
L 268.438154 235.397252 
L 269.124923 234.943125 
L 269.811692 234.991781 
L 270.498462 231.910204 
L 271.185231 234.294372 
L 271.872 231.69936 
L 272.558769 232.396769 
L 273.245538 232.364331 
L 273.932308 229.866632 
L 274.619077 229.298973 
L 275.305846 225.422674 
L 275.992615 225.276705 
L 276.679385 225.990333 
L 277.366154 222.211347 
L 278.052923 222.843881 
L 278.739692 226.44446 
L 279.426462 225.6173 
L 280.113231 226.979681 
L 281.486769 224.400888 
L 282.173538 224.773921 
L 282.860308 224.108949 
L 283.547077 224.108949 
L 284.233846 225.779488 
L 284.920615 224.806359 
L 285.607385 227.498684 
L 286.294154 228.147437 
L 286.980923 231.310108 
L 287.667692 229.380068 
L 288.354462 231.131701 
L 289.041231 231.050607 
L 289.728 231.261451 
L 290.414769 230.126134 
L 291.101538 226.006552 
L 291.788308 226.44446 
L 292.475077 223.022288 
L 293.161846 217.361918 
L 293.848615 215.610285 
L 294.535385 215.804911 
L 295.222154 216.340132 
L 295.908923 214.848 
L 296.595692 214.831781 
L 297.282462 214.166809 
L 297.969231 209.122755 
L 298.656 207.273809 
L 299.342769 204.321982 
L 300.029538 203.575916 
L 300.716308 201.305281 
L 301.403077 200.299714 
L 302.089846 203.283977 
L 302.776615 203.575916 
L 303.463385 200.169963 
L 304.150154 199.229271 
L 304.836923 196.050381 
L 305.523692 193.520245 
L 306.210462 194.574468 
L 306.897231 198.14261 
L 307.584 193.390494 
L 308.270769 193.390494 
L 308.957538 192.20652 
L 309.644308 185.037799 
L 310.331077 181.112843 
L 311.017846 185.637895 
L 311.704615 180.88578 
L 312.391385 178.712457 
L 313.078154 177.139231 
L 314.451692 175.760631 
L 315.138462 182.734726 
L 315.825231 182.426568 
L 316.512 187.09759 
L 317.198769 185.070237 
L 317.885538 182.231942 
L 318.572308 174.787501 
L 319.259077 177.106793 
L 319.945846 180.528965 
L 320.632615 176.717541 
L 321.319385 178.177236 
L 322.006154 179.247678 
L 322.692923 183.610542 
L 323.379692 179.977525 
L 324.066462 182.134629 
L 324.753231 179.734243 
L 325.44 180.999311 
L 326.126769 171.413986 
L 326.813538 171.413986 
L 327.500308 162.363881 
L 328.187077 163.093728 
L 328.873846 166.288837 
L 329.560615 163.012634 
L 330.247385 162.947759 
L 330.934154 160.222996 
L 331.620923 154.286906 
L 332.307692 153.686809 
L 332.994462 152.373084 
L 333.681231 153.654372 
L 334.368 150.605233 
L 335.054769 144.523173 
L 335.741538 144.604267 
L 336.428308 158.893052 
L 337.115077 155.049191 
L 337.801846 140.873937 
L 339.175385 148.28594 
L 339.862154 163.969545 
L 340.548923 158.714645 
L 341.235692 156.29804 
L 341.922462 163.823575 
L 342.609231 158.309175 
L 343.296 158.665989 
L 343.982769 160.320309 
L 344.669538 172.679054 
L 345.356308 174.933471 
L 346.043077 170.408418 
L 348.103385 187.827437 
L 348.790154 179.701805 
L 349.476923 179.442304 
L 350.850462 162.753133 
L 351.537231 165.088644 
L 352.224 158.22808 
L 352.910769 163.174822 
L 353.597538 171.981644 
L 354.284308 160.206777 
L 355.657846 153.070494 
L 356.344615 153.070494 
L 357.031385 143.858201 
L 357.718154 155.860132 
L 358.404923 158.698426 
L 359.091692 163.953326 
L 359.778462 155.941226 
L 360.465231 157.919923 
L 361.152 155.714163 
L 361.838769 155.146504 
L 362.525538 152.535273 
L 363.212308 153.184026 
L 363.899077 149.113101 
L 364.585846 149.356383 
L 365.272615 150.102449 
L 366.646154 137.176045 
L 367.332923 129.228821 
L 368.019692 129.893792 
L 368.706462 127.087936 
L 369.393231 128.758475 
L 370.08 124.103672 
L 370.766769 120.6815 
L 371.453538 121.541097 
L 372.140308 124.26586 
L 372.827077 115.815852 
L 373.513846 105.338491 
L 374.200615 105.419585 
L 374.887385 107.154999 
L 375.574154 114.550784 
L 376.260923 106.408933 
L 376.947692 106.846842 
L 377.634462 102.629947 
L 378.321231 97.488579 
L 379.008 96.272167 
L 379.694769 101.267566 
L 380.381538 94.877348 
L 381.068308 75.739134 
L 381.755077 76.112167 
L 382.441846 81.221097 
L 383.128615 78.107083 
L 383.815385 77.474549 
L 384.502154 74.376753 
L 385.188923 69.5922 
L 385.875692 73.663125 
L 386.562462 72.965715 
L 387.249231 75.706697 
L 387.936 66.607936 
L 388.622769 75.512071 
L 390.683077 128.288129 
L 391.369846 102.013632 
L 392.056615 108.257879 
L 392.743385 111.193487 
L 393.430154 107.803752 
L 394.116923 111.761146 
L 394.803692 103.813921 
L 395.490462 104.446455 
L 396.177231 104.446455 
L 396.864 99.451057 
L 397.550769 97.829175 
L 398.237538 94.147501 
L 398.924308 85.373117 
L 399.611077 78.772055 
L 400.297846 82.129352 
L 400.984615 87.578877 
L 401.671385 86.038088 
L 402.358154 76.809577 
L 403.731692 62.53701 
L 404.418462 62.68298 
L 405.105231 71.879054 
L 405.792 68.116286 
L 406.478769 66.54306 
L 407.165538 68.878571 
L 407.852308 78.593648 
L 408.539077 80.896721 
L 409.225846 80.669657 
L 409.912615 74.036158 
L 410.599385 63.169545 
L 411.286154 55.238539 
L 411.972923 55.238539 
L 412.659692 54.995257 
L 413.346462 55.611572 
L 414.033231 53.568 
L 414.72 56.406294 
L 414.72 56.406294 
" clip-path="url(#peb5e599728)" style="fill: none; stroke: #000000; stroke-width: 1.5; stroke-linecap: square"/>
   </g>
   <g id="line2d_35">
    <path d="M 70.648615 250.904882 
L 72.022154 251.332985 
L 72.708923 251.507482 
L 74.082462 252.261586 
L 75.456 253.447603 
L 76.142769 253.898298 
L 76.829538 254.533788 
L 78.203077 255.387495 
L 79.576615 256.082742 
L 80.263385 256.288721 
L 81.636923 256.925039 
L 83.697231 258.919955 
L 87.131077 262.583788 
L 87.817846 263.036293 
L 89.191385 264.221348 
L 94.685538 267.868422 
L 95.372308 268.047369 
L 98.806154 269.683849 
L 100.179692 270.539121 
L 102.926769 272.211823 
L 103.613538 272.434021 
L 104.987077 272.551878 
L 108.420923 273.07088 
L 110.481231 273.112508 
L 111.854769 272.704335 
L 113.915077 272.658922 
L 115.975385 271.772833 
L 118.035692 270.137435 
L 120.096 268.157117 
L 120.782769 267.710018 
L 122.843077 266.870964 
L 123.529846 266.664985 
L 124.216615 266.770407 
L 124.903385 267.206153 
L 126.963692 268.03926 
L 129.024 268.495009 
L 129.710769 268.563128 
L 132.457846 269.737371 
L 133.831385 270.396936 
L 135.891692 271.983138 
L 139.325538 275.524248 
L 141.385846 277.74028 
L 144.819692 280.0666 
L 145.506462 280.294204 
L 146.88 280.979179 
L 148.253538 281.603064 
L 150.313846 282.968689 
L 151.687385 283.637986 
L 153.747692 285.180936 
L 154.434462 285.549644 
L 155.121231 285.790764 
L 156.494769 285.724808 
L 159.241846 284.735459 
L 159.928615 284.301335 
L 162.675692 282.096656 
L 164.049231 281.140286 
L 166.109538 280.05795 
L 168.169846 278.92966 
L 170.230154 277.020705 
L 171.603692 275.748608 
L 172.977231 274.131591 
L 174.350769 272.36428 
L 175.724308 270.934861 
L 179.158154 268.897776 
L 180.531692 268.014932 
L 181.905231 267.474845 
L 185.339077 265.739971 
L 186.712615 264.537075 
L 188.086154 263.393107 
L 189.459692 262.334018 
L 191.52 260.885677 
L 194.267077 259.424901 
L 197.014154 257.875463 
L 198.387692 257.136965 
L 199.761231 256.741767 
L 201.134769 256.005432 
L 203.195077 254.661432 
L 204.568615 253.886713 
L 206.628923 252.92764 
L 210.062769 251.710146 
L 211.436308 251.035984 
L 214.183385 248.881043 
L 215.556923 247.61219 
L 217.617231 245.075566 
L 220.364308 241.532293 
L 221.737846 240.232624 
L 223.798154 238.717245 
L 224.484923 238.455041 
L 227.918769 236.254687 
L 228.605538 235.744875 
L 229.979077 235.11991 
L 230.665846 234.995025 
L 232.039385 235.06855 
L 234.099692 235.510243 
L 234.786462 235.7665 
L 236.16 235.909226 
L 236.846769 236.112502 
L 238.907077 237.071575 
L 239.593846 237.291611 
L 240.280615 237.250523 
L 241.654154 236.745577 
L 243.027692 236.37795 
L 244.401231 235.785963 
L 245.774769 235.663241 
L 249.208615 236.17089 
L 251.955692 236.034652 
L 254.702769 235.409686 
L 255.389538 235.122613 
L 256.763077 235.205329 
L 260.196923 235.202626 
L 263.630769 236.95534 
L 265.004308 238.226356 
L 267.064615 238.527485 
L 268.438154 238.337725 
L 269.811692 238.103093 
L 273.245538 236.982912 
L 275.992615 235.359949 
L 278.739692 233.201763 
L 281.486769 231.361467 
L 284.233846 230.22669 
L 285.607385 229.237342 
L 287.667692 228.422616 
L 290.414769 227.876042 
L 291.788308 227.41759 
L 292.475077 227.128354 
L 295.222154 225.168039 
L 297.969231 223.636981 
L 298.656 223.117979 
L 300.716308 220.790037 
L 302.089846 219.236814 
L 303.463385 217.732248 
L 304.836923 215.911955 
L 306.897231 212.77145 
L 308.957538 209.010304 
L 314.451692 197.00513 
L 316.512 193.847324 
L 317.885538 191.790777 
L 319.259077 189.640702 
L 323.379692 185.037258 
L 326.126769 182.547669 
L 326.813538 181.775652 
L 328.187077 179.573136 
L 330.247385 176.960283 
L 330.934154 176.263955 
L 332.307692 174.31229 
L 335.054769 170.749014 
L 335.741538 169.477998 
L 336.428308 168.693548 
L 337.115077 167.625268 
L 338.488615 164.889693 
L 339.175385 164.006307 
L 339.862154 163.568399 
L 341.235692 162.160605 
L 341.922462 161.68215 
L 343.982769 159.497474 
L 344.669538 159.182288 
L 345.356308 159.022262 
L 346.043077 158.669233 
L 346.729846 158.83899 
L 347.416615 159.232026 
L 348.103385 160.080811 
L 349.476923 161.072862 
L 350.163692 161.331282 
L 350.850462 161.324795 
L 352.224 161.618356 
L 352.910769 161.934623 
L 353.597538 162.588241 
L 356.344615 163.576508 
L 357.031385 163.075347 
L 357.718154 163.102378 
L 359.091692 164.349606 
L 359.778462 164.604782 
L 361.152 164.303112 
L 361.838769 164.264727 
L 362.525538 163.888451 
L 363.212308 163.717612 
L 364.585846 163.033718 
L 365.272615 162.281165 
L 366.646154 160.138117 
L 368.019692 156.785146 
L 369.393231 153.062385 
L 370.766769 149.548306 
L 372.827077 145.400071 
L 374.887385 139.485065 
L 376.260923 136.52513 
L 378.321231 131.664348 
L 380.381538 125.458484 
L 382.441846 117.601545 
L 387.249231 100.486359 
L 388.622769 96.586272 
L 389.309538 95.452576 
L 389.996308 94.809229 
L 390.683077 94.948711 
L 391.369846 94.326449 
L 392.743385 93.447929 
L 393.430154 93.180859 
L 394.116923 93.394948 
L 395.490462 93.251141 
L 396.864 92.682401 
L 398.924308 91.695215 
L 400.297846 90.473937 
L 400.984615 90.230655 
L 401.671385 90.573953 
L 402.358154 90.5972 
L 403.044923 90.20957 
L 404.418462 89.197516 
L 405.792 89.065062 
L 407.165538 88.691488 
L 407.852308 88.78772 
L 408.539077 89.264013 
L 409.225846 89.435932 
L 409.912615 88.801236 
L 410.599385 87.258285 
L 411.286154 84.823298 
L 412.659692 81.488708 
L 414.72 75.982957 
L 414.72 75.982957 
" clip-path="url(#peb5e599728)" style="fill: none; stroke-dasharray: 5.55,2.4; stroke-dashoffset: 0; stroke: #000000; stroke-width: 1.5"/>
   </g>
   <g id="line2d_36">
    <path d="M 57.6 261.071652 
L 58.286769 258.675051 
L 58.973538 257.750414 
L 59.660308 257.552786 
L 60.347077 256.726046 
L 61.033846 256.256245 
L 61.720615 254.57288 
L 62.407385 252.547528 
L 63.780923 249.295232 
L 64.467692 247.999093 
L 65.154462 247.094846 
L 65.841231 246.737077 
L 66.528 247.028153 
L 67.214769 247.766072 
L 67.901538 248.152697 
L 68.588308 248.741386 
L 69.275077 249.533712 
L 70.648615 251.411459 
L 72.022154 252.091248 
L 72.708923 252.359013 
L 74.082462 253.679923 
L 75.456 255.861494 
L 76.142769 256.640261 
L 76.829538 257.823374 
L 77.516308 258.619899 
L 78.203077 259.661096 
L 78.889846 260.268721 
L 79.576615 260.641137 
L 81.636923 261.216241 
L 82.323692 261.527321 
L 85.070769 261.624876 
L 86.444308 262.214029 
L 87.131077 262.388158 
L 87.817846 262.757951 
L 89.191385 263.804252 
L 89.878154 264.300033 
L 91.251692 265.633958 
L 91.938462 266.001672 
L 93.312 266.438391 
L 96.059077 268.36425 
L 97.432615 269.70769 
L 99.492923 271.859568 
L 100.866462 272.41241 
L 102.24 272.866327 
L 102.926769 273.23128 
L 103.613538 272.933295 
L 104.300308 272.228975 
L 104.987077 271.724147 
L 106.360615 271.112226 
L 108.420923 270.861908 
L 109.107692 270.971805 
L 111.168 270.751255 
L 111.854769 270.63369 
L 113.228308 270.639254 
L 114.601846 270.07329 
L 119.409231 267.141069 
L 120.782769 266.601253 
L 122.843077 266.780505 
L 125.590154 268.269557 
L 127.650462 269.49509 
L 129.710769 270.34973 
L 131.771077 271.848914 
L 132.457846 272.224294 
L 135.204923 274.216339 
L 135.891692 274.692183 
L 136.578462 275.371789 
L 138.638769 276.72778 
L 140.699077 278.148321 
L 141.385846 278.514766 
L 143.446154 279.107412 
L 144.132923 279.456947 
L 144.819692 279.931491 
L 145.506462 280.066669 
L 146.88 280.584599 
L 148.253538 281.070682 
L 151.000615 282.631664 
L 152.374154 283.84766 
L 153.060923 284.598716 
L 154.434462 285.558785 
L 155.121231 285.840493 
L 157.868308 284.106466 
L 159.928615 282.154155 
L 161.302154 280.399053 
L 163.362462 277.836684 
L 164.049231 277.244755 
L 164.736 276.945294 
L 167.483077 276.294062 
L 168.169846 275.881191 
L 169.543385 274.864586 
L 170.230154 274.391169 
L 171.603692 273.696491 
L 172.977231 272.995262 
L 173.664 272.554554 
L 177.097846 271.369585 
L 177.784615 271.072478 
L 178.471385 270.47016 
L 179.158154 270.058428 
L 180.531692 268.781243 
L 182.592 267.013247 
L 183.965538 265.816885 
L 186.712615 263.743634 
L 187.399385 263.4551 
L 188.086154 262.897426 
L 188.772923 262.181105 
L 190.833231 260.532236 
L 192.893538 259.778522 
L 194.267077 259.408402 
L 195.640615 259.146978 
L 196.327385 259.130936 
L 198.387692 258.500586 
L 199.761231 258.310463 
L 201.134769 257.116877 
L 203.195077 255.03661 
L 203.881846 254.3482 
L 205.942154 252.99058 
L 207.315692 252.546146 
L 208.002462 252.426498 
L 209.376 251.838567 
L 211.436308 250.249923 
L 215.556923 246.643876 
L 216.930462 244.882359 
L 219.677538 241.47541 
L 221.051077 239.904781 
L 223.111385 238.053495 
L 223.798154 237.661339 
L 224.484923 237.586422 
L 225.858462 237.152425 
L 226.545231 237.204516 
L 227.918769 236.761804 
L 228.605538 236.673768 
L 230.665846 237.096081 
L 232.726154 238.347342 
L 234.786462 239.704727 
L 239.593846 239.76786 
L 240.280615 238.978393 
L 241.654154 236.777355 
L 244.401231 233.556578 
L 245.774769 233.572658 
L 248.521846 234.518185 
L 249.895385 235.043264 
L 252.642462 236.096743 
L 254.016 236.752966 
L 255.389538 236.898502 
L 256.076308 237.267284 
L 258.136615 237.737096 
L 260.883692 238.142218 
L 262.944 237.19247 
L 263.630769 236.993985 
L 265.004308 237.491015 
L 265.691077 237.424994 
L 267.064615 237.544401 
L 269.124923 237.082722 
L 269.811692 236.947822 
L 270.498462 236.622815 
L 271.185231 236.472593 
L 272.558769 235.921554 
L 273.245538 235.692055 
L 274.619077 234.928012 
L 278.052923 231.896856 
L 283.547077 229.104682 
L 285.607385 228.553908 
L 286.294154 228.527684 
L 286.980923 228.707196 
L 288.354462 228.904226 
L 290.414769 229.246511 
L 291.788308 228.870189 
L 292.475077 228.492905 
L 296.595692 224.280702 
L 297.282462 223.628193 
L 298.656 221.697613 
L 302.089846 216.251172 
L 303.463385 214.448675 
L 304.836923 212.343139 
L 306.210462 210.06074 
L 306.897231 209.291829 
L 308.957538 206.332055 
L 314.451692 195.283028 
L 315.825231 193.696242 
L 317.198769 192.741471 
L 317.885538 192.063437 
L 318.572308 190.948861 
L 319.259077 190.055824 
L 319.945846 189.441188 
L 321.319385 187.946561 
L 322.006154 187.385343 
L 322.692923 187.141807 
L 323.379692 186.679596 
L 324.066462 186.386372 
L 325.44 185.637338 
L 326.813538 183.861269 
L 328.187077 181.223979 
L 329.560615 179.147661 
L 330.934154 176.948989 
L 332.994462 172.679985 
L 334.368 170.107539 
L 335.741538 166.918053 
L 336.428308 166.400311 
L 337.115077 165.667981 
L 337.801846 164.068365 
L 338.488615 162.796921 
L 339.175385 161.860729 
L 339.862154 161.996781 
L 340.548923 161.785031 
L 341.235692 161.431031 
L 341.922462 161.585389 
L 343.296 161.199309 
L 343.982769 161.142599 
L 346.729846 164.081017 
L 348.790154 167.601741 
L 349.476923 168.365648 
L 350.163692 168.52046 
L 350.850462 168.148374 
L 351.537231 167.950972 
L 352.224 167.323689 
L 352.910769 167.05602 
L 353.597538 167.373802 
L 354.284308 166.911414 
L 354.971077 166.251793 
L 356.344615 164.605845 
L 357.031385 163.267287 
L 357.718154 162.789406 
L 358.404923 162.525472 
L 359.091692 162.617592 
L 359.778462 162.186858 
L 360.465231 161.911572 
L 361.838769 161.101079 
L 363.899077 159.366211 
L 365.272615 158.164418 
L 365.959385 157.242483 
L 366.646154 155.947874 
L 368.706462 151.004922 
L 370.08 147.9267 
L 371.453538 144.580051 
L 372.140308 143.269458 
L 372.827077 141.498258 
L 374.200615 136.988222 
L 374.887385 135.063498 
L 375.574154 133.740097 
L 378.321231 126.561719 
L 379.008 124.607554 
L 379.694769 123.101749 
L 380.381538 121.28082 
L 381.755077 115.618099 
L 386.562462 100.451473 
L 387.249231 98.855036 
L 387.936 96.774578 
L 388.622769 95.402803 
L 389.309538 95.252755 
L 389.996308 96.169227 
L 390.683077 98.241414 
L 391.369846 98.484783 
L 394.116923 101.137481 
L 396.177231 101.701784 
L 397.550769 101.316099 
L 398.237538 100.853608 
L 398.924308 99.854867 
L 399.611077 98.494686 
L 400.297846 97.438858 
L 401.671385 96.108237 
L 402.358154 94.863162 
L 403.044923 93.232777 
L 404.418462 89.409216 
L 405.792 86.977467 
L 407.165538 84.576502 
L 407.852308 84.190512 
L 409.225846 83.764567 
L 409.912615 83.136928 
L 410.599385 81.848709 
L 411.972923 78.525899 
L 414.033231 74.204205 
L 414.72 73.055953 
L 414.72 73.055953 
" clip-path="url(#peb5e599728)" style="fill: none; stroke: #000000; stroke-width: 1.5; stroke-linecap: square"/>
   </g>
   <g id="patch_3">
    <path d="M 57.6 307.584 
L 57.6 41.472 
" style="fill: none; stroke: #000000; stroke-width: 0.8; stroke-linejoin: miter; stroke-linecap: square"/>
   </g>
   <g id="patch_4">
    <path d="M 414.72 307.584 
L 414.72 41.472 
" style="fill: none; stroke: #000000; stroke-width: 0.8; stroke-linejoin: miter; stroke-linecap: square"/>
   </g>
   <g id="patch_5">
    <path d="M 57.6 307.584 
L 414.72 307.584 
" style="fill: none; stroke: #000000; stroke-width: 0.8; stroke-linejoin: miter; stroke-linecap: square"/>
   </g>
   <g id="patch_6">
    <path d="M 57.6 41.472 
L 414.72 41.472 
" style="fill: none; stroke: #000000; stroke-width: 0.8; stroke-linejoin: miter; stroke-linecap: square"/>
   </g>
   <g id="legend_1">
    <g id="patch_7">
     <path d="M 64.6 93.506375 
L 191.753125 93.506375 
Q 193.753125 93.506375 193.753125 91.506375 
L 193.753125 48.472 
Q 193.753125 46.472 191.753125 46.472 
L 64.6 46.472 
Q 62.6 46.472 62.6 48.472 
L 62.6 91.506375 
Q 62.6 93.506375 64.6 93.506375 
z
" style="fill: #ffffff; opacity: 0.8; stroke: #cccccc; stroke-linejoin: miter"/>
    </g>
    <g id="line2d_37">
     <path d="M 66.6 54.570438 
L 76.6 54.570438 
L 86.6 54.570438 
" style="fill: none; stroke: #000000; stroke-width: 1.5; stroke-linecap: square"/>
    </g>
    <g id="text_17">
     <!-- Price -->
     <g transform="translate(94.6 58.070438) scale(0.1 -0.1)">
      <defs>
       <path id="DejaVuSans-50" d="M 1259 4147 
L 1259 2394 
L 2053 2394 
Q 2494 2394 2734 2622 
Q 2975 2850 2975 3272 
Q 2975 3691 2734 3919 
Q 2494 4147 2053 4147 
L 1259 4147 
z
M 628 4666 
L 2053 4666 
Q 2838 4666 3239 4311 
Q 3641 3956 3641 3272 
Q 3641 2581 3239 2228 
Q 2838 1875 2053 1875 
L 1259 1875 
L 1259 0 
L 628 0 
L 628 4666 
z
" transform="scale(0.015625)"/>
       <path id="DejaVuSans-69" d="M 603 3500 
L 1178 3500 
L 1178 0 
L 603 0 
L 603 3500 
z
M 603 4863 
L 1178 4863 
L 1178 4134 
L 603 4134 
L 603 4863 
z
" transform="scale(0.015625)"/>
       <path id="DejaVuSans-65" d="M 3597 1894 
L 3597 1613 
L 953 1613 
Q 991 1019 1311 708 
Q 1631 397 2203 397 
Q 2534 397 2845 478 
Q 3156 559 3463 722 
L 3463 178 
Q 3153 47 2828 -22 
Q 2503 -91 2169 -91 
Q 1331 -91 842 396 
Q 353 884 353 1716 
Q 353 2575 817 3079 
Q 1281 3584 2069 3584 
Q 2775 3584 3186 3129 
Q 3597 2675 3597 1894 
z
M 3022 2063 
Q 3016 2534 2758 2815 
Q 2500 3097 2075 3097 
Q 1594 3097 1305 2825 
Q 1016 2553 972 2059 
L 3022 2063 
z
" transform="scale(0.015625)"/>
      </defs>
      <use xlink:href="#DejaVuSans-50"/>
      <use xlink:href="#DejaVuSans-72" transform="translate(58.552734 0)"/>
      <use xlink:href="#DejaVuSans-69" transform="translate(99.666016 0)"/>
      <use xlink:href="#DejaVuSans-63" transform="translate(127.449219 0)"/>
      <use xlink:href="#DejaVuSans-65" transform="translate(182.429688 0)"/>
     </g>
    </g>
    <g id="line2d_38">
     <path d="M 66.6 69.248563 
L 76.6 69.248563 
L 86.6 69.248563 
" style="fill: none; stroke-dasharray: 5.55,2.4; stroke-dashoffset: 0; stroke: #000000; stroke-width: 1.5"/>
    </g>
    <g id="text_18">
     <!-- Simple Moving Avg -->
     <g transform="translate(94.6 72.748563) scale(0.1 -0.1)">
      <defs>
       <path id="DejaVuSans-53" d="M 3425 4513 
L 3425 3897 
Q 3066 4069 2747 4153 
Q 2428 4238 2131 4238 
Q 1616 4238 1336 4038 
Q 1056 3838 1056 3469 
Q 1056 3159 1242 3001 
Q 1428 2844 1947 2747 
L 2328 2669 
Q 3034 2534 3370 2195 
Q 3706 1856 3706 1288 
Q 3706 609 3251 259 
Q 2797 -91 1919 -91 
Q 1588 -91 1214 -16 
Q 841 59 441 206 
L 441 856 
Q 825 641 1194 531 
Q 1563 422 1919 422 
Q 2459 422 2753 634 
Q 3047 847 3047 1241 
Q 3047 1584 2836 1778 
Q 2625 1972 2144 2069 
L 1759 2144 
Q 1053 2284 737 2584 
Q 422 2884 422 3419 
Q 422 4038 858 4394 
Q 1294 4750 2059 4750 
Q 2388 4750 2728 4690 
Q 3069 4631 3425 4513 
z
" transform="scale(0.015625)"/>
       <path id="DejaVuSans-6d" d="M 3328 2828 
Q 3544 3216 3844 3400 
Q 4144 3584 4550 3584 
Q 5097 3584 5394 3201 
Q 5691 2819 5691 2113 
L 5691 0 
L 5113 0 
L 5113 2094 
Q 5113 2597 4934 2840 
Q 4756 3084 4391 3084 
Q 3944 3084 3684 2787 
Q 3425 2491 3425 1978 
L 3425 0 
L 2847 0 
L 2847 2094 
Q 2847 2600 2669 2842 
Q 2491 3084 2119 3084 
Q 1678 3084 1418 2786 
Q 1159 2488 1159 1978 
L 1159 0 
L 581 0 
L 581 3500 
L 1159 3500 
L 1159 2956 
Q 1356 3278 1631 3431 
Q 1906 3584 2284 3584 
Q 2666 3584 2933 3390 
Q 3200 3197 3328 2828 
z
" transform="scale(0.015625)"/>
       <path id="DejaVuSans-20" transform="scale(0.015625)"/>
       <path id="DejaVuSans-4d" d="M 628 4666 
L 1569 4666 
L 2759 1491 
L 3956 4666 
L 4897 4666 
L 4897 0 
L 4281 0 
L 4281 4097 
L 3078 897 
L 2444 897 
L 1241 4097 
L 1241 0 
L 628 0 
L 628 4666 
z
" transform="scale(0.015625)"/>
       <path id="DejaVuSans-6f" d="M 1959 3097 
Q 1497 3097 1228 2736 
Q 959 2375 959 1747 
Q 959 1119 1226 758 
Q 1494 397 1959 397 
Q 2419 397 2687 759 
Q 2956 1122 2956 1747 
Q 2956 2369 2687 2733 
Q 2419 3097 1959 3097 
z
M 1959 3584 
Q 2709 3584 3137 3096 
Q 3566 2609 3566 1747 
Q 3566 888 3137 398 
Q 2709 -91 1959 -91 
Q 1206 -91 779 398 
Q 353 888 353 1747 
Q 353 2609 779 3096 
Q 1206 3584 1959 3584 
z
" transform="scale(0.015625)"/>
       <path id="DejaVuSans-76" d="M 191 3500 
L 800 3500 
L 1894 563 
L 2988 3500 
L 3597 3500 
L 2284 0 
L 1503 0 
L 191 3500 
z
" transform="scale(0.015625)"/>
       <path id="DejaVuSans-67" d="M 2906 1791 
Q 2906 2416 2648 2759 
Q 2391 3103 1925 3103 
Q 1463 3103 1205 2759 
Q 947 2416 947 1791 
Q 947 1169 1205 825 
Q 1463 481 1925 481 
Q 2391 481 2648 825 
Q 2906 1169 2906 1791 
z
M 3481 434 
Q 3481 -459 3084 -895 
Q 2688 -1331 1869 -1331 
Q 1566 -1331 1297 -1286 
Q 1028 -1241 775 -1147 
L 775 -588 
Q 1028 -725 1275 -790 
Q 1522 -856 1778 -856 
Q 2344 -856 2625 -561 
Q 2906 -266 2906 331 
L 2906 616 
Q 2728 306 2450 153 
Q 2172 0 1784 0 
Q 1141 0 747 490 
Q 353 981 353 1791 
Q 353 2603 747 3093 
Q 1141 3584 1784 3584 
Q 2172 3584 2450 3431 
Q 2728 3278 2906 2969 
L 2906 3500 
L 3481 3500 
L 3481 434 
z
" transform="scale(0.015625)"/>
      </defs>
      <use xlink:href="#DejaVuSans-53"/>
      <use xlink:href="#DejaVuSans-69" transform="translate(63.476562 0)"/>
      <use xlink:href="#DejaVuSans-6d" transform="translate(91.259766 0)"/>
      <use xlink:href="#DejaVuSans-70" transform="translate(188.671875 0)"/>
      <use xlink:href="#DejaVuSans-6c" transform="translate(252.148438 0)"/>
      <use xlink:href="#DejaVuSans-65" transform="translate(279.931641 0)"/>
      <use xlink:href="#DejaVuSans-20" transform="translate(341.455078 0)"/>
      <use xlink:href="#DejaVuSans-4d" transform="translate(373.242188 0)"/>
      <use xlink:href="#DejaVuSans-6f" transform="translate(459.521484 0)"/>
      <use xlink:href="#DejaVuSans-76" transform="translate(520.703125 0)"/>
      <use xlink:href="#DejaVuSans-69" transform="translate(579.882812 0)"/>
      <use xlink:href="#DejaVuSans-6e" transform="translate(607.666016 0)"/>
      <use xlink:href="#DejaVuSans-67" transform="translate(671.044922 0)"/>
      <use xlink:href="#DejaVuSans-20" transform="translate(734.521484 0)"/>
      <use xlink:href="#DejaVuSans-41" transform="translate(766.308594 0)"/>
      <use xlink:href="#DejaVuSans-76" transform="translate(828.841797 0)"/>
      <use xlink:href="#DejaVuSans-67" transform="translate(888.021484 0)"/>
     </g>
    </g>
    <g id="line2d_39">
     <path d="M 66.6 83.926688 
L 76.6 83.926688 
L 86.6 83.926688 
" style="fill: none; stroke: #000000; stroke-width: 1.5; stroke-linecap: square"/>
    </g>
    <g id="text_19">
     <!-- EW MA -->
     <g transform="translate(94.6 87.426688) scale(0.1 -0.1)">
      <defs>
       <path id="DejaVuSans-45" d="M 628 4666 
L 3578 4666 
L 3578 4134 
L 1259 4134 
L 1259 2753 
L 3481 2753 
L 3481 2222 
L 1259 2222 
L 1259 531 
L 3634 531 
L 3634 0 
L 628 0 
L 628 4666 
z
" transform="scale(0.015625)"/>
       <path id="DejaVuSans-57" d="M 213 4666 
L 850 4666 
L 1831 722 
L 2809 4666 
L 3519 4666 
L 4500 722 
L 5478 4666 
L 6119 4666 
L 4947 0 
L 4153 0 
L 3169 4050 
L 2175 0 
L 1381 0 
L 213 4666 
z
" transform="scale(0.015625)"/>
      </defs>
      <use xlink:href="#DejaVuSans-45"/>
      <use xlink:href="#DejaVuSans-57" transform="translate(63.183594 0)"/>
      <use xlink:href="#DejaVuSans-20" transform="translate(162.060547 0)"/>
      <use xlink:href="#DejaVuSans-4d" transform="translate(193.847656 0)"/>
      <use xlink:href="#DejaVuSans-41" transform="translate(280.126953 0)"/>
     </g>
    </g>
   </g>
  </g>
 </g>
 <defs>
  <clipPath id="peb5e599728">
   <rect x="57.6" y="41.472" width="357.12" height="266.112"/>
  </clipPath>
 </defs>
</svg>
