<?xml version="1.0" encoding="utf-8" standalone="no"?>
<!DOCTYPE svg PUBLIC "-//W3C//DTD SVG 1.1//EN"
  "http://www.w3.org/Graphics/SVG/1.1/DTD/svg11.dtd">
<svg xmlns:xlink="http://www.w3.org/1999/xlink" width="460.8pt" height="345.6pt" viewBox="0 0 460.8 345.6" xmlns="http://www.w3.org/2000/svg" version="1.1">
 <metadata>
  <rdf:RDF xmlns:dc="http://purl.org/dc/elements/1.1/" xmlns:cc="http://creativecommons.org/ns#" xmlns:rdf="http://www.w3.org/1999/02/22-rdf-syntax-ns#">
   <cc:Work>
    <dc:type rdf:resource="http://purl.org/dc/dcmitype/StillImage"/>
    <dc:date>2025-05-23T17:35:59.871558</dc:date>
    <dc:format>image/svg+xml</dc:format>
    <dc:creator>
     <cc:Agent>
      <dc:title>Matplotlib v3.10.0, https://matplotlib.org/</dc:title>
     </cc:Agent>
    </dc:creator>
   </cc:Work>
  </rdf:RDF>
 </metadata>
 <defs>
  <style type="text/css">*{stroke-linejoin: round; stroke-linecap: butt}</style>
 </defs>
 <g id="figure_1">
  <g id="patch_1">
   <path d="M 0 345.6 
L 460.8 345.6 
L 460.8 0 
L 0 0 
z
" style="fill: #ffffff"/>
  </g>
  <g id="axes_1">
   <g id="patch_2">
    <path d="M 57.6 307.584 
L 414.72 307.584 
L 414.72 41.472 
L 57.6 41.472 
z
" style="fill: #ffffff"/>
   </g>
   <g id="matplotlib.axis_1">
    <g id="xtick_1">
     <g id="line2d_1">
      <defs>
       <path id="m2242912d87" d="M 0 0 
L 0 3.5 
" style="stroke: #000000; stroke-width: 0.8"/>
      </defs>
      <g>
       <use xlink:href="#m2242912d87" x="57.6" y="307.584" style="stroke: #000000; stroke-width: 0.8"/>
      </g>
     </g>
    </g>
    <g id="xtick_2">
     <g id="line2d_2">
      <g>
       <use xlink:href="#m2242912d87" x="98.128677" y="307.584" style="stroke: #000000; stroke-width: 0.8"/>
      </g>
     </g>
     <g id="text_1">
      <!-- 2004 -->
      <g transform="translate(85.403677 322.182437) scale(0.1 -0.1)">
       <defs>
        <path id="DejaVuSans-32" d="M 1228 531 
L 3431 531 
L 3431 0 
L 469 0 
L 469 531 
Q 828 903 1448 1529 
Q 2069 2156 2228 2338 
Q 2531 2678 2651 2914 
Q 2772 3150 2772 3378 
Q 2772 3750 2511 3984 
Q 2250 4219 1831 4219 
Q 1534 4219 1204 4116 
Q 875 4013 500 3803 
L 500 4441 
Q 881 4594 1212 4672 
Q 1544 4750 1819 4750 
Q 2544 4750 2975 4387 
Q 3406 4025 3406 3419 
Q 3406 3131 3298 2873 
Q 3191 2616 2906 2266 
Q 2828 2175 2409 1742 
Q 1991 1309 1228 531 
z
" transform="scale(0.015625)"/>
        <path id="DejaVuSans-30" d="M 2034 4250 
Q 1547 4250 1301 3770 
Q 1056 3291 1056 2328 
Q 1056 1369 1301 889 
Q 1547 409 2034 409 
Q 2525 409 2770 889 
Q 3016 1369 3016 2328 
Q 3016 3291 2770 3770 
Q 2525 4250 2034 4250 
z
M 2034 4750 
Q 2819 4750 3233 4129 
Q 3647 3509 3647 2328 
Q 3647 1150 3233 529 
Q 2819 -91 2034 -91 
Q 1250 -91 836 529 
Q 422 1150 422 2328 
Q 422 3509 836 4129 
Q 1250 4750 2034 4750 
z
" transform="scale(0.015625)"/>
        <path id="DejaVuSans-34" d="M 2419 4116 
L 825 1625 
L 2419 1625 
L 2419 4116 
z
M 2253 4666 
L 3047 4666 
L 3047 1625 
L 3713 1625 
L 3713 1100 
L 3047 1100 
L 3047 0 
L 2419 0 
L 2419 1100 
L 313 1100 
L 313 1709 
L 2253 4666 
z
" transform="scale(0.015625)"/>
       </defs>
       <use xlink:href="#DejaVuSans-32"/>
       <use xlink:href="#DejaVuSans-30" transform="translate(63.623047 0)"/>
       <use xlink:href="#DejaVuSans-30" transform="translate(127.246094 0)"/>
       <use xlink:href="#DejaVuSans-34" transform="translate(190.869141 0)"/>
      </g>
     </g>
    </g>
    <g id="xtick_3">
     <g id="line2d_3">
      <g>
       <use xlink:href="#m2242912d87" x="138.969114" y="307.584" style="stroke: #000000; stroke-width: 0.8"/>
      </g>
     </g>
     <g id="text_2">
      <!-- 2005 -->
      <g transform="translate(126.244114 322.182437) scale(0.1 -0.1)">
       <defs>
        <path id="DejaVuSans-35" d="M 691 4666 
L 3169 4666 
L 3169 4134 
L 1269 4134 
L 1269 2991 
Q 1406 3038 1543 3061 
Q 1681 3084 1819 3084 
Q 2600 3084 3056 2656 
Q 3513 2228 3513 1497 
Q 3513 744 3044 326 
Q 2575 -91 1722 -91 
Q 1428 -91 1123 -41 
Q 819 9 494 109 
L 494 744 
Q 775 591 1075 516 
Q 1375 441 1709 441 
Q 2250 441 2565 725 
Q 2881 1009 2881 1497 
Q 2881 1984 2565 2268 
Q 2250 2553 1709 2553 
Q 1456 2553 1204 2497 
Q 953 2441 691 2322 
L 691 4666 
z
" transform="scale(0.015625)"/>
       </defs>
       <use xlink:href="#DejaVuSans-32"/>
       <use xlink:href="#DejaVuSans-30" transform="translate(63.623047 0)"/>
       <use xlink:href="#DejaVuSans-30" transform="translate(127.246094 0)"/>
       <use xlink:href="#DejaVuSans-35" transform="translate(190.869141 0)"/>
      </g>
     </g>
    </g>
    <g id="xtick_4">
     <g id="line2d_4">
      <g>
       <use xlink:href="#m2242912d87" x="179.497791" y="307.584" style="stroke: #000000; stroke-width: 0.8"/>
      </g>
     </g>
     <g id="text_3">
      <!-- 2006 -->
      <g transform="translate(166.772791 322.182437) scale(0.1 -0.1)">
       <defs>
        <path id="DejaVuSans-36" d="M 2113 2584 
Q 1688 2584 1439 2293 
Q 1191 2003 1191 1497 
Q 1191 994 1439 701 
Q 1688 409 2113 409 
Q 2538 409 2786 701 
Q 3034 994 3034 1497 
Q 3034 2003 2786 2293 
Q 2538 2584 2113 2584 
z
M 3366 4563 
L 3366 3988 
Q 3128 4100 2886 4159 
Q 2644 4219 2406 4219 
Q 1781 4219 1451 3797 
Q 1122 3375 1075 2522 
Q 1259 2794 1537 2939 
Q 1816 3084 2150 3084 
Q 2853 3084 3261 2657 
Q 3669 2231 3669 1497 
Q 3669 778 3244 343 
Q 2819 -91 2113 -91 
Q 1303 -91 875 529 
Q 447 1150 447 2328 
Q 447 3434 972 4092 
Q 1497 4750 2381 4750 
Q 2619 4750 2861 4703 
Q 3103 4656 3366 4563 
z
" transform="scale(0.015625)"/>
       </defs>
       <use xlink:href="#DejaVuSans-32"/>
       <use xlink:href="#DejaVuSans-30" transform="translate(63.623047 0)"/>
       <use xlink:href="#DejaVuSans-30" transform="translate(127.246094 0)"/>
       <use xlink:href="#DejaVuSans-36" transform="translate(190.869141 0)"/>
      </g>
     </g>
    </g>
    <g id="xtick_5">
     <g id="line2d_5">
      <g>
       <use xlink:href="#m2242912d87" x="220.026469" y="307.584" style="stroke: #000000; stroke-width: 0.8"/>
      </g>
     </g>
     <g id="text_4">
      <!-- 2007 -->
      <g transform="translate(207.301469 322.182437) scale(0.1 -0.1)">
       <defs>
        <path id="DejaVuSans-37" d="M 525 4666 
L 3525 4666 
L 3525 4397 
L 1831 0 
L 1172 0 
L 2766 4134 
L 525 4134 
L 525 4666 
z
" transform="scale(0.015625)"/>
       </defs>
       <use xlink:href="#DejaVuSans-32"/>
       <use xlink:href="#DejaVuSans-30" transform="translate(63.623047 0)"/>
       <use xlink:href="#DejaVuSans-30" transform="translate(127.246094 0)"/>
       <use xlink:href="#DejaVuSans-37" transform="translate(190.869141 0)"/>
      </g>
     </g>
    </g>
    <g id="xtick_6">
     <g id="line2d_6">
      <g>
       <use xlink:href="#m2242912d87" x="260.711026" y="307.584" style="stroke: #000000; stroke-width: 0.8"/>
      </g>
     </g>
     <g id="text_5">
      <!-- 2008 -->
      <g transform="translate(247.986026 322.182437) scale(0.1 -0.1)">
       <defs>
        <path id="DejaVuSans-38" d="M 2034 2216 
Q 1584 2216 1326 1975 
Q 1069 1734 1069 1313 
Q 1069 891 1326 650 
Q 1584 409 2034 409 
Q 2484 409 2743 651 
Q 3003 894 3003 1313 
Q 3003 1734 2745 1975 
Q 2488 2216 2034 2216 
z
M 1403 2484 
Q 997 2584 770 2862 
Q 544 3141 544 3541 
Q 544 4100 942 4425 
Q 1341 4750 2034 4750 
Q 2731 4750 3128 4425 
Q 3525 4100 3525 3541 
Q 3525 3141 3298 2862 
Q 3072 2584 2669 2484 
Q 3125 2378 3379 2068 
Q 3634 1759 3634 1313 
Q 3634 634 3220 271 
Q 2806 -91 2034 -91 
Q 1263 -91 848 271 
Q 434 634 434 1313 
Q 434 1759 690 2068 
Q 947 2378 1403 2484 
z
M 1172 3481 
Q 1172 3119 1398 2916 
Q 1625 2713 2034 2713 
Q 2441 2713 2670 2916 
Q 2900 3119 2900 3481 
Q 2900 3844 2670 4047 
Q 2441 4250 2034 4250 
Q 1625 4250 1398 4047 
Q 1172 3844 1172 3481 
z
" transform="scale(0.015625)"/>
       </defs>
       <use xlink:href="#DejaVuSans-32"/>
       <use xlink:href="#DejaVuSans-30" transform="translate(63.623047 0)"/>
       <use xlink:href="#DejaVuSans-30" transform="translate(127.246094 0)"/>
       <use xlink:href="#DejaVuSans-38" transform="translate(190.869141 0)"/>
      </g>
     </g>
    </g>
    <g id="xtick_7">
     <g id="line2d_7">
      <g>
       <use xlink:href="#m2242912d87" x="301.551462" y="307.584" style="stroke: #000000; stroke-width: 0.8"/>
      </g>
     </g>
     <g id="text_6">
      <!-- 2009 -->
      <g transform="translate(288.826462 322.182437) scale(0.1 -0.1)">
       <defs>
        <path id="DejaVuSans-39" d="M 703 97 
L 703 672 
Q 941 559 1184 500 
Q 1428 441 1663 441 
Q 2288 441 2617 861 
Q 2947 1281 2994 2138 
Q 2813 1869 2534 1725 
Q 2256 1581 1919 1581 
Q 1219 1581 811 2004 
Q 403 2428 403 3163 
Q 403 3881 828 4315 
Q 1253 4750 1959 4750 
Q 2769 4750 3195 4129 
Q 3622 3509 3622 2328 
Q 3622 1225 3098 567 
Q 2575 -91 1691 -91 
Q 1453 -91 1209 -44 
Q 966 3 703 97 
z
M 1959 2075 
Q 2384 2075 2632 2365 
Q 2881 2656 2881 3163 
Q 2881 3666 2632 3958 
Q 2384 4250 1959 4250 
Q 1534 4250 1286 3958 
Q 1038 3666 1038 3163 
Q 1038 2656 1286 2365 
Q 1534 2075 1959 2075 
z
" transform="scale(0.015625)"/>
       </defs>
       <use xlink:href="#DejaVuSans-32"/>
       <use xlink:href="#DejaVuSans-30" transform="translate(63.623047 0)"/>
       <use xlink:href="#DejaVuSans-30" transform="translate(127.246094 0)"/>
       <use xlink:href="#DejaVuSans-39" transform="translate(190.869141 0)"/>
      </g>
     </g>
    </g>
    <g id="xtick_8">
     <g id="line2d_8">
      <g>
       <use xlink:href="#m2242912d87" x="342.236019" y="307.584" style="stroke: #000000; stroke-width: 0.8"/>
      </g>
     </g>
     <g id="text_7">
      <!-- 2010 -->
      <g transform="translate(329.511019 322.182437) scale(0.1 -0.1)">
       <defs>
        <path id="DejaVuSans-31" d="M 794 531 
L 1825 531 
L 1825 4091 
L 703 3866 
L 703 4441 
L 1819 4666 
L 2450 4666 
L 2450 531 
L 3481 531 
L 3481 0 
L 794 0 
L 794 531 
z
" transform="scale(0.015625)"/>
       </defs>
       <use xlink:href="#DejaVuSans-32"/>
       <use xlink:href="#DejaVuSans-30" transform="translate(63.623047 0)"/>
       <use xlink:href="#DejaVuSans-31" transform="translate(127.246094 0)"/>
       <use xlink:href="#DejaVuSans-30" transform="translate(190.869141 0)"/>
      </g>
     </g>
    </g>
    <g id="xtick_9">
     <g id="line2d_9">
      <g>
       <use xlink:href="#m2242912d87" x="382.920576" y="307.584" style="stroke: #000000; stroke-width: 0.8"/>
      </g>
     </g>
     <g id="text_8">
      <!-- 2011 -->
      <g transform="translate(370.195576 322.182437) scale(0.1 -0.1)">
       <use xlink:href="#DejaVuSans-32"/>
       <use xlink:href="#DejaVuSans-30" transform="translate(63.623047 0)"/>
       <use xlink:href="#DejaVuSans-31" transform="translate(127.246094 0)"/>
       <use xlink:href="#DejaVuSans-31" transform="translate(190.869141 0)"/>
      </g>
     </g>
    </g>
    <g id="xtick_10">
     <g id="line2d_10">
      <g>
       <use xlink:href="#m2242912d87" x="414.72" y="307.584" style="stroke: #000000; stroke-width: 0.8"/>
      </g>
     </g>
    </g>
    <g id="xtick_11">
     <g id="line2d_11">
      <defs>
       <path id="m8d58215d69" d="M 0 0 
L 0 2 
" style="stroke: #000000; stroke-width: 0.6"/>
      </defs>
      <g>
       <use xlink:href="#m8d58215d69" x="67.42041" y="307.584" style="stroke: #000000; stroke-width: 0.6"/>
      </g>
     </g>
    </g>
    <g id="xtick_12">
     <g id="line2d_12">
      <g>
       <use xlink:href="#m8d58215d69" x="77.55258" y="307.584" style="stroke: #000000; stroke-width: 0.6"/>
      </g>
     </g>
    </g>
    <g id="xtick_13">
     <g id="line2d_13">
      <g>
       <use xlink:href="#m8d58215d69" x="87.840629" y="307.584" style="stroke: #000000; stroke-width: 0.6"/>
      </g>
     </g>
    </g>
    <g id="xtick_14">
     <g id="line2d_14">
      <g>
       <use xlink:href="#m8d58215d69" x="108.260847" y="307.584" style="stroke: #000000; stroke-width: 0.6"/>
      </g>
     </g>
    </g>
    <g id="xtick_15">
     <g id="line2d_15">
      <g>
       <use xlink:href="#m8d58215d69" x="118.393016" y="307.584" style="stroke: #000000; stroke-width: 0.6"/>
      </g>
     </g>
    </g>
    <g id="xtick_16">
     <g id="line2d_16">
      <g>
       <use xlink:href="#m8d58215d69" x="128.681065" y="307.584" style="stroke: #000000; stroke-width: 0.6"/>
      </g>
     </g>
    </g>
    <g id="xtick_17">
     <g id="line2d_17">
      <g>
       <use xlink:href="#m8d58215d69" x="148.945404" y="307.584" style="stroke: #000000; stroke-width: 0.6"/>
      </g>
     </g>
    </g>
    <g id="xtick_18">
     <g id="line2d_18">
      <g>
       <use xlink:href="#m8d58215d69" x="159.077573" y="307.584" style="stroke: #000000; stroke-width: 0.6"/>
      </g>
     </g>
    </g>
    <g id="xtick_19">
     <g id="line2d_19">
      <g>
       <use xlink:href="#m8d58215d69" x="169.365622" y="307.584" style="stroke: #000000; stroke-width: 0.6"/>
      </g>
     </g>
    </g>
    <g id="xtick_20">
     <g id="line2d_20">
      <g>
       <use xlink:href="#m8d58215d69" x="189.629961" y="307.584" style="stroke: #000000; stroke-width: 0.6"/>
      </g>
     </g>
    </g>
    <g id="xtick_21">
     <g id="line2d_21">
      <g>
       <use xlink:href="#m8d58215d69" x="199.76213" y="307.584" style="stroke: #000000; stroke-width: 0.6"/>
      </g>
     </g>
    </g>
    <g id="xtick_22">
     <g id="line2d_22">
      <g>
       <use xlink:href="#m8d58215d69" x="209.894299" y="307.584" style="stroke: #000000; stroke-width: 0.6"/>
      </g>
     </g>
    </g>
    <g id="xtick_23">
     <g id="line2d_23">
      <g>
       <use xlink:href="#m8d58215d69" x="230.158638" y="307.584" style="stroke: #000000; stroke-width: 0.6"/>
      </g>
     </g>
    </g>
    <g id="xtick_24">
     <g id="line2d_24">
      <g>
       <use xlink:href="#m8d58215d69" x="240.290808" y="307.584" style="stroke: #000000; stroke-width: 0.6"/>
      </g>
     </g>
    </g>
    <g id="xtick_25">
     <g id="line2d_25">
      <g>
       <use xlink:href="#m8d58215d69" x="250.422977" y="307.584" style="stroke: #000000; stroke-width: 0.6"/>
      </g>
     </g>
    </g>
    <g id="xtick_26">
     <g id="line2d_26">
      <g>
       <use xlink:href="#m8d58215d69" x="270.843195" y="307.584" style="stroke: #000000; stroke-width: 0.6"/>
      </g>
     </g>
    </g>
    <g id="xtick_27">
     <g id="line2d_27">
      <g>
       <use xlink:href="#m8d58215d69" x="280.975364" y="307.584" style="stroke: #000000; stroke-width: 0.6"/>
      </g>
     </g>
    </g>
    <g id="xtick_28">
     <g id="line2d_28">
      <g>
       <use xlink:href="#m8d58215d69" x="291.263413" y="307.584" style="stroke: #000000; stroke-width: 0.6"/>
      </g>
     </g>
    </g>
    <g id="xtick_29">
     <g id="line2d_29">
      <g>
       <use xlink:href="#m8d58215d69" x="311.527752" y="307.584" style="stroke: #000000; stroke-width: 0.6"/>
      </g>
     </g>
    </g>
    <g id="xtick_30">
     <g id="line2d_30">
      <g>
       <use xlink:href="#m8d58215d69" x="321.659921" y="307.584" style="stroke: #000000; stroke-width: 0.6"/>
      </g>
     </g>
    </g>
    <g id="xtick_31">
     <g id="line2d_31">
      <g>
       <use xlink:href="#m8d58215d69" x="331.94797" y="307.584" style="stroke: #000000; stroke-width: 0.6"/>
      </g>
     </g>
    </g>
    <g id="xtick_32">
     <g id="line2d_32">
      <g>
       <use xlink:href="#m8d58215d69" x="352.212309" y="307.584" style="stroke: #000000; stroke-width: 0.6"/>
      </g>
     </g>
    </g>
    <g id="xtick_33">
     <g id="line2d_33">
      <g>
       <use xlink:href="#m8d58215d69" x="362.344478" y="307.584" style="stroke: #000000; stroke-width: 0.6"/>
      </g>
     </g>
    </g>
    <g id="xtick_34">
     <g id="line2d_34">
      <g>
       <use xlink:href="#m8d58215d69" x="372.632527" y="307.584" style="stroke: #000000; stroke-width: 0.6"/>
      </g>
     </g>
    </g>
    <g id="xtick_35">
     <g id="line2d_35">
      <g>
       <use xlink:href="#m8d58215d69" x="392.896866" y="307.584" style="stroke: #000000; stroke-width: 0.6"/>
      </g>
     </g>
    </g>
    <g id="xtick_36">
     <g id="line2d_36">
      <g>
       <use xlink:href="#m8d58215d69" x="403.029035" y="307.584" style="stroke: #000000; stroke-width: 0.6"/>
      </g>
     </g>
    </g>
    <g id="xtick_37">
     <g id="line2d_37">
      <g>
       <use xlink:href="#m8d58215d69" x="413.317084" y="307.584" style="stroke: #000000; stroke-width: 0.6"/>
      </g>
     </g>
    </g>
   </g>
   <g id="matplotlib.axis_2">
    <g id="ytick_1">
     <g id="line2d_38">
      <defs>
       <path id="mec55e848e2" d="M 0 0 
L -3.5 0 
" style="stroke: #000000; stroke-width: 0.8"/>
      </defs>
      <g>
       <use xlink:href="#mec55e848e2" x="57.6" y="274.749526" style="stroke: #000000; stroke-width: 0.8"/>
      </g>
     </g>
     <g id="text_9">
      <!-- $\mathdefault{10^{1}}$ -->
      <g transform="translate(33 278.548745) scale(0.1 -0.1)">
       <use xlink:href="#DejaVuSans-31" transform="translate(0 0.684375)"/>
       <use xlink:href="#DejaVuSans-30" transform="translate(63.623047 0.684375)"/>
       <use xlink:href="#DejaVuSans-31" transform="translate(128.203125 38.965625) scale(0.7)"/>
      </g>
     </g>
    </g>
    <g id="ytick_2">
     <g id="line2d_39">
      <g>
       <use xlink:href="#mec55e848e2" x="57.6" y="135.427573" style="stroke: #000000; stroke-width: 0.8"/>
      </g>
     </g>
     <g id="text_10">
      <!-- $\mathdefault{10^{2}}$ -->
      <g transform="translate(33 139.226792) scale(0.1 -0.1)">
       <use xlink:href="#DejaVuSans-31" transform="translate(0 0.765625)"/>
       <use xlink:href="#DejaVuSans-30" transform="translate(63.623047 0.765625)"/>
       <use xlink:href="#DejaVuSans-32" transform="translate(128.203125 39.046875) scale(0.7)"/>
      </g>
     </g>
    </g>
    <g id="ytick_3">
     <g id="line2d_40">
      <defs>
       <path id="mf0cb6aac8f" d="M 0 0 
L -2 0 
" style="stroke: #000000; stroke-width: 0.6"/>
      </defs>
      <g>
       <use xlink:href="#mf0cb6aac8f" x="57.6" y="305.657927" style="stroke: #000000; stroke-width: 0.6"/>
      </g>
     </g>
    </g>
    <g id="ytick_4">
     <g id="line2d_41">
      <g>
       <use xlink:href="#mf0cb6aac8f" x="57.6" y="296.33077" style="stroke: #000000; stroke-width: 0.6"/>
      </g>
     </g>
    </g>
    <g id="ytick_5">
     <g id="line2d_42">
      <g>
       <use xlink:href="#mf0cb6aac8f" x="57.6" y="288.251218" style="stroke: #000000; stroke-width: 0.6"/>
      </g>
     </g>
    </g>
    <g id="ytick_6">
     <g id="line2d_43">
      <g>
       <use xlink:href="#mf0cb6aac8f" x="57.6" y="281.124549" style="stroke: #000000; stroke-width: 0.6"/>
      </g>
     </g>
    </g>
    <g id="ytick_7">
     <g id="line2d_44">
      <g>
       <use xlink:href="#mf0cb6aac8f" x="57.6" y="232.809439" style="stroke: #000000; stroke-width: 0.6"/>
      </g>
     </g>
    </g>
    <g id="ytick_8">
     <g id="line2d_45">
      <g>
       <use xlink:href="#mf0cb6aac8f" x="57.6" y="208.276061" style="stroke: #000000; stroke-width: 0.6"/>
      </g>
     </g>
    </g>
    <g id="ytick_9">
     <g id="line2d_46">
      <g>
       <use xlink:href="#mf0cb6aac8f" x="57.6" y="190.869352" style="stroke: #000000; stroke-width: 0.6"/>
      </g>
     </g>
    </g>
    <g id="ytick_10">
     <g id="line2d_47">
      <g>
       <use xlink:href="#mf0cb6aac8f" x="57.6" y="177.36766" style="stroke: #000000; stroke-width: 0.6"/>
      </g>
     </g>
    </g>
    <g id="ytick_11">
     <g id="line2d_48">
      <g>
       <use xlink:href="#mf0cb6aac8f" x="57.6" y="166.335974" style="stroke: #000000; stroke-width: 0.6"/>
      </g>
     </g>
    </g>
    <g id="ytick_12">
     <g id="line2d_49">
      <g>
       <use xlink:href="#mf0cb6aac8f" x="57.6" y="157.008817" style="stroke: #000000; stroke-width: 0.6"/>
      </g>
     </g>
    </g>
    <g id="ytick_13">
     <g id="line2d_50">
      <g>
       <use xlink:href="#mf0cb6aac8f" x="57.6" y="148.929265" style="stroke: #000000; stroke-width: 0.6"/>
      </g>
     </g>
    </g>
    <g id="ytick_14">
     <g id="line2d_51">
      <g>
       <use xlink:href="#mf0cb6aac8f" x="57.6" y="141.802596" style="stroke: #000000; stroke-width: 0.6"/>
      </g>
     </g>
    </g>
    <g id="ytick_15">
     <g id="line2d_52">
      <g>
       <use xlink:href="#mf0cb6aac8f" x="57.6" y="93.487486" style="stroke: #000000; stroke-width: 0.6"/>
      </g>
     </g>
    </g>
    <g id="ytick_16">
     <g id="line2d_53">
      <g>
       <use xlink:href="#mf0cb6aac8f" x="57.6" y="68.954108" style="stroke: #000000; stroke-width: 0.6"/>
      </g>
     </g>
    </g>
    <g id="ytick_17">
     <g id="line2d_54">
      <g>
       <use xlink:href="#mf0cb6aac8f" x="57.6" y="51.547399" style="stroke: #000000; stroke-width: 0.6"/>
      </g>
     </g>
    </g>
   </g>
   <g id="line2d_55">
    <path d="M 57.6 292.968418 
L 57.911759 292.696477 
L 58.067639 292.703261 
L 58.379398 293.036595 
L 58.847036 293.214214 
L 59.626434 293.927975 
L 60.094072 294.379577 
L 60.405832 294.423124 
L 60.561711 294.32028 
L 61.02935 294.334642 
L 61.496988 294.323175 
L 61.964627 294.403518 
L 62.588145 294.341694 
L 63.055784 294.165793 
L 63.835181 294.006323 
L 64.14694 293.975464 
L 65.393976 294.160107 
L 65.861615 294.019028 
L 66.329254 293.863278 
L 66.641013 293.645791 
L 67.888049 293.746458 
L 68.511567 293.761519 
L 69.446844 294.4584 
L 69.758603 294.896965 
L 70.226242 295.188456 
L 70.538001 295.486708 
L 71.161519 295.411662 
L 71.785037 294.059741 
L 72.564435 292.165403 
L 74.12323 288.993175 
L 74.434989 288.200817 
L 74.902628 287.698532 
L 75.214387 286.804603 
L 75.526146 286.598041 
L 75.682025 286.277749 
L 75.993784 284.842891 
L 76.305543 284.486027 
L 76.461423 283.998579 
L 76.773182 282.484309 
L 77.084941 282.234796 
L 77.240821 281.857805 
L 77.55258 280.524072 
L 78.020218 280.142452 
L 78.331977 279.716432 
L 79.579014 278.810227 
L 79.890773 278.303662 
L 80.358411 277.80826 
L 80.67017 277.317154 
L 80.981929 277.100756 
L 81.137809 276.868171 
L 81.449568 276.088171 
L 81.761327 276.057583 
L 81.917206 275.858372 
L 82.228966 275.21665 
L 82.696604 275.08738 
L 83.008363 274.742323 
L 83.476002 274.432696 
L 83.787761 273.989343 
L 84.09952 273.774195 
L 85.346556 271.899007 
L 85.658315 271.714938 
L 86.125954 271.131516 
L 86.593592 270.841072 
L 86.905351 270.603234 
L 88.152388 270.621031 
L 88.464147 270.034199 
L 88.775906 269.826061 
L 88.931785 269.571791 
L 89.243544 268.722552 
L 90.022942 267.882086 
L 90.490581 267.718276 
L 90.80234 267.468106 
L 91.269978 267.349666 
L 91.737617 267.315943 
L 92.205255 267.298464 
L 92.517014 267.414335 
L 92.984653 267.540956 
L 93.608171 268.046047 
L 93.91993 267.942561 
L 94.387569 268.171733 
L 94.543448 267.900093 
L 94.855207 267.995485 
L 95.166966 268.159399 
L 95.634605 268.745149 
L 95.790485 268.800371 
L 95.946364 269.01763 
L 96.258123 269.74836 
L 96.725762 270.196088 
L 97.037521 270.782414 
L 97.505159 271.023113 
L 97.661039 271.488103 
L 97.972798 271.576674 
L 98.128677 271.556891 
L 98.284557 271.678329 
L 98.440436 272.007678 
L 98.596316 272.03522 
L 99.063955 271.692708 
L 99.219834 271.726088 
L 100.310991 270.607082 
L 100.62275 270.467092 
L 100.934509 270.066191 
L 102.181545 269.51375 
L 102.493304 269.095353 
L 102.960943 268.694521 
L 103.272702 268.005674 
L 103.74034 267.788101 
L 104.0521 267.272995 
L 104.363859 267.237819 
L 104.519738 267.069224 
L 104.831497 266.569214 
L 105.143256 266.371958 
L 106.078533 264.878297 
L 106.857931 264.100654 
L 107.16969 263.57275 
L 107.481449 263.329462 
L 107.637329 263.10103 
L 107.949088 262.304641 
L 108.416726 261.736052 
L 108.728485 260.781715 
L 109.040244 260.539121 
L 109.975522 259.011327 
L 110.287281 258.091884 
L 110.59904 257.94468 
L 110.754919 257.658895 
L 110.910799 257.012016 
L 111.066678 256.849971 
L 111.378437 256.877062 
L 111.534317 256.787065 
L 111.690196 256.413221 
L 112.781353 256.545326 
L 113.093112 256.505666 
L 113.404871 256.281428 
L 113.87251 256.274189 
L 114.184269 255.993335 
L 114.807787 255.843477 
L 115.431305 255.659206 
L 116.054823 255.114992 
L 116.678341 254.514436 
L 117.769498 252.706212 
L 118.081257 251.880187 
L 118.548896 251.341337 
L 118.860655 250.61701 
L 119.172414 250.574748 
L 119.328293 250.401619 
L 119.640052 249.946869 
L 119.795932 249.972735 
L 120.107691 249.591398 
L 120.41945 248.768008 
L 120.887089 248.535435 
L 121.198848 247.966904 
L 121.510607 247.850082 
L 121.666486 247.661711 
L 121.978245 247.143395 
L 123.225282 247.059179 
L 123.69292 247.244361 
L 124.004679 247.347016 
L 124.316438 247.697295 
L 125.095836 247.250295 
L 126.186993 245.778036 
L 126.810511 244.853967 
L 127.12227 244.488422 
L 127.589908 243.66633 
L 127.901667 243.260851 
L 128.369306 242.50486 
L 128.681065 242.032061 
L 128.992824 241.091843 
L 129.460463 240.337521 
L 129.772222 239.375247 
L 129.928101 239.223562 
L 130.23986 238.323506 
L 130.551619 236.608518 
L 131.019258 235.283027 
L 131.331017 233.862288 
L 131.798656 232.405806 
L 132.110415 230.808009 
L 132.578053 229.277939 
L 132.889812 227.616918 
L 133.357451 226.281623 
L 133.66921 224.525393 
L 133.980969 223.972045 
L 134.136849 223.45557 
L 134.448608 221.43776 
L 134.916246 219.790421 
L 135.228005 217.494628 
L 135.695644 216.074426 
L 136.007403 214.047437 
L 136.319162 213.590363 
L 136.475041 212.929369 
L 136.786801 211.070579 
L 137.09856 210.657321 
L 137.254439 210.248196 
L 137.566198 208.964263 
L 137.877957 208.752821 
L 138.033837 208.373317 
L 138.345596 207.317507 
L 138.657355 207.152514 
L 138.813234 206.884488 
L 139.124993 206.137501 
L 139.436753 206.032664 
L 139.592632 205.705367 
L 139.904391 204.811589 
L 140.21615 204.634616 
L 140.37203 204.312629 
L 140.683789 203.229374 
L 141.151427 202.829199 
L 141.463186 202.388346 
L 142.086704 201.797401 
L 143.177861 199.68955 
L 143.48962 199.18471 
L 143.957259 197.773576 
L 144.269018 196.998113 
L 144.580777 195.790532 
L 145.048416 194.764469 
L 145.360175 193.417444 
L 145.827813 192.691433 
L 145.983693 191.811625 
L 146.139572 191.595815 
L 146.451331 191.591127 
L 146.607211 191.390019 
L 146.91897 190.46767 
L 147.230729 190.36881 
L 147.386608 190.10141 
L 147.698368 189.15537 
L 148.010127 189.063491 
L 148.166006 188.826377 
L 148.477765 188.080023 
L 148.945404 187.977165 
L 149.257163 187.634554 
L 149.568922 187.585798 
L 150.19244 187.170039 
L 150.504199 187.566589 
L 150.815958 188.230853 
L 151.439476 189.255582 
L 151.751235 189.717392 
L 152.062994 190.192452 
L 152.374753 190.897451 
L 152.998271 191.419286 
L 153.62179 192.079826 
L 153.933549 192.745766 
L 154.401187 193.11274 
L 154.712946 193.631944 
L 155.180585 193.555687 
L 155.336464 193.900575 
L 155.492344 193.943379 
L 155.804103 193.787942 
L 155.959983 193.890851 
L 156.271742 194.689527 
L 156.583501 194.70913 
L 157.051139 195.304534 
L 157.362898 195.276267 
L 158.142296 194.895871 
L 158.298175 194.867217 
L 158.609935 194.65386 
L 159.077573 194.723418 
L 159.545212 194.643927 
L 159.856971 194.595314 
L 160.16873 194.189425 
L 160.480489 194.067106 
L 161.415766 192.792492 
L 161.727525 192.638126 
L 162.195164 192.208332 
L 162.351043 192.175235 
L 163.130441 191.171921 
L 163.4422 190.763558 
L 163.598079 190.628835 
L 164.845116 187.987919 
L 165.156875 187.728592 
L 165.312754 187.447239 
L 165.624513 186.432184 
L 165.936272 186.20696 
L 166.092152 185.898368 
L 166.403911 184.890973 
L 166.71567 184.575621 
L 166.87155 184.16772 
L 167.183309 183.122556 
L 167.495068 182.864406 
L 169.833261 178.706921 
L 169.98914 178.464182 
L 170.300899 177.797049 
L 170.456779 177.808286 
L 170.768538 177.520219 
L 171.080297 176.949022 
L 171.392056 176.666015 
L 171.547935 176.400448 
L 171.859694 175.522393 
L 172.327333 175.044809 
L 172.639092 174.13491 
L 172.950851 173.71111 
L 173.574369 172.40818 
L 173.886128 171.977714 
L 174.197887 171.152153 
L 174.665526 170.398145 
L 174.977285 169.549355 
L 175.444924 168.687204 
L 175.756683 167.630204 
L 176.068442 167.1182 
L 176.224321 166.697341 
L 176.53608 165.36844 
L 177.003719 164.249805 
L 177.315478 162.748731 
L 177.627237 162.385638 
L 177.783117 162.007435 
L 178.094876 160.824552 
L 178.406635 160.489108 
L 178.562514 160.145503 
L 178.874273 158.911879 
L 179.341912 158.434222 
L 179.653671 157.536325 
L 179.96543 157.327314 
L 180.121309 157.010781 
L 180.433069 155.905934 
L 180.900707 154.953687 
L 181.212466 153.794604 
L 181.680105 153.330264 
L 181.991864 152.705913 
L 182.459502 152.731874 
L 182.615382 152.392757 
L 182.927141 152.341545 
L 183.706539 152.725561 
L 184.174177 153.148386 
L 185.577093 153.63736 
L 185.888852 153.708211 
L 186.51237 154.17931 
L 187.135888 154.933182 
L 187.447647 156.072482 
L 187.759406 156.298124 
L 187.915286 156.705864 
L 188.227045 157.860018 
L 188.538804 158.183927 
L 189.162322 159.491388 
L 189.318202 159.582253 
L 189.474081 159.834501 
L 189.78584 160.647477 
L 191.032876 160.396791 
L 191.344636 160.709143 
L 191.812274 160.74392 
L 192.124033 161.184895 
L 192.591672 161.053553 
L 192.747551 161.200112 
L 193.371069 160.739741 
L 193.838708 160.308454 
L 194.618106 160.187996 
L 194.929865 160.244276 
L 195.241624 159.905656 
L 195.553383 160.024999 
L 195.709262 159.941633 
L 195.865142 159.658526 
L 196.021021 159.690788 
L 196.33278 159.937509 
L 196.48866 159.957926 
L 197.268058 160.784471 
L 197.735696 161.406751 
L 198.047455 161.681221 
L 198.515094 162.318931 
L 198.826853 162.565184 
L 199.138612 163.244282 
L 199.606251 163.761107 
L 199.91801 164.797647 
L 200.229769 165.028677 
L 200.385648 165.399672 
L 200.697407 166.472027 
L 201.009166 166.806497 
L 201.632684 168.148264 
L 201.944443 168.157464 
L 202.100323 168.478971 
L 202.256203 168.519284 
L 202.723841 168.197867 
L 203.0356 168.0326 
L 203.659118 167.193438 
L 204.750275 166.104709 
L 205.062034 165.693533 
L 205.373793 165.179697 
L 205.841432 164.674435 
L 206.153191 164.044409 
L 206.46495 163.82022 
L 206.620829 163.591341 
L 206.932588 162.696029 
L 207.244347 162.364815 
L 207.400227 161.989941 
L 207.711986 160.608367 
L 208.023745 160.266248 
L 208.179625 159.817418 
L 208.491384 158.683575 
L 208.959022 158.174513 
L 209.270781 157.425978 
L 210.517818 156.321815 
L 210.829577 155.634936 
L 211.141336 155.533724 
L 211.764854 154.810296 
L 212.076613 154.436554 
L 212.388372 153.709185 
L 212.85601 153.163747 
L 213.16777 152.376741 
L 213.635408 152.06978 
L 213.947167 151.591851 
L 214.414806 151.174794 
L 214.726565 150.645958 
L 215.194203 150.18623 
L 215.661842 149.34704 
L 215.973601 148.885964 
L 216.44124 148.09672 
L 216.752999 147.640475 
L 217.064758 146.811915 
L 217.532396 146.40164 
L 217.844155 145.639695 
L 218.311794 145.299097 
L 218.467674 144.833609 
L 218.779433 144.742982 
L 219.091192 144.776531 
L 219.402951 144.612874 
L 219.71471 144.764174 
L 219.870589 144.693292 
L 220.182348 144.29545 
L 220.494107 144.347614 
L 220.805866 144.062874 
L 222.052903 142.894949 
L 222.208782 142.863375 
L 222.8323 143.103472 
L 222.98818 143.16845 
L 223.299939 143.482268 
L 223.767577 143.654878 
L 224.079337 143.882026 
L 224.546975 143.993917 
L 225.014614 144.152692 
L 225.482252 144.119396 
L 226.10577 143.865251 
L 226.26165 143.558351 
L 226.885168 143.613773 
L 227.196927 143.4515 
L 227.664566 143.403487 
L 227.976325 143.839299 
L 228.288084 143.752004 
L 228.443963 143.831428 
L 228.599843 144.095617 
L 228.911602 143.930258 
L 230.002759 143.065391 
L 230.314518 142.67987 
L 230.782156 142.335439 
L 231.093915 141.907854 
L 231.561554 141.748073 
L 231.873313 141.398807 
L 232.340952 141.313799 
L 232.652711 141.083526 
L 232.96447 140.902036 
L 233.120349 140.730516 
L 233.432108 140.081729 
L 233.899747 139.636546 
L 234.211506 138.965975 
L 234.679144 138.321347 
L 234.990904 137.570719 
L 235.458542 136.966383 
L 235.770301 136.266044 
L 236.23794 135.65421 
L 236.705578 134.65953 
L 237.017337 134.056117 
L 237.329096 133.071911 
L 237.796735 132.145126 
L 238.108494 131.03038 
L 238.420253 130.760216 
L 238.576133 130.391263 
L 238.887892 129.026581 
L 239.199651 128.741083 
L 239.35553 128.379063 
L 239.667289 127.370086 
L 239.979048 127.202259 
L 240.134928 126.935886 
L 240.446687 125.973362 
L 240.758446 125.667186 
L 243.408398 120.119138 
L 243.720157 119.905682 
L 244.031916 119.716946 
L 244.343675 119.332525 
L 244.811314 119.287623 
L 244.967193 118.93227 
L 245.123073 118.893563 
L 245.590711 119.197011 
L 245.902471 118.985712 
L 246.370109 118.838216 
L 246.525989 118.475287 
L 247.149507 118.188556 
L 247.461266 117.873235 
L 248.708302 117.705642 
L 249.020061 117.849743 
L 249.4877 117.704821 
L 249.643579 117.724245 
L 249.955338 117.42974 
L 251.046495 115.897408 
L 251.514134 114.684598 
L 251.825893 114.094075 
L 252.137652 112.71194 
L 252.60529 111.743556 
L 252.917049 110.491488 
L 253.384688 109.415958 
L 253.696447 108.082262 
L 254.164086 107.105577 
L 254.475845 105.770333 
L 254.943483 105.234309 
L 255.255242 104.324653 
L 255.567001 104.357533 
L 255.722881 104.127725 
L 256.03464 103.256778 
L 256.346399 103.284589 
L 256.502278 103.096841 
L 256.814038 102.469481 
L 257.125797 102.312624 
L 257.281676 102.107086 
L 257.593435 101.516102 
L 257.905194 101.318919 
L 258.061074 101.112746 
L 258.372833 100.533309 
L 258.840471 100.147761 
L 259.15223 99.831464 
L 259.46399 99.754046 
L 260.087508 99.312017 
L 260.399267 99.07277 
L 260.711026 99.004638 
L 261.022785 98.819407 
L 261.802182 98.960368 
L 261.958062 98.818056 
L 262.113942 98.467608 
L 262.269821 98.446886 
L 262.58158 98.806117 
L 262.73746 98.825565 
L 262.893339 98.654195 
L 263.049219 98.779064 
L 264.296255 101.636464 
L 264.763893 103.200087 
L 265.075653 104.158884 
L 265.387412 105.65502 
L 265.85505 106.758336 
L 266.166809 108.38732 
L 266.478568 108.98245 
L 266.634448 109.691329 
L 266.946207 112.104248 
L 267.257966 112.490725 
L 267.413845 113.182363 
L 267.725605 115.548922 
L 268.037364 115.870229 
L 268.193243 116.424081 
L 268.505002 118.354244 
L 268.816761 118.470833 
L 268.972641 119.015356 
L 269.2844 120.449804 
L 269.596159 120.377205 
L 269.907918 121.082161 
L 270.999075 120.088868 
L 271.310834 119.619124 
L 271.622593 118.843488 
L 272.713749 117.20752 
L 272.869629 116.838144 
L 273.181388 115.649513 
L 273.493147 115.111375 
L 274.428424 112.10668 
L 274.740183 110.433414 
L 275.051942 109.841692 
L 275.207822 109.26995 
L 275.519581 107.624947 
L 275.83134 107.111777 
L 275.98722 106.589643 
L 276.298979 105.152524 
L 276.610738 104.941301 
L 276.766617 104.596312 
L 277.078376 103.471246 
L 277.390135 103.191772 
L 277.546015 102.827617 
L 277.857774 101.888949 
L 278.169533 101.680142 
L 278.325412 101.44638 
L 278.637172 100.533309 
L 279.10481 100.358754 
L 279.26069 99.737942 
L 279.416569 99.575305 
L 279.884208 99.536941 
L 280.040087 99.195028 
L 280.351846 99.20343 
L 280.663605 99.323413 
L 280.975364 99.359899 
L 281.910642 99.878537 
L 282.222401 100.023157 
L 282.53416 100.43385 
L 283.001798 100.669118 
L 283.781196 101.352423 
L 284.092955 102.063329 
L 284.560594 102.522614 
L 284.872353 103.256693 
L 285.339991 103.4563 
L 285.495871 103.685284 
L 286.119389 103.490928 
L 286.275268 103.717775 
L 286.587027 103.674372 
L 286.898787 103.601919 
L 287.210546 103.639179 
L 287.678184 103.539375 
L 288.457582 103.8175 
L 288.769341 104.2995 
L 289.236979 104.755223 
L 289.704618 105.654565 
L 290.795775 107.462964 
L 291.731052 110.566236 
L 292.822209 115.707105 
L 292.978088 116.071924 
L 293.133968 116.855846 
L 293.445727 119.439834 
L 293.757486 120.13417 
L 293.913365 120.953202 
L 294.225124 123.803929 
L 294.536883 124.108476 
L 294.692763 124.819078 
L 295.004522 127.264882 
L 295.316281 127.583976 
L 295.472161 128.309216 
L 295.78392 130.78305 
L 296.095679 131.158593 
L 296.251558 131.804302 
L 296.563317 133.907226 
L 296.875076 134.423156 
L 297.030956 135.082297 
L 297.342715 136.985926 
L 297.654474 137.055315 
L 297.810354 137.233429 
L 297.966233 137.827539 
L 298.589751 138.023193 
L 298.745631 137.668861 
L 299.213269 137.615472 
L 299.836787 138.16538 
L 300.304426 138.532529 
L 300.927944 139.058766 
L 301.239703 140.012224 
L 301.707342 140.472574 
L 301.863221 141.020129 
L 302.17498 141.103243 
L 302.486739 141.158341 
L 302.798498 141.368922 
L 303.266137 141.648622 
L 303.422017 141.551327 
L 304.513173 141.97404 
L 304.824932 141.905821 
L 305.136691 142.059896 
L 305.60433 141.894802 
L 305.76021 142.071954 
L 305.916089 142.079029 
L 306.851366 141.532561 
L 307.163125 141.445957 
L 307.474884 141.191976 
L 307.942523 141.17346 
L 308.098402 140.970533 
L 308.721921 141.184046 
L 309.03368 141.401829 
L 309.345439 141.283039 
L 309.501318 141.173007 
L 309.968957 140.42273 
L 310.280716 139.994066 
L 310.592475 139.040405 
L 311.060113 138.384707 
L 312.618909 135.685965 
L 313.086547 134.806845 
L 313.398306 134.201749 
L 313.710065 133.143591 
L 314.021825 132.626501 
L 314.177704 132.143303 
L 314.489463 130.795593 
L 314.801222 130.350659 
L 314.957102 129.855749 
L 315.268861 128.166338 
L 315.58062 127.728137 
L 315.736499 127.172738 
L 316.048258 125.810187 
L 316.360017 125.716593 
L 316.515897 125.401179 
L 316.827656 124.363362 
L 317.295295 124.080426 
L 317.607054 123.311145 
L 317.918813 123.044084 
L 318.074692 122.694113 
L 318.386451 121.73096 
L 318.85409 121.07544 
L 319.165849 120.289068 
L 319.633488 119.861265 
L 319.945247 119.303603 
L 320.257006 119.194277 
L 320.880524 118.501191 
L 321.192283 118.23884 
L 321.504042 117.72059 
L 322.439319 117.254315 
L 322.751078 117.149749 
L 323.062837 116.452314 
L 323.374596 116.244341 
L 323.530476 115.993479 
L 323.842235 115.161516 
L 324.153994 114.818283 
L 324.777512 113.594667 
L 325.245151 112.870601 
L 326.648066 110.883378 
L 326.959825 110.154597 
L 327.271584 109.9084 
L 327.427464 109.621808 
L 327.739223 108.759899 
L 328.050982 108.529452 
L 328.206862 108.282395 
L 328.518621 107.53784 
L 328.83038 107.411186 
L 328.986259 107.137447 
L 329.298018 106.108635 
L 329.609777 105.947832 
L 329.765657 105.696434 
L 330.077416 104.93124 
L 330.545055 104.373417 
L 330.856814 103.716666 
L 331.324452 103.280143 
L 331.636211 102.72756 
L 332.10385 102.397409 
L 332.415609 101.888949 
L 332.883247 101.439323 
L 333.195007 100.881407 
L 333.662645 100.445393 
L 333.974404 99.794198 
L 334.442043 99.152075 
L 334.753802 98.461586 
L 335.22144 98.159212 
L 335.533199 97.532194 
L 335.844959 97.453554 
L 336.000838 97.277393 
L 336.312597 96.580766 
L 336.780236 96.177559 
L 337.091995 95.655414 
L 337.559633 95.39622 
L 337.871392 94.939058 
L 338.339031 94.711991 
L 338.65079 94.328222 
L 339.118429 94.289682 
L 339.430188 94.190844 
L 339.897826 94.171976 
L 340.209585 93.977553 
L 341.144863 94.105763 
L 341.612501 93.822206 
L 342.703658 92.861187 
L 343.794814 92.565493 
L 343.950694 92.575413 
L 344.418333 92.380365 
L 344.730092 92.454628 
L 345.19773 92.416562 
L 345.35361 92.469613 
L 345.665369 92.367873 
L 346.133007 92.433249 
L 346.444766 92.301936 
L 346.912405 92.374289 
L 347.224164 92.12927 
L 348.4712 92.31478 
L 348.782959 92.431689 
L 349.718237 92.152391 
L 350.341755 91.724021 
L 351.588791 90.680375 
L 353.147586 88.116853 
L 353.459345 87.256316 
L 353.926984 86.649984 
L 354.238743 85.825927 
L 354.550502 85.393154 
L 354.706381 84.971125 
L 355.018141 83.808132 
L 355.3299 83.452645 
L 355.485779 83.149922 
L 355.797538 82.235664 
L 356.265177 82.02326 
L 356.576936 81.465645 
L 357.044574 81.114308 
L 357.356333 80.519157 
L 357.823972 80.474456 
L 358.135731 80.053715 
L 358.44749 80.064614 
L 358.60337 79.929879 
L 358.915129 79.497435 
L 359.382767 79.276918 
L 359.694526 79.025236 
L 360.006285 79.102656 
L 360.629804 78.761506 
L 361.565081 78.296272 
L 362.344478 78.466024 
L 362.656237 78.582306 
L 363.123876 78.486734 
L 363.591515 78.506568 
L 364.059153 78.573779 
L 364.370912 78.413573 
L 364.838551 78.342453 
L 365.15031 78.132144 
L 366.397346 78.038139 
L 366.709105 77.809977 
L 367.332623 78.112977 
L 367.644382 78.259889 
L 367.956141 78.409137 
L 368.2679 78.868953 
L 369.359057 79.236429 
L 369.670816 79.171347 
L 369.982575 79.128479 
L 370.606093 78.833889 
L 371.073732 78.473535 
L 372.320768 77.208127 
L 373.411925 76.299323 
L 373.879564 75.514008 
L 374.035443 75.344973 
L 375.594238 72.183862 
L 375.750118 71.90176 
L 376.061877 70.997781 
L 376.373636 70.756469 
L 376.529515 70.481494 
L 376.841275 69.637696 
L 377.308913 69.256848 
L 377.620672 68.702377 
L 377.932431 68.673039 
L 378.088311 68.565913 
L 378.40007 68.217688 
L 378.867708 68.009321 
L 379.179467 67.552638 
L 379.491227 67.460933 
L 380.114745 66.804424 
L 380.426504 66.653714 
L 380.738263 66.425398 
L 381.829419 66.088823 
L 382.141179 65.872044 
L 382.452938 65.720221 
L 382.764697 65.609215 
L 383.388215 65.301917 
L 383.699974 65.091966 
L 384.94701 63.946063 
L 385.10289 63.889714 
L 385.414649 63.546633 
L 385.882287 63.336566 
L 386.194046 62.989282 
L 386.661685 62.7739 
L 386.973444 62.376037 
L 387.441082 62.052199 
L 387.752842 61.586702 
L 388.22048 61.294845 
L 388.532239 60.984325 
L 388.999878 60.885926 
L 389.311637 60.504165 
L 389.623396 60.417502 
L 390.246914 59.993997 
L 390.558673 59.961091 
L 390.870432 59.899391 
L 391.338071 60.097111 
L 391.64983 59.947165 
L 391.961589 59.995156 
L 392.740986 59.805434 
L 393.364505 59.833508 
L 393.676264 59.942209 
L 393.988023 60.212534 
L 394.455661 60.436811 
L 394.76742 60.735761 
L 395.235059 60.711912 
L 395.702698 60.609302 
L 396.014457 60.612072 
L 396.326216 60.770482 
L 396.793854 60.767579 
L 397.105613 60.863759 
L 398.19677 60.847747 
L 398.976168 61.018816 
L 399.599686 61.154314 
L 400.379083 61.15184 
L 400.846722 61.179159 
L 401.158481 61.217967 
L 402.093758 61.681828 
L 402.717276 62.034129 
L 403.029035 62.049255 
L 403.340794 62.160576 
L 403.808433 61.956985 
L 403.964313 62.024155 
L 404.431951 61.794729 
L 405.055469 61.151881 
L 405.367228 60.730675 
L 405.834867 59.930243 
L 407.705421 57.994011 
L 408.01718 57.283325 
L 408.484819 57.058642 
L 408.796578 56.45061 
L 409.108337 56.405251 
L 409.264216 56.213554 
L 409.575976 55.546726 
L 410.043614 55.371355 
L 410.355373 55.039654 
L 410.823012 54.907166 
L 411.134771 54.577259 
L 411.602409 54.403896 
L 412.381807 54.042766 
L 412.693566 54.073519 
L 413.005325 54.000828 
L 413.784723 54.162795 
L 414.096482 53.936986 
L 414.72 53.568 
L 414.72 53.568 
" clip-path="url(#pa9ee3e58b6)" style="fill: none; stroke: #000000; stroke-width: 1.5; stroke-linecap: square"/>
   </g>
   <g id="line2d_56">
    <path d="M 57.6 229.541192 
L 57.75588 229.498213 
L 58.067639 228.64499 
L 58.223518 228.709979 
L 58.847036 227.823749 
L 59.158795 227.716342 
L 59.782313 228.910095 
L 60.094072 229.334164 
L 61.02935 230.881893 
L 61.964627 232.214608 
L 62.432265 232.675339 
L 63.055784 232.945733 
L 63.679302 233.229906 
L 64.14694 233.593887 
L 64.458699 233.894871 
L 64.770458 234.192722 
L 65.082217 235.081682 
L 65.549856 235.310251 
L 65.705735 235.870584 
L 66.017495 235.719304 
L 66.329254 235.549348 
L 66.485133 235.74418 
L 67.888049 235.358999 
L 68.199808 235.0301 
L 68.667447 234.98294 
L 68.823326 234.748298 
L 69.602724 234.512239 
L 70.226242 234.28072 
L 70.538001 233.933427 
L 71.005639 233.709957 
L 71.317399 233.200392 
L 71.629158 233.128628 
L 72.252676 232.532867 
L 72.564435 232.535716 
L 73.032073 232.883359 
L 73.967351 233.150059 
L 74.434989 233.18082 
L 74.902628 233.34259 
L 75.370266 233.370666 
L 75.993784 233.321586 
L 76.773182 233.177197 
L 77.708459 233.112732 
L 79.579014 232.242106 
L 79.890773 231.871686 
L 80.358411 231.680043 
L 80.67017 231.314667 
L 81.137809 231.20077 
L 81.449568 230.845652 
L 81.761327 230.900892 
L 82.384845 230.59144 
L 82.852484 230.607639 
L 83.631881 230.431473 
L 84.255399 230.327993 
L 84.567158 230.294502 
L 85.034797 230.046192 
L 85.346556 229.996039 
L 86.281833 229.619231 
L 87.840629 228.342646 
L 88.152388 228.136862 
L 88.464147 227.585855 
L 88.931785 227.300608 
L 89.243544 226.757693 
L 89.711183 226.466466 
L 90.022942 225.965152 
L 90.490581 225.889089 
L 90.80234 225.623253 
L 92.828773 226.802977 
L 93.296412 227.447473 
L 93.608171 227.760603 
L 93.91993 228.175457 
L 94.387569 228.505869 
L 94.699328 228.911176 
L 95.166966 229.166483 
L 95.478725 229.650481 
L 95.946364 229.750007 
L 96.258123 230.234415 
L 96.569882 230.140857 
L 96.725762 230.244896 
L 96.881641 230.647243 
L 98.284557 230.283792 
L 99.375714 229.492076 
L 99.843352 229.255242 
L 100.155111 228.788383 
L 100.62275 228.526365 
L 100.934509 228.039499 
L 101.402148 227.896751 
L 101.713907 227.586516 
L 102.181545 227.596368 
L 102.493304 227.455829 
L 104.831497 227.875954 
L 105.299136 228.066254 
L 105.610895 228.392021 
L 106.234413 228.884842 
L 107.013811 229.732578 
L 107.32557 230.076141 
L 107.481449 230.138883 
L 108.104967 230.863347 
L 108.416726 230.996905 
L 108.728485 231.252857 
L 109.196124 231.365701 
L 109.507883 231.64374 
L 109.975522 231.758378 
L 110.287281 232.016544 
L 111.222558 231.951569 
L 111.534317 231.934325 
L 111.846076 232.025787 
L 114.651907 231.226888 
L 114.963667 231.055209 
L 115.743064 230.904953 
L 116.210703 230.781755 
L 116.678341 230.438351 
L 116.9901 230.209977 
L 117.301859 229.934187 
L 120.107691 228.181432 
L 120.41945 227.777774 
L 120.887089 227.512527 
L 121.198848 227.120505 
L 121.666486 226.927626 
L 121.978245 226.509232 
L 122.445884 226.493095 
L 122.757643 226.27213 
L 124.784077 226.743859 
L 125.095836 226.935885 
L 126.342872 227.153268 
L 126.96639 227.233477 
L 127.12227 227.251664 
L 127.434029 227.458466 
L 127.901667 227.547184 
L 128.213426 227.775123 
L 129.460463 227.574293 
L 131.019258 227.073166 
L 132.578053 226.616485 
L 133.045692 226.252045 
L 133.357451 226.023543 
L 133.66921 225.634768 
L 134.136849 225.332358 
L 134.448608 224.970502 
L 134.916246 224.751206 
L 135.228005 224.429362 
L 135.851523 224.023701 
L 137.566198 222.887556 
L 138.033837 222.731217 
L 138.345596 222.37556 
L 138.813234 222.295646 
L 139.124993 222.076823 
L 140.683789 222.274405 
L 144.269018 223.40493 
L 144.580777 223.649833 
L 145.048416 223.823099 
L 145.360175 224.064207 
L 145.827813 224.226873 
L 146.139572 224.449435 
L 146.607211 224.585326 
L 146.91897 224.809986 
L 147.386608 225.02083 
L 147.854247 225.326098 
L 148.321886 225.625811 
L 149.257163 226.327112 
L 149.724801 226.407057 
L 150.03656 226.620328 
L 150.504199 226.699714 
L 150.815958 226.920199 
L 152.374753 227.089696 
L 152.842392 227.04878 
L 153.154151 227.150018 
L 153.933549 226.985586 
L 154.401187 226.771855 
L 154.712946 226.4969 
L 155.180585 226.288414 
L 155.492344 225.95679 
L 157.986416 225.411334 
L 158.298175 225.405929 
L 158.609935 225.312541 
L 160.16873 225.368568 
L 162.039284 225.268589 
L 162.506923 225.255294 
L 166.092152 222.870495 
L 166.403911 222.456242 
L 166.87155 222.365034 
L 167.183309 222.175231 
L 167.806827 222.142008 
L 168.118586 222.191927 
L 168.430345 222.277734 
L 168.742104 222.196383 
L 169.521502 222.567431 
L 169.98914 222.880997 
L 170.300899 223.249962 
L 170.924417 223.778129 
L 171.392056 224.000571 
L 172.639092 224.939503 
L 173.106731 224.8524 
L 173.26261 224.990754 
L 173.574369 224.881344 
L 173.886128 224.759031 
L 174.042008 224.792949 
L 174.665526 224.337952 
L 175.444924 223.652647 
L 175.912562 223.291614 
L 176.224321 223.06099 
L 176.53608 222.554661 
L 177.003719 222.246544 
L 177.315478 221.706364 
L 177.783117 221.558699 
L 178.094876 221.106789 
L 178.562514 221.064601 
L 178.718394 220.745744 
L 179.030153 220.736111 
L 179.341912 220.757333 
L 179.653671 220.641384 
L 181.680105 220.916985 
L 181.991864 221.162617 
L 182.771261 221.278596 
L 183.2389 221.204631 
L 183.550659 221.349483 
L 186.200611 221.292101 
L 186.824129 221.207046 
L 187.915286 221.124655 
L 188.382924 220.976328 
L 188.694684 220.946932 
L 188.850563 220.831371 
L 189.78584 220.994694 
L 191.344636 220.716836 
L 191.812274 220.704397 
L 192.124033 220.601339 
L 192.435792 220.602597 
L 193.371069 221.572973 
L 196.176901 225.434997 
L 196.48866 225.814316 
L 196.800419 226.716646 
L 197.268058 227.284289 
L 197.579817 228.262257 
L 198.047455 228.749058 
L 198.359214 229.703831 
L 198.670973 229.742163 
L 198.826853 230.008761 
L 198.982732 230.756462 
L 199.294491 230.813633 
L 199.606251 230.831644 
L 199.91801 230.888203 
L 200.385648 230.840296 
L 200.697407 230.908443 
L 202.100323 230.948943 
L 202.723841 230.731242 
L 203.503239 230.314135 
L 203.814998 229.911524 
L 204.282636 229.606369 
L 204.594395 229.092448 
L 205.062034 228.752273 
L 205.373793 228.250899 
L 205.841432 227.849856 
L 206.153191 227.418259 
L 206.620829 227.105069 
L 206.932588 226.724462 
L 207.400227 226.473277 
L 207.711986 225.837275 
L 208.023745 225.680936 
L 208.803143 224.600332 
L 208.959022 224.451031 
L 209.270781 223.972639 
L 209.73842 223.587081 
L 210.050179 223.048562 
L 210.517818 222.636994 
L 210.829577 222.071394 
L 211.141336 221.910257 
L 211.297215 221.706173 
L 211.608974 221.161429 
L 212.076613 220.871247 
L 212.388372 220.466087 
L 212.85601 220.214406 
L 213.16777 219.771677 
L 213.635408 219.482368 
L 213.947167 218.933763 
L 214.414806 218.632206 
L 214.726565 218.151375 
L 215.194203 217.892615 
L 215.505962 217.442641 
L 215.973601 217.148154 
L 216.28536 216.80511 
L 216.752999 216.636007 
L 217.064758 216.377569 
L 217.532396 216.285455 
L 217.844155 216.022304 
L 218.311794 215.859454 
L 218.623553 215.624635 
L 219.091192 215.485468 
L 219.402951 215.226868 
L 219.870589 215.103003 
L 220.182348 214.908813 
L 220.649987 214.840336 
L 220.961746 214.694319 
L 221.273505 214.644973 
L 222.364662 214.126201 
L 224.391096 213.622401 
L 226.26165 213.995688 
L 227.820445 215.024666 
L 228.132204 215.330306 
L 228.443963 215.600215 
L 228.755722 216.100404 
L 229.067481 216.145383 
L 229.223361 216.269236 
L 229.53512 216.718366 
L 230.002759 216.926167 
L 230.314518 217.388465 
L 230.782156 217.409327 
L 231.093915 217.575213 
L 231.561554 217.571598 
L 231.873313 217.708637 
L 232.340952 217.642194 
L 232.652711 217.776583 
L 233.276229 217.523716 
L 234.679144 216.218514 
L 234.990904 215.677796 
L 235.458542 215.337961 
L 235.770301 214.956522 
L 236.23794 214.747932 
L 236.549699 214.284567 
L 237.017337 214.032887 
L 237.329096 213.659347 
L 237.796735 213.58736 
L 238.108494 213.272688 
L 238.576133 213.160989 
L 238.887892 212.847038 
L 239.35553 212.832915 
L 239.51141 212.660366 
L 241.537844 213.065655 
L 242.161362 213.197449 
L 242.629 213.123708 
L 243.252519 213.147077 
L 243.564278 213.355672 
L 244.967193 213.766521 
L 246.21423 214.456837 
L 246.837748 214.6662 
L 248.708302 215.205203 
L 249.020061 215.606744 
L 249.33182 215.641101 
L 249.799459 215.964477 
L 251.046495 215.757181 
L 251.202375 215.808185 
L 252.137652 215.250574 
L 253.072929 214.56099 
L 253.228808 214.440594 
L 254.008206 212.745498 
L 254.787604 211.086034 
L 255.722881 209.752978 
L 256.03464 208.954064 
L 256.502278 208.559547 
L 256.814038 207.977148 
L 257.281676 207.732119 
L 257.593435 207.162671 
L 257.905194 207.061243 
L 258.061074 206.862989 
L 258.372833 206.199182 
L 258.684592 206.102493 
L 258.840471 205.883994 
L 259.15223 205.270898 
L 259.46399 205.192665 
L 259.619869 204.966137 
L 259.775749 204.487759 
L 260.399267 204.223396 
L 260.711026 204.441316 
L 261.178664 204.479004 
L 261.490423 204.587979 
L 262.893339 204.715978 
L 263.516857 204.955288 
L 263.828616 204.95097 
L 264.452134 205.327128 
L 265.231532 206.631789 
L 265.699171 207.308398 
L 265.85505 207.557473 
L 266.166809 208.376509 
L 266.478568 208.733419 
L 266.634448 209.109154 
L 266.946207 210.228061 
L 267.257966 210.515881 
L 267.413845 210.880868 
L 267.725605 211.976023 
L 268.037364 212.213846 
L 268.193243 212.513493 
L 268.505002 213.371864 
L 268.816761 213.478862 
L 268.972641 213.770799 
L 269.2844 214.552454 
L 269.596159 214.581348 
L 269.752038 214.756094 
L 270.063797 215.405432 
L 270.375557 215.452428 
L 270.531436 215.676834 
L 270.687316 216.247592 
L 270.999075 216.251173 
L 272.090231 216.157391 
L 272.55787 216.160804 
L 272.869629 216.041063 
L 273.804906 215.279681 
L 274.116665 215.226042 
L 274.428424 215.09428 
L 274.740183 214.820462 
L 275.207822 214.74181 
L 276.143099 214.328071 
L 277.701894 214.543399 
L 278.481292 214.850433 
L 279.884208 215.072736 
L 280.195967 215.548229 
L 280.663605 215.663367 
L 281.287124 216.104677 
L 281.598883 216.517179 
L 282.222401 217.190631 
L 282.53416 217.874425 
L 282.845919 217.889929 
L 283.469437 218.492066 
L 283.781196 218.680093 
L 284.092955 219.066777 
L 284.560594 219.292897 
L 284.872353 219.579195 
L 285.495871 219.606986 
L 285.80763 219.597182 
L 286.119389 219.596115 
L 286.275268 219.864078 
L 286.587027 219.867554 
L 286.898787 219.835349 
L 287.210546 219.99624 
L 288.301702 219.698449 
L 288.457582 219.712845 
L 288.769341 219.493008 
L 289.0811 219.474645 
L 289.392859 219.354442 
L 289.548739 219.341755 
L 290.016377 219.552468 
L 290.328136 219.509195 
L 290.639895 219.56462 
L 291.107534 219.350405 
L 291.731052 219.432346 
L 292.822209 221.115929 
L 293.133968 221.405319 
L 294.381004 223.637063 
L 294.536883 223.764452 
L 295.62804 225.840485 
L 295.939799 226.438567 
L 296.095679 226.5867 
L 297.654474 230.234352 
L 297.810354 230.521667 
L 298.122113 232.042143 
L 298.433872 232.306851 
L 298.745631 232.913976 
L 299.213269 233.121716 
L 299.836787 234.479322 
L 299.992667 234.573089 
L 300.460306 235.570523 
L 300.927944 235.858049 
L 301.239703 236.693714 
L 301.707342 236.914274 
L 301.863221 237.330718 
L 302.486739 237.477599 
L 302.642619 237.729446 
L 303.266137 237.765719 
L 303.422017 237.508731 
L 303.889655 237.796323 
L 304.513173 238.645126 
L 305.292571 239.154763 
L 305.60433 239.260908 
L 305.916089 239.525572 
L 306.383728 239.496201 
L 306.695487 239.705327 
L 307.163125 239.90612 
L 308.098402 241.110843 
L 308.410162 241.618649 
L 308.721921 242.23259 
L 309.03368 243.158669 
L 309.345439 243.27638 
L 309.501318 243.484364 
L 309.813077 244.198303 
L 310.124836 244.271978 
L 310.436595 244.584722 
L 311.060113 244.319363 
L 311.215993 244.359374 
L 311.839511 243.881843 
L 312.15127 244.094052 
L 312.618909 243.772132 
L 312.774788 243.936282 
L 313.086547 243.806238 
L 313.398306 243.621499 
L 313.710065 243.554828 
L 314.021825 243.377008 
L 314.957102 241.675163 
L 315.268861 240.583525 
L 315.58062 240.441953 
L 316.204138 239.348851 
L 316.360017 239.270853 
L 316.515897 238.984631 
L 316.827656 238.148126 
L 317.295295 237.915157 
L 317.607054 237.439485 
L 317.918813 237.322569 
L 318.542331 236.441152 
L 318.85409 236.057231 
L 319.165849 235.540373 
L 319.633488 234.922388 
L 319.945247 234.160605 
L 320.412885 233.384919 
L 320.724644 232.617419 
L 321.192283 232.086321 
L 321.504042 231.412427 
L 321.97168 230.922215 
L 322.28344 230.178526 
L 322.595199 230.109285 
L 322.751078 229.909714 
L 323.062837 229.193464 
L 323.530476 228.716276 
L 323.842235 227.822201 
L 324.309873 227.316303 
L 324.621632 226.644393 
L 325.089271 226.455941 
L 325.40103 226.014061 
L 325.868669 225.91117 
L 326.024548 225.724403 
L 327.271584 225.734131 
L 328.6745 225.180171 
L 328.986259 225.066186 
L 329.298018 224.611511 
L 329.921536 224.294674 
L 330.545055 224.048738 
L 330.700934 224.118466 
L 331.792091 223.204509 
L 332.10385 223.111344 
L 332.415609 222.833778 
L 332.727368 222.750429 
L 332.883247 222.624209 
L 333.195007 222.186713 
L 333.506766 222.028665 
L 336.156718 218.720521 
L 338.183151 215.928078 
L 338.339031 215.753031 
L 338.65079 215.041312 
L 338.962549 214.854132 
L 339.118429 214.587453 
L 339.430188 213.844393 
L 339.741947 213.71611 
L 339.897826 213.511841 
L 340.209585 212.869312 
L 340.677224 212.585807 
L 340.988983 211.975512 
L 341.456622 211.711077 
L 341.768381 211.250385 
L 342.236019 211.031319 
L 342.547778 210.575732 
L 343.015417 210.441247 
L 343.327176 210.252368 
L 343.794814 210.145045 
L 344.262453 209.992008 
L 345.509489 210.189389 
L 346.912405 210.949818 
L 347.380044 211.190356 
L 347.691803 211.294308 
L 348.003562 211.636986 
L 348.4712 211.819365 
L 348.782959 212.148304 
L 349.250598 212.308827 
L 349.562357 212.643847 
L 350.029996 212.667571 
L 350.341755 212.929958 
L 350.809393 212.901653 
L 350.965273 213.108622 
L 351.588791 212.924419 
L 351.74467 212.965233 
L 352.05643 212.853976 
L 352.368189 212.793883 
L 352.679948 212.604115 
L 352.991707 212.53562 
L 355.3299 210.715993 
L 355.485779 210.645879 
L 355.797538 210.329321 
L 357.512213 210.510538 
L 358.135731 211.09573 
L 358.759249 211.816449 
L 359.694526 212.871902 
L 360.162165 213.452891 
L 360.473924 214.137839 
L 360.941563 214.525922 
L 361.253322 215.410294 
L 361.565081 215.643172 
L 361.72096 215.967625 
L 362.032719 217.071089 
L 362.500358 217.83461 
L 362.812117 218.755343 
L 363.123876 218.929937 
L 363.279756 219.170936 
L 363.591515 219.977592 
L 363.903274 219.978677 
L 364.059153 220.190401 
L 364.215033 220.641973 
L 364.526792 220.722858 
L 364.838551 220.711715 
L 365.15031 220.728044 
L 365.617948 220.637448 
L 365.773828 220.778209 
L 366.864985 220.690025 
L 367.176744 220.788328 
L 367.488503 221.13826 
L 367.956141 221.251758 
L 368.2679 221.375117 
L 368.735539 221.478824 
L 368.891419 221.247647 
L 369.203178 221.282016 
L 369.514937 221.267097 
L 369.826696 221.175097 
L 370.606093 221.360808 
L 371.229612 221.362 
L 371.85313 221.484526 
L 372.164889 221.750147 
L 372.632527 221.864909 
L 372.944286 222.151671 
L 374.035443 222.103509 
L 375.594238 221.363193 
L 377.308913 219.64809 
L 377.620672 219.510351 
L 378.088311 219.453689 
L 378.40007 219.266847 
L 378.867708 219.243424 
L 379.179467 219.011128 
L 379.491227 218.917912 
L 380.738263 217.654783 
L 381.205901 217.355511 
L 381.51766 216.924656 
L 381.985299 216.573935 
L 382.297058 216.298014 
L 383.699974 215.646328 
L 384.479371 215.006415 
L 384.791131 214.79614 
L 385.10289 214.636316 
L 385.414649 214.07597 
L 385.882287 213.851166 
L 386.194046 213.528266 
L 386.661685 213.504844 
L 386.973444 213.297728 
L 388.064601 213.456387 
L 388.532239 213.629436 
L 389.779275 214.202515 
L 390.246914 214.601073 
L 390.558673 214.819392 
L 391.026312 215.30396 
L 391.338071 215.590386 
L 391.64983 216.038135 
L 392.117468 216.280746 
L 392.429227 216.771392 
L 392.896866 216.974839 
L 393.208625 217.344936 
L 393.676264 217.44612 
L 393.988023 217.805807 
L 394.455661 217.942071 
L 394.76742 218.289477 
L 395.235059 218.38467 
L 395.546818 218.568338 
L 396.014457 218.50614 
L 396.326216 218.596808 
L 397.105613 218.562646 
L 398.508529 218.772476 
L 399.132047 218.972589 
L 399.911445 219.210464 
L 400.223204 219.500523 
L 402.249638 220.289833 
L 402.405517 220.526619 
L 402.717276 220.468724 
L 403.029035 220.365353 
L 403.340794 220.444358 
L 405.055469 219.297054 
L 405.367228 219.008156 
L 405.678987 218.510302 
L 406.146626 218.148934 
L 406.458385 217.713127 
L 406.926024 217.560375 
L 407.237783 217.217321 
L 407.549542 217.359772 
L 407.705421 217.303871 
L 408.01718 216.92798 
L 408.484819 217.05269 
L 408.796578 216.89364 
L 409.264216 217.018254 
L 409.887735 216.908189 
L 410.667132 217.00925 
L 411.29065 217.12109 
L 411.602409 217.027258 
L 411.914168 217.16279 
L 412.225928 217.202848 
L 412.381807 217.34486 
L 412.693566 217.741197 
L 413.005325 217.756283 
L 413.472964 218.07849 
L 413.940602 217.91035 
L 414.252361 217.592015 
L 414.72 217.345393 
L 414.72 217.345393 
" clip-path="url(#pa9ee3e58b6)" style="fill: none; stroke: #666666; stroke-width: 1.5; stroke-linecap: square"/>
   </g>
   <g id="line2d_57">
    <path d="M 57.6 209.87005 
L 57.75588 209.849346 
L 57.911759 209.347725 
L 58.223518 209.828649 
L 58.379398 209.759711 
L 59.626434 210.392943 
L 60.717591 211.638001 
L 64.30282 212.140625 
L 64.770458 212.12976 
L 65.082217 212.273349 
L 66.329254 212.106315 
L 67.42041 211.259465 
L 68.511567 210.999185 
L 68.667447 210.970423 
L 68.979206 210.700564 
L 69.446844 210.629197 
L 69.758603 210.441202 
L 70.226242 210.383789 
L 70.538001 210.21368 
L 71.005639 210.128028 
L 71.317399 210.032969 
L 71.785037 209.960948 
L 72.096796 209.7794 
L 73.811471 209.603849 
L 74.434989 209.380483 
L 74.902628 209.126352 
L 75.370266 208.670403 
L 75.682025 208.446821 
L 75.993784 208.094334 
L 76.461423 207.925953 
L 76.773182 207.670671 
L 77.240821 207.594628 
L 77.55258 207.428212 
L 78.020218 207.414954 
L 78.331977 207.260814 
L 78.799616 207.322835 
L 79.111375 207.244288 
L 79.579014 207.323738 
L 79.890773 207.28254 
L 81.293688 207.674474 
L 81.605447 207.772067 
L 81.917206 207.806667 
L 82.228966 208.034995 
L 82.696604 208.012606 
L 83.008363 208.113009 
L 83.476002 208.029951 
L 83.787761 208.045519 
L 84.723038 207.608554 
L 85.190677 207.266481 
L 86.281833 206.611545 
L 86.593592 206.526729 
L 86.905351 206.299956 
L 87.37299 206.240177 
L 87.684749 205.978254 
L 88.152388 205.860645 
L 88.464147 205.558542 
L 88.931785 205.442787 
L 89.399424 205.212352 
L 90.958219 204.808393 
L 92.049376 205.264584 
L 92.361135 205.438829 
L 94.855207 206.032068 
L 95.166966 206.061381 
L 95.478725 206.180625 
L 95.946364 206.098513 
L 96.102244 206.259069 
L 96.414003 206.169622 
L 96.725762 206.021181 
L 97.037521 205.917259 
L 98.284557 204.866836 
L 98.596316 204.302203 
L 99.063955 203.912113 
L 99.375714 203.408561 
L 99.843352 203.084442 
L 100.155111 202.440651 
L 100.62275 202.083521 
L 100.934509 201.475104 
L 101.246268 201.371044 
L 101.402148 201.219106 
L 101.713907 200.718949 
L 102.181545 200.597374 
L 102.493304 200.191468 
L 102.960943 199.929233 
L 103.272702 199.588623 
L 103.74034 199.410749 
L 104.0521 199.130697 
L 107.013811 198.130826 
L 107.481449 198.227921 
L 107.793208 198.194615 
L 108.572606 197.937029 
L 109.352003 197.72368 
L 110.131401 197.463267 
L 111.222558 197.254539 
L 111.846076 197.123243 
L 112.625474 196.958127 
L 113.87251 196.667658 
L 114.184269 196.309616 
L 114.651907 196.178149 
L 114.963667 195.945829 
L 115.431305 195.851757 
L 115.743064 195.654339 
L 116.522462 195.521953 
L 117.769498 195.042659 
L 118.237137 194.848335 
L 119.016534 194.602754 
L 119.328293 194.441946 
L 119.640052 194.2134 
L 120.107691 194.048986 
L 120.41945 193.734193 
L 120.887089 193.607102 
L 121.354727 193.382248 
L 121.666486 193.249182 
L 121.978245 192.979148 
L 124.004679 192.587712 
L 124.939956 192.418984 
L 126.342872 191.871148 
L 126.810511 191.647199 
L 127.278149 191.376414 
L 127.745788 191.104617 
L 129.304583 190.181574 
L 129.616342 189.770461 
L 129.928101 189.600499 
L 130.23986 189.447101 
L 130.551619 189.069307 
L 131.019258 188.900874 
L 131.331017 188.503161 
L 131.798656 188.354258 
L 132.110415 188.135766 
L 132.578053 187.972249 
L 132.889812 187.737406 
L 133.357451 187.585798 
L 133.66921 187.391617 
L 134.292728 187.154054 
L 135.383885 186.513756 
L 136.475041 186.369826 
L 136.786801 186.19135 
L 137.254439 186.128393 
L 137.566198 185.87316 
L 138.033837 185.694458 
L 138.345596 185.48608 
L 138.813234 185.375903 
L 139.124993 185.272611 
L 139.592632 185.31785 
L 139.904391 185.264403 
L 140.37203 185.224767 
L 140.839668 185.102443 
L 142.242584 185.017701 
L 142.710223 184.69347 
L 143.177861 184.19591 
L 143.6455 183.648315 
L 145.048416 181.710197 
L 145.360175 180.940133 
L 145.827813 180.14931 
L 146.139572 179.171451 
L 146.607211 178.652114 
L 146.91897 177.815043 
L 147.230729 177.624533 
L 147.386608 177.340438 
L 147.698368 176.465379 
L 148.010127 176.402884 
L 148.166006 176.211545 
L 148.477765 175.49976 
L 148.789524 175.487634 
L 148.945404 175.274185 
L 149.257163 174.706547 
L 149.724801 174.551885 
L 150.03656 174.142558 
L 150.504199 174.227487 
L 150.815958 174.137368 
L 151.127717 174.242112 
L 151.751235 174.335974 
L 152.062994 174.57788 
L 152.374753 174.987339 
L 152.842392 175.211252 
L 153.154151 175.483 
L 153.46591 175.614944 
L 154.712946 176.940152 
L 155.336464 177.17406 
L 155.648223 177.276265 
L 155.959983 177.348961 
L 156.271742 177.636503 
L 156.73938 177.638345 
L 156.89526 177.773839 
L 158.142296 177.330817 
L 158.454055 177.350087 
L 159.077573 177.231124 
L 160.01285 176.826677 
L 160.324609 176.622546 
L 160.636368 176.489022 
L 160.948127 176.082245 
L 161.415766 175.963008 
L 161.727525 175.652488 
L 162.195164 175.556193 
L 162.506923 175.340172 
L 163.130441 175.236609 
L 164.377477 175.113133 
L 164.845116 175.136556 
L 165.780393 175.058167 
L 167.650947 174.21861 
L 167.962706 173.863747 
L 169.677381 172.746707 
L 169.98914 172.784893 
L 170.300899 172.800169 
L 170.768538 172.96159 
L 170.924417 172.827962 
L 171.392056 173.111368 
L 171.703815 173.15952 
L 172.015574 173.295689 
L 172.639092 173.630892 
L 173.730249 174.211561 
L 174.042008 174.595805 
L 174.353767 174.808383 
L 174.665526 174.986609 
L 174.821405 175.39453 
L 174.977285 175.489424 
L 175.289044 175.414625 
L 175.444924 175.512701 
L 175.756683 176.077732 
L 176.224321 176.105327 
L 176.53608 176.151956 
L 177.627237 175.990961 
L 177.783117 176.00306 
L 178.094876 175.796056 
L 178.562514 175.813516 
L 178.874273 175.695355 
L 179.341912 175.775464 
L 180.121309 175.656104 
L 180.588948 175.418707 
L 180.900707 175.286939 
L 181.212466 175.035281 
L 182.147743 174.856692 
L 182.459502 174.772809 
L 182.927141 174.487399 
L 183.862418 174.22331 
L 184.797695 174.03821 
L 185.109454 173.758607 
L 185.577093 173.6578 
L 185.888852 173.285973 
L 186.200611 173.264602 
L 186.66825 172.984267 
L 187.603527 172.977636 
L 188.538804 172.924522 
L 190.876997 172.723477 
L 191.500515 172.435929 
L 191.968154 172.131391 
L 193.05931 171.645539 
L 193.371069 171.522292 
L 193.682828 171.201833 
L 194.618106 170.994129 
L 194.929865 171.042025 
L 195.241624 170.98676 
L 195.709262 171.03286 
L 196.021021 170.963687 
L 197.423937 171.264837 
L 199.294491 172.524968 
L 199.606251 172.524366 
L 199.91801 172.739016 
L 200.385648 172.631596 
L 200.541528 172.797764 
L 201.165046 172.523605 
L 202.256203 171.88746 
L 203.347359 170.886898 
L 203.659118 170.344036 
L 204.750275 168.740789 
L 204.906155 168.657665 
L 205.062034 168.402186 
L 205.373793 167.544656 
L 205.685552 167.347791 
L 206.30907 166.454289 
L 206.620829 166.305041 
L 206.932588 165.866472 
L 207.400227 165.778859 
L 207.556107 165.594289 
L 208.335504 165.492387 
L 208.491384 165.452857 
L 208.959022 165.591572 
L 209.270781 165.545212 
L 210.517818 165.719844 
L 210.829577 165.896737 
L 211.608974 165.915333 
L 212.076613 165.831795 
L 212.388372 165.9702 
L 213.01189 165.767917 
L 213.947167 165.238852 
L 214.414806 164.779551 
L 214.726565 164.210626 
L 215.194203 163.87741 
L 215.505962 163.335152 
L 215.973601 163.067727 
L 216.28536 162.657155 
L 216.752999 162.23146 
L 217.064758 161.577574 
L 217.532396 161.24667 
L 217.844155 160.697986 
L 218.311794 160.362935 
L 218.623553 159.919691 
L 219.091192 159.73701 
L 219.402951 159.406406 
L 219.870589 159.199934 
L 220.182348 158.847349 
L 222.520541 159.07755 
L 223.144059 159.158957 
L 223.923457 159.356963 
L 224.546975 159.325132 
L 224.858734 159.510131 
L 225.326373 159.458977 
L 225.638132 159.546176 
L 226.10577 159.513007 
L 226.573409 159.752913 
L 227.820445 160.064983 
L 228.599843 160.207152 
L 229.067481 160.211127 
L 230.782156 159.762499 
L 231.093915 159.734691 
L 232.80859 159.054822 
L 233.120349 158.85626 
L 233.432108 158.388505 
L 233.899747 158.025295 
L 234.211506 157.486312 
L 234.679144 157.154562 
L 234.990904 156.489949 
L 235.302663 156.347459 
L 235.926181 155.516316 
L 236.23794 155.311165 
L 236.549699 154.89887 
L 237.017337 154.619267 
L 237.329096 154.232558 
L 237.796735 154.050321 
L 238.108494 153.715422 
L 238.420253 153.620083 
L 238.576133 153.48334 
L 238.887892 153.08123 
L 239.35553 152.971035 
L 239.667289 152.785128 
L 240.134928 152.669854 
L 240.446687 152.388943 
L 240.914326 152.216791 
L 241.226085 151.909958 
L 241.537844 151.753946 
L 243.096639 150.364628 
L 245.123073 150.016573 
L 245.590711 150.2015 
L 245.902471 150.116946 
L 246.370109 150.129394 
L 246.525989 149.979732 
L 247.461266 149.924238 
L 247.928904 149.907298 
L 248.240663 150.044081 
L 248.708302 149.985962 
L 248.864182 150.154606 
L 249.175941 150.048373 
L 249.4877 149.962702 
L 249.643579 150.077474 
L 251.825893 148.412871 
L 252.137652 147.819235 
L 252.60529 147.52599 
L 252.917049 147.119782 
L 253.384688 146.962618 
L 253.696447 146.54472 
L 254.319965 146.411909 
L 254.475845 146.338884 
L 254.787604 146.421921 
L 255.255242 146.341645 
L 257.749315 147.430219 
L 258.061074 147.38122 
L 258.372833 147.529261 
L 258.840471 147.486031 
L 258.996351 147.726836 
L 259.46399 147.646533 
L 261.958062 146.839111 
L 262.269821 146.557879 
L 262.73746 146.710222 
L 262.893339 146.643827 
L 263.516857 146.937996 
L 263.828616 146.962166 
L 264.919773 147.605148 
L 265.543291 148.12379 
L 265.85505 148.227213 
L 266.166809 148.534382 
L 266.478568 148.53195 
L 266.634448 148.627828 
L 266.946207 148.990343 
L 267.257966 148.907611 
L 267.413845 149.007012 
L 267.725605 149.399293 
L 268.037364 149.410241 
L 268.193243 149.543456 
L 268.349123 149.840086 
L 268.660882 149.886615 
L 268.972641 149.934557 
L 269.440279 149.917001 
L 269.752038 149.919878 
L 270.063797 149.790565 
L 271.154954 149.639038 
L 271.310834 149.580281 
L 271.622593 149.180095 
L 272.246111 148.865551 
L 274.272545 147.809993 
L 274.584304 147.648152 
L 274.896063 147.526557 
L 275.207822 147.40619 
L 275.519581 147.208982 
L 275.83134 147.158618 
L 275.98722 147.04654 
L 276.298979 146.628569 
L 276.766617 146.450459 
L 277.078376 146.142172 
L 277.546015 146.093148 
L 277.701894 145.990338 
L 278.481292 146.115694 
L 279.10481 146.21892 
L 279.572449 146.445471 
L 279.884208 146.647949 
L 280.195967 146.933759 
L 280.663605 147.091213 
L 280.975364 147.217034 
L 282.066521 147.469081 
L 282.37828 147.664374 
L 284.092955 149.515555 
L 284.404714 149.619736 
L 285.339991 150.515666 
L 285.65175 150.989854 
L 286.119389 151.341107 
L 286.431148 151.787876 
L 286.898787 151.98818 
L 287.210546 152.402864 
L 287.678184 152.547099 
L 287.989943 153.10245 
L 288.301702 153.21299 
L 289.392859 154.41289 
L 289.860498 154.567546 
L 291.575172 155.029691 
L 292.042811 155.085212 
L 293.913365 157.097678 
L 294.069245 157.581808 
L 294.381004 157.677469 
L 294.536883 157.666559 
L 295.004522 157.904075 
L 295.472161 158.035884 
L 296.251558 158.185529 
L 296.563317 158.397349 
L 296.875076 158.479695 
L 297.030956 158.52903 
L 297.342715 158.772717 
L 297.810354 158.34157 
L 297.966233 158.571119 
L 298.122113 158.568796 
L 298.433872 158.393808 
L 298.589751 158.399034 
L 298.745631 158.279117 
L 299.05739 157.839679 
L 299.369149 157.580032 
L 299.680908 156.795157 
L 299.992667 156.652134 
L 300.148546 156.643737 
L 300.460306 156.135132 
L 300.772065 156.140867 
L 301.083824 155.798721 
L 301.707342 155.447129 
L 302.019101 155.040946 
L 302.486739 154.930145 
L 302.798498 154.582687 
L 303.110258 154.654591 
L 303.266137 154.571131 
L 303.422017 154.281525 
L 304.045535 154.270911 
L 304.357294 154.379184 
L 305.76021 154.305532 
L 306.851366 154.919141 
L 307.942523 155.562872 
L 308.410162 156.437014 
L 308.721921 156.991139 
L 309.03368 157.626078 
L 310.280716 158.903876 
L 310.592475 159.424609 
L 311.060113 159.61629 
L 311.371873 160.239056 
L 311.839511 160.387234 
L 312.15127 161.109087 
L 312.463029 161.117016 
L 312.618909 161.307805 
L 312.930668 161.851633 
L 313.242427 161.890622 
L 314.021825 162.543653 
L 314.177704 162.598787 
L 314.333584 162.878531 
L 314.801222 162.896861 
L 314.957102 162.833884 
L 315.268861 162.518585 
L 315.58062 162.487709 
L 316.204138 162.119553 
L 317.295295 161.898928 
L 317.607054 161.980638 
L 318.230572 161.894678 
L 319.165849 161.43503 
L 320.412885 160.612001 
L 320.724644 160.290746 
L 321.036403 160.328475 
L 321.192283 160.263346 
L 321.504042 160.013053 
L 322.439319 160.095059 
L 323.218717 160.441704 
L 323.842235 160.47288 
L 324.309873 160.370203 
L 324.621632 160.205633 
L 325.089271 160.199322 
L 325.40103 160.388817 
L 325.868669 160.466848 
L 326.180428 160.82236 
L 326.648066 160.911738 
L 326.959825 161.179162 
L 327.427464 161.164762 
L 328.206862 160.974632 
L 328.986259 160.980086 
L 329.298018 160.659936 
L 329.765657 160.515749 
L 330.077416 160.342045 
L 330.856814 160.374673 
L 331.324452 160.471216 
L 331.636211 160.57605 
L 332.10385 160.705275 
L 332.571488 160.786494 
L 333.195007 160.684863 
L 333.662645 160.43025 
L 333.974404 160.167458 
L 336.468477 159.158461 
L 336.780236 159.077434 
L 337.247874 158.732347 
L 337.559633 158.563286 
L 337.871392 158.172234 
L 338.339031 157.883817 
L 338.65079 157.378955 
L 339.118429 157.144717 
L 339.430188 156.777318 
L 339.897826 156.751034 
L 340.053706 156.695365 
L 340.833103 157.144801 
L 342.236019 157.886408 
L 342.859537 158.04048 
L 343.794814 158.403456 
L 344.106574 158.766572 
L 344.418333 158.909958 
L 344.574212 159.096546 
L 344.885971 159.724788 
L 345.19773 159.909886 
L 345.35361 160.120059 
L 345.665369 160.722928 
L 345.977128 160.848908 
L 346.756526 161.626917 
L 347.380044 161.888789 
L 347.847682 162.059784 
L 348.938839 162.460427 
L 349.250598 162.527941 
L 349.562357 162.767063 
L 350.029996 162.783506 
L 350.341755 163.036797 
L 350.809393 163.004572 
L 351.121152 163.065452 
L 351.74467 162.932527 
L 352.679948 162.623047 
L 353.147586 162.475452 
L 353.615225 162.215435 
L 354.082863 162.03585 
L 355.797538 161.327292 
L 357.044574 161.688013 
L 357.668093 162.053754 
L 358.759249 162.989297 
L 359.071008 163.259559 
L 359.382767 163.508168 
L 359.694526 163.949467 
L 360.162165 164.232315 
L 360.473924 164.674413 
L 360.941563 164.820889 
L 361.253322 165.319074 
L 361.565081 165.421792 
L 361.72096 165.635054 
L 362.032719 166.354225 
L 362.344478 166.578026 
L 362.967997 167.386795 
L 363.279756 167.568432 
L 363.591515 167.999273 
L 364.059153 168.16337 
L 364.370912 168.379299 
L 364.99443 168.452111 
L 365.929708 168.347022 
L 366.553226 168.169804 
L 367.176744 168.159354 
L 367.488503 168.377561 
L 367.800262 168.362831 
L 368.2679 168.532727 
L 368.735539 168.51779 
L 369.047298 168.257976 
L 369.514937 168.07155 
L 369.826696 167.843498 
L 370.294334 167.737784 
L 370.761973 167.531578 
L 371.073732 167.451824 
L 371.385491 167.232903 
L 373.100166 166.929876 
L 374.035443 166.413491 
L 374.97072 165.5961 
L 375.282479 165.112129 
L 375.750118 164.806139 
L 376.061877 164.386368 
L 376.529515 163.973435 
L 376.841275 163.398248 
L 377.308913 162.861361 
L 377.620672 162.273593 
L 377.932431 162.090279 
L 378.088311 161.893603 
L 378.40007 161.321104 
L 378.867708 161.010931 
L 379.179467 160.453052 
L 379.647106 160.094213 
L 379.958865 159.578807 
L 380.426504 159.270658 
L 380.738263 158.785856 
L 381.205901 158.547163 
L 381.51766 158.098639 
L 381.985299 157.83401 
L 382.297058 157.349766 
L 382.764697 157.124046 
L 383.076456 156.756819 
L 383.699974 156.412868 
L 384.323492 156.003916 
L 384.635251 155.555721 
L 385.10289 155.201621 
L 385.414649 154.691529 
L 385.882287 154.3019 
L 386.194046 153.724193 
L 386.661685 153.207086 
L 386.973444 152.610533 
L 387.441082 152.175788 
L 387.752842 151.532039 
L 388.22048 151.089226 
L 388.532239 150.432173 
L 388.999878 149.950988 
L 389.311637 149.270033 
L 389.779275 148.916375 
L 390.091034 148.340577 
L 390.558673 148.179656 
L 390.870432 147.784767 
L 391.182191 147.861313 
L 391.338071 147.804256 
L 391.64983 147.484232 
L 392.117468 147.403341 
L 392.429227 147.104404 
L 393.364505 146.889567 
L 394.455661 146.771066 
L 395.858577 146.596159 
L 396.482095 146.542281 
L 397.573252 146.665829 
L 397.885011 146.546278 
L 398.976168 146.671128 
L 399.911445 146.815536 
L 400.379083 147.084943 
L 401.002601 147.315671 
L 402.093758 147.864184 
L 402.249638 148.014518 
L 402.561397 148.500756 
L 403.029035 148.586279 
L 403.340794 148.733655 
L 405.211349 148.462487 
L 405.678987 148.328986 
L 405.990746 148.293344 
L 406.614265 148.541264 
L 407.393662 149.293223 
L 408.01718 149.711524 
L 408.328939 149.935606 
L 408.796578 150.334963 
L 409.264216 150.613327 
L 409.731855 150.999708 
L 410.043614 151.23405 
L 410.355373 151.769188 
L 410.667132 151.880876 
L 410.823012 152.067969 
L 411.134771 152.678893 
L 411.602409 152.885826 
L 411.914168 153.608515 
L 412.225928 153.736475 
L 412.381807 154.010861 
L 412.537687 154.575175 
L 412.849446 154.713644 
L 413.005325 154.691448 
L 413.628843 155.041024 
L 413.940602 154.938308 
L 414.252361 154.647771 
L 414.72 154.425635 
L 414.72 154.425635 
" clip-path="url(#pa9ee3e58b6)" style="fill: none; stroke: #999999; stroke-width: 1.5; stroke-linecap: square"/>
   </g>
   <g id="patch_3">
    <path d="M 57.6 307.584 
L 57.6 41.472 
" style="fill: none; stroke: #000000; stroke-width: 0.8; stroke-linejoin: miter; stroke-linecap: square"/>
   </g>
   <g id="patch_4">
    <path d="M 414.72 307.584 
L 414.72 41.472 
" style="fill: none; stroke: #000000; stroke-width: 0.8; stroke-linejoin: miter; stroke-linecap: square"/>
   </g>
   <g id="patch_5">
    <path d="M 57.6 307.584 
L 414.72 307.584 
" style="fill: none; stroke: #000000; stroke-width: 0.8; stroke-linejoin: miter; stroke-linecap: square"/>
   </g>
   <g id="patch_6">
    <path d="M 57.6 41.472 
L 414.72 41.472 
" style="fill: none; stroke: #000000; stroke-width: 0.8; stroke-linejoin: miter; stroke-linecap: square"/>
   </g>
   <g id="legend_1">
    <g id="patch_7">
     <path d="M 64.6 93.506375 
L 123.260937 93.506375 
Q 125.260937 93.506375 125.260937 91.506375 
L 125.260937 48.472 
Q 125.260937 46.472 123.260937 46.472 
L 64.6 46.472 
Q 62.6 46.472 62.6 48.472 
L 62.6 91.506375 
Q 62.6 93.506375 64.6 93.506375 
z
" style="fill: #ffffff; opacity: 0.8; stroke: #cccccc; stroke-linejoin: miter"/>
    </g>
    <g id="line2d_58">
     <path d="M 66.6 54.570438 
L 76.6 54.570438 
L 86.6 54.570438 
" style="fill: none; stroke: #000000; stroke-width: 1.5; stroke-linecap: square"/>
    </g>
    <g id="text_11">
     <!-- AAPL -->
     <g transform="translate(94.6 58.070438) scale(0.1 -0.1)">
      <defs>
       <path id="DejaVuSans-41" d="M 2188 4044 
L 1331 1722 
L 3047 1722 
L 2188 4044 
z
M 1831 4666 
L 2547 4666 
L 4325 0 
L 3669 0 
L 3244 1197 
L 1141 1197 
L 716 0 
L 50 0 
L 1831 4666 
z
" transform="scale(0.015625)"/>
       <path id="DejaVuSans-50" d="M 1259 4147 
L 1259 2394 
L 2053 2394 
Q 2494 2394 2734 2622 
Q 2975 2850 2975 3272 
Q 2975 3691 2734 3919 
Q 2494 4147 2053 4147 
L 1259 4147 
z
M 628 4666 
L 2053 4666 
Q 2838 4666 3239 4311 
Q 3641 3956 3641 3272 
Q 3641 2581 3239 2228 
Q 2838 1875 2053 1875 
L 1259 1875 
L 1259 0 
L 628 0 
L 628 4666 
z
" transform="scale(0.015625)"/>
       <path id="DejaVuSans-4c" d="M 628 4666 
L 1259 4666 
L 1259 531 
L 3531 531 
L 3531 0 
L 628 0 
L 628 4666 
z
" transform="scale(0.015625)"/>
      </defs>
      <use xlink:href="#DejaVuSans-41"/>
      <use xlink:href="#DejaVuSans-41" transform="translate(71.158203 0)"/>
      <use xlink:href="#DejaVuSans-50" transform="translate(139.566406 0)"/>
      <use xlink:href="#DejaVuSans-4c" transform="translate(199.869141 0)"/>
     </g>
    </g>
    <g id="line2d_59">
     <path d="M 66.6 69.248563 
L 76.6 69.248563 
L 86.6 69.248563 
" style="fill: none; stroke: #666666; stroke-width: 1.5; stroke-linecap: square"/>
    </g>
    <g id="text_12">
     <!-- MSFT -->
     <g transform="translate(94.6 72.748563) scale(0.1 -0.1)">
      <defs>
       <path id="DejaVuSans-4d" d="M 628 4666 
L 1569 4666 
L 2759 1491 
L 3956 4666 
L 4897 4666 
L 4897 0 
L 4281 0 
L 4281 4097 
L 3078 897 
L 2444 897 
L 1241 4097 
L 1241 0 
L 628 0 
L 628 4666 
z
" transform="scale(0.015625)"/>
       <path id="DejaVuSans-53" d="M 3425 4513 
L 3425 3897 
Q 3066 4069 2747 4153 
Q 2428 4238 2131 4238 
Q 1616 4238 1336 4038 
Q 1056 3838 1056 3469 
Q 1056 3159 1242 3001 
Q 1428 2844 1947 2747 
L 2328 2669 
Q 3034 2534 3370 2195 
Q 3706 1856 3706 1288 
Q 3706 609 3251 259 
Q 2797 -91 1919 -91 
Q 1588 -91 1214 -16 
Q 841 59 441 206 
L 441 856 
Q 825 641 1194 531 
Q 1563 422 1919 422 
Q 2459 422 2753 634 
Q 3047 847 3047 1241 
Q 3047 1584 2836 1778 
Q 2625 1972 2144 2069 
L 1759 2144 
Q 1053 2284 737 2584 
Q 422 2884 422 3419 
Q 422 4038 858 4394 
Q 1294 4750 2059 4750 
Q 2388 4750 2728 4690 
Q 3069 4631 3425 4513 
z
" transform="scale(0.015625)"/>
       <path id="DejaVuSans-46" d="M 628 4666 
L 3309 4666 
L 3309 4134 
L 1259 4134 
L 1259 2759 
L 3109 2759 
L 3109 2228 
L 1259 2228 
L 1259 0 
L 628 0 
L 628 4666 
z
" transform="scale(0.015625)"/>
       <path id="DejaVuSans-54" d="M -19 4666 
L 3928 4666 
L 3928 4134 
L 2272 4134 
L 2272 0 
L 1638 0 
L 1638 4134 
L -19 4134 
L -19 4666 
z
" transform="scale(0.015625)"/>
      </defs>
      <use xlink:href="#DejaVuSans-4d"/>
      <use xlink:href="#DejaVuSans-53" transform="translate(86.279297 0)"/>
      <use xlink:href="#DejaVuSans-46" transform="translate(149.755859 0)"/>
      <use xlink:href="#DejaVuSans-54" transform="translate(205.525391 0)"/>
     </g>
    </g>
    <g id="line2d_60">
     <path d="M 66.6 83.926688 
L 76.6 83.926688 
L 86.6 83.926688 
" style="fill: none; stroke: #999999; stroke-width: 1.5; stroke-linecap: square"/>
    </g>
    <g id="text_13">
     <!-- XOM -->
     <g transform="translate(94.6 87.426688) scale(0.1 -0.1)">
      <defs>
       <path id="DejaVuSans-58" d="M 403 4666 
L 1081 4666 
L 2241 2931 
L 3406 4666 
L 4084 4666 
L 2584 2425 
L 4184 0 
L 3506 0 
L 2194 1984 
L 872 0 
L 191 0 
L 1856 2491 
L 403 4666 
z
" transform="scale(0.015625)"/>
       <path id="DejaVuSans-4f" d="M 2522 4238 
Q 1834 4238 1429 3725 
Q 1025 3213 1025 2328 
Q 1025 1447 1429 934 
Q 1834 422 2522 422 
Q 3209 422 3611 934 
Q 4013 1447 4013 2328 
Q 4013 3213 3611 3725 
Q 3209 4238 2522 4238 
z
M 2522 4750 
Q 3503 4750 4090 4092 
Q 4678 3434 4678 2328 
Q 4678 1225 4090 567 
Q 3503 -91 2522 -91 
Q 1538 -91 948 565 
Q 359 1222 359 2328 
Q 359 3434 948 4092 
Q 1538 4750 2522 4750 
z
" transform="scale(0.015625)"/>
      </defs>
      <use xlink:href="#DejaVuSans-58"/>
      <use xlink:href="#DejaVuSans-4f" transform="translate(62.130859 0)"/>
      <use xlink:href="#DejaVuSans-4d" transform="translate(140.841797 0)"/>
     </g>
    </g>
   </g>
  </g>
 </g>
 <defs>
  <clipPath id="pa9ee3e58b6">
   <rect x="57.6" y="41.472" width="357.12" height="266.112"/>
  </clipPath>
 </defs>
</svg>
